<?xml version="1.0" encoding="UTF-8" standalone="no"?>
<!-- Created with Inkscape (http://www.inkscape.org/) -->

<svg
   xmlns:dc="http://purl.org/dc/elements/1.1/"
   xmlns:cc="http://creativecommons.org/ns#"
   xmlns:rdf="http://www.w3.org/1999/02/22-rdf-syntax-ns#"
   xmlns:svg="http://www.w3.org/2000/svg"
   xmlns="http://www.w3.org/2000/svg"
   xmlns:sodipodi="http://sodipodi.sourceforge.net/DTD/sodipodi-0.dtd"
   xmlns:inkscape="http://www.inkscape.org/namespaces/inkscape"
   width="1000"
   height="1000"
   viewBox="0 0 264.58333 264.58334"
   version="1.1"
   id="svg8"
   inkscape:version="0.92.4 (5da689c313, 2019-01-14)"
   sodipodi:docname="36T.svg">
  <defs
     id="defs2" />
  <sodipodi:namedview
     id="base"
     pagecolor="#000000"
     bordercolor="#666666"
     borderopacity="1.0"
     inkscape:pageopacity="0"
     inkscape:pageshadow="2"
     inkscape:zoom="1.4"
     inkscape:cx="892.61005"
     inkscape:cy="539.21073"
     inkscape:document-units="mm"
     inkscape:current-layer="layer1"
     showgrid="false"
     inkscape:pagecheckerboard="true"
     inkscape:window-width="3732"
     inkscape:window-height="2032"
     inkscape:window-x="108"
     inkscape:window-y="54"
     inkscape:window-maximized="1"
     units="px" />
  <metadata
     id="metadata5">
    <rdf:RDF>
      <cc:Work
         rdf:about="">
        <dc:format>image/svg+xml</dc:format>
        <dc:type
           rdf:resource="http://purl.org/dc/dcmitype/StillImage" />
        <dc:title></dc:title>
      </cc:Work>
    </rdf:RDF>
  </metadata>
  <g
     inkscape:label="Layer 1"
     inkscape:groupmode="layer"
     id="layer1"
     transform="translate(0,-32.41665)">
    <path
       style="fill:#ffffff;stroke-width:0.06771474"
       d="m 129.41845,295.89506 c -1.00906,-0.34395 -1.70609,-1.1385 -1.88214,-2.14547 -0.0358,-0.20482 -0.25537,-1.41528 -0.4879,-2.68989 l -0.42277,-2.31747 0.74306,-4.83117 0.74307,-4.83116 -1.39016,-0.11409 c -1.34306,-0.11022 -4.39659,-0.37642 -7.4845,-0.65243 -0.81935,-0.0732 -1.76698,-0.15356 -2.10583,-0.17848 l -0.61611,-0.0453 -0.0391,0.19555 c -0.0216,0.10757 -0.0457,0.82006 -0.0537,1.58332 -0.008,0.76325 -0.022,1.50962 -0.031,1.65859 -0.009,0.14897 -0.037,1.47451 -0.0624,2.94561 -0.0253,1.47111 -0.0586,2.84503 -0.0738,3.05319 -0.0199,0.27287 -0.25485,0.97888 -0.84214,2.53103 -0.44797,1.18394 -0.81448,2.17801 -0.81448,2.20909 0,0.19372 -0.31103,0.82434 -0.54804,1.11117 -0.56354,0.68204 -1.32478,1.04958 -2.17377,1.04958 -0.68318,0 -4.55958,-0.70254 -5.03396,-0.91236 -0.7255,-0.32084 -1.27282,-0.90411 -1.527,-1.62731 -0.12066,-0.3433 -0.13494,-0.62057 -0.16347,-3.1741 l -0.0313,-2.79794 1.57698,-4.64371 1.57698,-4.6437 -0.2409,-0.0624 c -0.13249,-0.0344 -2.65797,-0.71084 -5.61217,-1.50331 -2.954195,-0.7925 -5.393968,-1.41413 -5.421718,-1.38145 -0.02775,0.0327 -0.471173,2.1844 -0.985379,4.78156 l -0.934918,4.72208 -1.114787,1.88011 c -0.613136,1.03405 -1.206473,2.0602 -1.318527,2.28034 -0.426814,0.83851 -1.237528,1.45094 -2.090003,1.57884 -0.694849,0.10424 -1.138244,-2e-5 -3.179391,-0.74756 -1.061427,-0.38874 -2.082229,-0.77779 -2.268445,-0.86459 -0.447328,-0.20849 -1.035824,-0.81016 -1.286192,-1.31494 -0.321856,-0.64896 -0.288472,-1.27666 0.225876,-4.24739 l 0.418835,-2.41909 2.342659,-4.27388 c 1.288464,-2.35064 2.316474,-4.29649 2.284467,-4.32411 -0.03201,-0.0276 -0.789508,-0.38835 -1.683342,-0.80155 -0.893835,-0.41323 -1.899399,-0.87866 -2.234587,-1.03434 -0.335188,-0.15567 -0.792263,-0.36772 -1.015722,-0.47126 -0.223458,-0.10355 -0.711003,-0.33165 -1.083435,-0.50688 -3.012629,-1.41749 -4.445778,-2.06818 -4.492122,-2.03954 -0.02995,0.0184 -0.8417,2.05941 -1.803901,4.53534 l -1.749458,4.50168 -1.545759,1.81618 c -2.146625,2.5222 -2.105143,2.47731 -2.477066,2.67975 -1.020916,0.55564 -1.913817,0.50358 -3.133657,-0.18272 -3.327488,-1.87214 -3.83593,-2.23232 -4.194959,-2.97178 -0.357865,-0.73708 -0.394125,-1.65875 -0.09206,-2.33986 0.05968,-0.13456 0.462081,-1.23845 0.894244,-2.45311 l 0.785752,-2.20845 3.003102,-3.7455 c 1.651711,-2.06002 3.014545,-3.7782 3.028527,-3.81817 0.0208,-0.0595 -2.453595,-1.81558 -8.950599,-6.35247 l -0.556565,-0.38865 -2.52826,4.16717 -2.528263,4.16717 -1.624121,1.33263 c -0.893267,0.73296 -1.816353,1.50685 -2.051305,1.71978 -0.98561,0.89321 -2.183978,1.10065 -3.274242,0.5668 -0.384542,-0.1883 -3.401585,-2.65573 -3.877549,-3.17118 -0.866584,-0.93849 -0.954334,-2.40491 -0.211361,-3.53223 0.12405,-0.18824 0.711564,-1.20439 1.305587,-2.25817 l 1.080042,-1.91592 3.446182,-3.01673 c 1.895399,-1.65918 3.545008,-3.11316 3.665795,-3.23106 l 0.219612,-0.21433 -4.121463,-4.12107 -4.121464,-4.12103 -3.221544,3.67362 -3.221541,3.67363 -2.051956,1.15932 c -1.128575,0.63761 -2.144595,1.22529 -2.25782,1.30593 -0.547915,0.39026 -1.59734,0.53925 -2.309236,0.32785 -0.728961,-0.21648 -1.053108,-0.51013 -2.607506,-2.3622 -0.80235,-0.956 -1.541941,-1.90247 -1.643538,-2.10327 -0.261367,-0.51659 -0.357281,-1.14218 -0.261152,-1.70337 0.102228,-0.59679 0.352108,-1.08491 0.819333,-1.60049 0.212904,-0.23492 0.986932,-1.15799 1.72006,-2.05126 l 1.332963,-1.62412 4.167904,-2.52843 4.167905,-2.52844 -0.32199,-0.45803 c -0.177094,-0.25191 -1.677979,-2.39621 -3.335296,-4.76513 -1.657319,-2.3689 -3.029637,-4.30832 -3.049598,-4.30979 -0.01996,-0.002 -1.741607,1.36425 -3.825882,3.03495 l -3.789596,3.03767 -2.234585,0.79488 c -1.229023,0.43717 -2.386945,0.84982 -2.573161,0.91698 -0.976834,0.35232 -2.049654,0.12926 -2.813155,-0.58492 -0.347659,-0.32517 -0.679946,-0.85311 -2.082538,-3.30867 -0.82279,-1.44047 -0.952887,-1.95358 -0.721765,-2.84671 0.136061,-0.52579 0.463018,-1.06523 0.843569,-1.3918 0.167593,-0.14382 1.125247,-0.95862 2.12812,-1.81067 l 1.823404,-1.54916 4.523329,-1.75345 c 2.487831,-0.96438 4.524014,-1.77795 4.524854,-1.80793 0.0017,-0.0602 -0.09003,-0.26629 -0.608524,-1.36751 -0.19289,-0.40967 -1.082434,-2.31414 -1.976767,-4.23216 -0.894334,-1.91802 -1.74467,-3.74051 -1.889639,-4.04996 -0.144967,-0.30947 -0.264547,-0.58371 -0.265731,-0.60944 -0.0011,-0.0257 -0.044,-0.10197 -0.09513,-0.16942 -0.08672,-0.11439 -0.380905,0.0352 -4.363904,2.21849 l -4.27092,2.34115 -2.083772,0.33758 c -1.146075,0.18568 -2.291268,0.38709 -2.544873,0.4476 -0.953596,0.22747 -1.922774,0.0361 -2.621939,-0.5176 -0.5376416,-0.42582 -0.7184615,-0.77721 -1.5423432,-2.99719 l -0.7844294,-2.11368 -0.00364,-0.74486 c -0.00344,-0.70062 0.0091,-0.7719 0.211986,-1.20013 0.2756234,-0.58183 0.7229003,-1.0586 1.2580055,-1.34095 0.2322853,-0.12257 1.2907791,-0.73436 2.3522071,-1.35953 l 1.92987,-1.13667 4.706177,-0.92852 c 2.588396,-0.51068 4.733054,-0.95213 4.765908,-0.981 0.05318,-0.0467 -2.832963,-10.99757 -2.947156,-11.18234 -0.03012,-0.0488 -1.620143,0.45999 -4.673441,1.49526 l -4.627793,1.56912 -2.7763035,-0.0332 c -1.5269682,-0.0182 -2.8677202,-0.0603 -2.9794489,-0.0935 -0.7736821,-0.22977 -1.469948,-0.81731 -1.7927649,-1.51284 -0.1576637,-0.33968 -0.2757036,-0.8659 -0.574078,-2.55922 -0.2065834,-1.17238 -0.3756064,-2.32365 -0.3756064,-2.55837 0,-0.47242 0.1835689,-1.10206 0.4356532,-1.49432 0.3400942,-0.52921 0.9665277,-1.00849 1.5280754,-1.16915 0.167593,-0.048 1.264572,-0.45059 2.437731,-0.89477 l 2.1330144,-0.80759 4.8548527,-0.11252 c 2.670169,-0.0619 4.878003,-0.13567 4.9063,-0.16397 0.02829,-0.0283 -0.169409,-2.58703 -0.439343,-5.68607 -0.269933,-3.09905 -0.489494,-5.69733 -0.487913,-5.77395 0.0028,-0.13484 -0.152976,-0.11536 -4.840486,0.60562 l -4.843363,0.74494 -2.317472,-0.42056 C 4.4199803,169.47678 3.2101057,169.2577 3.0059773,169.22126 2.141268,169.06687 1.3464429,168.44504 0.95351333,167.61551 l -0.21727088,-0.45869 -0.0207919,-2.45485 c -0.0175628,-2.07315 -0.004016,-2.52065 0.0871667,-2.87788 0.28192465,-1.10468 1.15441145,-1.90616 2.27406135,-2.08902 0.2397288,-0.0392 1.4556882,-0.25732 2.7021345,-0.48483 l 2.2662675,-0.41363 4.7919744,0.73589 c 2.635589,0.40473 4.802849,0.72273 4.816134,0.70665 0.05577,-0.0675 1.016368,-11.5067 0.970145,-11.55292 -0.02786,-0.0278 -2.235555,-0.10005 -4.90599,-0.1604 L 8.8620125,148.45609 6.7967136,147.67511 C 5.6607982,147.24557 4.564086,146.84138 4.3595758,146.7769 3.5803675,146.53124 2.92862,145.96464 2.5661678,145.21779 c -0.3330535,-0.68629 -0.3180087,-1.11958 0.1249193,-3.59761 0.2071688,-1.15904 0.4408723,-2.27894 0.5193404,-2.48866 0.2733464,-0.73059 0.8670453,-1.29875 1.671723,-1.59982 0.3420232,-0.12796 0.5659087,-0.14013 3.1558649,-0.1715 l 2.7877246,-0.0338 4.625521,1.56802 c 2.587585,0.87716 4.648474,1.54142 4.677617,1.50767 0.08963,-0.10382 3.012875,-11.12849 2.963788,-11.17757 -0.02561,-0.0256 -2.171467,-0.46673 -4.768588,-0.98027 -2.597118,-0.51354 -4.782976,-0.97078 -4.857463,-1.01609 -0.07449,-0.0453 -0.546796,-0.32499 -1.049579,-0.62148 -0.502781,-0.29649 -1.249337,-0.73837 -1.659011,-0.98196 -0.409675,-0.24358 -0.9733983,-0.56162 -1.2527221,-0.70674 -0.6402495,-0.33264 -1.1439812,-0.82177 -1.4334992,-1.39195 -0.2151575,-0.42374 -0.2255125,-0.47851 -0.2255125,-1.19269 v -0.74858 l 0.7256984,-1.97849 c 0.3991337,-1.08818 0.8054135,-2.13581 0.9028451,-2.32808 0.2498927,-0.49314 0.7602953,-0.97694 1.3007463,-1.23296 0.714119,-0.33828 1.245719,-0.31185 4.235856,0.21067 l 2.425114,0.42378 4.268576,2.34072 c 2.347718,1.2874 4.291067,2.31487 4.318554,2.28325 0.116224,-0.13364 4.884172,-10.45702 4.852983,-10.50748 -0.01885,-0.0305 -2.059344,-0.84243 -4.534437,-1.80432 l -4.500171,-1.74888 -1.783847,-1.51354 c -2.450378,-2.07908 -2.510681,-2.13486 -2.716734,-2.51345 -0.396201,-0.72795 -0.478074,-1.58762 -0.220369,-2.31383 0.05864,-0.16527 0.598302,-1.155605 1.199237,-2.200735 1.251961,-2.177392 1.596683,-2.603694 2.327348,-2.878126 0.861025,-0.323394 1.51236,-0.315476 2.329175,0.02831 0.232907,0.09803 1.342196,0.50065 2.465086,0.894712 l 2.041617,0.716475 3.790218,3.038594 c 2.084619,1.67123 3.81194,3.03071 3.83849,3.02106 0.03835,-0.014 3.178844,-4.476673 6.238059,-8.864497 l 0.452205,-0.648597 -0.862014,-0.526013 c -2.529841,-1.543742 -5.332158,-3.246418 -6.67335,-4.054699 l -0.800443,-0.482395 -1.33127,-1.624121 c -0.732197,-0.893265 -1.505463,-1.816336 -1.718366,-2.051266 -0.91071,-1.004931 -1.103782,-2.201141 -0.535608,-3.318439 0.278972,-0.548594 3.014649,-3.777174 3.44421,-4.064776 0.535268,-0.358375 1.094032,-0.504914 1.77578,-0.465701 0.619051,0.03561 0.921402,0.136877 1.455867,0.487625 0.186215,0.122207 1.200849,0.708155 2.254739,1.302107 l 1.916166,1.079915 3.222709,3.67435 3.222708,3.674347 4.120658,-4.120241 4.120658,-4.120243 -0.219613,-0.214141 c -0.120739,-0.1177 -1.770765,-1.57312 -3.666675,-3.234189 L 48.081589,72.93134 47.004891,71.018618 c -0.592182,-1.051998 -1.146266,-2.019377 -1.231292,-2.149726 -0.311426,-0.477427 -0.369328,-0.593086 -0.47491,-0.948617 -0.2238,-0.753614 -0.08069,-1.672771 0.369728,-2.37469 0.1571,-0.244815 0.695671,-0.74321 1.866486,-1.727246 0.905119,-0.760726 1.77644,-1.470932 1.936269,-1.578238 0.635685,-0.426783 1.4833,-0.573858 2.219811,-0.385171 0.536577,0.137464 0.920472,0.35703 1.416161,0.809957 0.208673,0.190674 1.110622,0.946382 2.004327,1.67935 l 1.624921,1.332672 2.528812,4.168791 2.528813,4.168787 0.658104,-0.456711 c 2.827929,-1.962526 8.874388,-6.219529 8.875465,-6.248757 7.67e-4,-0.01996 -1.366571,-1.741607 -3.038455,-3.825883 L 65.24934,59.693541 64.964412,58.880965 C 64.807698,58.434048 64.51398,57.596077 64.3117,57.018809 c -0.202279,-0.577268 -0.475972,-1.323822 -0.608204,-1.659011 -0.309962,-0.785702 -0.382237,-1.22829 -0.292405,-1.790608 0.09974,-0.624355 0.396212,-1.202121 0.822469,-1.602842 0.379736,-0.356987 3.897518,-2.436121 4.458724,-2.635269 1.019209,-0.361673 2.252693,-0.05028 2.949308,0.744565 0.164359,0.187539 0.99425,1.158057 1.844206,2.156711 l 1.545366,1.815735 1.752808,4.503974 c 0.964051,2.477185 1.776945,4.518885 1.806434,4.53711 0.04971,0.03072 10.376663,-4.741714 10.502666,-4.85364 0.04808,-0.04271 -0.210585,-0.543695 -1.34499,-2.604876 -0.08199,-0.148973 -0.682794,-1.245954 -1.335126,-2.437731 -1.543564,-2.820027 -1.525457,-2.787066 -1.750735,-3.187894 -0.16765,-0.29829 -0.242616,-0.641175 -0.565576,-2.586785 -0.204777,-1.233604 -0.407385,-2.382193 -0.450249,-2.552422 -0.132808,-0.527446 -0.04768,-1.353067 0.193752,-1.879028 0.244587,-0.532824 0.727649,-1.048773 1.209088,-1.291398 0.181774,-0.0916 1.229409,-0.497076 2.328081,-0.901046 l 1.997584,-0.734493 0.744863,-0.0017 c 0.682003,-0.0017 0.777703,0.01432 1.134068,0.189258 0.541974,0.266059 1.068253,0.769124 1.33714,1.278175 0.123995,0.234732 0.702726,1.23428 1.286067,2.221223 0.583349,0.986941 1.095476,1.855383 1.138061,1.92987 0.04259,0.07449 0.260147,1.064814 0.483469,2.200728 0.977817,4.973604 1.436652,7.286634 1.465092,7.385634 0.0256,0.08915 0.930657,-0.134826 5.611139,-1.388626 3.06934,-0.822208 5.60095,-1.51527 5.62582,-1.540137 0.0249,-0.02488 -0.65773,-2.11755 -1.51688,-4.650402 l -1.56209,-4.605182 0.0314,-2.809588 c 0.0294,-2.637505 0.04,-2.832665 0.17234,-3.186378 0.29498,-0.788383 0.8771,-1.39018 1.61299,-1.667509 0.49255,-0.185621 4.40027,-0.877165 4.95803,-0.877415 1.04605,-3.84e-4 2.03186,0.630474 2.5011,1.600775 0.11064,0.228784 0.20148,0.457321 0.20184,0.507862 7.7e-4,0.05054 0.3699,1.066984 0.82118,2.258764 l 0.82051,2.166872 0.11803,4.909319 c 0.0649,2.700124 0.12199,4.910035 0.12682,4.910909 0.0591,0.01069 11.5622,-1.010835 11.5834,-1.028648 0.0161,-0.01351 -0.30192,-2.180952 -0.70665,-4.816538 l -0.7359,-4.791976 0.41365,-2.266266 c 0.2275,-1.246447 0.44567,-2.462408 0.48482,-2.702135 0.13374,-0.818874 0.61299,-1.535498 1.3029,-1.94821 0.65998,-0.394799 0.91584,-0.426082 3.48507,-0.426082 2.1147,0 2.35227,0.01157 2.74832,0.133905 1.12886,0.348664 1.87385,1.288463 2.01431,2.541015 0.0293,0.261631 0.2295,1.41989 0.44478,2.573912 l 0.39144,2.09822 -0.72167,4.706175 c -0.39693,2.588395 -0.72127,4.752514 -0.72076,4.80915 7.7e-4,0.08737 0.87298,0.178894 5.75646,0.604029 3.16553,0.275579 5.77759,0.478975 5.80458,0.451991 0.027,-0.02699 0.0998,-2.233747 0.16158,-4.903916 l 0.11252,-4.854852 0.80759,-2.133015 c 0.44417,-1.173159 0.84682,-2.270138 0.89477,-2.437731 0.11356,-0.396947 0.30107,-0.709913 0.64317,-1.073515 0.53939,-0.573283 1.26421,-0.890213 2.03589,-0.890213 0.67368,0 4.5494,0.706268 5.02153,0.915066 0.72673,0.321396 1.2225,0.857951 1.51495,1.639618 0.12826,0.342789 0.13985,0.560699 0.16801,3.155866 l 0.0302,2.787652 -1.5643,4.623482 c -0.86035,2.542916 -1.54584,4.641944 -1.52329,4.664503 0.0226,0.02256 2.47211,0.692123 5.44345,1.487918 2.97133,0.795794 5.48606,1.47566 5.58826,1.510815 0.16203,0.05572 0.19027,0.04485 0.22026,-0.08478 0.019,-0.08179 0.44752,-2.236014 0.95241,-4.787168 l 0.91799,-4.63846 1.13805,-1.92987 c 0.62593,-1.061428 1.22024,-2.092596 1.32066,-2.291483 0.34665,-0.686547 0.98139,-1.227247 1.72164,-1.466588 0.27758,-0.08975 0.50762,-0.109358 0.98186,-0.08369 0.58045,0.03141 0.74272,0.07876 2.58307,0.753707 1.08005,0.396105 2.10086,0.788168 2.26846,0.871251 0.46157,0.228823 0.98853,0.789855 1.23793,1.317977 0.26967,0.571131 0.3274,1.321396 0.15648,2.034263 -0.0601,0.250726 -0.26231,1.396033 -0.44932,2.545123 l -0.34002,2.089258 -2.33986,4.266661 c -1.28692,2.346664 -2.31436,4.288621 -2.28321,4.315459 0.0311,0.02684 1.01654,0.49357 2.1897,1.037182 1.17316,0.543612 2.40724,1.115673 2.74244,1.271246 0.33519,0.155574 0.79227,0.367577 1.01572,0.471122 0.22345,0.103544 0.71101,0.331702 1.08344,0.50702 2.07613,0.977315 3.41567,1.592292 3.46511,1.590819 0.0309,-9.59e-4 0.84591,-2.038044 1.81129,-4.526948 l 1.75522,-4.525279 1.54737,-1.82131 c 0.85105,-1.001721 1.66504,-1.958432 1.80886,-2.126025 0.70096,-0.816809 1.95578,-1.144826 2.98388,-0.780013 0.57786,0.205052 3.99283,2.216124 4.41088,2.597565 0.81996,0.748171 1.11177,1.918187 0.73736,2.956336 -0.0672,0.186216 -0.47973,1.344139 -0.91681,2.573162 l -0.79473,2.234585 -3.03783,3.789837 c -1.67079,2.08441 -3.03732,3.806057 -3.0367,3.825883 0.002,0.03992 9.46839,6.672096 9.52413,6.672096 0.0192,0 1.17244,-1.872227 2.56273,-4.160506 l 2.52781,-4.160508 1.61852,-1.324388 c 0.89019,-0.728414 1.81248,-1.500113 2.04953,-1.714885 0.97877,-0.886756 2.1755,-1.091046 3.26534,-0.557408 0.21228,0.10394 1.11157,0.803874 2.12684,1.655335 2.16809,1.818332 2.3701,2.088029 2.4454,3.26499 0.0393,0.615129 -0.13492,1.292347 -0.44252,1.719685 -0.10562,0.146736 -0.69308,1.15739 -1.30547,2.245898 l -1.11342,1.979106 -3.68009,3.228143 -3.68011,3.228141 4.11957,4.12 4.11959,4.119999 0.21548,-0.219613 c 0.11853,-0.120786 1.57566,-1.772028 3.2381,-3.669425 l 3.02263,-3.449814 1.87504,-1.056006 c 1.03125,-0.580804 2.08805,-1.185262 2.34846,-1.34324 0.26039,-0.157979 0.62396,-0.331936 0.80794,-0.386572 0.42977,-0.127628 1.14009,-0.127032 1.5723,0.0013 0.71454,0.212195 1.05478,0.515998 2.49609,2.228688 1.65935,1.971785 1.81857,2.200455 1.95756,2.811535 0.13465,0.592019 0.13515,0.886269 0.002,1.396296 -0.12989,0.498812 -0.36648,0.91065 -0.7765,1.351593 -0.17314,0.186216 -0.92661,1.085128 -1.67437,1.997585 l -1.35957,1.659011 -4.16871,2.529694 -4.16872,2.529693 0.38767,0.554364 c 5.20716,7.446548 6.29067,8.973158 6.35261,8.950578 0.0406,-0.0148 1.75811,-1.37802 3.81675,-3.02938 l 3.74299,-3.002463 2.20984,-0.785966 c 1.21542,-0.432279 2.31995,-0.834784 2.4545,-0.894457 0.67932,-0.301279 1.61741,-0.266438 2.33475,0.08672 0.67353,0.331568 0.99425,0.748626 2.2336,2.904489 1.27992,2.226417 1.3977,2.543327 1.26468,3.402727 -0.10319,0.6667 -0.41042,1.26318 -0.84877,1.64787 -0.19438,0.1706 -1.17072,1.00576 -2.16963,1.85594 l -1.81619,1.54575 -4.50169,1.74947 c -2.47593,0.96219 -4.51698,1.77421 -4.53568,1.80446 -0.031,0.0502 4.73717,10.3751 4.85274,10.50796 0.0275,0.0317 1.97026,-0.99484 4.31726,-2.281 l 4.26726,-2.33847 2.4264,-0.42241 c 3.00195,-0.52262 3.53374,-0.54979 4.23716,-0.21658 0.54045,0.25601 1.05086,0.73981 1.30074,1.23296 0.0974,0.19227 0.50069,1.23991 0.89611,2.32807 0.63767,1.75481 0.72252,2.04045 0.75056,2.5264 0.0686,1.1886 -0.5072,2.17772 -1.5868,2.72609 -0.21727,0.11036 -1.23974,0.70158 -2.2721,1.31381 l -1.87706,1.11316 -4.65742,0.92653 c -2.56158,0.50958 -4.72408,0.94101 -4.80558,0.9587 -0.14208,0.0309 -0.14446,0.044 -0.0578,0.31975 0.0498,0.15815 0.15477,0.53131 0.23339,0.82926 0.14145,0.53607 0.74558,2.79976 0.92165,3.45345 0.0502,0.18622 0.18698,0.70424 0.30405,1.15115 0.11707,0.44693 0.31727,1.19348 0.44489,1.65902 0.12763,0.46554 0.293,1.07497 0.36747,1.35429 0.0745,0.27933 0.23101,0.85828 0.34783,1.28658 0.11679,0.4283 0.2272,0.86493 0.24533,0.97031 0.018,0.10539 0.0694,0.2056 0.11405,0.22271 0.0446,0.0171 2.14812,-0.67032 4.67448,-1.52763 l 4.59337,-1.55876 2.76387,0.0307 c 1.52012,0.0169 2.84846,0.0512 2.95187,0.0761 0.25789,0.0621 0.81768,0.34751 1.09254,0.55696 0.32768,0.24973 0.66092,0.71238 0.82067,1.13934 0.17805,0.47586 0.88186,4.43323 0.88186,4.95846 0,0.82764 -0.38163,1.61585 -1.04959,2.16776 -0.28682,0.23701 -0.91745,0.54804 -1.11117,0.54804 -0.031,0 -1.02787,0.368 -2.2151,0.81776 -1.25827,0.4767 -2.28571,0.82752 -2.46334,0.84113 -0.16759,0.0128 -1.52358,0.0435 -3.01331,0.0682 -1.48972,0.0247 -2.84571,0.0551 -3.01329,0.0676 -0.1676,0.0124 -0.9751,0.0299 -1.79445,0.0386 -0.81934,0.009 -1.52782,0.0298 -1.57437,0.0465 -0.0465,0.0168 -0.0857,0.11111 -0.0869,0.20954 -0.002,0.0984 0.21819,2.70892 0.48766,5.80108 l 0.48995,5.62212 4.8297,-0.74285 4.82972,-0.74284 2.31747,0.42277 c 1.27461,0.23253 2.48507,0.45209 2.68989,0.4879 0.76217,0.13325 1.47802,0.62612 1.87623,1.29178 0.39482,0.66002 0.42607,0.91574 0.42607,3.48617 0,2.08275 -0.0129,2.35739 -0.12827,2.72809 -0.33252,1.06834 -1.1625,1.79908 -2.24602,1.97744 -0.23973,0.0395 -1.4506,0.25799 -2.69086,0.48563 l -2.25499,0.41389 -1.90947,-0.29453 c -1.0502,-0.16198 -2.06183,-0.31804 -2.24804,-0.3468 -0.1862,-0.0287 -0.5671,-0.0873 -0.84642,-0.13001 -0.27932,-0.0427 -0.67547,-0.10382 -0.88029,-0.13574 -0.20485,-0.0319 -0.60098,-0.0929 -0.8803,-0.13541 -0.87307,-0.13304 -1.37381,-0.21053 -1.79445,-0.27767 -0.22344,-0.0356 -0.56626,-0.0835 -0.76178,-0.10622 l -0.35551,-0.0414 -0.003,0.22955 c -0.002,0.12625 -0.22306,2.73584 -0.49242,5.79909 -0.26936,3.06324 -0.48908,5.57226 -0.48826,5.5756 0,0.003 2.21069,0.0596 4.91082,0.12504 l 4.90932,0.11897 1.99758,0.76371 c 1.09869,0.42003 2.14595,0.8038 2.32727,0.85281 0.85614,0.23141 1.64951,0.88574 1.9831,1.63556 0.3151,0.70821 0.297,1.15791 -0.14652,3.64175 -0.2966,1.66109 -0.4319,2.26638 -0.57966,2.59317 -0.31272,0.69166 -1.01102,1.28249 -1.78973,1.51429 -0.11174,0.0333 -1.45911,0.0745 -2.99415,0.0916 l -2.79098,0.0312 -4.6136,-1.56651 c -3.27813,-1.11306 -4.62788,-1.5434 -4.66296,-1.48665 -0.0965,0.15613 -3.00394,11.11604 -2.9604,11.15957 0.0244,0.0244 2.16958,0.46551 4.76717,0.98032 2.59757,0.5148 4.78379,0.97202 4.85827,1.01603 0.0745,0.044 0.94481,0.55938 1.93405,1.14528 0.98924,0.58588 1.94532,1.13419 2.1246,1.21847 0.72887,0.3426 1.42519,1.23163 1.56062,1.99246 0.0738,0.41481 0.0483,1.0223 -0.0576,1.37498 -0.26994,0.89836 -1.50349,4.15203 -1.67874,4.42799 -0.28024,0.44126 -0.67258,0.77704 -1.19984,1.02686 -0.70928,0.33606 -1.29865,0.30578 -4.2663,-0.2192 l -2.39577,-0.42382 -4.20384,-2.30538 c -2.3121,-1.26797 -4.23893,-2.31886 -4.28182,-2.33533 -0.0845,-0.0324 -5.00043,10.44004 -4.94379,10.53172 0.018,0.029 2.05907,0.84032 4.5358,1.80283 l 4.50316,1.75004 1.81473,1.54695 c 0.99808,0.85083 1.96111,1.67249 2.14003,1.82592 0.80319,0.68871 1.11983,1.94467 0.75265,2.98537 -0.19941,0.56518 -2.21582,3.98589 -2.59081,4.39512 -0.81886,0.89369 -2.0628,1.13848 -3.24878,0.63929 -0.23358,-0.0983 -1.34507,-0.50132 -2.47,-0.89558 l -2.04529,-0.71682 -3.7896,-3.03919 c -2.08428,-1.67155 -3.80594,-3.03868 -3.8259,-3.03806 -0.0491,0.002 -6.64007,9.42874 -6.64662,9.50681 -0.003,0.034 1.86214,1.19636 4.1444,2.58313 l 4.14957,2.5214 1.35891,1.6555 c 0.74741,0.91054 1.52028,1.83544 1.71749,2.05534 0.85645,0.95497 1.04752,2.19752 0.50158,3.26217 -0.10066,0.19628 -0.8362,1.13761 -1.63456,2.09186 -1.14361,1.36687 -1.53628,1.78973 -1.8508,1.993 -0.96505,0.62374 -2.15697,0.63184 -3.09834,0.021 -0.16668,-0.10816 -1.19471,-0.70072 -2.28454,-1.31682 l -1.98147,-1.12016 -3.20527,-3.65549 -3.20525,-3.65548 -4.12405,4.0908 c -2.26822,2.24995 -4.12211,4.10949 -4.11974,4.1323 0.002,0.0229 1.64671,1.48295 3.6541,3.24475 l 3.6498,3.2033 1.05602,1.87533 c 0.58079,1.03142 1.18473,2.08836 1.34209,2.34874 0.3495,0.57839 0.48502,1.01332 0.48396,1.55337 -0.002,0.74057 -0.24907,1.39981 -0.71992,1.91659 -0.45952,0.50438 -3.49514,2.99538 -3.86205,3.16919 -1.01644,0.48149 -2.20154,0.35084 -3.00632,-0.33142 -0.18201,-0.1543 -1.15297,-0.96091 -2.15772,-1.79246 -1.65371,-1.36866 -1.85169,-1.55471 -2.08994,-1.96373 -0.14473,-0.2485 -0.65371,-1.09171 -1.13107,-1.87382 -0.47735,-0.7821 -0.99584,-1.63531 -1.1522,-1.89601 -0.15635,-0.26071 -0.6743,-1.11391 -1.15098,-1.89602 -0.47667,-0.78211 -0.97165,-1.59654 -1.09994,-1.80987 l -0.23323,-0.38785 -0.55499,0.38785 c -6.16364,4.30736 -8.97611,6.28593 -8.97729,6.31553 0,0.02 1.36581,1.74171 3.03688,3.82587 l 3.03834,3.78941 0.79533,2.23459 c 0.43743,1.22902 0.8499,2.38695 0.91661,2.57317 0.25442,0.71022 0.18348,1.6057 -0.18011,2.27372 -0.32372,0.59478 -0.8195,0.96686 -2.80869,2.10798 -1.01982,0.58501 -1.99133,1.11225 -2.15893,1.17166 -1.04211,0.36929 -2.24804,0.0556 -2.98539,-0.77656 -1.43744,-1.62224 -3.39277,-4.00409 -3.47672,-4.23509 -0.0541,-0.14897 -0.21799,-0.57557 -0.36414,-0.948 -0.14613,-0.37244 -0.88209,-2.26168 -1.63546,-4.19832 -0.75338,-1.93665 -1.39406,-3.54682 -1.42373,-3.57817 -0.0451,-0.0476 -10.34939,4.68746 -10.51891,4.83372 -0.0309,0.0266 0.99348,1.96418 2.27626,4.30572 l 2.33232,4.25737 0.43057,2.47158 c 0.52717,3.02601 0.55214,3.50901 0.21789,4.21462 -0.25602,0.54045 -0.73982,1.05085 -1.23296,1.30076 -0.19227,0.0974 -1.2399,0.5037 -2.32809,0.90284 l -1.97848,0.72569 h -0.74487 c -0.7122,0 -0.765,-0.0101 -1.20435,-0.23055 -0.56372,-0.28287 -1.0688,-0.81084 -1.40901,-1.47282 -0.21609,-0.42053 -0.9052,-1.6037 -2.001,-3.43559 -0.19806,-0.33113 -0.38025,-0.71204 -0.40483,-0.84643 -0.24888,-1.36051 -1.84306,-9.22835 -1.87665,-9.26193 -0.0472,-0.0471 -11.07521,2.87728 -11.17529,2.9634 -0.0325,0.0279 0.64324,2.12051 1.50157,4.65014 l 1.56056,4.59938 -0.0289,2.81863 c -0.0269,2.61907 -0.0386,2.84445 -0.16538,3.18335 -0.29029,0.77582 -0.78823,1.31529 -1.50781,1.63351 -0.46796,0.20696 -4.38995,0.91767 -5.06408,0.91767 -0.49325,0 -1.03999,-0.15898 -1.45815,-0.42396 -0.57448,-0.36409 -1.14198,-1.15974 -1.27608,-1.78914 -0.0253,-0.11852 -0.25942,-0.77366 -0.52036,-1.45586 -0.26096,-0.6822 -0.61436,-1.60603 -0.78536,-2.05293 l -0.31089,-0.81259 -0.10946,-4.85485 c -0.0602,-2.67017 -0.1324,-4.87779 -0.16044,-4.90585 -0.028,-0.028 -2.64011,0.17486 -5.80458,0.4509 -5.57872,0.48665 -5.75359,0.50609 -5.75365,0.63983 -4e-5,0.0759 0.32444,2.24748 0.72106,4.82585 l 0.72114,4.68795 -0.41112,2.25281 c -0.22613,1.23906 -0.44317,2.44897 -0.48232,2.68868 -0.17677,1.0824 -0.90821,1.91343 -1.97687,2.24602 -0.37215,0.11582 -0.64352,0.12812 -2.79311,0.12654 -2.29364,-0.002 -2.3974,-0.007 -2.83079,-0.15509 z m -8.7399,-34.69166 c 0.93653,-0.19486 1.95063,-0.83216 2.62511,-1.64977 0.36706,-0.44491 0.80145,-1.30021 0.94577,-1.86215 0.41952,-1.63338 -0.0374,-3.38335 -1.20605,-4.619 -0.19304,-0.20412 -0.43662,-0.4154 -0.5413,-0.46952 -0.10468,-0.0541 -0.85165,-0.32163 -1.65993,-0.59446 -1.2624,-0.42609 -1.75604,-0.63842 -3.50105,-1.50595 -1.80882,-0.89923 -2.22174,-1.13717 -3.76785,-2.17113 -1.53682,-1.02773 -1.92778,-1.32935 -3.40133,-2.62405 -1.46446,-1.28673 -1.83938,-1.66091 -3.11411,-3.10798 -1.30977,-1.48688 -1.56776,-1.8228 -2.68159,-3.49186 -1.11317,-1.66806 -1.32664,-2.0376 -2.20671,-3.82002 -0.88644,-1.79534 -1.03586,-2.1535 -1.65664,-3.97091 -0.636671,-1.86389 -0.711895,-2.14264 -1.12391,-4.16448 -0.405702,-1.99082 -0.453158,-2.3154 -0.584042,-3.99515 -0.133534,-1.71372 -0.144925,-2.49038 -0.181637,-12.3918 l -0.03915,-10.5635 -0.158097,-0.39172 c -0.221374,-0.54844 -0.783986,-1.13816 -1.353256,-1.41846 l -0.449402,-0.22127 -10.598843,-0.0395 c -12.812362,-0.0478 -12.825024,-0.0484 -16.286888,-0.736 -1.97989,-0.39329 -2.218423,-0.45735 -4.198314,-1.12753 -1.943352,-0.65781 -2.245194,-0.78248 -4.066701,-1.67976 -1.783078,-0.87835 -2.141224,-1.08513 -3.820039,-2.20546 -1.675517,-1.11814 -2.009655,-1.3747 -3.497631,-2.68545 -1.447106,-1.27476 -1.821246,-1.64963 -3.108124,-3.11428 -1.317195,-1.49914 -1.58267,-1.84484 -2.663977,-3.46903 -1.073828,-1.61295 -1.303599,-2.01189 -2.170046,-3.76769 -0.756823,-1.53366 -1.064019,-2.24181 -1.402672,-3.23344 -0.682092,-1.99729 -0.66316,-1.95632 -1.093458,-2.36638 -0.746325,-0.71125 -1.534982,-1.11307 -2.577549,-1.31325 -1.504305,-0.28885 -3.101232,0.19736 -4.219273,1.28463 -0.720885,0.70103 -1.231652,1.6053 -1.40064,2.4797 -0.167073,0.86449 -0.175228,0.80639 0.808058,5.75575 0.521634,2.62565 1.081586,5.44427 1.244336,6.26362 0.29019,1.46091 0.335849,1.60759 2.360982,7.58406 l 2.065069,6.09432 2.810667,5.69796 2.810668,5.69796 3.586211,5.3734 3.586211,5.37341 4.19636,4.77388 4.196359,4.77388 4.806097,4.21905 4.806096,4.21904 5.338135,3.55893 5.338146,3.55896 2.172431,1.06801 c 1.194839,0.5874 3.756962,1.85123 5.693605,2.80851 l 3.521168,1.74048 5.99276,2.03547 5.99276,2.03546 6.33132,1.26884 c 6.73932,1.35062 6.49652,1.31482 7.50191,1.10563 z m 30.57323,-1.07691 6.31189,-1.25545 6.0266,-2.041 6.02661,-2.041 5.72245,-2.82058 5.72243,-2.82062 5.38279,-3.59192 5.38277,-3.59195 4.76957,-4.18946 4.76957,-4.18949 4.19388,-4.77388 4.19387,-4.77388 3.59241,-5.38334 3.59241,-5.38331 2.82001,-5.72189 2.82,-5.72191 2.04127,-6.0266 2.04121,-6.02662 1.24834,-6.29748 c 1.20616,-6.08472 1.24639,-6.31427 1.19097,-6.79475 -0.204,-1.76851 -1.38384,-3.31201 -3.04444,-3.98275 -0.50549,-0.20418 -1.30545,-0.36235 -1.81659,-0.3592 -1.31749,0.008 -2.70396,0.61881 -3.57239,1.57348 -0.31588,0.34727 -0.35669,0.43938 -0.83178,1.87705 -0.44307,1.34088 -0.61565,1.74614 -1.52579,3.58329 -0.92463,1.86637 -1.14183,2.24425 -2.19399,3.81701 -1.03407,1.54568 -1.33422,1.93483 -2.62108,3.39831 -1.27141,1.4459 -1.65889,1.83403 -3.09602,3.1011 -1.48801,1.31191 -1.81815,1.56547 -3.5049,2.69182 -1.70609,1.13927 -2.02884,1.32524 -3.85114,2.2189 -1.84244,0.90354 -2.14222,1.02697 -4.069,1.67516 -1.98228,0.66686 -2.18475,0.72036 -4.3085,1.13858 -1.56168,0.30754 -2.46145,0.45131 -3.00717,0.4805 -1.86602,0.0999 -2.13854,0.11959 -2.23459,0.16206 -0.0558,0.0247 -4.91608,0.0604 -10.8005,0.0792 l -10.69892,0.0343 -0.38954,0.18255 c -0.54293,0.25443 -1.08792,0.79061 -1.35522,1.33332 l -0.21898,0.44456 -0.0167,2.30395 c -0.009,1.26717 -0.0263,6.0672 -0.038,10.66672 -0.0117,4.59953 -0.0398,8.43895 -0.0622,8.53207 -0.0225,0.0931 -0.0608,0.51969 -0.0851,0.94798 -0.10919,1.92626 -0.17456,2.42841 -0.57889,4.44705 -0.38876,1.94089 -0.4673,2.23367 -1.11875,4.1702 -0.64992,1.93205 -0.77102,2.22607 -1.67317,4.0629 -0.88816,1.80829 -1.08043,2.14168 -2.21591,3.84226 -1.12641,1.68701 -1.37961,2.0167 -2.69172,3.5049 -1.26707,1.43713 -1.65521,1.82462 -3.10108,3.09602 -1.4635,1.28687 -1.85264,1.58701 -3.39832,2.62108 -1.57276,1.05216 -1.95065,1.26936 -3.81701,2.19399 -1.84873,0.91587 -2.23458,1.07986 -3.58888,1.52516 l -1.51745,0.49896 -0.51721,0.51557 c -0.42607,0.42473 -0.57852,0.63962 -0.86516,1.2195 -0.42282,0.85542 -0.55075,1.44669 -0.51858,2.39681 0.08,2.36341 1.92262,4.36146 4.2732,4.63372 0.25948,0.0301 0.48053,0.0587 0.49122,0.0635 0.0107,0.005 2.8598,-0.55606 6.33134,-1.24656 z m -17.82411,-15.35111 c 0.48645,-0.238 0.87565,-0.57667 1.14493,-0.9963 0.42984,-0.66986 0.43139,-0.68323 0.47241,-4.06389 l 0.0373,-3.07904 1.3708,-0.27068 1.3708,-0.27068 0.0174,-5.0469 0.0173,-5.04691 h 5.09559 5.0956 l 0.20571,-0.61747 c 0.30623,-0.91925 0.60009,-2.54546 0.68678,-3.8007 0.13699,-1.98361 -0.15147,-4.46623 -0.7042,-6.06069 l -0.20539,-0.5925 h -5.10398 -5.10397 l -7.6e-4,-5.06167 -7.7e-4,-5.06169 -1.38299,-0.26625 -1.383,-0.26626 -0.0252,-3.08562 c -0.0243,-2.97513 -0.0306,-3.09988 -0.17342,-3.48367 -0.29754,-0.79919 -1.01981,-1.47474 -1.82791,-1.70967 -0.59704,-0.17356 -1.3791,-0.10547 -1.9357,0.16854 -0.70055,0.34488 -1.20948,0.93904 -1.48647,1.73541 -0.0429,0.12343 -0.0859,1.4185 -0.10909,3.28479 l -0.0382,3.08102 -1.37055,0.27086 -1.37055,0.27085 -7.7e-4,5.06169 -7.7e-4,5.06167 h -5.10319 -5.1032 l -0.20822,0.5925 c -0.31213,0.88822 -0.61531,2.52423 -0.70301,3.79357 -0.14196,2.05473 0.14524,4.52061 0.70817,6.08025 l 0.21838,0.60504 5.09553,-0.0173 5.09554,-0.0175 v 5.06419 5.06418 l 1.37123,0.27076 1.37123,0.27074 0.035,3.11293 c 0.0335,2.97436 0.0415,3.12863 0.17892,3.46632 0.31794,0.78091 0.96607,1.41004 1.70267,1.65274 0.58913,0.19412 1.55177,0.15054 2.04901,-0.0928 z m -16.51706,-35.83186 c 0.98051,-0.39604 1.78059,-1.10234 2.24032,-1.97775 0.48851,-0.9302 0.4565,0.0583 0.4576,-14.12809 l 9.7e-4,-12.78115 h -3.3515 -3.35149 l -1.97779,-2.96253 -1.9778,-2.96252 -0.95743,-4.8286 -0.95742,-4.8286 0.96676,-4.83174 0.96676,-4.83175 1.96846,-2.95152 1.96846,-2.95153 h 3.35149 3.3515 v -12.7534 c 0,-12.47891 -0.003,-12.76465 -0.13376,-13.27643 -0.19549,-0.76434 -0.49634,-1.28432 -1.08283,-1.87163 -0.84519,-0.84635 -1.7681,-1.22532 -2.97433,-1.22135 -1.05699,0.003 -1.99088,0.38368 -2.78332,1.13307 -0.49053,0.46389 -0.81042,0.94984 -1.07458,1.63234 l -0.17669,0.45651 -0.0395,5.89118 -0.0396,5.89117 -0.17782,0.81259 c -0.0978,0.44692 -0.25231,1.02587 -0.34336,1.28658 -1.16395,3.33284 -3.88316,5.70432 -7.39108,6.44594 -0.77079,0.16295 -0.9515,0.17362 -3.454216,0.20379 l -2.640875,0.0319 -1.061701,1.06067 -1.061699,1.06067 1.083842,1.21886 c 1.499124,1.68589 2.79173,3.60759 3.852579,5.72762 0.61208,1.22319 0.86057,1.81621 1.31651,3.14188 0.49781,1.44741 0.60489,1.85025 0.93727,3.5262 0.34305,1.72969 0.38463,2.04053 0.48448,3.62103 0.0601,0.95091 0.0936,1.84982 0.0746,1.99759 -0.0191,0.14776 -0.0505,0.54292 -0.0698,0.8781 -0.0193,0.33519 -0.0546,0.94462 -0.0784,1.35429 -0.0277,0.47539 -0.17399,1.39404 -0.40446,2.53931 -0.31399,1.56032 -0.43603,2.01205 -0.93529,3.46239 -1.13689,3.30247 -2.823783,6.21099 -5.124116,8.83491 l -1.134121,1.29366 1.060215,1.05348 1.060212,1.05346 2.674734,0.0317 c 2.400776,0.0284 2.744086,0.0464 3.351876,0.17627 3.21756,0.68736 5.75003,2.66976 7.05921,5.52591 0.41344,0.90198 0.57342,1.39346 0.77144,2.37002 0.14723,0.72618 0.15201,0.89185 0.19015,6.60219 l 0.0391,5.85733 0.17667,0.45651 c 0.26412,0.68246 0.58403,1.16842 1.07456,1.63232 0.46132,0.43628 1.17561,0.8554 1.69249,0.99312 0.82257,0.21916 1.90211,0.1791 2.58282,-0.0958 z m 33.20088,0.12685 c 0.92915,-0.24201 1.98568,-1.02166 2.46682,-1.82034 0.12577,-0.20879 0.30819,-0.58504 0.40537,-0.83611 l 0.17669,-0.4565 0.0395,-5.89119 c 0.0388,-5.77358 0.0426,-5.90537 0.19173,-6.60219 0.66814,-3.1226 2.51598,-5.58244 5.20939,-6.93474 0.81283,-0.4081 1.75886,-0.73743 2.65305,-0.92356 0.6389,-0.133 0.97974,-0.15147 3.36094,-0.18218 l 2.64997,-0.0342 1.05164,-1.05821 1.05166,-1.05822 -1.0831,-1.21886 c -2.27732,-2.56284 -4.06199,-5.63418 -5.20097,-8.95069 -0.47833,-1.39284 -0.60281,-1.85755 -0.91271,-3.40725 -0.33147,-1.6577 -0.36717,-1.93119 -0.4684,-3.58888 -0.10418,-1.70563 -0.10331,-1.87992 0.0175,-3.52118 0.18259,-2.4809 0.54279,-4.26088 1.33558,-6.5998 0.46527,-1.37266 0.71657,-1.98375 1.33666,-3.25031 1.04874,-2.14207 2.33755,-4.06984 3.89496,-5.82585 l 1.08098,-1.21886 -1.05157,-1.0579 -1.05158,-1.05789 -2.68411,-0.0348 c -2.39839,-0.031 -2.75623,-0.0501 -3.36128,-0.17894 -2.63269,-0.56047 -4.84848,-2.01316 -6.25895,-4.10339 -0.77832,-1.15343 -1.25798,-2.2888 -1.57341,-3.72431 -0.14493,-0.65959 -0.14984,-0.82991 -0.18929,-6.56833 -0.0401,-5.83188 -0.042,-5.89562 -0.18901,-6.33132 -0.45385,-1.34492 -1.63179,-2.43634 -2.96256,-2.74498 -0.58129,-0.13481 -1.50708,-0.13358 -2.02493,0.003 -1.0724,0.28218 -2.16622,1.16744 -2.63531,2.13286 -0.48627,1.00075 -0.45195,-0.0698 -0.45195,14.0989 V 148.908 h 3.3515 3.35149 l 1.96833,2.95134 1.96834,2.95133 0.81071,4.04021 c 0.44589,2.22213 0.82683,4.14893 0.8465,4.2818 0.0197,0.13286 0.0901,0.49191 0.15651,0.79786 l 0.12074,0.55631 -0.9671,4.83344 -0.96712,4.83345 -1.96845,2.95152 -1.96846,2.95153 h -3.35149 -3.3515 v 12.78386 c 0,14.16864 -0.0343,13.09814 0.45195,14.0989 0.47144,0.97026 1.59256,1.87403 2.63888,2.12732 0.53814,0.13027 1.59283,0.13217 2.08581,0.004 z m -17.24398,-20.07813 c 1.09379,-0.2523 1.95423,-1.18977 2.11539,-2.30477 0.0346,-0.23927 0.0635,-1.69201 0.0642,-3.22828 7.6e-4,-1.53628 0.0111,-2.79324 0.0231,-2.79324 0.0119,0 0.62684,-0.12188 1.36644,-0.27085 0.7396,-0.14897 1.35449,-0.27086 1.36643,-0.27086 0.0119,0 0.0217,-2.27014 0.0217,-5.04475 v -5.04475 h 5.03914 5.03914 l 0.0677,-0.32165 c 0.0372,-0.1769 0.28735,-1.4228 0.55578,-2.76863 l 0.48804,-2.447 -0.48743,-2.46233 c -0.2681,-1.35428 -0.51819,-2.60706 -0.55578,-2.78397 l -0.0684,-0.32164 h -5.03915 -5.03913 v -5.04475 c 0,-2.77461 -0.0101,-5.04475 -0.0218,-5.04475 -0.0119,0 -0.62684,-0.12188 -1.36644,-0.27085 -0.73959,-0.14898 -1.35449,-0.27086 -1.36643,-0.27086 -0.0119,0 -0.022,-1.25696 -0.0222,-2.79324 0,-1.56306 -0.031,-2.98708 -0.0696,-3.23338 -0.14855,-0.94661 -0.71957,-1.69979 -1.60766,-2.12049 -0.41233,-0.19533 -0.51592,-0.21567 -1.09855,-0.21567 -0.58264,0 -0.68623,0.0203 -1.09856,0.21567 -0.85935,0.40709 -1.4626,1.1784 -1.60655,2.05411 -0.0336,0.2041 -0.0639,1.649 -0.0675,3.21087 -0.004,1.56189 -0.0161,2.84941 -0.0279,2.86117 -0.0177,0.0177 -2.6622,0.56267 -2.7304,0.56267 -0.0119,0 -0.0217,2.27014 -0.0217,5.04475 v 5.04475 h -5.03914 -5.03914 l -0.0678,0.32164 c -0.0372,0.17691 -0.28824,1.42719 -0.55773,2.77842 l -0.48999,2.45677 0.42059,2.11397 c 0.23132,1.1627 0.46655,2.35776 0.52272,2.6557 0.0561,0.29795 0.1174,0.59504 0.13608,0.66022 0.032,0.11149 0.33206,0.1185 5.07415,0.1185 h 5.04019 v 5.04475 c 0,2.77461 0.0101,5.04475 0.0217,5.04475 0.0119,0 0.62683,0.12189 1.36643,0.27086 0.7396,0.14897 1.3545,0.27085 1.36643,0.27085 0.0119,0 0.0219,1.2722 0.0222,2.8271 0,1.5549 0.0294,3.00445 0.0649,3.22125 0.21751,1.32812 1.35201,2.31968 2.67711,2.33982 0.18622,0.003 0.46934,-0.025 0.62917,-0.0619 z m -55.218559,-7.85601 c 3.503418,-0.26513 7.002205,-1.74505 9.666016,-4.08851 6.304574,-5.54641 7.532955,-14.85739 2.881635,-21.84251 -3.435359,-5.15905 -9.58505,-8.01824 -15.786659,-7.33974 -0.916641,0.10025 -2.516577,0.46883 -3.496424,0.80539 -4.872186,1.67348 -8.682495,5.45567 -10.394874,10.31814 -0.452576,1.28514 -0.803416,2.98514 -0.869728,4.2143 -0.02489,0.46128 -0.06044,0.89295 -0.07903,0.95926 -0.01858,0.0664 9.59e-4,0.64528 0.04319,1.28658 0.398609,6.03857 3.893023,11.32682 9.238624,13.9812 2.751122,1.36608 5.708847,1.93963 8.797244,1.70589 z m 111.932489,0 c 5.79173,-0.43831 10.99907,-3.96792 13.64255,-9.24712 2.99162,-5.9745 2.02439,-13.33868 -2.41892,-18.417 -3.58003,-4.09164 -9.00998,-6.19649 -14.46265,-5.60624 -0.18621,0.0201 -0.81088,0.12894 -1.38814,0.24173 -5.04737,0.98625 -9.53702,4.46098 -11.75175,9.09519 -0.91109,1.90643 -1.53016,4.22617 -1.62641,6.09434 -0.025,0.48415 -0.0553,0.93402 -0.0675,0.99968 -0.0121,0.0657 0.009,0.59894 0.0468,1.18501 0.18899,2.92046 1.17893,5.86984 2.76688,8.24337 3.39641,5.07673 9.15403,7.87307 15.25914,7.41104 z M 41.195857,156.53034 c 1.02419,-0.18582 1.957311,-0.69563 2.650558,-1.44813 0.355055,-0.3854 0.373386,-0.42597 0.864231,-1.91289 0.447268,-1.35491 0.60999,-1.73678 1.505186,-3.53238 0.897137,-1.79948 1.133967,-2.20843 2.230557,-3.85165 1.102313,-1.65181 1.372045,-2.00342 2.657174,-3.46379 1.253982,-1.42498 1.633938,-1.80427 3.08191,-3.0765 1.484197,-1.30406 1.837858,-1.5755 3.489407,-2.67809 1.690737,-1.12876 1.997651,-1.30495 3.835006,-2.20159 1.832102,-0.89406 2.168803,-1.03255 4.073384,-1.67544 1.935039,-0.65318 2.218194,-0.72929 4.16485,-1.11955 3.435205,-0.68866 3.447021,-0.6892 16.276386,-0.73688 l 10.59885,-0.0394 0.444715,-0.21896 c 0.542864,-0.26729 1.078977,-0.81214 1.333482,-1.35524 l 0.182558,-0.38953 0.03935,-10.59735 c 0.04765,-12.82769 0.04825,-12.83977 0.736888,-16.27491 0.390407,-1.9474 0.466137,-2.229056 1.119711,-4.164457 0.64264,-1.903059 0.7821,-2.242032 1.67569,-4.073385 0.89664,-1.837555 1.07302,-2.14484 2.20162,-3.835706 1.10592,-1.656849 1.37062,-2.001509 2.68411,-3.494919 1.27481,-1.449419 1.65986,-1.835138 3.0763,-3.081606 1.45338,-1.278978 1.80728,-1.550383 3.45752,-2.651663 1.64323,-1.096589 2.05218,-1.333419 3.85166,-2.230556 1.7956,-0.895196 2.17748,-1.057918 3.53239,-1.505186 1.4869,-0.490845 1.52748,-0.509177 1.91288,-0.864231 2.22787,-2.052449 1.99227,-5.674727 -0.488,-7.5028 -0.67285,-0.495921 -1.42098,-0.788769 -2.29511,-0.8984 -0.49297,-0.06183 -0.61871,-0.03986 -6.80534,1.188952 l -6.30309,1.251942 -6.06047,2.055306 -6.060473,2.055309 -5.700446,2.812871 -5.700444,2.812871 -5.323972,3.549486 -5.323963,3.549488 -4.779274,4.190069 -4.779275,4.190071 -4.229915,4.807744 -4.229912,4.80775 -3.582737,5.36731 -3.582739,5.36729 -2.815268,5.70407 -2.815268,5.70406 -2.054845,6.06047 -2.054842,6.06046 -1.256494,6.30931 -1.256493,6.30929 0.07347,0.54597 c 0.146782,1.09068 0.607028,2.0202 1.389222,2.80572 1.166042,1.17098 2.73549,1.66401 4.359247,1.36939 z m 184.285693,-0.069 c 0.57874,-0.15151 1.42476,-0.58586 1.87966,-0.96502 0.99078,-0.82584 1.5723,-1.88747 1.73813,-3.17314 0.0583,-0.4521 0.0132,-0.70903 -1.18905,-6.78729 l -1.24965,-6.3174 -2.06161,-6.08277 -2.06163,-6.08276 -1.76914,-3.58051 c -0.97303,-1.96929 -2.23509,-4.52859 -2.80458,-5.68734 l -1.03542,-2.10682 -3.55548,-5.33294 -3.55547,-5.33296 -4.22112,-4.80928 -4.2211,-4.809282 -4.77388,-4.19627 -4.77389,-4.19627 -5.38042,-3.590887 -5.38042,-3.59089 -2.16977,-1.065803 c -1.19337,-0.586191 -3.75429,-1.849156 -5.69095,-2.80659 l -3.52115,-1.740787 -6.06048,-2.052604 -6.06046,-2.052604 -6.19591,-1.237598 c -6.69878,-1.33804 -6.63638,-1.329141 -7.59687,-1.083488 -2.40325,0.614645 -3.9947,3.091618 -3.56644,5.550887 0.0953,0.547325 0.46097,1.470029 0.74985,1.892234 0.31899,0.466181 0.86553,1.024066 1.13608,1.159663 0.1306,0.06546 0.86213,0.326125 1.62562,0.579259 1.19282,0.395489 1.67874,0.604249 3.45344,1.483705 1.90653,0.94478 2.20325,1.116796 3.85975,2.237589 1.55481,1.052 2.00935,1.402947 3.40385,2.62811 1.40271,1.232358 1.79525,1.624921 3.05609,3.05623 1.30707,1.483796 1.56627,1.82136 2.68634,3.498558 1.13674,1.702193 1.32043,2.0212 2.21236,3.842373 0.8931,1.823618 1.03015,2.155931 1.67558,4.062884 0.60536,1.788553 0.87349,2.768981 1.03095,3.769691 0.0176,0.11174 0.13724,0.72117 0.2659,1.3543 0.17672,0.86965 0.26908,1.59823 0.37763,2.97944 0.13522,1.72008 0.14606,2.45363 0.18307,12.39181 l 0.0393,10.5635 0.18256,0.38953 c 0.2545,0.54309 0.79061,1.08795 1.33347,1.35524 l 0.44473,0.21896 10.59883,0.0393 c 9.9351,0.0368 10.71335,0.0482 12.42715,0.18167 1.6511,0.12861 2.02845,0.18276 3.8936,0.55878 1.91604,0.38629 2.217,0.46757 4.16446,1.12462 1.95368,0.65915 2.23578,0.77561 4.07054,1.68053 1.7835,0.87963 2.1476,1.08989 3.82004,2.20598 1.67122,1.11527 2.00654,1.37276 3.49379,2.68287 1.44705,1.27473 1.82125,1.64966 3.10798,3.11412 1.29522,1.47414 1.59587,1.86386 2.62378,3.40131 1.03484,1.54785 1.27048,1.95702 2.16981,3.76786 0.85971,1.73108 1.08348,2.2508 1.51344,3.51502 0.27752,0.81597 0.54561,1.56294 0.59577,1.65994 0.13047,0.25228 0.76305,0.83282 1.25146,1.1485 0.42081,0.27198 1.17124,0.55556 1.79841,0.67962 0.44946,0.0889 1.52522,0.0397 2.03144,-0.0928 z m -92.15977,-23.59243 c 0.53154,-0.23763 0.84715,-0.48558 1.16257,-0.91335 0.51846,-0.70309 0.51801,-0.69977 0.56042,-4.17289 l 0.0376,-3.07905 1.3708,-0.27068 1.3708,-0.27067 0.0174,-5.0469 0.0173,-5.04691 5.08845,-0.0174 c 4.76626,-0.0163 5.09149,-0.0248 5.13635,-0.13543 0.38922,-0.95957 0.75815,-2.80014 0.85783,-4.27958 0.1344,-1.99468 -0.1301,-4.28735 -0.69561,-6.02956 l -0.20881,-0.6433 -5.10603,0.0178 -5.10604,0.0178 V 97.934219 92.86962 l -1.37122,-0.27075 -1.37123,-0.270749 -0.0376,-3.079056 c -0.0274,-2.247434 -0.061,-3.143066 -0.12408,-3.316056 -0.46142,-1.264531 -1.40711,-1.967758 -2.65154,-1.971691 -0.53729,-0.0017 -0.74084,0.04381 -1.18195,0.26426 -0.49464,0.247202 -0.75452,0.465172 -1.05515,0.885017 -0.48922,0.683183 -0.49032,0.691736 -0.5324,4.138468 l -0.0376,3.079051 -1.3708,0.270668 -1.37079,0.27067 -0.0174,5.046911 -0.0174,5.046907 h -5.09032 -5.09033 l -0.2086,0.60944 c -0.30427,0.88897 -0.60433,2.53771 -0.69348,3.81048 -0.14236,2.03294 0.10127,4.2054 0.66431,5.92352 l 0.23855,0.72792 h 5.10686 5.10687 l 7.7e-4,5.06169 7.7e-4,5.06167 1.38777,0.26719 1.38777,0.26719 v 2.85537 c 0,1.65902 0.0289,3.00809 0.0691,3.21983 0.20024,1.05587 0.90943,1.86631 1.92847,2.20378 0.42096,0.13941 1.4115,0.084 1.82829,-0.1024 z"
       id="path4085"
       inkscape:connector-curvature="0" />
  </g>
</svg>
