<?xml version="1.0" encoding="UTF-8" standalone="no"?>
<!-- Created with Inkscape (http://www.inkscape.org/) -->

<svg
   xmlns:dc="http://purl.org/dc/elements/1.1/"
   xmlns:cc="http://creativecommons.org/ns#"
   xmlns:rdf="http://www.w3.org/1999/02/22-rdf-syntax-ns#"
   xmlns:svg="http://www.w3.org/2000/svg"
   xmlns="http://www.w3.org/2000/svg"
   xmlns:sodipodi="http://sodipodi.sourceforge.net/DTD/sodipodi-0.dtd"
   xmlns:inkscape="http://www.inkscape.org/namespaces/inkscape"
   width="1000"
   height="1000"
   viewBox="0 0 264.58333 264.58334"
   version="1.1"
   id="svg8"
   inkscape:version="0.92.4 (5da689c313, 2019-01-14)"
   sodipodi:docname="56T_Turntable.svg">
  <defs
     id="defs2" />
  <sodipodi:namedview
     id="base"
     pagecolor="#000000"
     bordercolor="#666666"
     borderopacity="1.0"
     inkscape:pageopacity="0"
     inkscape:pageshadow="2"
     inkscape:zoom="1.4"
     inkscape:cx="764.4987"
     inkscape:cy="365.38473"
     inkscape:document-units="mm"
     inkscape:current-layer="layer1"
     showgrid="false"
     inkscape:pagecheckerboard="true"
     inkscape:window-width="3732"
     inkscape:window-height="2032"
     inkscape:window-x="108"
     inkscape:window-y="54"
     inkscape:window-maximized="1"
     units="px" />
  <metadata
     id="metadata5">
    <rdf:RDF>
      <cc:Work
         rdf:about="">
        <dc:format>image/svg+xml</dc:format>
        <dc:type
           rdf:resource="http://purl.org/dc/dcmitype/StillImage" />
        <dc:title></dc:title>
      </cc:Work>
    </rdf:RDF>
  </metadata>
  <g
     inkscape:label="Layer 1"
     inkscape:groupmode="layer"
     id="layer1"
     transform="translate(0,-32.41665)">
    <path
       style="fill:#ffffff;stroke-width:0.07100599"
       d="m 130.07484,295.96485 c -0.0829,-0.13828 -3.24273,-9.77394 -3.24273,-9.88849 0,-0.1462 -0.17867,-0.17662 -1.45562,-0.2478 -0.39054,-0.0217 -0.90178,-0.0573 -1.1361,-0.0789 l -0.42603,-0.0393 -0.0754,0.2367 c -0.0414,0.13019 -1.03104,2.30564 -2.19915,4.83435 l -2.12384,4.59764 -0.28606,-0.004 c -0.15733,-0.002 -1.04947,-0.0901 -1.98252,-0.19535 -1.28313,-0.14477 -1.71154,-0.21731 -1.7583,-0.2978 -0.034,-0.0585 -0.53918,-2.37083 -1.1226,-5.13847 -0.58342,-2.76766 -1.0772,-5.04855 -1.0973,-5.06863 -0.0383,-0.0383 -2.7032,-0.5857 -2.85106,-0.5857 -0.0468,0 -0.1,0.0577 -0.11843,0.12808 -0.0184,0.0704 -1.22562,2.09945 -2.68266,4.50887 -2.62552,4.34173 -2.6512,4.38081 -2.87835,4.38081 -0.31312,0 -3.67168,-0.76765 -3.72318,-0.851 -0.0227,-0.0368 -0.26223,-2.37782 -0.53227,-5.2024 l -0.490956,-5.13559 -1.41162,-0.486 c -1.192576,-0.41058 -1.425851,-0.47075 -1.503341,-0.38776 -0.05045,0.054 -1.504181,1.92754 -3.230522,4.16333 -1.726347,2.2358 -3.184783,4.0651 -3.240984,4.0651 -0.135791,0 -3.598547,-1.19934 -3.671576,-1.27166 -0.03131,-0.031 -0.02399,-1.79457 0.01624,-3.91898 0.04025,-2.12444 0.07781,-4.46657 0.0835,-5.20474 l 0.01032,-1.34209 -0.843147,-0.29803 c -0.463732,-0.1639 -1.09558,-0.42546 -1.404115,-0.58125 l -0.560969,-0.28322 -3.592881,3.71604 c -2.779522,2.87479 -3.631466,3.71609 -3.763316,3.71625 -0.09373,0 -0.849841,-0.33225 -1.680236,-0.73861 -0.830387,-0.40635 -1.576475,-0.75998 -1.657968,-0.78584 -0.119156,-0.0378 -0.148125,-0.10519 -0.147963,-0.34402 0,-0.16334 0.287688,-2.51739 0.639054,-5.23119 0.351367,-2.71381 0.638849,-4.95833 0.638849,-4.98781 0,-0.0295 -0.604652,-0.35627 -1.343675,-0.72618 l -1.343675,-0.67254 -3.964023,3.26277 c -2.791904,2.29803 -4.014898,3.26313 -4.136077,3.26391 -0.189216,0.002 -3.262362,-1.87998 -3.32108,-2.033 -0.01967,-0.0512 0.527033,-2.37045 1.214894,-5.15379 0.687856,-2.78333 1.2495,-5.09257 1.248093,-5.13161 -0.0032,-0.0893 -2.340644,-1.63617 -2.454953,-1.62465 -0.0463,0.005 -1.981085,1.24935 -4.299537,2.76595 -3.107048,2.03245 -4.28108,2.76453 -4.465282,2.78438 -0.231239,0.0249 -0.357218,-0.0589 -1.686391,-1.12185 -1.134974,-0.90772 -1.436484,-1.18388 -1.436484,-1.31579 0,-0.0918 0.810877,-2.35946 1.801948,-5.03916 l 1.801949,-4.87223 -1.099867,-0.96752 -1.099867,-0.96753 -4.643055,2.3212 c -2.728917,1.36427 -4.723796,2.32121 -4.838901,2.32121 -0.159351,0 -0.43717,-0.2416 -1.490982,-1.29657 -0.712327,-0.71311 -1.295139,-1.35226 -1.295139,-1.42033 0,-0.0681 1.054974,-2.23353 2.344386,-4.81212 l 2.34439,-4.68835 -0.969623,-1.10225 c -0.714709,-0.81245 -0.9997,-1.09034 -1.08403,-1.05698 -1.113413,0.44037 -9.71586,3.58369 -9.807636,3.58369 -0.166653,0 -2.483897,-2.88837 -2.484132,-3.09638 -7.1e-5,-0.0823 0.186692,-0.43379 0.415078,-0.78108 2.385346,-3.62716 5.151527,-7.89729 5.175936,-7.99004 0.01745,-0.0664 -0.314133,-0.63083 -0.774406,-1.31832 l -0.80494,-1.20231 -4.97042,1.22714 c -2.733729,0.67495 -5.072087,1.22823 -5.196348,1.22957 -0.217998,0.002 -0.259762,-0.0517 -1.189351,-1.53859 -0.648906,-1.03792 -0.963421,-1.60677 -0.963421,-1.74249 0,-0.16092 0.644846,-0.98404 3.201216,-4.08622 1.760669,-2.13662 3.21785,-3.92447 3.238183,-3.97301 0.02033,-0.0486 -0.252073,-0.67962 -0.605341,-1.40238 -0.537839,-1.10035 -0.667233,-1.31408 -0.795531,-1.31408 -0.08427,0 -2.374641,0.28757 -5.089713,0.63904 -2.715072,0.35149 -5.020479,0.63876 -5.123129,0.63838 -0.172643,-8.1e-4 -0.244458,-0.11908 -0.957852,-1.57989 -0.481367,-0.98568 -0.78108,-1.68594 -0.797458,-1.86323 l -0.02624,-0.28401 3.690326,-3.55031 c 2.029679,-1.95266 3.690607,-3.57497 3.690951,-3.60512 4.02e-4,-0.0301 -0.128383,-0.31143 -0.286059,-0.62503 -0.157679,-0.3136 -0.410953,-0.92297 -0.562832,-1.35415 -0.15188,-0.43119 -0.287222,-0.79504 -0.300762,-0.80858 -0.01355,-0.0135 -2.356424,0.0171 -5.206406,0.068 -2.849981,0.0509 -5.2032323,0.0806 -5.2294469,0.066 -0.056924,-0.0317 -0.1188337,-0.19885 -0.7703062,-2.07944 -0.2764215,-0.79792 -0.4930336,-1.52155 -0.4813615,-1.60804 0.015358,-0.11377 1.1602258,-1.03636 4.1395696,-3.33586 2.26509,-1.74823 4.12684,-3.18459 4.137219,-3.1919 0.01038,-0.007 -0.196228,-0.64919 -0.459132,-1.42637 -0.262903,-0.7772 -0.479089,-1.41821 -0.480411,-1.42446 -0.0029,-0.0137 -4.258597,-0.43007 -8.902712,-0.871 -0.7945723,-0.0755 -1.4614869,-0.15397 -1.4820312,-0.17452 -0.045356,-0.0454 -0.8721121,-3.65491 -0.8721121,-3.80758 0,-0.0669 1.651321,-1.10831 4.3355704,-2.73424 2.3845639,-1.44438 4.4299689,-2.67408 4.5453469,-2.73266 0.151691,-0.0771 0.201106,-0.14584 0.178472,-0.24852 -0.01721,-0.0781 -0.150076,-0.74112 -0.295248,-1.47338 -0.224634,-1.13305 -0.282863,-1.33136 -0.390923,-1.33136 -0.106438,0 -8.8694643,-1.83192 -9.8702365,-2.06339 l -0.3254183,-0.0753 -0.1957457,-1.78867 c -0.1075765,-0.9838 -0.1848064,-1.89524 -0.1715403,-2.02548 l 0.024123,-0.2368 4.6802348,-2.15966 c 2.5741288,-1.18781 4.737417,-2.15966 4.807309,-2.15966 0.108866,0 0.122372,-0.0483 0.09426,-0.33727 -0.04227,-0.43445 -0.173515,-2.37803 -0.173515,-2.56953 0,-0.0908 -0.04611,-0.14645 -0.121282,-0.14645 -0.0667,0 -2.3358305,-0.73752 -5.0425021,-1.63892 l -4.92122336,-1.63893 0.0188395,-2.03198 0.0188395,-2.03199 4.89941096,-1.61748 c 2.6946775,-0.8896 4.9553295,-1.61817 5.0236725,-1.61903 0.07767,-0.001 0.124261,-0.0565 0.124261,-0.14802 0,-0.19148 0.131247,-2.13508 0.173515,-2.56952 0.02621,-0.26946 0.01101,-0.33728 -0.07563,-0.33728 -0.05964,0 -2.1590244,-0.94629 -4.665297,-2.10287 -2.5062703,-1.15658 -4.6287501,-2.13035 -4.7166195,-2.16393 -0.2099538,-0.0802 -0.208718,-0.18225 0.028499,-2.35371 0.155758,-1.42581 0.2129287,-1.76276 0.3035918,-1.78933 0.3256618,-0.0955 9.9226047,-2.09904 10.0540287,-2.09904 0.145404,0 0.174318,-0.0948 0.449771,-1.47338 0.161909,-0.81036 0.294359,-1.49734 0.294337,-1.52663 -2.2e-5,-0.0293 -0.04489,-0.0532 -0.09972,-0.0532 -0.05482,0 -0.925531,-0.49955 -1.934911,-1.11013 -1.0093816,-0.61057 -2.4583142,-1.48651 -3.219853,-1.94653 -4.1639356,-2.51529 -3.7253576,-2.21961 -3.7482024,-2.52699 -0.019222,-0.25855 0.703247,-3.60809 0.7988494,-3.70369 0.042019,-0.042 9.699819,-0.99761 10.157555,-1.00504 l 0.214112,-0.003 0.479227,-1.43787 c 0.447329,-1.34217 0.470887,-1.44376 0.353934,-1.52642 -0.06891,-0.0487 -1.930618,-1.48657 -4.137129,-3.19527 -2.6724378,-2.0695 -4.0187623,-3.15509 -4.032578,-3.2516 -0.015739,-0.10995 1.1419117,-3.60442 1.2293094,-3.71077 0.0096,-0.0117 1.7706546,0.0114 3.9133606,0.0515 2.142706,0.04 4.501013,0.0788 5.240683,0.0862 l 1.344852,0.0134 0.260085,-0.77494 c 0.143048,-0.42622 0.392599,-1.03784 0.554559,-1.35916 0.161958,-0.32132 0.294471,-0.61252 0.294471,-0.6471 0,-0.0345 -1.661539,-1.66833 -3.692312,-3.63054 -3.034239,-2.93182 -3.692482,-3.60112 -3.693271,-3.75528 -4.03e-4,-0.10319 0.357811,-0.93051 0.796315,-1.83849 l 0.79728,-1.65089 h 0.286523 c 0.157589,0 2.506914,0.28769 5.220725,0.63906 2.71381,0.35136 4.960665,0.63884 4.993014,0.63884 0.03234,0 0.348734,-0.59619 0.703077,-1.32486 0.543237,-1.11712 0.631287,-1.34565 0.561521,-1.45736 -0.04551,-0.0728 -1.50388,-1.85944 -3.240825,-3.97015 -2.452726,-2.980327 -3.158084,-3.880704 -3.158084,-4.031046 0,-0.212074 1.860846,-3.2584 2.030054,-3.323331 0.05307,-0.02036 2.373939,0.525753 5.157485,1.213596 2.783547,0.687841 5.084685,1.250116 5.113636,1.249507 0.02895,-8.05e-4 0.417692,-0.548146 0.863864,-1.216725 l 0.81122,-1.215608 -0.514372,-0.790315 c -0.282906,-0.434672 -1.548318,-2.371972 -2.81203,-4.305109 -1.26371,-1.933138 -2.310284,-3.595764 -2.325714,-3.694721 -0.04021,-0.257887 2.247195,-3.121853 2.493377,-3.121853 0.09034,0 2.330045,0.800474 4.977137,1.778833 2.647089,0.978359 4.856327,1.769187 4.909418,1.757399 0.05309,-0.0118 0.512374,-0.493778 1.020632,-1.071086 l 0.924115,-1.050156 -2.342147,-4.68387 c -1.288182,-2.576129 -2.342148,-4.740199 -2.342148,-4.809046 0,-0.162476 2.625322,-2.786496 2.787881,-2.786496 0.06808,0 2.230916,1.05366 4.806294,2.341465 l 4.682508,2.341467 1.068765,-0.935083 c 0.587821,-0.514295 1.068766,-0.976183 1.068766,-1.026417 0,-0.05024 -0.04553,-0.211804 -0.101177,-0.359044 -0.05565,-0.14724 -0.260294,-0.699073 -0.454771,-1.226291 -0.194476,-0.52722 -0.513214,-1.389943 -0.708306,-1.917161 -0.195091,-0.52722 -0.472517,-1.278108 -0.6165,-1.668641 -0.34483,-0.935295 -0.874818,-2.364453 -1.314515,-3.544698 -0.195267,-0.524138 -0.35503,-1.034847 -0.35503,-1.134907 0,-0.151449 0.246429,-0.379374 1.470965,-1.360523 1.196882,-0.958988 1.50449,-1.173145 1.650888,-1.149346 0.09896,0.01608 2.097087,1.285243 4.440284,2.820349 2.343199,1.535103 4.293032,2.792012 4.332964,2.793129 0.08864,0.0025 2.448108,-1.568122 2.448108,-1.629603 0,-0.02407 -0.562289,-2.324982 -1.249528,-5.113145 -0.687244,-2.788162 -1.232856,-5.112838 -1.212477,-5.165945 0.06406,-0.166951 3.11102,-2.030119 3.319978,-2.030119 0.145938,0 1.096013,0.745413 4.082033,3.202696 2.140505,1.761483 3.93344,3.218666 3.984303,3.238182 0.103931,0.03988 2.720821,-1.21695 2.720403,-1.306542 0,-0.03158 -0.287724,-2.276469 -0.639054,-4.988653 C 73.581063,49.546058 73.29361,47.197052 73.29361,47.03823 v -0.288768 l 1.650888,-0.798664 c 0.90799,-0.439265 1.734861,-0.798248 1.8375,-0.797743 0.152876,8.05e-4 0.831523,0.668378 3.75422,3.69323 1.962188,2.030772 3.596376,3.692312 3.631537,3.692312 0.03516,0 0.326827,-0.132513 0.648149,-0.294471 0.321325,-0.16196 0.931875,-0.411153 1.356784,-0.553764 l 0.772566,-0.259288 -0.01067,-1.274641 c -0.0059,-0.701056 -0.04373,-3.059583 -0.08415,-5.241176 -0.04041,-2.181593 -0.06373,-3.974649 -0.05183,-3.98457 0.102335,-0.08532 3.626744,-1.250867 3.725101,-1.231926 0.07082,0.01365 1.56089,1.875974 3.314347,4.142364 1.752122,2.264672 3.223168,4.114357 3.268995,4.110411 0.04582,-0.0039 0.691456,-0.208946 1.434747,-0.455556 l 1.351431,-0.448382 0.491405,-5.140203 c 0.27027,-2.827111 0.51136,-5.172488 0.53574,-5.211948 0.0669,-0.108118 3.39757,-0.85159 3.71006,-0.828141 l 0.27171,0.02039 2.65729,4.395842 c 1.46151,2.417713 2.65728,4.438721 2.65728,4.491128 0,0.05241 0.0239,0.09531 0.0532,0.09533 0.0293,2.2e-5 0.71627,-0.132431 1.52663,-0.294337 1.39361,-0.278438 1.47337,-0.30303 1.47337,-0.454208 0,-0.135277 2.00265,-9.724776 2.09874,-10.049592 0.0268,-0.09064 0.36425,-0.147881 1.78964,-0.303592 0.96613,-0.105544 1.87176,-0.191078 2.01253,-0.19008 l 0.25592,0.0018 2.17603,4.724261 c 1.19681,2.598345 2.17603,4.768088 2.17603,4.821652 0,0.07029 0.0741,0.08943 0.26627,0.06878 0.30074,-0.03231 2.45469,-0.170902 2.65599,-0.170902 0.077,0 0.1315,-0.05127 0.13223,-0.124261 8e-4,-0.06835 0.72887,-2.328996 1.6182,-5.023673 l 1.61696,-4.899413 2.03409,-0.01884 2.03409,-0.01884 1.63766,4.92958 c 0.90071,2.711272 1.63766,4.9804 1.63766,5.042507 0,0.06242 0.0586,0.112925 0.13099,0.112925 0.20129,0 2.35525,0.138599 2.65599,0.170902 0.21518,0.02311 0.26627,0.0053 0.26627,-0.09302 0,-0.06688 0.97071,-2.228641 2.15712,-4.803898 l 2.15712,-4.682224 0.23933,-0.02412 c 0.13163,-0.01326 1.04288,0.06381 2.02499,0.171292 l 1.78563,0.195412 0.13678,0.645277 c 0.0753,0.354904 0.56577,2.679047 1.0901,5.164763 l 0.95332,4.519483 1.4555,0.291528 c 0.80053,0.160338 1.46465,0.264101 1.47583,0.23058 0.023,-0.06911 5.40742,-8.97586 5.45565,-9.024615 0.0343,-0.0347 3.75728,0.783707 3.86334,0.849263 0.0362,0.02235 0.28948,2.368391 0.56291,5.213423 0.27344,2.845031 0.50588,5.179723 0.51653,5.188205 0.0409,0.03259 2.85066,0.95504 2.8611,0.939318 0.006,-0.0091 1.44135,-1.869855 3.18951,-4.134947 1.99111,-2.579851 3.23051,-4.127042 3.31775,-4.141622 0.12323,-0.0206 3.29784,1.037072 3.63519,1.211114 0.118,0.06088 0.12764,0.129968 0.0904,0.64726 -0.0375,0.519914 -0.1296,6.104898 -0.14532,8.808973 l -0.006,1.058263 0.78107,0.26265 c 0.42959,0.144459 1.04397,0.395163 1.36529,0.557124 0.32132,0.16196 0.60889,0.294189 0.63906,0.293844 0.0301,-4.02e-4 1.65247,-1.659112 3.60513,-3.686149 3.0961,-3.214027 3.57755,-3.686243 3.76331,-3.691172 0.13303,-0.0035 0.70631,0.236107 1.52663,0.638138 0.72248,0.354082 1.46539,0.709593 1.65089,0.790019 0.30057,0.130317 0.33694,0.170323 0.33406,0.367537 -0.002,0.121716 -0.29963,2.489944 -0.66192,5.262726 l -0.65871,5.041426 1.31316,0.659667 c 0.72223,0.362815 1.35516,0.650389 1.40653,0.639053 0.0513,-0.01133 1.85019,-1.466472 3.99747,-3.233634 3.01557,-2.481767 3.94783,-3.213019 4.09611,-3.213019 0.1233,0 0.74641,0.345664 1.74181,0.966241 1.41645,0.88308 1.54983,0.983251 1.54983,1.163872 0,0.153044 -2.32459,9.775908 -2.44671,10.128392 -0.0154,0.04454 0.52796,0.451503 1.20756,0.904369 l 1.23562,0.823391 4.31539,-2.818491 c 2.37346,-1.550171 4.39526,-2.829283 4.49288,-2.842473 0.14039,-0.01896 0.4857,0.223133 1.65089,1.157466 0.93573,0.750324 1.47338,1.228169 1.47338,1.309493 0,0.09165 -3.10302,8.582831 -3.58415,9.807781 -0.0332,0.08468 0.2435,0.369586 1.05443,1.085466 l 1.09954,0.970653 4.6202,-2.310321 c 2.72171,-1.36097 4.70086,-2.310322 4.81643,-2.310322 0.15982,0 0.43639,0.240447 1.49134,1.29656 0.90754,0.908521 1.29514,1.344123 1.29514,1.455479 0,0.08741 -1.04453,2.248296 -2.32121,4.801977 l -2.3212,4.643058 0.9765,1.110042 c 0.53706,0.610525 1.0003,1.095329 1.0294,1.077342 0.19368,-0.119694 9.70988,-3.591548 9.8443,-3.591548 0.13378,0 0.4024,0.29442 1.31187,1.437871 1.04896,1.318786 1.14164,1.458453 1.11937,1.686392 -0.0181,0.185122 -0.72774,1.323885 -2.78175,4.463892 -1.5166,2.318455 -2.76128,4.253246 -2.76595,4.299537 -0.0124,0.123758 1.53935,2.452122 1.63552,2.453953 0.0451,8.05e-4 2.27777,-0.541633 4.96163,-1.205539 2.68388,-0.663905 4.99793,-1.207101 5.14234,-1.207101 h 0.26257 l 0.97106,1.554951 c 0.53966,0.864144 0.97058,1.62912 0.96995,1.721897 0,0.114412 -1.02778,1.414239 -3.2639,4.130957 l -3.26278,3.96401 0.67252,1.34368 c 0.36992,0.73903 0.70047,1.34368 0.73458,1.34368 0.0342,0 2.28345,-0.28757 4.99851,-0.63906 2.71507,-0.35147 5.0595,-0.63772 5.20983,-0.63609 l 0.27332,0.003 0.79882,1.66945 c 0.43935,0.91819 0.79872,1.73964 0.7986,1.82543 0,0.11278 -1.02984,1.1515 -3.71622,3.74886 l -3.71603,3.59285 0.29354,0.58381 c 0.16144,0.32109 0.41984,0.95743 0.57421,1.41408 l 0.28069,0.83028 0.92307,-0.0186 c 5.2547,-0.10589 9.51367,-0.1548 9.55789,-0.10978 0.0704,0.0717 1.27052,3.54038 1.27052,3.67222 0,0.0552 -1.82929,1.51278 -4.06508,3.23916 -2.23581,1.72638 -4.10979,3.18054 -4.16444,3.23146 -0.0845,0.0787 -0.0266,0.30412 0.38589,1.50361 l 0.48522,1.41104 5.04607,0.47788 c 2.77534,0.26283 5.11167,0.4917 5.19187,0.5086 0.16445,0.0346 0.14373,-0.0359 0.63243,2.15455 0.1773,0.79473 0.32236,1.53239 0.32236,1.63924 0,0.18098 -0.30028,0.3759 -4.38461,2.84611 -2.41154,1.45852 -4.45208,2.66486 -4.53451,2.68076 -0.1491,0.0288 -0.14846,0.0359 0.12277,1.35391 0.14993,0.72874 0.27329,1.39422 0.27414,1.47885 0.002,0.12595 0.0627,0.1667 0.33878,0.22451 6.24677,1.30804 9.93627,2.10114 9.98589,2.14655 0.0659,0.0602 0.51766,3.94878 0.46473,3.99955 -0.0798,0.0766 -9.46434,4.37492 -9.5517,4.37492 -0.11967,0 -0.11879,-0.0493 -0.0259,1.41873 0.0957,1.5117 0.1156,1.63408 0.26625,1.63632 0.0666,10e-4 2.32577,0.7305 5.02047,1.6211 l 4.8994,1.61928 0.0189,2.02764 0.0187,2.02765 -4.96495,1.64121 c -2.73072,0.90267 -4.99841,1.64122 -5.03929,1.64122 -0.096,0 -0.13565,0.27435 -0.18503,1.2781 -0.0221,0.44912 -0.0597,1.03225 -0.0836,1.29587 -0.0396,0.4368 -0.0316,0.47941 0.09,0.48065 0.0733,8.1e-4 2.2423,0.97357 4.81984,2.16181 4.09432,1.8875 4.68889,2.18112 4.70623,2.32408 0.024,0.19811 -0.37788,3.81163 -0.4297,3.86345 -0.0286,0.0286 -9.58889,2.06927 -10.16523,2.16983 -0.11901,0.0208 -0.17457,0.21658 -0.41888,1.47599 -0.15494,0.79862 -0.25294,1.46267 -0.21784,1.47566 0.0352,0.013 2.06092,1.23263 4.50173,2.71032 3.94409,2.38776 4.44041,2.70783 4.46065,2.87651 0.0179,0.14992 -0.73618,3.71308 -0.80189,3.78863 -0.0135,0.0156 -10.18566,1.00871 -10.34517,1.00998 -0.0825,8.1e-4 -1.00101,2.85057 -0.93694,2.90721 0.0336,0.0298 1.89051,1.46657 4.12631,3.19286 3.85886,2.97949 4.06509,3.15016 4.06509,3.36397 0,0.20454 -1.09665,3.50614 -1.1991,3.61004 -0.0403,0.0408 -3.7511,-0.008 -8.49498,-0.11232 l -1.98994,-0.0436 -0.23839,0.7305 c -0.13111,0.40178 -0.37796,1.00945 -0.54851,1.35039 -0.17059,0.34093 -0.31015,0.66455 -0.31015,0.71915 0,0.0547 1.66154,1.7047 3.69232,3.66689 2.71208,2.6205 3.69229,3.60977 3.69229,3.72644 0,0.0874 -0.36626,0.91424 -0.81391,1.8375 -0.71906,1.48298 -0.83337,1.67867 -0.98062,1.67867 -0.15806,0 -1.32227,-0.14125 -3.21138,-0.38964 -0.46863,-0.0616 -1.33136,-0.17347 -1.91716,-0.24858 -0.58579,-0.0751 -1.56035,-0.20043 -2.16567,-0.27851 -2.47488,-0.31918 -2.81103,-0.36027 -2.95219,-0.36082 -0.12151,-8e-4 -0.26063,0.23538 -0.79082,1.34077 l -0.64334,1.34132 3.25825,3.9592 c 2.16652,2.63259 3.25827,4.01294 3.25827,4.11957 0,0.0882 -0.43935,0.86568 -0.97634,1.72773 -0.93432,1.49996 -0.98593,1.56744 -1.19928,1.56871 -0.12262,0 -2.42322,-0.54162 -5.11244,-1.20522 -2.68921,-0.6636 -4.93739,-1.20609 -4.99599,-1.20554 -0.10796,0 -1.67493,2.30638 -1.66116,2.44391 0.004,0.0411 1.25827,1.98942 2.787,4.32964 2.03965,3.12235 2.7795,4.3097 2.7795,4.46064 0,0.27299 -2.22206,3.10691 -2.43611,3.10691 -0.0764,0 -2.33936,-0.81407 -5.02893,-1.80902 l -4.8901,-1.80901 -0.27448,0.30012 c -0.63036,0.6893 -1.58618,1.79746 -1.61997,1.87821 -0.0201,0.0478 1.00516,2.14849 2.27819,4.6682 1.37694,2.72537 2.31458,4.66085 2.31458,4.77768 0,0.16012 -0.23972,0.4359 -1.29656,1.49156 -1.07843,1.07728 -1.33083,1.29516 -1.50026,1.29516 -0.12652,0 -1.93693,-0.87672 -4.77812,-2.31389 -2.51589,-1.27264 -4.61268,-2.29782 -4.65949,-2.2782 -0.0468,0.0197 -0.42061,0.33074 -0.83067,0.69135 -0.41005,0.36058 -0.88197,0.77527 -1.04873,0.9215 l -0.30317,0.26585 1.81206,4.89975 c 0.99662,2.69485 1.81203,4.96124 1.81203,5.03644 0,0.093 -0.46381,0.50398 -1.45062,1.28535 -1.1478,0.90888 -1.49527,1.14867 -1.66448,1.14867 -0.1618,0 -1.26083,-0.68445 -4.51504,-2.81184 l -4.30116,-2.81181 -1.18819,0.79969 c -0.65351,0.4398 -1.20131,0.81026 -1.21734,0.8232 -0.043,0.0347 0.077,0.55711 0.81253,3.53921 1.26749,5.13855 1.59529,6.51676 1.59397,6.70175 -0.002,0.16493 -0.17759,0.29564 -1.56869,1.16215 -0.86204,0.53699 -1.64062,0.97634 -1.73019,0.97634 -0.10965,0 -1.35397,-0.97977 -3.81001,-3.00001 -2.00594,-1.65002 -3.79096,-3.11554 -3.9667,-3.25674 l -0.31952,-0.2567 -1.35627,0.65553 -1.35626,0.6555 0.0584,0.41779 c 0.0321,0.22977 0.12577,0.945 0.20806,1.58936 0.0823,0.64439 0.19601,1.52308 0.25273,1.95266 0.0567,0.4296 0.1646,1.26036 0.23974,1.84618 0.2621,2.04284 0.43035,3.34077 0.4971,3.83432 0.12979,0.95981 0.29444,0.7849 -1.60682,1.70677 -0.92326,0.44766 -1.75098,0.81394 -1.83941,0.81394 -0.11921,0 -1.08298,-0.95441 -3.72861,-3.69232 -1.96233,-2.03076 -3.61155,-3.6923 -3.66496,-3.6923 -0.0534,0 -0.37606,0.13956 -0.71699,0.31013 -0.34094,0.17057 -0.9474,0.41702 -1.34769,0.54764 l -0.72782,0.23751 10e-4,0.3932 c 8e-4,0.21623 0.0309,1.91093 0.0669,3.76595 0.036,1.85505 0.0743,4.04061 0.0851,4.85681 l 0.0198,1.48403 -1.70198,0.59445 c -1.128,0.39396 -1.78434,0.58793 -1.94616,0.57514 -0.23272,-0.0183 -0.38834,-0.20547 -3.32366,-3.99564 -1.69374,-2.18696 -3.12306,-4.03574 -3.17627,-4.10836 -0.0925,-0.12628 -0.15884,-0.11135 -1.51792,0.34165 l -1.42118,0.4737 -0.0425,0.3684 c -0.0234,0.20262 -0.24997,2.53935 -0.50346,5.19274 -0.25348,2.6534 -0.46803,4.83038 -0.47678,4.83774 -0.0788,0.0665 -3.60616,0.8133 -3.76487,0.7971 -0.22592,-0.023 -0.10814,0.15718 -2.72831,-4.17514 -0.50781,-0.83964 -1.35775,-2.24164 -1.88875,-3.11554 -0.53099,-0.87391 -0.97583,-1.6201 -0.98853,-1.6582 -0.0188,-0.0563 -2.88792,0.46383 -2.92751,0.53067 -0.006,0.0101 -0.49506,2.31628 -1.08696,5.12504 -0.5919,2.80878 -1.10858,5.12688 -1.14818,5.15136 -0.1436,0.0888 -3.90794,0.45756 -3.97186,0.38915 -0.12553,-0.13437 -4.33938,-9.35023 -4.33938,-9.49036 0,-0.13367 -0.0316,-0.14095 -0.44378,-0.10229 -0.24409,0.0229 -0.76332,0.0595 -1.15385,0.0812 -1.07634,0.06 -1.45563,0.10951 -1.45563,0.19014 0,0.0403 -0.73895,2.30664 -1.64213,5.03631 l -1.64214,4.96306 h -2.01049 c -1.10576,0 -2.02484,-0.0239 -2.0424,-0.0532 z m 6.40438,-68.07979 3.80852,-0.25133 4.11835,-0.81642 4.11835,-0.81642 3.94083,-1.33763 3.94083,-1.33765 3.72781,-1.84156 3.72782,-1.84157 3.51479,-2.34772 3.5148,-2.34772 3.11678,-2.73489 3.11675,-2.73489 2.73404,-3.11424 c 2.7249,-3.10385 2.73837,-3.12073 4.03707,-5.06669 l 1.30307,-1.95247 V 164.461 129.57814 l -1.27222,-1.90638 c -1.26348,-1.89328 -1.29122,-1.92806 -4.04177,-5.06095 l -2.76955,-3.15457 -3.1476,-2.75974 -3.14757,-2.75975 -3.49458,-2.3309 c -3.27845,-2.18674 -3.59244,-2.37883 -5.07693,-3.10584 -0.8703,-0.42623 -2.52496,-1.24357 -3.67703,-1.81632 l -2.09467,-1.04137 -3.96904,-1.34534 -3.96905,-1.34534 -4.12563,-0.82263 -4.12565,-0.82263 -4.08135,-0.2707 -4.08134,-0.27071 -4.14178,0.27446 -4.14177,0.27448 -4.10168,0.8207 -4.10167,0.82071 -3.93557,1.33997 -3.93557,1.33998 -3.74083,1.84691 -3.74082,1.8469 -3.466291,2.32441 -3.466286,2.3244 -3.125797,2.74192 -3.12579,2.74192 -2.767706,3.15096 c -2.748024,3.12855 -2.77666,3.16439 -4.028006,5.04143 l -1.260306,1.89046 -5.1e-5,34.91816 -4.8e-5,34.91816 1.287218,1.92888 c 1.281253,1.91994 1.299933,1.94335 4.028083,5.04839 l 2.740852,3.11952 3.160882,2.77251 3.16088,2.77251 3.497428,2.33233 c 2.8096,1.87364 3.696428,2.42822 4.509278,2.81994 0.55652,0.26818 2.24203,1.09417 3.74558,1.83553 l 2.73373,1.34793 3.90533,1.31992 3.90534,1.31993 4.11833,0.81859 4.11835,0.8186 3.58581,0.24196 c 1.97219,0.13306 3.93291,0.24578 4.35716,0.25044 0.42424,0.005 2.4852,-0.1046 4.57989,-0.24282 z M 75.193003,216.02061 c 0.131483,-0.0353 0.159764,-0.0924 0.159764,-0.32322 0,-0.15423 -0.03307,-0.34221 -0.07351,-0.41775 -0.07234,-0.13516 -0.325912,-0.13734 -15.938345,-0.13734 -15.612429,0 -15.866008,0.002 -15.938345,0.13734 -0.102868,0.1922 -0.09248,0.69523 0.01525,0.73871 0.127412,0.0514 31.583419,0.0536 31.775177,0.002 z m 145.609707,0.002 c 0.13084,-0.0502 0.15562,-0.52435 0.0388,-0.74263 -0.0723,-0.13516 -0.32591,-0.13735 -15.93833,-0.13735 -15.61242,0 -15.86601,0.002 -15.93833,0.13735 -0.12458,0.23275 -0.0924,0.69937 0.0507,0.73678 0.18918,0.0494 31.65844,0.0553 31.78711,0.006 z M 78.743303,214.24544 c 0.128804,-0.0345 0.15955,-0.0928 0.158676,-0.3008 -0.002,-0.45192 0.04182,-0.4409 -1.744382,-0.43961 -0.895023,8e-4 -1.664132,0.002 -1.709127,0.003 -0.0816,0.001 -0.237714,0.36062 -0.237714,0.54688 0,0.054 0.07189,0.12711 0.159764,0.16242 0.177387,0.0713 3.120264,0.0962 3.372783,0.0285 z m 110.067357,-0.002 c 0.15171,-0.0406 0.16444,-0.075 0.13257,-0.35757 -0.0193,-0.17195 -0.0486,-0.32603 -0.065,-0.34239 -0.0163,-0.0164 -0.79174,-0.0329 -1.72305,-0.0368 -1.86386,-0.008 -1.81115,-0.0206 -1.81305,0.44114 0,0.18951 0.0329,0.26996 0.12315,0.29354 0.19371,0.0506 3.15713,0.0524 3.34537,0.002 z M 78.829559,186.31852 c 0.04044,-0.0756 0.07351,-0.23529 0.07351,-0.35503 v -0.21768 h -1.812882 c -2.019865,0 -2.008708,-0.003 -1.784138,0.468 l 0.115427,0.24207 h 1.667292 c 1.575735,0 1.67133,-0.007 1.740794,-0.13736 z m 110.059271,0 c 0.0404,-0.0756 0.0735,-0.23583 0.0735,-0.35622 v -0.21888 l -1.82839,0.019 -1.8284,0.019 0.0107,0.23272 c 0.0203,0.44299 0.0154,0.44184 1.84166,0.44184 1.566,0 1.6615,-0.007 1.73097,-0.13736 z M 59.312766,184.64025 c 0.02952,-0.0754 0.05592,-0.25313 0.05866,-0.39503 0.004,-0.2097 -0.02491,-0.266 -0.154771,-0.3008 -0.213782,-0.0573 -15.521618,-0.0553 -15.735862,0.002 -0.154145,0.0412 -0.165045,0.0735 -0.133955,0.39712 0.01862,0.19373 0.06715,0.37278 0.107867,0.3979 0.04072,0.0252 3.613358,0.0434 7.939207,0.0407 7.701663,-0.005 7.866293,-0.008 7.91885,-0.14201 z m 15.980065,-0.0106 c 0.02748,-0.0695 0.0522,-0.24252 0.05494,-0.38442 0.004,-0.2097 -0.02491,-0.266 -0.154772,-0.3008 -0.213557,-0.0573 -8.421066,-0.0553 -8.635262,0.002 -0.154149,0.0412 -0.165047,0.0735 -0.133955,0.39712 0.01862,0.19373 0.06712,0.37278 0.107789,0.3979 0.04067,0.0252 2.01735,0.0387 4.392619,0.0301 4.066913,-0.0146 4.321602,-0.0229 4.368637,-0.14201 z m 122.485329,0 c 0.0275,-0.0695 0.0522,-0.24252 0.0549,-0.38442 0.004,-0.2097 -0.025,-0.266 -0.15479,-0.3008 -0.21355,-0.0573 -8.42105,-0.0553 -8.63525,0.002 -0.15415,0.0412 -0.16504,0.0735 -0.13395,0.39712 0.0185,0.19373 0.0671,0.37278 0.10778,0.3979 0.0406,0.0252 2.01734,0.0387 4.39263,0.0301 4.06689,-0.0146 4.32159,-0.0229 4.36863,-0.14201 z m 23.07726,-0.001 c 0.0273,-0.069 0.0519,-0.24158 0.0546,-0.38348 0.004,-0.2097 -0.025,-0.266 -0.15477,-0.3008 -0.21377,-0.0573 -15.52161,-0.0553 -15.73586,0.002 -0.15416,0.0413 -0.16505,0.0735 -0.13395,0.39713 0.0185,0.19372 0.0671,0.37277 0.10777,0.3979 0.0406,0.0252 3.61511,0.0383 7.94324,0.0292 7.44912,-0.0157 7.87198,-0.0232 7.91896,-0.14202 z M 59.216659,180.51762 c 0.131482,-0.0352 0.159764,-0.0924 0.159764,-0.32323 0,-0.15422 -0.03308,-0.34221 -0.07351,-0.41774 -0.07199,-0.13452 -0.235413,-0.13735 -7.950171,-0.13735 -7.71476,0 -7.878179,0.003 -7.950174,0.13735 -0.124571,0.23275 -0.09243,0.69937 0.05076,0.73678 0.188489,0.0493 15.579892,0.0533 15.763328,0.004 z m 15.976344,0 c 0.131483,-0.0352 0.159764,-0.0924 0.159764,-0.32323 0,-0.15422 -0.03307,-0.34221 -0.07351,-0.41774 -0.07144,-0.13349 -0.195188,-0.13735 -4.399872,-0.13735 -4.204683,0 -4.328432,0.004 -4.399871,0.13735 -0.124574,0.23275 -0.09243,0.69937 0.05075,0.73678 0.188584,0.0493 8.479507,0.0533 8.662729,0.004 z m 122.485317,0 c 0.13148,-0.0352 0.15978,-0.0924 0.15978,-0.32323 0,-0.15422 -0.0331,-0.34221 -0.0735,-0.41774 -0.0714,-0.13349 -0.19519,-0.13735 -4.39987,-0.13735 -4.20469,0 -4.32843,0.004 -4.39987,0.13735 -0.12458,0.23275 -0.0924,0.69937 0.0507,0.73678 0.1886,0.0493 8.47951,0.0533 8.66273,0.004 z m 23.07694,0 c 0.13148,-0.0352 0.15975,-0.0924 0.15975,-0.32323 0,-0.15422 -0.033,-0.34221 -0.0735,-0.41774 -0.0719,-0.13452 -0.23541,-0.13735 -7.95015,-0.13735 -7.71476,0 -7.87819,0.003 -7.95018,0.13735 -0.12458,0.23275 -0.0924,0.69937 0.0507,0.73678 0.1885,0.0493 15.5799,0.0533 15.76334,0.004 z M 78.89321,178.66131 c 0.07425,-0.12034 0.01616,-0.49052 -0.09092,-0.57939 -0.06462,-0.0536 -2.38362,-0.10774 -3.35381,-0.0782 -0.08169,0.002 -0.237715,0.3621 -0.237715,0.54791 0,0.19288 0.341922,0.23019 1.9731,0.21526 1.249108,-0.0114 1.66722,-0.0373 1.709354,-0.10554 z m 109.90938,0.0811 c 0.16595,-0.0445 0.20505,-0.24051 0.115,-0.57655 l -0.0428,-0.15975 h -1.73314 -1.73311 l -0.0693,0.18213 c -0.11055,0.29078 -0.082,0.45635 0.0905,0.5257 0.17738,0.0713 3.12027,0.0962 3.3728,0.0285 z M 78.829559,150.81554 c 0.04044,-0.0756 0.07351,-0.2353 0.07351,-0.35503 v -0.21768 h -1.812882 c -2.019865,0 -2.008708,-0.003 -1.784138,0.46798 l 0.115427,0.24208 h 1.667292 c 1.575735,0 1.67133,-0.007 1.740794,-0.13735 z m 110.059271,0 c 0.0404,-0.0756 0.0735,-0.23584 0.0735,-0.35623 v -0.21889 l -1.82839,0.019 -1.8284,0.019 0.0107,0.23273 c 0.0203,0.44298 0.0154,0.44182 1.84166,0.44182 1.566,0 1.6615,-0.007 1.73097,-0.13734 z M 59.312766,149.13725 c 0.02952,-0.0754 0.05592,-0.25313 0.05866,-0.39502 0.004,-0.2097 -0.02491,-0.26601 -0.154771,-0.30081 -0.213782,-0.0573 -15.521618,-0.0553 -15.735862,0.002 -0.154145,0.0412 -0.165045,0.0735 -0.133955,0.39712 0.01862,0.19372 0.06715,0.37278 0.107867,0.39791 0.04072,0.0251 3.613358,0.0434 7.939207,0.0407 7.701663,-0.005 7.866293,-0.008 7.91885,-0.14201 z m 15.980065,-0.0106 c 0.02748,-0.0695 0.0522,-0.24252 0.05494,-0.38441 0.004,-0.2097 -0.02491,-0.26601 -0.154772,-0.30081 -0.213557,-0.0572 -8.421066,-0.0553 -8.635262,0.002 -0.154149,0.0412 -0.165047,0.0735 -0.133955,0.39712 0.01862,0.19372 0.06712,0.37278 0.107789,0.39791 0.04067,0.0251 2.01735,0.0387 4.392619,0.0301 4.066913,-0.0147 4.321602,-0.0229 4.368637,-0.14201 z m 122.485329,0 c 0.0275,-0.0695 0.0522,-0.24252 0.0549,-0.38441 0.004,-0.2097 -0.025,-0.26601 -0.15479,-0.30081 -0.21355,-0.0572 -8.42105,-0.0553 -8.63525,0.002 -0.15415,0.0412 -0.16504,0.0735 -0.13395,0.39712 0.0185,0.19372 0.0671,0.37278 0.10778,0.39791 0.0406,0.0251 2.01734,0.0387 4.39263,0.0301 4.06689,-0.0147 4.32159,-0.0229 4.36863,-0.14201 z m 23.07726,-0.001 c 0.0273,-0.069 0.0519,-0.24159 0.0546,-0.38349 0.004,-0.20968 -0.025,-0.26599 -0.15477,-0.30079 -0.21377,-0.0573 -15.52161,-0.0553 -15.73586,0.002 -0.15416,0.0412 -0.16505,0.0735 -0.13395,0.39712 0.0185,0.19372 0.0671,0.37278 0.10777,0.39791 0.0406,0.0252 3.61511,0.0383 7.94324,0.0292 7.44912,-0.0157 7.87198,-0.0232 7.91896,-0.14201 z M 59.216659,145.01463 c 0.131482,-0.0353 0.159764,-0.0924 0.159764,-0.32322 0,-0.15422 -0.03308,-0.34222 -0.07351,-0.41776 -0.07199,-0.13452 -0.235413,-0.13735 -7.950171,-0.13735 -7.71476,0 -7.878179,0.003 -7.950174,0.13735 -0.124571,0.23277 -0.09243,0.69937 0.05076,0.73679 0.188489,0.0493 15.579892,0.0533 15.763328,0.004 z m 15.976344,0 c 0.131483,-0.0353 0.159764,-0.0924 0.159764,-0.32322 0,-0.15422 -0.03307,-0.34222 -0.07351,-0.41776 -0.07144,-0.13348 -0.195188,-0.13735 -4.399872,-0.13735 -4.204683,0 -4.328432,0.004 -4.399871,0.13735 -0.124574,0.23277 -0.09243,0.69937 0.05075,0.73679 0.188584,0.0493 8.479507,0.0533 8.662729,0.004 z m 122.485317,0 c 0.13148,-0.0353 0.15978,-0.0924 0.15978,-0.32322 0,-0.15422 -0.0331,-0.34222 -0.0735,-0.41776 -0.0714,-0.13348 -0.19519,-0.13735 -4.39987,-0.13735 -4.20469,0 -4.32843,0.004 -4.39987,0.13735 -0.12458,0.23277 -0.0924,0.69937 0.0507,0.73679 0.1886,0.0493 8.47951,0.0533 8.66273,0.004 z m 23.07694,0 c 0.13148,-0.0353 0.15975,-0.0924 0.15975,-0.32322 0,-0.15422 -0.033,-0.34222 -0.0735,-0.41776 -0.0719,-0.13452 -0.23541,-0.13735 -7.95015,-0.13735 -7.71476,0 -7.87819,0.003 -7.95018,0.13735 -0.12458,0.23277 -0.0924,0.69937 0.0507,0.73679 0.1885,0.0493 15.5799,0.0533 15.76334,0.004 z M 78.89321,143.15832 c 0.07425,-0.12034 0.01616,-0.49053 -0.09092,-0.57939 -0.06462,-0.0536 -2.38362,-0.10773 -3.35381,-0.0783 -0.08169,0.002 -0.237715,0.36211 -0.237715,0.54791 0,0.19288 0.341922,0.2302 1.9731,0.21527 1.249108,-0.0114 1.66722,-0.0373 1.709354,-0.10554 z m 109.90938,0.0812 c 0.16595,-0.0444 0.20505,-0.2405 0.115,-0.57654 l -0.0428,-0.15977 h -1.73314 -1.73311 l -0.0693,0.18214 c -0.11055,0.29078 -0.082,0.45635 0.0905,0.52571 0.17738,0.0713 3.12027,0.0962 3.3728,0.0285 z M 78.859964,115.33757 c 0.02371,-0.0617 0.0431,-0.22154 0.0431,-0.35503 v -0.24271 h -1.812882 c -2.019865,0 -2.008708,-0.003 -1.784138,0.468 l 0.115427,0.24206 h 1.697697 c 1.482574,0 1.703156,-0.0142 1.740794,-0.11232 z m 110.028866,-0.025 c 0.0404,-0.0756 0.0735,-0.23531 0.0735,-0.35503 v -0.21769 h -1.81064 -1.81065 v 0.24271 c 0,0.49129 -0.0912,0.46735 1.78024,0.46735 1.6022,0 1.69805,-0.007 1.76756,-0.13734 z M 75.293322,113.62226 c 0.0272,-0.0688 0.05171,-0.24112 0.05446,-0.38302 0.004,-0.2097 -0.02491,-0.26601 -0.154772,-0.30081 -0.213918,-0.0574 -31.497934,-0.0553 -31.712206,0.002 -0.154145,0.0412 -0.165045,0.0735 -0.133955,0.39714 0.01862,0.19372 0.06711,0.37277 0.107751,0.3979 0.04065,0.0251 7.209862,0.0381 15.931585,0.0287 15.065006,-0.0162 15.860152,-0.0232 15.907144,-0.14202 z m 145.562258,0 c 0.0272,-0.0688 0.0517,-0.24112 0.0544,-0.38302 0.004,-0.2097 -0.0249,-0.26601 -0.15476,-0.30081 -0.21391,-0.0574 -31.49791,-0.0553 -31.71219,0.002 -0.15415,0.0412 -0.16504,0.0735 -0.13395,0.39714 0.0185,0.19372 0.0671,0.37277 0.10774,0.3979 0.0406,0.0251 7.20986,0.0381 15.93158,0.0287 15.065,-0.0162 15.86014,-0.0232 15.90714,-0.14202 z"
       id="path4155"
       inkscape:connector-curvature="0" />
  </g>
</svg>
