<?xml version="1.0" encoding="UTF-8" standalone="no"?>
<!-- Created with Inkscape (http://www.inkscape.org/) -->

<svg
   xmlns:dc="http://purl.org/dc/elements/1.1/"
   xmlns:cc="http://creativecommons.org/ns#"
   xmlns:rdf="http://www.w3.org/1999/02/22-rdf-syntax-ns#"
   xmlns:svg="http://www.w3.org/2000/svg"
   xmlns="http://www.w3.org/2000/svg"
   xmlns:sodipodi="http://sodipodi.sourceforge.net/DTD/sodipodi-0.dtd"
   xmlns:inkscape="http://www.inkscape.org/namespaces/inkscape"
   width="1000"
   height="1000"
   viewBox="0 0 264.58333 264.58334"
   version="1.1"
   id="svg8"
   inkscape:version="0.92.4 (5da689c313, 2019-01-14)"
   sodipodi:docname="40T.svg">
  <defs
     id="defs2" />
  <sodipodi:namedview
     id="base"
     pagecolor="#000000"
     bordercolor="#666666"
     borderopacity="1.0"
     inkscape:pageopacity="0"
     inkscape:pageshadow="2"
     inkscape:zoom="1.4"
     inkscape:cx="691.04588"
     inkscape:cy="507.86404"
     inkscape:document-units="mm"
     inkscape:current-layer="layer1"
     showgrid="false"
     inkscape:pagecheckerboard="true"
     inkscape:window-width="3732"
     inkscape:window-height="2032"
     inkscape:window-x="108"
     inkscape:window-y="54"
     inkscape:window-maximized="1"
     units="px" />
  <metadata
     id="metadata5">
    <rdf:RDF>
      <cc:Work
         rdf:about="">
        <dc:format>image/svg+xml</dc:format>
        <dc:type
           rdf:resource="http://purl.org/dc/dcmitype/StillImage" />
        <dc:title></dc:title>
      </cc:Work>
    </rdf:RDF>
  </metadata>
  <g
     inkscape:label="Layer 1"
     inkscape:groupmode="layer"
     id="layer1"
     transform="translate(0,-32.41665)">
    <path
       style="fill:#ffffff;stroke-width:0.06753749"
       d="m 129.79004,296.04954 c -0.059,-0.1398 -0.36411,-0.9076 -0.67816,-1.70624 -0.31401,-0.79863 -0.76823,-1.95352 -1.00937,-2.56643 -0.24114,-0.6129 -0.61613,-1.57025 -0.8333,-2.12743 -0.21719,-0.55718 -0.46137,-1.16503 -0.54261,-1.35074 -0.10399,-0.23774 -0.27247,-1.14274 -0.56915,-3.05734 -0.23178,-1.4958 -0.43615,-2.73434 -0.45412,-2.75233 -0.0652,-0.0652 -5.60599,-0.45142 -5.6595,-0.3945 -0.0301,0.032 -0.41132,1.18274 -0.84713,2.55714 l -0.79238,2.49888 -2.30433,3.93666 -2.30435,3.93666 -0.33768,-0.0395 c -0.18573,-0.0217 -0.99111,-0.14478 -1.78975,-0.27348 -0.79862,-0.12869 -1.65101,-0.26574 -1.8942,-0.30458 l -0.44215,-0.0706 -0.99874,-4.49663 -0.99876,-4.49665 0.0491,-2.65482 0.0491,-2.65484 -0.19537,-0.05 c -0.10746,-0.0275 -1.36548,-0.32799 -2.79558,-0.66774 l -2.60019,-0.61772 -1.22761,2.43688 -1.227605,2.43686 -2.813506,3.41066 c -1.547431,1.87584 -2.849159,3.44778 -2.892732,3.49321 -0.06207,0.0647 -0.540334,-0.0676 -2.206115,-0.60989 l -2.126875,-0.69247 -0.02052,-0.30186 c -0.0113,-0.16603 -0.137247,-2.1997 -0.279892,-4.51926 l -0.25935,-4.21738 0.431153,-2.63766 c 0.237142,-1.45072 0.431478,-2.67133 0.431861,-2.71248 0,-0.0828 -5.149924,-2.21654 -5.257554,-2.17804 -0.03706,0.0132 -0.768307,1 -1.624965,2.19275 l -1.557576,2.16863 -3.350265,2.96422 c -1.842657,1.6303 -3.392595,2.97395 -3.444303,2.98589 -0.06999,0.0161 -3.890839,-1.86952 -3.990896,-1.96959 -0.0097,-0.0102 0.178556,-2.05135 0.418422,-4.53693 l 0.436125,-4.51927 0.850013,-2.55007 c 0.467508,-1.40254 0.832857,-2.57784 0.811887,-2.61176 -0.02096,-0.034 -0.289168,-0.21298 -0.595997,-0.39788 -2.413472,-1.45446 -4.080263,-2.47175 -4.135468,-2.52396 -0.04119,-0.0389 -0.795816,0.66622 -2.026126,1.89332 l -1.960485,1.95536 -3.770495,2.40227 c -2.073773,1.32126 -3.796678,2.40229 -3.828682,2.40229 -0.032,0 -0.857807,-0.58067 -1.835117,-1.29039 -1.200759,-0.87199 -1.772072,-1.3264 -1.761948,-1.4014 0.0082,-0.0611 0.516086,-2.04733 1.128548,-4.41394 l 1.113568,-4.30289 1.213724,-2.34955 c 0.667549,-1.29223 1.223417,-2.38402 1.235265,-2.42616 0.01591,-0.0566 -3.245559,-2.8889 -4.212657,-3.65833 -0.09604,-0.0765 -0.396406,0.12181 -2.289694,1.51101 l -2.179151,1.59897 -4.158203,1.81022 -4.158203,1.81022 -1.595327,-1.58983 -1.595327,-1.58981 0.576988,-1.3262 c 0.317343,-0.72941 1.131119,-2.60049 1.808394,-4.15795 l 1.231407,-2.83178 1.509139,-2.055 c 0.830024,-1.13027 1.551708,-2.1237 1.603739,-2.20766 0.09055,-0.14612 0.01588,-0.24402 -1.745776,-2.2891 -1.012207,-1.17503 -1.867759,-2.13642 -1.901225,-2.13642 -0.03347,0 -1.124636,0.54967 -2.424818,1.22149 l -2.363966,1.2215 -4.40634,1.13926 c -2.423485,0.62661 -4.424629,1.11785 -4.446985,1.09168 -0.398574,-0.46683 -2.558207,-3.56867 -2.532076,-3.63676 0.01972,-0.0514 1.120835,-1.79608 2.44692,-3.87707 l 2.411064,-3.78363 1.916135,-1.89132 1.916135,-1.8913 -0.839256,-1.36496 c -1.833358,-2.98171 -2.088072,-3.39289 -2.131066,-3.44009 -0.02456,-0.027 -1.198759,0.33048 -2.609326,0.79431 l -2.564668,0.84333 -4.518625,0.439 c -2.485243,0.24147 -4.527018,0.43064 -4.537278,0.42038 -0.06197,-0.0619 -1.986477,-3.89757 -1.986477,-3.95911 0,-0.0415 1.337231,-1.58751 2.971623,-3.43568 l 2.971622,-3.36031 2.211879,-1.59865 c 1.29549,-0.93633 2.20281,-1.63586 2.189989,-1.68844 -0.02007,-0.0823 -2.110765,-5.12661 -2.145799,-5.17726 -0.0084,-0.0122 -1.226098,0.17563 -2.70592,0.41738 l -2.690587,0.43954 -4.221093,-0.26145 c -2.321602,-0.14379 -4.3570451,-0.27083 -4.5232094,-0.2823 L 7.6978266,207.52383 7.0057934,205.4 c -0.3806194,-1.16811 -0.6796982,-2.13617 -0.6646181,-2.15125 0.015086,-0.0151 1.5827777,-1.30963 3.4837807,-2.87678 l 3.456364,-2.84938 2.45511,-1.2466 c 1.787216,-0.90747 2.448082,-1.27416 2.429272,-1.3479 -0.01421,-0.0557 -0.319894,-1.3092 -0.679298,-2.78552 l -0.653461,-2.68422 -2.644542,0.042 -2.644542,0.042 -4.4912444,-0.99715 c -2.4701817,-0.54843 -4.4971172,-1.00139 -4.5042984,-1.00656 -0.00717,-0.005 -0.1689978,-0.993 -0.3595927,-2.19515 -0.2862196,-1.8053 -0.3309679,-2.20011 -0.2570932,-2.26826 0.049194,-0.0454 1.8060121,-1.09157 3.9040407,-2.32485 l 3.8145999,-2.24231 2.6014611,-0.83271 2.601463,-0.83271 -0.0156,-0.19298 c -0.0086,-0.10614 -0.111,-1.37828 -0.227606,-2.82696 -0.116605,-1.44868 -0.221271,-2.64434 -0.232592,-2.65702 -0.01131,-0.0127 -0.881438,-0.1572 -1.933594,-0.32115 -2.347896,-0.36584 -2.7095631,-0.42161 -3.0949163,-0.47727 -0.167156,-0.0242 -2.1808307,-0.78375 -4.4748334,-1.68799 -2.294003,-0.90424 -4.20149802,-1.64409 -4.23887573,-1.64409 -0.044595,0 -0.0618465,-0.78106 -0.0501773,-2.27177 l 0.0177858,-2.27177 4.22634373,-1.66457 4.2263419,-1.66457 2.6287143,-0.39651 c 1.445791,-0.21809 2.652624,-0.41725 2.681852,-0.44259 0.08173,-0.0708 0.48512,-5.60201 0.413498,-5.66973 -0.03378,-0.0319 -1.185915,-0.41467 -2.5603,-0.8505 -2.3818421,-0.75531 -2.5368489,-0.81463 -3.3093393,-1.26629 -1.1402299,-0.66669 -1.6999017,-0.99575 -3.2417736,-1.90608 -1.7276154,-1.01997 -2.3473701,-1.38352 -3.1404935,-1.84218 -0.3528826,-0.20407 -0.6516802,-0.37944 -0.663992,-0.38972 -0.038417,-0.032 0.6648535,-4.38057 0.7164421,-4.42995 0.026872,-0.0257 2.0637983,-0.4922 4.5265044,-1.0366 l 4.4776489,-0.98984 2.645252,0.022 2.645248,0.0219 0.654905,-2.76903 c 0.360197,-1.52298 0.649957,-2.77306 0.643911,-2.77796 -0.006,-0.005 -1.105099,-0.55831 -2.442341,-1.2298 l -2.43135,-1.22085 -3.4781803,-2.87454 c -2.0811199,-1.71995 -3.470443,-2.91365 -3.4589182,-2.9719 0.010583,-0.0535 0.3175119,-1.01783 0.6820374,-2.14288 l 0.6627768,-2.04555 0.3310255,-0.0213 c 0.1820616,-0.0117 2.2153178,-0.13808 4.5183488,-0.2809 l 4.187323,-0.25968 2.693911,0.4387 c 2.187875,0.35629 2.704418,0.42175 2.749843,0.34845 0.03076,-0.0496 0.297926,-0.6829 0.593699,-1.40723 0.295772,-0.72434 0.76503,-1.8704 1.042796,-2.54679 l 0.505024,-1.22981 -2.206268,-1.58663 -2.206267,-1.58661 -3.012948,-3.40468 -3.012946,-3.40467 1.002828,-1.95094 c 0.551556,-1.07301 1.01125,-1.97397 1.021541,-2.00215 0.0103,-0.0281 2.042608,0.1442 4.516261,0.38302 l 4.497547,0.43423 2.614666,0.85672 c 1.438065,0.4712 2.623041,0.84589 2.633282,0.83267 0.01025,-0.0132 0.675608,-1.10665 1.478599,-2.4298 l 1.459979,-2.40574 -1.9261,-1.91666 -1.9261,-1.916668 -2.407623,-3.779955 c -1.324195,-2.078977 -2.40714,-3.82651 -2.406549,-3.883407 5.74e-4,-0.0569 0.573617,-0.893638 1.27339,-1.859423 0.699773,-0.965787 1.276766,-1.76216 1.282211,-1.769719 0.0054,-0.0076 1.988778,0.498087 4.40741,1.123655 l 4.397514,1.137397 1.408223,0.725725 c 0.774523,0.39915 1.866615,0.963446 2.426872,1.253993 l 1.018647,0.528268 1.784158,-2.101949 c 0.981287,-1.156071 1.80816,-2.141896 1.837498,-2.190724 0.03565,-0.05933 -0.477283,-0.811556 -1.546563,-2.268055 L 41.138904,81.633982 39.420717,77.683039 C 38.475714,75.51002 37.662936,73.637421 37.614542,73.521708 l -0.08799,-0.210389 1.596764,-1.588549 1.596763,-1.58855 4.153556,1.809693 4.153556,1.809692 2.179854,1.598299 c 1.198919,0.879065 2.20687,1.588432 2.239891,1.576375 0.03302,-0.01206 1.016233,-0.845043 2.184914,-1.851081 l 2.124876,-1.82916 -0.434054,-0.838572 c -0.238727,-0.461214 -0.801745,-1.55227 -1.251146,-2.424569 l -0.817097,-1.586 -1.130058,-4.3573 c -1.047732,-4.039859 -1.122038,-4.365612 -1.019956,-4.47141 0.14426,-0.149511 3.45684,-2.553619 3.518588,-2.553619 0.0261,0 1.746814,1.080998 3.823797,2.402217 l 3.77633,2.402219 1.960498,1.955436 1.960498,1.955437 2.361901,-1.458501 c 1.299043,-0.802177 2.383404,-1.479296 2.409691,-1.504712 0.02628,-0.02541 -0.330751,-1.200869 -0.793424,-2.61212 l -0.84122,-2.565909 -0.438156,-4.520359 c -0.240987,-2.486198 -0.430997,-4.525659 -0.422245,-4.532136 0.0087,-0.0064 0.912465,-0.468416 2.00826,-1.026527 l 1.992352,-1.014749 3.427762,3.047998 3.427744,3.047999 1.563089,2.181491 c 0.859702,1.19982 1.596611,2.167324 1.637561,2.150009 0.04097,-0.01731 1.214163,-0.508875 2.607135,-1.092355 1.392952,-0.583481 2.543018,-1.070012 2.555673,-1.081177 0.01263,-0.01117 -0.173947,-1.230681 -0.414689,-2.710035 l -0.4377,-2.689732 0.279606,-4.519755 0.279604,-4.519753 2.127431,-0.689546 c 1.170092,-0.379251 2.148528,-0.67034 2.174335,-0.646864 0.02577,0.02348 1.326808,1.592668 2.891161,3.487093 l 2.844275,3.444414 1.219198,2.431349 c 0.67058,1.337242 1.2267,2.439656 1.23583,2.449807 0.0149,0.01654 5.15253,-1.216658 5.46669,-1.312189 0.12515,-0.03805 0.12769,-0.118684 0.0843,-2.682086 l -0.0447,-2.642857 0.9879,-4.457474 c 0.54333,-2.451611 1.00759,-4.479459 1.03164,-4.506331 0.0457,-0.05108 4.39607,-0.755497 4.42461,-0.716441 0.009,0.01231 1.0513,1.785113 2.31623,3.93956 l 2.29987,3.917174 0.40824,1.283213 c 1.34222,4.218884 1.2178,3.88156 1.41912,3.847889 0.0996,-0.01665 1.36639,-0.124604 2.81508,-0.239871 1.44867,-0.115269 2.65205,-0.229626 2.67414,-0.254129 0.0221,-0.0245 0.21863,-1.227472 0.43672,-2.673264 l 0.39651,-2.628714 1.66457,-4.226342 1.66458,-4.226344 2.27175,-0.01779 c 1.42296,-0.01115 2.27179,0.0066 2.27179,0.04723 0,0.03575 0.73917,1.943249 1.64257,4.238875 1.38575,3.521266 1.65562,4.263622 1.7259,4.747934 0.0731,0.503585 0.16342,1.087726 0.41256,2.66773 0.0351,0.222874 0.0982,0.633166 0.1401,0.911757 0.12476,0.829272 0.20544,1.215609 0.2541,1.216777 0.0252,5.74e-4 1.21595,0.09148 2.64606,0.201948 1.43009,0.110463 2.69137,0.201045 2.80279,0.201293 l 0.20262,3.82e-4 0.35931,-1.131035 c 0.19761,-0.622069 0.5688,-1.784461 0.82486,-2.583093 l 0.46559,-1.452056 2.2651,-3.846409 c 1.24581,-2.115524 2.2919,-3.873186 2.32462,-3.905915 0.0455,-0.04541 4.41029,0.593973 4.43662,0.649891 0.003,0.006 0.30275,1.348239 0.66646,2.982646 0.36371,1.634409 0.68502,3.078022 0.71403,3.208032 0.0291,0.13001 0.0892,0.403536 0.13378,0.607837 0.10954,0.502219 0.20496,0.931171 0.27044,1.215675 0.20083,0.872509 0.21355,1.116692 0.19146,3.671767 l -0.0227,2.632211 2.76903,0.654696 c 1.52299,0.360082 2.77266,0.65123 2.77708,0.646995 0.004,-0.0042 0.57391,-1.117004 1.26551,-2.47282 l 1.25745,-2.465118 2.84344,-3.444412 c 1.56387,-1.894427 2.84911,-3.450297 2.85611,-3.457489 0.007,-0.0072 0.9692,0.298393 2.13828,0.679077 l 2.12561,0.692156 0.0206,0.300215 c 0.0113,0.165119 0.1379,2.199708 0.2813,4.521309 l 0.26074,4.221094 -0.43889,2.69024 c -0.24138,1.479631 -0.42558,2.703549 -0.4093,2.719818 0.0163,0.01627 1.2046,0.511792 2.64076,1.101164 l 2.6112,1.071586 0.49726,-0.68468 c 0.27352,-0.376599 0.98799,-1.368522 1.58774,-2.204297 l 1.0905,-1.519593 3.37787,-2.988535 c 1.85782,-1.643694 3.41099,-2.988534 3.45146,-2.988534 0.0595,0 3.89604,1.92658 3.95599,1.986514 0.009,0.0094 -0.18011,2.050894 -0.42128,4.536528 l -0.43845,4.519337 -0.84199,2.566425 c -0.65323,1.991053 -0.82371,2.583864 -0.76039,2.644217 0.0448,0.04278 1.14184,0.72074 2.43769,1.506562 l 2.3561,1.428768 1.87124,-1.911786 1.87125,-1.911787 3.86069,-2.455724 3.86072,-2.455724 0.1853,0.120853 c 0.13428,0.08757 3.33333,2.40108 3.44134,2.488722 0.008,0.0063 -0.49768,1.991288 -1.12334,4.410971 l -1.13759,4.399425 -1.22904,2.384595 c -0.67596,1.311528 -1.23418,2.404869 -1.24046,2.429649 -0.0161,0.06297 4.29353,3.710197 4.35809,3.688348 0.029,-0.0098 1.02036,-0.727437 2.20322,-1.59478 l 2.15063,-1.576984 2.83105,-1.231098 c 1.5571,-0.677104 3.42786,-1.490741 4.15727,-1.808084 l 1.32619,-0.576988 1.58982,1.595327 1.58983,1.595328 -1.81022,4.158202 -1.81023,4.158203 -1.59544,2.174348 c -0.87749,1.195891 -1.59544,2.190574 -1.59544,2.210404 0,0.07757 3.66326,4.28452 3.73081,4.28452 0.0395,0 1.13433,-0.548176 2.4329,-1.218169 l 2.36104,-1.21817 4.298,-1.108075 c 2.36389,-0.609441 4.34734,-1.117383 4.40764,-1.128758 0.0758,-0.0143 0.50796,0.527207 1.40141,1.756221 0.71045,0.977297 1.29176,1.802497 1.29176,1.833779 0,0.03128 -1.07985,1.754199 -2.39964,3.828708 l -2.39966,3.771834 -1.95474,1.958582 -1.95477,1.958587 1.40937,2.28101 c 0.77513,1.25455 1.45222,2.34557 1.50461,2.42449 0.0949,0.14285 0.10658,0.13971 2.658,-0.71035 l 2.56275,-0.85384 4.22111,-0.40484 c 2.32159,-0.22266 4.36001,-0.4225 4.52983,-0.44409 l 0.30874,-0.0392 0.96707,1.91261 c 0.53186,1.05194 0.99463,1.94787 1.02835,1.99097 0.0696,0.0891 0.16766,-0.0265 -3.44944,4.06161 l -2.52496,2.85372 -2.21705,1.59348 -2.21707,1.59348 0.0896,0.21137 c 0.0492,0.11626 0.53951,1.29028 1.08945,2.60895 0.54995,1.31867 1.00921,2.40946 1.02058,2.42398 0.0113,0.0145 1.24472,-0.17224 2.74079,-0.415 l 2.72013,-0.44139 4.15698,0.25878 c 2.28634,0.14234 4.30657,0.26831 4.48942,0.27993 l 0.33242,0.0212 0.69285,2.12625 c 0.54651,1.6771 0.6753,2.14335 0.60969,2.20711 -0.0457,0.0444 -1.61798,1.34664 -3.49384,2.89371 l -3.41064,2.81288 -2.43135,1.21783 c -1.33725,0.6698 -2.4397,1.22535 -2.4499,1.23453 -0.0102,0.009 0.0864,0.43891 0.2147,0.95494 0.12829,0.51603 0.40607,1.65244 0.6173,2.52537 0.21123,0.87292 0.41344,1.70599 0.44934,1.85127 l 0.0653,0.26415 2.64531,-0.0457 2.64531,-0.0457 4.49945,0.9934 4.49943,0.99339 0.11599,0.71302 c 0.0638,0.39217 0.1582,0.97136 0.2098,1.28709 0.22509,1.37721 0.37965,2.44087 0.35733,2.45929 -0.0132,0.011 -1.77035,1.04713 -3.9046,2.30262 l -3.88045,2.28271 -2.5922,0.82856 c -1.42573,0.45571 -2.59994,0.83854 -2.60939,0.85074 -0.0403,0.0521 0.45701,5.63095 0.50469,5.66157 0.029,0.0185 1.22999,0.21339 2.66905,0.43291 l 2.61648,0.39916 4.22776,1.66519 4.22773,1.6652 v 2.25607 2.25607 l -4.15355,1.64394 -4.15355,1.64394 -2.71965,0.42482 c -1.49579,0.23365 -2.7327,0.43787 -2.74866,0.45384 -0.0159,0.016 -0.0611,0.43837 -0.10031,0.93865 -0.0392,0.50028 -0.0851,1.07676 -0.10184,1.28107 -0.17737,2.15473 -0.24863,3.39395 -0.19793,3.44268 0.0331,0.0318 1.19988,0.42176 2.59284,0.86653 l 2.53265,0.80865 3.81588,2.24541 c 2.09871,1.23498 3.85644,2.28294 3.90605,2.32882 0.0748,0.0693 0.0308,0.45476 -0.25916,2.27022 -0.19213,1.20272 -0.35429,2.19021 -0.36034,2.19441 -0.006,0.004 -2.03205,0.45628 -4.50223,1.00469 l -4.49125,0.99709 -2.66112,-0.0254 -2.66115,-0.0254 -0.65466,2.76895 -0.65466,2.76897 2.45482,1.24952 2.4548,1.24952 3.47945,2.86866 c 1.9137,1.57777 3.46753,2.89981 3.45294,2.93789 -0.0145,0.0381 -0.32203,0.98097 -0.68319,2.09533 -0.36116,1.11437 -0.67657,2.04561 -0.70088,2.06941 -0.0244,0.0239 -0.42415,0.0626 -0.88846,0.0864 -0.46432,0.0236 -0.99618,0.0565 -1.18192,0.073 -0.18573,0.0165 -0.65679,0.0466 -1.04682,0.0669 -0.39003,0.0204 -0.92189,0.0518 -1.1819,0.0697 -0.83744,0.0578 -2.54463,0.16041 -3.34311,0.20077 -0.42717,0.0216 -0.87508,0.0546 -0.99532,0.0733 -0.2394,0.0373 -0.94831,-0.0577 -3.05693,-0.40946 -2.19237,-0.36576 -2.71689,-0.44743 -2.73787,-0.42628 -0.0471,0.0474 -2.12483,5.15116 -2.12483,5.21931 0,0.0417 0.9824,0.78142 2.18312,1.64388 l 2.1831,1.56811 3.00915,3.40037 3.00913,3.40036 -1.00263,1.97628 c -0.55147,1.08694 -1.01621,1.98983 -1.03281,2.00643 -0.0167,0.0167 -0.66347,-0.0326 -1.43747,-0.10937 -0.77401,-0.0768 -2.36463,-0.23129 -3.53471,-0.34343 -4.47991,-0.42932 -3.74745,-0.29221 -6.65245,-1.24534 -1.41154,-0.46312 -2.59019,-0.81831 -2.61923,-0.78927 -0.0291,0.0291 -0.70073,1.11873 -1.49264,2.42157 l -1.43983,2.36881 1.91716,1.9143 1.91715,1.91431 2.39177,3.75084 c 1.31548,2.06295 2.41066,3.80005 2.43375,3.86019 0.0286,0.0743 -0.37334,0.67961 -1.25383,1.88855 -1.06231,1.45861 -1.32178,1.77583 -1.43998,1.76057 -0.0793,-0.0102 -2.04367,-0.5076 -4.36526,-1.10525 l -4.22109,-1.08666 -1.58714,-0.81186 c -0.87292,-0.44653 -1.98222,-1.01813 -2.46512,-1.27022 l -0.87798,-0.45836 -1.5196,1.79279 c -0.83577,0.98604 -1.66648,1.97026 -1.84602,2.18714 l -0.32643,0.39434 1.59841,2.17356 1.59839,2.17356 1.82196,4.19021 1.82194,4.19019 -1.57857,1.5786 -1.5786,1.57857 -4.18732,-1.82068 -4.18733,-1.8207 -2.17739,-1.59847 c -1.19758,-0.87914 -2.20006,-1.58887 -2.22775,-1.57714 -0.12652,0.0536 -4.26491,3.65974 -4.26491,3.71641 0,0.0352 0.53,1.08802 1.17775,2.33959 0.64778,1.25156 1.20919,2.3582 1.24759,2.45922 0.0384,0.10103 0.2245,0.78415 0.41354,1.51805 0.18905,0.73388 0.46163,1.79021 0.60573,2.34742 0.14412,0.55718 0.38355,1.48413 0.53207,2.05989 0.14851,0.57575 0.37651,1.45712 0.50667,1.95857 0.13015,0.50147 0.21555,0.92975 0.1898,0.95173 -0.2403,0.20511 -3.53807,2.56023 -3.58497,2.56023 -0.0341,0 -1.75921,-1.07985 -3.83371,-2.39964 l -3.77184,-2.39965 -1.95858,-1.95417 -1.9586,-1.9542 -2.39758,1.48615 c -1.31867,0.81738 -2.39405,1.52295 -2.38974,1.5679 0.004,0.0449 0.37761,1.21142 0.82954,2.59211 l 0.82173,2.51034 0.39988,4.17587 c 0.21996,2.29672 0.41823,4.33174 0.44064,4.52225 l 0.0407,0.3464 -2.01306,1.01213 -2.01309,1.01213 -3.42846,-3.04696 -3.42845,-3.04696 -1.55618,-2.17301 -1.55615,-2.17302 -0.85739,0.35649 c -2.74807,1.14264 -4.37221,1.82158 -4.3931,1.83647 -0.013,0.009 0.0103,0.22405 0.0522,0.47718 0.0715,0.43351 0.49272,3.01403 0.71794,4.39877 0.0563,0.34607 0.0873,0.72596 0.069,0.84421 -0.0183,0.11826 -0.0509,0.59492 -0.0724,1.05923 -0.0215,0.46433 -0.0523,0.99618 -0.0686,1.1819 -0.0163,0.18574 -0.0612,0.89995 -0.0999,1.58714 -0.0386,0.68719 -0.084,1.4318 -0.10092,1.65467 -0.0169,0.22287 -0.0498,0.73954 -0.0733,1.14814 -0.0234,0.40861 -0.0623,1.04565 -0.0864,1.41566 l -0.0437,0.67276 -2.12664,0.69228 c -1.16965,0.38076 -2.14811,0.67066 -2.17431,0.64422 -0.0262,-0.0264 -1.32572,-1.59804 -2.88774,-3.49246 l -2.84006,-3.44442 -1.23285,-2.44659 c -0.90117,-1.78838 -1.26007,-2.43943 -1.33415,-2.42001 -0.0557,0.0145 -1.31415,0.32185 -2.79654,0.68275 l -2.69526,0.65615 0.0469,2.64108 0.0469,2.64108 -0.9913,4.49201 c -0.54524,2.47059 -0.9965,4.49891 -1.00279,4.50735 -0.0149,0.02 -4.27263,0.69395 -4.37945,0.69328 -0.0447,0 -0.15362,-0.12946 -0.24203,-0.28706 -0.23431,-0.41763 -1.06118,-1.83196 -1.39154,-2.38016 -0.15669,-0.26001 -0.50628,-0.85266 -0.77685,-1.31698 -0.27057,-0.46433 -0.5749,-0.98098 -0.67627,-1.14813 -0.10133,-0.16717 -0.50371,-0.85097 -0.89409,-1.51959 -0.66752,-1.14333 -0.73405,-1.29205 -1.11796,-2.4989 -0.22451,-0.70576 -0.59253,-1.86108 -0.81785,-2.56739 l -0.40965,-1.28417 -2.82083,0.22998 c -1.55144,0.12649 -2.83365,0.24105 -2.84933,0.2546 -0.0157,0.0136 -0.21865,1.24773 -0.45104,2.74264 l -0.4225,2.718 -1.64377,4.15355 -1.64375,4.15357 -2.24756,0.0178 -2.24756,0.0178 z m -19.91156,-41.21448 c 3.32748,-0.67386 6.18752,-2.31713 8.40251,-4.82776 3.55848,-4.03346 4.67179,-9.77171 2.8791,-14.83959 -1.78465,-5.04513 -5.91312,-8.63909 -11.2139,-9.76203 l -1.14833,-0.24325 -1.75597,-0.002 c -1.72164,-0.002 -1.77775,0.003 -2.87032,0.22251 -4.627211,0.92955 -8.470563,3.85197 -10.566444,8.03455 -0.602247,1.20183 -1.007823,2.37419 -1.298954,3.75469 -0.241889,1.14693 -0.242139,1.15001 -0.246159,2.93787 -0.0038,1.69558 0.0057,1.83774 0.181873,2.70151 0.412123,2.02119 1.249177,4.04595 2.355173,5.69678 2.129594,3.17869 5.548681,5.48221 9.304361,6.26856 1.29339,0.27079 1.92198,0.32164 3.57948,0.28951 1.20788,-0.0234 1.51375,-0.053 2.39758,-0.23199 z m 50.24789,0 c 2.6776,-0.54227 5.07122,-1.7209 7.03933,-3.46623 2.51321,-2.22872 4.11496,-5.01498 4.82186,-8.38779 0.20613,-0.98347 0.21247,-1.06536 0.21724,-2.80281 0.005,-1.7655 0.002,-1.80436 -0.216,-2.87034 -1.09666,-5.36508 -4.7085,-9.55058 -9.80237,-11.35925 -0.46421,-0.16484 -1.36079,-0.40915 -1.99234,-0.54296 l -1.14833,-0.24325 -1.75597,-0.002 c -1.71163,-0.002 -1.78328,0.004 -2.83659,0.21576 -1.39708,0.28097 -2.3271,0.58737 -3.57948,1.17934 -4.33639,2.04965 -7.41138,6.00052 -8.3504,10.72893 -0.21489,1.08203 -0.21909,1.13849 -0.21517,2.89331 0.004,1.73596 0.0103,1.81978 0.21413,2.78896 0.55221,2.62577 1.78496,5.12368 3.48429,7.06011 2.0815,2.37197 5.04734,4.10212 8.14272,4.75022 1.29342,0.2708 1.922,0.32165 3.5795,0.28953 1.20788,-0.0234 1.51375,-0.053 2.39758,-0.23198 z M 134.3579,229.57295 c 1.13454,-0.2239 2.22236,-0.4388 2.41737,-0.47753 l 0.35457,-0.0704 v -4.52023 -4.52022 h 4.5177 4.5177 l 0.0366,-0.15195 c 0.0202,-0.0836 0.13092,-0.63527 0.24609,-1.22597 0.11515,-0.59071 0.22529,-1.09977 0.24474,-1.13126 0.0195,-0.0315 5.91328,-0.0572 13.09737,-0.0572 13.04508,0 13.06246,0 13.43574,-0.13984 0.51701,-0.19343 1.0584,-0.70358 1.32812,-1.25145 0.18814,-0.38217 0.21422,-0.5029 0.21394,-0.99088 0,-0.41123 -0.0392,-0.65663 -0.14984,-0.94383 -0.19598,-0.50861 -0.70182,-1.059 -1.20288,-1.30886 l -0.3892,-0.19407 -13.15484,-0.0176 -13.15486,-0.0175 -0.0552,-0.15129 c -0.0304,-0.0832 -0.15518,-0.66034 -0.27742,-1.28254 l -0.22225,-1.13125 h -4.51579 -4.51583 v -4.51732 -4.5173 l -2.50997,-0.49398 -2.50998,-0.49397 -2.4878,0.49563 -2.48779,0.49563 v 4.51565 4.51566 h -4.51581 -4.51579 l -0.22225,1.13125 c -0.12224,0.6222 -0.24725,1.19978 -0.27781,1.28354 l -0.0556,0.15229 -13.02337,-9.7e-4 c -14.230495,-0.001 -13.332945,-0.0265 -13.946238,0.39543 -0.716674,0.4931 -1.074963,1.1699 -1.07793,2.03627 -0.0033,0.94597 0.510775,1.78534 1.34938,2.20351 l 0.389188,0.19407 13.17714,0.0175 13.17712,0.0176 0.21984,1.09681 c 0.12089,0.60327 0.22925,1.14241 0.24077,1.19812 0.0115,0.0558 0.0233,0.1393 0.0261,0.18574 0.004,0.0666 0.95796,0.0844 4.53019,0.0844 h 4.52501 v 4.5153 4.5153 l 2.34692,0.47565 c 1.29082,0.26161 2.45201,0.47873 2.58041,0.48248 0.1284,0.004 1.16172,-0.17638 2.29627,-0.40027 z M 82.942606,207.14914 c 0.522357,-0.25391 1.03587,-0.80063 1.249963,-1.33083 l 0.156735,-0.38811 0.01819,-13.07605 0.01819,-13.07604 0.927322,-0.18378 c 0.510027,-0.10102 1.07167,-0.21417 1.248124,-0.25132 l 0.320784,-0.0675 v -4.51942 -4.51942 h 4.525029 c 2.488745,0 4.52501,-0.009 4.52501,-0.0196 0,-0.0107 0.212733,-1.08086 0.472754,-2.37795 0.260019,-1.2971 0.472772,-2.45076 0.472792,-2.5637 1.8e-5,-0.11294 -0.217214,-1.29185 -0.482709,-2.61981 l -0.482748,-2.41446 H 91.396984 86.88191 v -4.51541 -4.5154 l -0.928622,-0.18404 c -0.510755,-0.10123 -1.073009,-0.21444 -1.249445,-0.25158 l -0.320804,-0.0676 v -12.77588 c 0,-8.62541 -0.02362,-12.91835 -0.07168,-13.21446 -0.09407,-0.57991 -0.259235,-0.93641 -0.610173,-1.31713 -0.381186,-0.41353 -0.75525,-0.6247 -1.313617,-0.74152 -1.135173,-0.2375 -2.148758,0.26081 -2.7149,1.33471 l -0.185586,0.35208 -0.01761,13.15485 -0.01762,13.15486 -0.151279,0.0552 c -0.0832,0.0304 -0.660351,0.15519 -1.282547,0.27743 l -1.131247,0.22224 v 4.5158 4.51582 h -4.515655 -4.515652 l -0.497845,2.49888 -0.497846,2.49889 0.497846,2.49889 0.497845,2.49888 h 4.515652 4.515655 v 4.51581 4.51581 l 1.131247,0.22224 c 0.622196,0.12224 1.199345,0.24708 1.282547,0.27744 l 0.151279,0.0552 0.01762,13.15486 0.01761,13.15485 0.141746,0.30392 c 0.584041,1.25223 2.095114,1.80501 3.314255,1.21241 z m 100.495794,0 c 0.52838,-0.25683 1.04163,-0.8048 1.23307,-1.31648 0.13966,-0.37328 0.13985,-0.39067 0.13985,-13.43575 0,-7.18409 0.0258,-13.0779 0.0572,-13.09735 0.0314,-0.0195 0.54054,-0.1296 1.13125,-0.24476 0.59071,-0.11517 1.14239,-0.2259 1.22598,-0.24609 l 0.15194,-0.0367 v -4.5177 -4.51769 h 4.51943 4.51942 l 0.0664,-0.3208 c 0.0365,-0.17645 0.25852,-1.30284 0.49325,-2.5031 l 0.42677,-2.1823 -0.49699,-2.49468 -0.49702,-2.49466 h -4.51565 -4.51567 v -4.51755 -4.51754 l -1.13124,-0.21492 c -0.6222,-0.11821 -1.19933,-0.23115 -1.28255,-0.25101 l -0.1513,-0.0361 -0.0176,-13.17954 -0.0176,-13.17954 -0.14984,-0.30891 c -0.19958,-0.41138 -0.64066,-0.90337 -0.99729,-1.11237 -0.36528,-0.21406 -1.10144,-0.37097 -1.51072,-0.32198 -0.57894,0.0693 -1.0291,0.28646 -1.43139,0.69053 -0.45595,0.458 -0.64606,0.83441 -0.73641,1.45805 -0.0443,0.30613 -0.0687,4.95764 -0.0689,13.20173 0,12.09025 -0.006,12.73117 -0.11937,12.77089 -0.0654,0.023 -0.62794,0.14191 -1.25013,0.26422 l -1.13125,0.2224 v 4.5158 4.51582 h -4.51568 -4.51564 l -0.49796,2.49951 -0.49798,2.4995 0.29617,1.50209 c 0.16288,0.82614 0.38276,1.93991 0.48861,2.47503 0.10584,0.53512 0.19243,0.9834 0.19243,0.99618 0,0.0128 2.03628,0.0232 4.52504,0.0232 h 4.52501 v 4.51581 4.51581 l 1.13125,0.22239 c 0.62219,0.12232 1.18416,0.241 1.24881,0.26373 0.11109,0.0391 0.11853,0.76028 0.13507,13.10858 l 0.0174,13.06725 0.15673,0.38811 c 0.53515,1.32523 2.10321,1.94505 3.3668,1.33083 z M 59.630579,204.58742 c 2.686658,-0.54474 5.043741,-1.7027 7.026256,-3.45176 3.555713,-3.13701 5.381994,-7.60146 5.053446,-12.35345 -0.411446,-5.95106 -4.317876,-11.05266 -10.013974,-13.07778 -0.467529,-0.16622 -1.366715,-0.41216 -1.998189,-0.54655 l -1.148138,-0.24433 -1.789743,0.002 c -1.78793,0.003 -1.790907,0.003 -2.937882,0.24365 -6.04742,1.26967 -10.548299,5.81157 -11.792733,11.90021 -0.216473,1.05913 -0.22083,1.11549 -0.219268,2.83657 9.57e-4,1.15626 0.02997,1.87131 0.08467,2.09366 0.04569,0.18573 0.127502,0.59602 0.181811,0.91176 0.262008,1.52325 1.22665,3.79826 2.272336,5.35909 2.131268,3.1812 5.554686,5.48771 9.304346,6.26875 1.322546,0.27549 1.88244,0.32126 3.545718,0.28981 1.247161,-0.0235 1.54052,-0.0516 2.431349,-0.23222 z m 50.247901,0 c 2.68666,-0.54474 5.04373,-1.7027 7.02625,-3.45176 3.53428,-3.1181 5.38614,-7.61757 5.0566,-12.28592 -0.19027,-2.69506 -1.01926,-5.11101 -2.5262,-7.36209 -2.18997,-3.27141 -5.4935,-5.47469 -9.48911,-6.3287 l -1.14816,-0.2454 -1.78974,0.002 c -1.78792,0.003 -1.79091,0.003 -2.93787,0.24365 -4.610301,0.96795 -8.383315,3.85596 -10.465124,8.01045 -0.601979,1.20128 -1.007651,2.37366 -1.29926,3.75469 l -0.242426,1.14814 -5.8e-5,1.8235 c -5.7e-5,1.7764 0.0052,1.84882 0.206799,2.80281 1.27238,6.02337 5.785807,10.61419 11.631239,11.83065 1.32295,0.27532 1.88283,0.32105 3.5457,0.28961 1.24717,-0.0235 1.54052,-0.0516 2.43136,-0.23222 z m 50.27294,-0.005 c 3.31026,-0.67112 6.18339,-2.32712 8.39041,-4.83597 1.74377,-1.98226 2.88602,-4.31368 3.44726,-7.03598 0.21274,-1.03194 0.21806,-1.10025 0.21901,-2.81359 0,-1.72304 -0.003,-1.77624 -0.22108,-2.83657 -0.83929,-4.08402 -3.03318,-7.38703 -6.42389,-9.67144 -1.57855,-1.06353 -3.34866,-1.79833 -5.36922,-2.22885 l -1.14815,-0.24464 -1.78975,0.002 c -1.78849,0.002 -1.79052,0.002 -2.93787,0.24226 -1.38206,0.2896 -2.52765,0.68592 -3.74277,1.29482 -4.1908,2.10002 -7.12818,5.96055 -8.04918,10.57893 -0.21541,1.08026 -0.22092,1.15155 -0.2211,2.86382 0,1.7133 0.005,1.7815 0.21645,2.80661 0.68352,3.31493 2.39262,6.28185 4.86788,8.45043 1.91991,1.68201 4.27597,2.85873 6.75987,3.37619 1.32267,0.27554 1.88255,0.32129 3.54573,0.28971 1.25521,-0.0238 1.53765,-0.0512 2.4564,-0.2374 z m 50.22285,0.005 c 3.32898,-0.67498 6.15516,-2.29732 8.38779,-4.81494 1.73924,-1.96124 2.90307,-4.31979 3.47357,-7.03933 0.20661,-0.98486 0.21264,-1.06287 0.21646,-2.80281 0.004,-1.76846 0.002,-1.80259 -0.21884,-2.87034 -0.84362,-4.09256 -3.04871,-7.41245 -6.42222,-9.669 -1.61015,-1.07703 -3.33675,-1.79408 -5.36924,-2.22979 l -1.14814,-0.24613 -1.78973,0.002 c -1.78857,0.002 -1.79049,0.002 -2.93788,0.24228 -1.38872,0.29102 -2.46481,0.66012 -3.68541,1.26406 -2.98874,1.47878 -5.36097,3.85298 -6.82475,6.83034 -0.89176,1.81385 -1.42545,3.80778 -1.51597,5.66384 -0.0245,0.50147 -0.0471,0.92696 -0.0503,0.94553 -0.003,0.0185 0.0165,0.44406 0.0438,0.94553 0.13414,2.46031 1.07724,5.27349 2.45984,7.33717 2.20608,3.29288 5.58377,5.58575 9.40406,6.38376 1.32124,0.27598 1.88119,0.32184 3.54573,0.29037 1.24714,-0.0235 1.54052,-0.0516 2.43135,-0.23221 z m -73.599,-25.73723 0.35457,-0.0731 v -4.52023 -4.52022 h 4.51942 4.51942 l 0.0676,-0.32081 c 0.0371,-0.17644 0.15036,-0.73869 0.25158,-1.24945 l 0.18405,-0.92863 5.84928,-0.001 c 3.46011,-7.7e-4 6.03642,-0.0285 6.30749,-0.0676 2.42087,-0.35004 2.93306,-3.56021 0.73984,-4.63718 l -0.38761,-0.19036 -6.23254,-0.0182 -6.23252,-0.0182 -0.055,-0.1506 c -0.0302,-0.0828 -0.15492,-0.65965 -0.27716,-1.28184 l -0.22225,-1.13125 h -4.51579 -4.51583 v -4.51568 -4.51569 l -2.51575,-0.49368 -2.51578,-0.49368 -2.48201,0.49371 -2.482,0.49371 v 4.51565 4.51566 h -4.51581 -4.51579 l -0.22225,1.13125 c -0.12224,0.62219 -0.24732,1.19992 -0.27792,1.28384 l -0.0557,0.15259 -6.0968,-0.002 c -6.77972,-0.002 -6.50311,-0.0198 -7.12169,0.45241 -0.43319,0.33066 -0.53524,0.45573 -0.77511,0.9498 -0.62588,1.28929 -0.0207,2.78609 1.35074,3.34054 l 0.38196,0.15442 6.1628,0.0199 c 3.38953,0.011 6.16278,0.0296 6.16278,0.0413 0,0.0118 0.0768,0.39797 0.17063,0.85812 0.0939,0.46014 0.18554,0.9278 0.20377,1.03923 0.0182,0.11144 0.0503,0.2862 0.0711,0.38834 l 0.038,0.18573 h 4.51966 4.51964 v 4.51526 4.51528 l 2.50026,0.49938 2.50026,0.49939 2.14296,-0.42133 c 1.17861,-0.23173 2.30248,-0.45422 2.49749,-0.49444 z M 59.799424,154.31011 c 5.864049,-1.22433 10.431678,-5.79196 11.656012,-11.65601 0.09694,-0.46432 0.211276,-1.33049 0.254076,-1.92482 0.245221,-3.40533 -0.619043,-6.65989 -2.519867,-9.48901 -2.221529,-3.30647 -5.604451,-5.54044 -9.626604,-6.35709 -1.051627,-0.21352 -1.126774,-0.21939 -2.802804,-0.21942 -1.676147,-1e-5 -1.751107,0.006 -2.802805,0.2194 -6.123414,1.24338 -10.664898,5.78618 -11.925536,11.92895 -0.214702,1.04619 -0.221913,1.13437 -0.226482,2.76904 -0.0031,1.09261 0.02467,1.83144 0.07856,2.09366 0.0458,0.22288 0.131218,0.66355 0.189807,0.97929 0.05859,0.31574 0.261017,1.04514 0.449843,1.62091 2.155755,6.5732 8.442097,10.78671 15.350979,10.28918 0.594329,-0.0428 1.460498,-0.15713 1.924819,-0.25408 z m 50.247886,0 c 4.51659,-0.94299 8.35057,-3.90484 10.41898,-8.04888 1.75013,-3.5064 2.01253,-7.77095 0.70977,-11.5358 -1.75812,-5.08072 -5.99613,-8.75098 -11.36513,-9.84254 -1.06006,-0.21552 -1.11398,-0.21962 -2.83657,-0.21575 -1.74889,0.004 -1.76061,0.005 -2.90411,0.24595 -6.053642,1.27595 -10.557515,5.81981 -11.794306,11.89902 -0.216295,1.06321 -0.219779,1.1094 -0.215931,2.87035 0.0038,1.73663 0.01013,1.81939 0.214208,2.78895 1.265278,6.01157 5.76603,10.58327 11.627199,11.81044 1.9736,0.41322 4.25193,0.4237 6.14589,0.0283 z m 50.24789,0 c 3.19612,-0.6673 6.06287,-2.33805 8.23368,-4.79859 1.7527,-1.98666 2.8972,-4.31823 3.46021,-7.04925 0.21274,-1.03194 0.21806,-1.10025 0.21901,-2.81359 0,-1.72199 -0.003,-1.77689 -0.22065,-2.83657 -1.26306,-6.15733 -5.77563,-10.66964 -11.92862,-11.92793 -1.06211,-0.2172 -1.11067,-0.22092 -2.83658,-0.21704 -1.74889,0.004 -1.76061,0.005 -2.90411,0.24595 -1.38028,0.29093 -2.55262,0.69647 -3.75469,1.29882 -4.17867,2.09393 -7.10387,5.94103 -8.0344,10.56643 -0.21958,1.09145 -0.22418,1.15049 -0.22415,2.87034 2e-5,1.7129 0.005,1.78176 0.21664,2.80662 0.96607,4.6853 3.90027,8.52428 8.11581,10.6184 2.89571,1.43848 6.4876,1.89832 9.65785,1.23641 z m 50.2479,0 c 3.19611,-0.6673 6.06286,-2.33805 8.23368,-4.79859 1.73648,-1.96826 2.88888,-4.30924 3.45887,-7.02626 0.20659,-0.98487 0.21262,-1.06289 0.21644,-2.8028 0.004,-1.76204 0,-1.80612 -0.21462,-2.84736 -0.42769,-2.06994 -1.15252,-3.84956 -2.23156,-5.47892 -2.239,-3.38092 -5.60657,-5.62745 -9.69918,-6.47041 -1.06459,-0.21928 -1.10665,-0.22252 -2.83659,-0.21863 -1.74643,0.004 -1.7622,0.005 -2.9041,0.24489 -4.63413,0.97245 -8.42899,3.89244 -10.50323,8.08181 -0.89222,1.80196 -1.43211,3.8141 -1.5229,5.67555 -0.0245,0.50147 -0.0471,0.92695 -0.0503,0.94553 -0.003,0.0185 0.0165,0.44405 0.0438,0.94552 0.13502,2.47677 1.07399,5.26863 2.47561,7.36072 3.02755,4.51903 8.17995,7.03401 13.60938,6.64303 0.59434,-0.0428 1.46051,-0.15713 1.92482,-0.25408 z m -73.76783,-25.7082 0.35457,-0.0727 v -4.52023 -4.52023 h 4.51942 4.51942 l 0.0676,-0.3208 c 0.0371,-0.17644 0.15025,-0.73809 0.25134,-1.24812 l 0.18376,-0.92731 13.07605,-0.0182 13.07604,-0.0182 0.38812,-0.15672 c 0.53574,-0.21634 1.07572,-0.72651 1.34246,-1.26833 0.18814,-0.38219 0.21422,-0.5029 0.21394,-0.9909 0,-0.77501 -0.18646,-1.23981 -0.70317,-1.75651 -0.21526,-0.21525 -0.53702,-0.45861 -0.71505,-0.5408 l -0.3237,-0.14944 -13.15484,-0.0176 -13.15486,-0.0176 -0.0552,-0.15128 c -0.0304,-0.0832 -0.15519,-0.66036 -0.27743,-1.28255 l -0.22225,-1.13125 h -4.51579 -4.51583 v -4.50965 -4.50964 l -2.51575,-0.499829 -2.51578,-0.499829 -2.482,0.493401 -2.48201,0.493407 v 4.51608 4.51606 h -4.51581 -4.51579 l -0.22225,1.13125 c -0.12224,0.62219 -0.24708,1.19932 -0.27745,1.28254 l -0.0552,0.15128 -13.15488,0.0176 -13.154838,0.0176 -0.426903,0.23146 c -1.462945,0.7932 -1.775939,2.6478 -0.649994,3.85153 0.391007,0.41803 0.863416,0.65494 1.482128,0.7433 0.301411,0.0431 5.092949,0.068 13.220457,0.0689 7.01125,7.6e-4 12.74792,0.009 12.74821,0.0182 0,0.009 0.10664,0.56393 0.23634,1.23256 0.1297,0.66861 0.23584,1.22326 0.23586,1.23256 5e-5,0.009 2.03631,0.0169 4.52507,0.0169 h 4.52501 v 4.51528 4.51527 l 2.51577,0.50277 2.51579,0.50279 2.12742,-0.42512 c 1.17008,-0.23381 2.28698,-0.45783 2.48199,-0.49782 z m -26.72796,-24.53969 c 4.51994,-0.9437 8.34905,-3.90176 10.41898,-8.048878 2.05156,-4.11032 2.03583,-9.175367 -0.0414,-13.33253 -2.09092,-4.184494 -5.90277,-7.072976 -10.61391,-8.042819 -1.05992,-0.218198 -1.11355,-0.222404 -2.80281,-0.219699 -1.66486,0.0027 -1.75819,0.01003 -2.80279,0.22004 -6.105309,1.227635 -10.684134,5.805121 -11.929386,11.925884 -0.216295,1.063209 -0.219779,1.109404 -0.215931,2.870342 0.0038,1.73664 0.01013,1.819392 0.214208,2.788953 0.69682,3.310721 2.377629,6.233459 4.837313,8.411497 3.468936,3.07177 8.391606,4.37598 12.935776,3.42721 z m 50.24789,0 c 3.19612,-0.6673 6.06287,-2.33805 8.23368,-4.798597 1.7527,-1.98665 2.8972,-4.318216 3.46021,-7.049246 0.21274,-1.031931 0.21806,-1.100245 0.21901,-2.813585 0,-1.725991 -0.003,-1.774426 -0.22222,-2.836574 -0.43196,-2.091107 -1.18491,-3.919033 -2.28352,-5.54365 -2.26821,-3.35426 -5.61302,-5.562381 -9.67719,-6.388549 -1.01354,-0.206034 -1.10188,-0.212795 -2.76916,-0.211895 -1.66857,9.57e-4 -1.75585,0.0077 -2.80281,0.21821 -4.66688,0.938406 -8.49947,3.843928 -10.60018,8.036114 -0.60156,1.200472 -1.0074,2.372877 -1.29972,3.754694 l -0.24286,1.148137 -0.003,1.789746 c -0.003,1.762668 0,1.80586 0.21687,2.855328 0.39745,1.925419 1.22682,3.943409 2.24567,5.464182 3.02336,4.512765 8.16866,7.020925 13.60049,6.629765 0.59434,-0.0428 1.46051,-0.15713 1.92482,-0.25408 z"
       id="path4117"
       inkscape:connector-curvature="0" />
  </g>
</svg>
