<?xml version="1.0" encoding="UTF-8" standalone="no"?>
<!-- Created with Inkscape (http://www.inkscape.org/) -->

<svg
   xmlns:dc="http://purl.org/dc/elements/1.1/"
   xmlns:cc="http://creativecommons.org/ns#"
   xmlns:rdf="http://www.w3.org/1999/02/22-rdf-syntax-ns#"
   xmlns:svg="http://www.w3.org/2000/svg"
   xmlns="http://www.w3.org/2000/svg"
   xmlns:sodipodi="http://sodipodi.sourceforge.net/DTD/sodipodi-0.dtd"
   xmlns:inkscape="http://www.inkscape.org/namespaces/inkscape"
   width="1000"
   height="1000"
   viewBox="0 0 264.58333 264.58334"
   version="1.1"
   id="svg8"
   inkscape:version="0.92.4 (5da689c313, 2019-01-14)"
   sodipodi:docname="20T.svg">
  <defs
     id="defs2" />
  <sodipodi:namedview
     id="base"
     pagecolor="#000000"
     bordercolor="#666666"
     borderopacity="1.0"
     inkscape:pageopacity="0"
     inkscape:pageshadow="2"
     inkscape:zoom="0.98994949"
     inkscape:cx="777.09396"
     inkscape:cy="399.61934"
     inkscape:document-units="mm"
     inkscape:current-layer="layer1"
     showgrid="false"
     inkscape:pagecheckerboard="true"
     inkscape:window-width="3732"
     inkscape:window-height="2032"
     inkscape:window-x="108"
     inkscape:window-y="54"
     inkscape:window-maximized="1"
     units="px" />
  <metadata
     id="metadata5">
    <rdf:RDF>
      <cc:Work
         rdf:about="">
        <dc:format>image/svg+xml</dc:format>
        <dc:type
           rdf:resource="http://purl.org/dc/dcmitype/StillImage" />
        <dc:title></dc:title>
      </cc:Work>
    </rdf:RDF>
  </metadata>
  <g
     inkscape:label="Layer 1"
     inkscape:groupmode="layer"
     id="layer1"
     transform="translate(0,-32.41665)">
    <path
       style="fill:#ffffff;stroke-width:0.06757923"
       d="m 127.69275,295.87707 c -1.36517,-0.32881 -2.68508,-1.40819 -3.28206,-2.68395 -0.2334,-0.49882 -0.46808,-1.37907 -0.46992,-1.76264 -7.4e-4,-0.15201 -0.33232,-2.03666 -0.73687,-4.1881 l -0.73554,-3.91169 1.27907,-8.31294 c 0.70349,-4.57212 1.26527,-8.32676 1.24839,-8.34363 -0.0281,-0.0281 -0.57659,-0.12278 -2.23636,-0.38622 -0.33452,-0.0531 -0.89711,-0.14238 -1.25021,-0.1984 -0.35311,-0.0561 -0.94612,-0.1502 -1.3178,-0.20923 -0.5735,-0.0911 -1.9315,-0.3045 -5.64287,-0.88676 -0.3531,-0.0554 -0.9309,-0.14634 -1.284,-0.20211 -0.3531,-0.0558 -1.02214,-0.15938 -1.48674,-0.23025 -1.28705,-0.19633 -3.79254,-0.59779 -4.02276,-0.64457 l -0.20452,-0.0416 -1.36102,8.34329 -1.36103,8.34328 -1.78946,3.27006 c -0.98421,1.79854 -1.9581,3.61926 -2.16421,4.04604 -0.60838,1.2598 -1.293679,1.9828 -2.362271,2.49228 -0.76117,0.36291 -1.330716,0.48956 -2.199808,0.48921 -0.856714,-6.8e-4 -0.705371,0.0405 -4.908798,-1.32636 -3.436881,-1.11762 -3.778834,-1.24867 -4.382868,-1.6797 -1.616593,-1.15358 -2.365681,-3.18589 -1.896908,-5.14642 0.05328,-0.22302 0.323512,-2.16144 0.600428,-4.30761 l 0.503477,-3.90213 3.786835,-7.51513 c 2.082756,-4.13333 3.78681,-7.53198 3.786783,-7.55255 -3.5e-5,-0.0206 -0.129277,-0.0986 -0.287212,-0.17341 -0.277445,-0.13138 -4.208034,-2.13022 -6.842344,-3.47956 -0.706205,-0.36173 -2.226735,-1.13708 -3.378958,-1.72298 -1.152232,-0.58591 -2.797617,-1.42533 -3.656412,-1.86537 l -1.561448,-0.80009 -3.87868,7.51935 -3.878677,7.51936 -2.534221,2.38401 c -1.393821,1.3112 -2.883943,2.74223 -3.311382,3.18006 -0.427438,0.43784 -0.892635,0.87914 -1.033769,0.98069 -0.356769,0.2567 -1.146163,0.61163 -1.6694,0.7506 -0.515892,0.13703 -1.683996,0.15576 -2.193856,0.0353 -0.468119,-0.11068 -1.232729,-0.42504 -1.594399,-0.6555 -0.930676,-0.59302 -6.038604,-4.37158 -6.392523,-4.72883 -1.01331,-1.02283 -1.504251,-2.41383 -1.367956,-3.87586 0.06847,-0.73456 0.278644,-1.37422 0.68958,-2.09881 0.178865,-0.31538 1.06413,-2.13331 1.967257,-4.03982 l 1.642047,-3.46639 5.934059,-5.98322 5.934061,-5.98321 -6.254613,-6.25461 -6.254609,-6.25461 -5.988572,5.93589 -5.988571,5.9359 -3.569277,1.69351 c -1.963101,0.93143 -3.643367,1.74207 -3.733923,1.80141 -1.951233,1.27849 -4.547279,1.03761 -6.171729,-0.57267 -0.394555,-0.39112 -4.25056,-5.62365 -4.798896,-6.51202 -0.530322,-0.85919 -0.785069,-2.06353 -0.648095,-3.06394 0.177885,-1.2992 0.616182,-2.13431 1.629731,-3.10525 0.329799,-0.31594 1.778111,-1.81724 3.218473,-3.33625 l 2.618838,-2.76184 7.483201,-3.85133 7.483201,-3.85134 -0.886152,-1.73286 c -1.303102,-2.54822 -2.335666,-4.57299 -3.571815,-7.00405 -0.604785,-1.1894 -1.410325,-2.77075 -1.790088,-3.51412 -0.379764,-0.74338 -0.928572,-1.82295 -1.219576,-2.39907 -0.291004,-0.57611 -0.536939,-1.05836 -0.546523,-1.07165 -0.0096,-0.0133 -3.410863,1.68368 -7.558399,3.77107 l -7.540972,3.79524 -3.900789,0.50346 c -2.145433,0.27691 -4.113662,0.55542 -4.373842,0.61893 -0.623261,0.15213 -1.681319,0.14881 -2.263905,-0.007 -1.402113,-0.37522 -2.5505822,-1.29255 -3.1938826,-2.55108 -0.2293755,-0.44874 -2.2368667,-6.47993 -2.518086,-7.56519 -0.1763683,-0.68063 -0.1331721,-1.84474 0.09716,-2.6183 0.1259893,-0.42316 0.5530941,-1.2091 0.8725243,-1.6056 0.4760622,-0.59093 1.0343308,-1.0069 1.9377471,-1.44383 0.4460231,-0.21573 2.2706622,-1.18981 4.0547532,-2.16465 l 3.243803,-1.77245 8.365381,-1.36443 c 4.600959,-0.75043 8.347802,-1.38201 8.326318,-1.40349 -0.02148,-0.0214 -0.660786,-3.94007 -1.420669,-8.70796 -0.759883,-4.7679 -1.391629,-8.67893 -1.40388,-8.69118 -0.01225,-0.0122 -3.764937,0.55195 -8.339302,1.25378 l -8.317026,1.27607 -3.9103801,-0.7353 c -2.1507091,-0.40442 -4.034761,-0.73591 -4.1867817,-0.73662 -0.3835712,-0.002 -1.2638175,-0.23652 -1.7626308,-0.46993 -1.2779794,-0.598 -2.2949335,-1.83303 -2.65584058,-3.22536 -0.13791878,-0.53207 -0.14137473,-0.66633 -0.1225863,-4.76233 l 0.0193383,-4.21481 0.18411348,-0.54064 c 0.4734987,-1.39039 1.6031412,-2.59994 2.8713053,-3.07443 0.4575949,-0.1712 1.2188175,-0.33738 1.5612824,-0.34083 0.1369518,-0.002 1.9976158,-0.33272 4.1348096,-0.73633 l 3.8858054,-0.73382 8.307105,1.27646 c 4.568908,0.70207 8.323437,1.26015 8.3434,1.24019 0.01997,-0.02 0.635642,-3.84388 1.368179,-8.4976 0.732537,-4.65372 1.349309,-8.57165 1.370605,-8.70654 l 0.03872,-0.24523 -0.557018,-0.0816 c -0.30636,-0.0448 -1.180438,-0.18342 -1.942393,-0.30784 -0.761956,-0.12442 -2.160846,-0.35252 -3.108645,-0.50688 -0.947798,-0.15437 -2.346688,-0.38245 -3.108645,-0.50685 -0.761955,-0.1244 -2.160845,-0.35236 -3.108644,-0.50659 -0.947799,-0.15424 -2.426975,-0.39884 -3.287059,-0.54356 l -1.563787,-0.26314 -3.234338,-1.76769 c -1.778885,-0.97223 -3.5992648,-1.94316 -4.045288,-2.15763 -0.4460223,-0.21446 -0.9798275,-0.52542 -1.186233,-0.69102 -0.8070792,-0.64752 -1.4383354,-1.61599 -1.6869666,-2.58812 -0.1725591,-0.67471 -0.1884889,-1.78006 -0.034021,-2.36105 0.2773812,-1.04331 2.3009566,-7.1475 2.5027975,-7.54977 0.6488839,-1.29325 1.8264171,-2.23509 3.2427551,-2.5937 0.626255,-0.15858 1.671468,-0.15962 2.297694,-0.003 0.26018,0.0654 2.213591,0.34282 4.340911,0.61658 l 3.867855,0.49774 5.863554,2.95246 c 3.224955,1.62385 6.617388,3.33291 7.538742,3.79791 0.921354,0.465 1.684452,0.83395 1.695775,0.81991 0.01132,-0.0141 1.413159,-2.76252 3.115191,-6.10769 1.702032,-3.34518 3.501785,-6.87688 3.999451,-7.84824 l 0.904846,-1.7661 -0.96468,-0.49026 c -0.530573,-0.26964 -1.268786,-0.64904 -1.640472,-0.8431 -0.371686,-0.19407 -1.344826,-0.69581 -2.162535,-1.11499 -0.817709,-0.41919 -1.82126,-0.93651 -2.230115,-1.14961 -0.408854,-0.21309 -1.3972,-0.7239 -2.196324,-1.13511 -0.799125,-0.41122 -2.076372,-1.06874 -2.838329,-1.46115 -0.761955,-0.39241 -1.750302,-0.90141 -2.196324,-1.13111 l -0.810951,-0.41762 -2.601801,-2.763252 c -1.43099,-1.519802 -2.826801,-2.966683 -3.101803,-3.215309 -1.167164,-1.055218 -1.719811,-2.257025 -1.715051,-3.72964 0.0026,-0.796878 0.07173,-1.157686 0.359773,-1.877031 0.241963,-0.604276 0.174608,-0.50458 2.589929,-3.833408 2.246142,-3.095674 2.349402,-3.226279 2.880975,-3.643899 1.669554,-1.31168 3.904357,-1.427623 5.717614,-0.296636 0.227028,0.141607 0.428873,0.257466 0.448544,0.257466 0.01967,0 0.518162,0.230794 1.107755,0.512886 0.589593,0.282082 1.26478,0.603262 1.500417,0.71373 0.235635,0.110469 0.863859,0.408929 1.396054,0.663251 0.532193,0.25433 1.282131,0.609469 1.666527,0.789209 0.384396,0.17974 0.827109,0.38794 0.983804,0.462656 0.19916,0.09497 2.0601,1.895106 6.1835,5.981462 3.244229,3.215086 5.945661,5.882233 6.003182,5.927 0.08868,0.06906 1.053695,-0.867756 6.346397,-6.160692 l 6.241811,-6.242088 -5.938921,-5.988024 c -3.266408,-3.293413 -5.986656,-6.086252 -6.044997,-6.206308 -0.05834,-0.120055 -0.307378,-0.644033 -0.553417,-1.164392 -0.24604,-0.52036 -0.635344,-1.341448 -0.865121,-1.82464 -0.229778,-0.483191 -0.510283,-1.076199 -0.623344,-1.317795 -0.113061,-0.241596 -0.429587,-0.906701 -0.70339,-1.478011 -0.273803,-0.571312 -0.497824,-1.05174 -0.497824,-1.06762 0,-0.01588 -0.101496,-0.187537 -0.225548,-0.38146 -1.095364,-1.71233 -0.960357,-4.009995 0.332297,-5.655338 0.417628,-0.531573 0.548232,-0.634832 3.643899,-2.880974 3.328831,-2.415321 3.229139,-2.347967 3.833412,-2.589929 0.720469,-0.28849 1.08094,-0.357348 1.877033,-0.358554 1.453309,-0.0022 2.670098,0.551517 3.700676,1.684052 0.265149,0.291381 1.724368,1.700593 3.242712,3.131583 l 2.760618,2.6018 3.876007,7.518395 3.876011,7.518395 1.763666,-0.903841 c 0.970008,-0.497112 4.500623,-2.296337 7.845792,-3.998277 3.345168,-1.701941 6.09504,-3.104982 6.110818,-3.117868 0.01579,-0.01289 -0.323019,-0.715031 -0.752901,-1.560319 -0.429873,-0.845289 -2.140269,-4.236358 -3.800881,-7.535709 l -3.01929,-5.998821 -0.500373,-3.867748 c -0.275212,-2.12726 -0.552468,-4.080621 -0.616134,-4.340801 -0.155181,-0.634192 -0.152499,-1.681084 0.0063,-2.297694 0.367014,-1.428822 1.297933,-2.593471 2.591973,-3.242756 0.402426,-0.201912 6.5077,-2.225814 7.549778,-2.502752 0.530053,-0.140865 1.66162,-0.137708 2.25402,0.0063 0.633732,0.154043 1.487324,0.57884 1.969561,0.980171 0.596727,0.496603 0.970247,1.00385 1.414357,1.920718 0.21604,0.446024 0.63532,1.251905 0.93173,1.79085 0.29641,0.538944 0.64651,1.177568 0.77799,1.419164 0.13148,0.241596 0.68717,1.260353 1.23488,2.263904 0.54771,1.003552 1.00915,1.915871 1.02544,2.027377 0.0162,0.111506 0.13233,0.826156 0.25786,1.588112 0.12555,0.761956 0.33949,2.069614 0.47542,2.905907 0.13595,0.836293 0.36396,2.235183 0.50671,3.108644 0.14275,0.873462 0.38593,2.363585 0.5404,3.311383 0.15448,0.947799 0.38344,2.346688 0.50882,3.108645 0.12537,0.761955 0.26462,1.634931 0.30944,1.939944 0.0448,0.305014 0.10428,0.540484 0.13213,0.523267 0.0279,-0.01721 3.94881,-0.65248 8.71324,-1.411696 4.76441,-0.759217 8.67452,-1.392339 8.68912,-1.406937 0.0146,-0.0146 -0.54787,-3.764743 -1.24993,-8.33365 l -1.27646,-8.307106 0.73383,-3.885806 c 0.4036,-2.137193 0.73494,-3.997857 0.73632,-4.134809 0.002,-0.136953 0.0466,-0.458708 0.10054,-0.715012 0.37078,-1.762649 1.59023,-3.130296 3.31472,-3.717575 l 0.54064,-0.184114 h 4.35886 4.35885 l 0.47306,0.159708 c 1.39044,0.46943 2.47279,1.418353 3.04609,2.670595 0.20877,0.456028 0.43152,1.343505 0.43452,1.731295 9e-4,0.167259 0.33207,2.057424 0.73502,4.20037 l 0.73265,3.896263 -1.27615,8.294615 c -0.70188,4.56204 -1.26056,8.310198 -1.24152,8.329241 0.0334,0.0334 17.42634,2.788293 17.44388,2.762956 0.004,-0.0069 0.6178,-3.752998 1.36231,-8.324733 l 1.35366,-8.312245 1.8899,-3.458838 c 1.03945,-1.902361 1.95944,-3.630181 2.04444,-3.839601 0.52922,-1.303918 1.72091,-2.394709 3.0749,-2.814557 0.83436,-0.258717 1.98446,-0.271693 2.80455,-0.03164 0.95913,0.280756 6.60262,2.127225 7.02031,2.296946 1.4064,0.571473 2.44746,1.777912 2.86998,3.325868 0.1561,0.571956 0.16655,1.690942 0.0213,2.291708 -0.0629,0.260181 -0.34147,2.230669 -0.61913,4.378865 l -0.50483,3.90581 -3.79289,7.536006 c -2.08608,4.144803 -3.78203,7.542928 -3.76875,7.551386 0.0133,0.0084 0.49549,0.254397 1.0716,0.546528 0.57611,0.29213 1.65569,0.841897 2.39906,1.221704 0.74338,0.379806 2.29432,1.169958 3.44654,1.755894 2.67792,1.361792 5.03675,2.56426 7.13953,3.639546 l 1.6656,0.851732 3.85132,-7.482858 3.85131,-7.48286 2.76153,-2.618838 c 1.51885,-1.44036 3.02004,-2.888673 3.33597,-3.218472 0.75596,-0.789136 1.23611,-1.107282 2.13426,-1.414137 1.38271,-0.472411 3.01381,-0.260258 4.21819,0.548651 1.15454,0.775438 5.97843,4.337265 6.28433,4.640177 0.95151,0.942231 1.44021,2.142232 1.4296,3.510373 -0.007,0.954739 -0.29515,1.914341 -0.80937,2.699143 -0.0576,0.08793 -0.86845,1.768396 -1.80185,3.734379 l -1.69711,3.574514 -5.93545,5.988117 -5.93544,5.988113 6.25457,6.254565 6.25457,6.254576 5.98362,-5.934678 5.98362,-5.934677 3.46602,-1.641474 c 1.90632,-0.902817 3.72408,-1.787785 4.03947,-1.966598 1.02623,-0.581856 2.09542,-0.81266 3.17004,-0.684315 1.14708,0.137 2.38562,0.799875 3.09706,1.657585 0.29197,0.351999 3.8764,5.273345 4.32095,5.932587 1.0286,1.525319 1.14563,3.418281 0.313,5.062473 -0.2726,0.538287 -0.45626,0.762023 -1.30854,1.594079 -0.43784,0.427442 -1.86892,1.917565 -3.1802,3.311383 l -2.38416,2.53422 -7.51685,3.8774 -7.51685,3.8774 1.34715,2.644 c 0.74094,1.45419 2.54077,4.99251 3.99963,7.86292 1.45886,2.8704 2.66883,5.21963 2.68881,5.2205 0.02,8.7e-4 3.41855,-1.7025 7.5524,-3.78525 l 7.51605,-3.78681 3.9023,-0.50391 c 2.14625,-0.27714 4.11515,-0.55617 4.37533,-0.62006 0.62267,-0.15292 1.67979,-0.14994 2.26391,0.006 1.05489,0.2823 2.14651,1.00332 2.74037,1.81002 0.43981,0.59744 0.6336,1.05142 1.23534,2.89403 1.90775,5.84165 1.83923,5.60067 1.84062,6.47322 0.002,1.01047 -0.17487,1.71197 -0.63776,2.53509 -0.50279,0.89405 -1.2754,1.56498 -2.40981,2.09266 -0.352,0.16374 -2.13013,1.11244 -3.95139,2.10824 l -3.31139,1.81053 -8.23417,1.34301 c -4.52879,0.73869 -8.28704,1.34304 -8.35163,1.34304 -0.1088,0 -0.11086,0.0336 -0.0279,0.45616 0.0492,0.25089 0.19668,1.1404 0.32758,1.9767 0.13088,0.83629 0.39172,2.47846 0.57963,3.64927 0.18791,1.17081 0.37055,2.32641 0.40586,2.56801 0.0596,0.40823 0.2841,1.81357 0.59896,3.75065 0.0725,0.44602 0.242,1.51039 0.37666,2.36527 0.33357,2.11764 0.42953,2.68397 0.45984,2.71428 0.0142,0.0142 3.76641,-0.54972 8.33824,-1.25318 l 8.31243,-1.27898 3.74327,0.70592 c 2.05879,0.38827 4.01878,0.73369 4.35552,0.76762 1.28817,0.12981 2.21741,0.56894 3.14532,1.48639 0.48801,0.4825 0.6318,0.67791 0.89549,1.21681 0.51471,1.05195 0.51673,1.07404 0.51673,5.63647 0,4.53925 0.002,4.51971 -0.55038,5.64926 -0.22699,0.46421 -0.39237,0.68464 -0.86204,1.14885 -0.87024,0.86015 -1.63874,1.25633 -2.7437,1.41446 -0.29735,0.0425 -2.35006,0.40941 -4.56159,0.81525 -3.39054,0.62219 -4.06865,0.7287 -4.32508,0.67929 -0.16725,-0.0322 -0.53218,-0.0928 -0.81095,-0.13458 -0.27876,-0.0418 -0.6969,-0.10532 -0.92921,-0.14118 -0.2323,-0.0359 -0.62004,-0.0956 -0.86163,-0.13281 -0.2416,-0.0371 -0.63693,-0.098 -0.87854,-0.13516 -0.24159,-0.0371 -0.63693,-0.098 -0.87853,-0.13515 -0.24159,-0.0371 -0.63693,-0.098 -0.87852,-0.13516 -0.2416,-0.0371 -0.63694,-0.098 -0.87853,-0.13516 -0.2416,-0.0371 -0.63693,-0.098 -0.87854,-0.13516 -0.24159,-0.0371 -0.63693,-0.098 -0.87852,-0.13516 -0.2416,-0.0371 -0.62933,-0.0969 -0.86164,-0.1328 -0.68286,-0.10545 -1.20486,-0.18512 -4.44051,-0.67781 -1.68963,-0.25727 -3.0873,-0.4525 -3.10595,-0.43386 -0.035,0.035 -2.78435,17.41487 -2.75751,17.43142 0.008,0.005 3.75554,0.6187 8.32728,1.36354 l 8.31225,1.35424 3.24379,1.77394 c 1.7841,0.97567 3.60873,1.95099 4.05476,2.16739 0.91727,0.44503 1.42445,0.81867 1.92071,1.415 0.42768,0.5139 0.85702,1.3908 0.98761,2.01707 0.11991,0.5751 0.13677,1.60546 0.0339,2.07135 -0.15035,0.68086 -2.31679,7.24566 -2.54495,7.71176 -0.61361,1.25354 -1.81399,2.20555 -3.23558,2.56607 -0.61492,0.15595 -1.73566,0.15729 -2.31266,0.003 -0.23124,-0.062 -0.88507,-0.17144 -1.45295,-0.24336 -0.56788,-0.0719 -1.39744,-0.17873 -1.84347,-0.23737 -1.06903,-0.14056 -2.69613,-0.34928 -3.41275,-0.43778 -0.31593,-0.039 -0.78729,-0.10419 -1.04748,-0.14483 -0.48669,-0.0761 -0.69063,-0.17623 -13.97581,-6.86774 -0.84769,-0.42696 -1.54958,-0.76534 -1.55978,-0.75195 -0.0102,0.0134 -1.51799,2.97418 -3.35064,6.57954 -1.83266,3.60535 -3.63221,7.13608 -3.99901,7.84606 l -0.66692,1.29088 0.9634,0.49252 c 0.52987,0.27089 1.32834,0.68172 1.77436,0.91295 0.44602,0.23123 1.35834,0.70244 2.02738,1.04713 0.66903,0.34471 1.58136,0.81609 2.02737,1.04753 0.44603,0.23144 1.52561,0.78791 2.39907,1.23659 0.87346,0.44869 2.18112,1.12227 2.90591,1.49686 0.72479,0.3746 1.68272,0.86837 2.12874,1.09728 l 0.81095,0.41621 2.6018,2.76283 c 1.43099,1.51955 2.8402,2.97976 3.13158,3.24491 1.57059,1.4292 2.09934,3.47459 1.39622,5.40117 -0.25868,0.70879 -0.31944,0.80063 -2.69978,4.08047 -1.29158,1.77964 -2.22496,2.99895 -2.50676,3.27466 -1.02676,1.00456 -2.39588,1.47864 -3.87582,1.34208 -0.8117,-0.0749 -1.63324,-0.3638 -2.27094,-0.79861 -0.0929,-0.0633 -0.56429,-0.30074 -1.04747,-0.52752 -0.77973,-0.36595 -1.47697,-0.69585 -3.10866,-1.47086 -0.26018,-0.12358 -1.07373,-0.50962 -1.80791,-0.85787 l -1.33485,-0.63318 -5.98618,-5.93823 -5.98617,-5.93821 -6.25597,6.25597 -6.25597,6.25596 5.93654,5.98617 5.93655,5.98616 1.67309,3.532 c 0.9202,1.9426 1.74737,3.65363 1.83815,3.80231 0.59191,0.96931 0.79045,1.6719 0.79469,2.81221 0.004,1.24907 -0.50804,2.46939 -1.41462,3.36723 -0.35125,0.34785 -5.58554,4.20385 -6.40951,4.72174 -0.78646,0.49433 -1.89325,0.77035 -2.86003,0.71325 -1.34314,-0.0793 -2.49436,-0.65221 -3.45822,-1.72091 -0.24803,-0.27501 -1.69517,-1.67082 -3.21589,-3.10181 l -2.76493,-2.6018 -0.44948,-0.87853 c -0.24721,-0.48319 -0.74818,-1.45633 -1.11326,-2.16253 -0.36508,-0.7062 -0.99296,-1.92263 -1.3953,-2.70318 -0.40234,-0.78053 -0.9362,-1.81449 -1.18635,-2.29769 -0.25015,-0.48319 -0.78233,-1.51715 -1.18263,-2.29769 -0.4003,-0.78054 -0.91787,-1.78409 -1.15015,-2.23012 -0.23228,-0.44602 -0.61135,-1.18448 -0.84236,-1.64101 l -0.42002,-0.83007 -1.36175,0.70252 c -0.74895,0.38639 -4.28116,2.18677 -7.84935,4.00087 -3.56818,1.81409 -6.49853,3.30664 -6.51188,3.31678 -0.0134,0.0101 1.67811,3.40336 3.75879,7.5405 2.08069,4.13715 3.80206,7.62852 3.8253,7.7586 0.0232,0.1301 0.10182,0.70791 0.17464,1.28402 0.0728,0.57611 0.18039,1.4124 0.23904,1.85843 0.10778,0.81979 0.28106,2.16493 0.47007,3.64927 0.0568,0.44602 0.15184,0.99342 0.2112,1.21642 0.14809,0.5564 0.14694,1.69144 -0.003,2.2977 -0.34684,1.40856 -1.30711,2.62103 -2.56258,3.23558 -0.45848,0.22442 -7.00473,2.38652 -7.71176,2.54705 -0.47229,0.10723 -1.56494,0.0869 -2.11015,-0.0392 -0.62355,-0.14426 -1.48216,-0.57151 -1.97827,-0.98437 -0.60566,-0.50404 -0.981,-1.01243 -1.41801,-1.92072 -0.2146,-0.44602 -1.18852,-2.27066 -2.16426,-4.05475 l -1.77407,-3.24381 -1.35423,-8.31225 c -0.74485,-4.57173 -1.36106,-8.32164 -1.36938,-8.33313 -0.0132,-0.0183 -16.7948,2.63447 -17.27921,2.73139 -0.20356,0.0407 -0.20363,0.0418 -0.0505,0.93878 0.0317,0.18584 0.0929,0.58118 0.13601,0.87853 0.043,0.29734 0.57303,3.76544 1.17769,7.70688 l 1.09939,7.16623 -0.73113,3.88297 c -0.40212,2.13563 -0.73225,3.99502 -0.73363,4.13196 -0.004,0.34247 -0.16963,1.10369 -0.34083,1.56128 -0.3748,1.00173 -1.34368,2.06873 -2.30952,2.5434 -1.1176,0.54926 -1.08899,0.54656 -5.7259,0.54018 -3.32371,-0.004 -4.17097,-0.024 -4.5001,-0.10329 z m -1.85843,-34.27948 c 0,-0.0666 -0.57872,-0.14693 -0.9799,-0.13611 -0.20868,0.005 -0.15475,0.0264 0.23652,0.0908 0.66555,0.10963 0.74338,0.11438 0.74338,0.0453 z m 13.61721,-0.0451 0.47305,-0.0949 -0.57442,0.0306 c -0.31593,0.0169 -0.59723,0.031 -0.6251,0.0315 -0.0279,6.7e-4 -0.0507,0.0313 -0.0507,0.0685 0,0.0891 0.20207,0.0797 0.77716,-0.0357 z m -15.05468,-0.14033 c -0.0224,-0.0224 -0.0807,-0.0248 -0.12952,-0.005 -0.0539,0.0216 -0.0379,0.0376 0.0408,0.0408 0.0712,0.003 0.11115,-0.013 0.0887,-0.0355 z m 15.9487,0 c -0.0224,-0.0224 -0.0807,-0.0248 -0.12953,-0.005 -0.0539,0.0216 -0.0378,0.0376 0.0408,0.0408 0.0712,0.003 0.11116,-0.013 0.0887,-0.0355 z m -31.42434,-2.43284 c -0.0224,-0.0224 -0.0807,-0.0249 -0.12953,-0.005 -0.0539,0.0215 -0.0379,0.0376 0.0408,0.0408 0.0712,0.003 0.11115,-0.013 0.0887,-0.0355 z m -0.37028,-0.0715 c -0.0465,-0.0188 -0.12249,-0.0188 -0.16895,0 -0.0465,0.0188 -0.008,0.0341 0.0845,0.0341 0.0929,0 0.13093,-0.0153 0.0845,-0.0341 z M 81.127275,247.27215 c -0.177274,-0.1568 -0.706197,-0.47175 -0.706197,-0.42051 0,0.0323 0.159649,0.15123 0.354789,0.26423 0.365463,0.21165 0.463087,0.25506 0.351408,0.15628 z m 102.945125,-0.4044 c 0.0142,-0.0426 -0.13623,0.0314 -0.33428,0.16439 -0.48397,0.32502 -0.50301,0.36234 -0.0597,0.11684 0.20244,-0.11209 0.37968,-0.23864 0.39388,-0.28123 z m -52.74599,0.2817 c -0.0457,-0.0186 -0.13698,-0.0196 -0.20274,-0.003 -0.0657,0.0171 -0.0283,0.0323 0.0832,0.0336 0.11151,0.002 0.16531,-0.0126 0.11955,-0.0311 z m 7.24659,-0.32513 4.52781,-0.29499 5.29957,-1.05518 5.29956,-1.05519 5.10299,-1.7306 5.10299,-1.7306 4.80277,-2.37008 4.80277,-2.37008 4.55335,-3.0329 4.55334,-3.03292 4.06301,-3.56901 4.06301,-3.56901 3.55918,-4.05338 3.55919,-4.05337 3.03298,-4.55276 3.03299,-4.55275 2.37046,-4.8053 2.37047,-4.8053 1.72974,-5.10047 1.72976,-5.10045 1.05514,-5.29957 1.05515,-5.29957 0.29382,-4.49401 c 0.16161,-2.47172 0.30881,-4.72211 0.32712,-5.00087 0.0361,-0.55063 -0.0787,-0.003 -1.78174,8.49809 l -0.96464,4.81502 h -16.80165 -16.80165 l -6.04041,1.20842 -6.04042,1.20842 -5.1183,3.42747 -5.11831,3.42748 -3.42863,5.11958 -3.42861,5.11959 -1.20839,6.04024 -1.20839,6.04026 v 16.80122 16.80122 l -3.93648,0.78809 c -7.48769,1.49905 -9.88558,1.99944 -9.41042,1.96376 0.26019,-0.0196 2.51058,-0.16826 5.00087,-0.3305 z m -7.63645,0.26458 c -0.0658,-0.0259 -13.25116,-2.66587 -13.31487,-2.66587 -0.0176,0 -0.032,-7.56507 -0.032,-16.81125 v -16.81125 l -1.20795,-6.03809 -1.20795,-6.03807 -3.42959,-5.1201 -3.4296,-5.12011 -5.12169,-3.43065 -5.121692,-3.43066 -6.037404,-1.20681 -6.037411,-1.20679 H 69.189089 52.381819 l -0.04583,-0.25342 c -0.08756,-0.48416 -2.722242,-13.56633 -2.725429,-13.53274 -0.0018,0.0186 0.1467,2.28418 0.329916,5.03465 l 0.333124,5.00087 0.636561,3.17622 c 0.350109,1.74692 0.812693,4.07334 1.027963,5.16981 l 0.391401,1.99359 1.773541,5.23739 1.773539,5.23739 2.393282,4.83191 2.393282,4.83192 2.982443,4.4716 2.982446,4.47159 3.579956,4.07718 3.579962,4.07718 4.063924,3.56722 4.063924,3.56722 4.562557,3.04221 c 2.5094,1.67321 4.62874,3.06811 4.709636,3.09977 0.08091,0.0317 2.152996,1.05044 4.60466,2.26393 2.451654,1.2135 4.549983,2.2497 4.662953,2.30268 0.11297,0.053 2.49556,0.87221 5.29463,1.82049 l 5.08922,1.72416 5.31799,1.05473 5.31798,1.05474 4.25748,0.28888 c 3.877,0.26304 5.38728,0.34103 5.20361,0.26866 z m -60.922676,-7.82428 c 0,-0.0123 -0.235683,-0.23031 -0.52374,-0.48444 l -0.523739,-0.46203 0.471244,0.48442 c 0.405941,0.41731 0.576235,0.55385 0.576235,0.46205 z m 125.090846,-0.49571 0.50515,-0.51812 -0.55753,0.49723 c -0.30664,0.27346 -0.55752,0.5066 -0.55752,0.51809 0,0.0911 0.17681,-0.053 0.6099,-0.4972 z m 11.88439,-11.94687 c -0.0196,-0.0195 -0.25861,0.21503 -0.53133,0.52119 l -0.49585,0.55668 0.53133,-0.5212 c 0.29223,-0.28666 0.51536,-0.53715 0.49585,-0.55667 z m -148.977123,0.46974 c -0.250448,-0.27873 -0.471396,-0.49074 -0.490996,-0.47114 -0.03123,0.0312 0.862173,0.97791 0.922888,0.97791 0.01291,0 -0.181444,-0.22804 -0.431892,-0.50677 z m 75.360343,-9.39882 c 1.53255,-0.31921 2.92912,-1.59552 3.46011,-3.16217 l 0.18624,-0.54945 0.0179,-10.67517 c 0.01,-5.87134 0.0423,-10.69958 0.0722,-10.72942 0.0299,-0.0299 1.45107,-0.32871 3.1583,-0.66414 l 3.10404,-0.60989 3.29908,-2.19656 3.29907,-2.19656 -0.1638,-0.28409 c -0.0901,-0.15625 -0.29412,-0.52736 -0.45338,-0.82471 -0.15926,-0.29735 -0.46388,-0.85995 -0.67693,-1.25021 -0.21305,-0.39028 -0.49397,-0.90726 -0.62426,-1.14885 -0.24248,-0.44963 -0.85566,-1.58095 -1.28199,-2.36527 -0.39877,-0.73363 -1.90795,-3.51344 -2.21291,-4.07605 -0.15746,-0.29048 -0.2703,-0.54412 -0.25077,-0.56366 0.0345,-0.0345 0.72454,0.32806 3.39096,1.78187 0.40886,0.22292 0.94104,0.51243 1.18264,0.64336 0.2416,0.13092 1.51885,0.82301 2.83832,1.53797 1.31949,0.71496 2.55762,1.38934 2.75142,1.49863 l 0.35234,0.19868 2.19591,-3.29804 2.19591,-3.29805 0.6107,-3.10489 c 0.33588,-1.70768 0.63473,-3.12893 0.6641,-3.1583 0.0294,-0.0293 4.85724,-0.0614 10.72859,-0.0713 l 10.67517,-0.0179 0.54945,-0.18623 c 0.91639,-0.31061 1.92475,-1.06628 2.45678,-1.84115 0.93787,-1.36595 1.08669,-3.19311 0.38847,-4.76955 -0.43726,-0.98728 -1.38967,-1.91076 -2.4535,-2.37899 -0.91439,-0.40246 -0.42634,-0.38655 -11.85568,-0.38655 -6.60829,0 -10.48114,-0.0239 -10.50644,-0.0649 -0.0302,-0.0489 -0.9816,-4.68273 -0.9816,-4.781 0,-0.0107 -3.94578,-0.0271 -8.76841,-0.0365 l -8.7684,-0.0171 -0.0171,-8.76841 c -0.009,-4.82263 -0.0259,-8.7684 -0.0365,-8.7684 -0.0983,0 -4.73212,-0.9514 -4.78099,-0.98161 -0.0409,-0.0253 -0.0649,-3.89815 -0.0649,-10.50643 0,-8.98185 -0.0142,-10.53382 -0.10003,-10.9419 -0.47133,-2.24063 -2.41891,-3.80476 -4.73159,-3.80002 -1.29869,0.003 -2.39136,0.45351 -3.33398,1.37565 -0.63166,0.61793 -1.07688,1.39429 -1.3001,2.26705 -0.12628,0.49376 -0.13055,0.85581 -0.13055,11.06782 v 10.55737 l -3.15933,0.62117 -3.15933,0.62118 -3.29907,2.19447 -3.29907,2.19448 0.16368,0.28407 c 0.67984,1.17988 5.52884,10.20027 5.49918,10.22993 -0.0317,0.0317 -0.64808,-0.28731 -2.24094,-1.15965 -0.14868,-0.0814 -1.9125,-1.03827 -3.91959,-2.12634 -2.00711,-1.08805 -3.80742,-2.06746 -4.00067,-2.17645 l -0.35139,-0.19815 -2.197,3.2975 -2.19698,3.2975 -0.60665,3.09124 c -0.33366,1.70018 -0.62559,3.12189 -0.64873,3.15934 -0.028,0.0453 -3.57203,0.0681 -10.569644,0.0681 -10.178778,0 -10.544456,0.004 -11.037483,0.13042 -0.487744,0.12475 -1.212758,0.45297 -1.636496,0.74088 -0.109347,0.0743 -0.364763,0.29637 -0.567599,0.49352 -2.389914,2.32293 -1.724972,6.31104 1.2963,7.7748 0.934524,0.45276 0.05238,0.41876 11.837087,0.45636 l 10.677525,0.0341 0.48692,2.39906 c 0.26782,1.31949 0.48829,2.40655 0.48995,2.41571 0.002,0.009 3.9488,0.0244 8.77143,0.0338 l 8.76841,0.0171 0.0171,8.76286 0.0171,8.76286 0.32074,0.0675 c 0.17641,0.0371 1.27109,0.25698 2.4326,0.48852 l 2.11186,0.42098 v 10.55542 c 0,10.27786 0.004,10.56909 0.13302,11.07555 0.36931,1.44401 1.41787,2.68288 2.74063,3.23808 1.01858,0.42753 1.92901,0.51106 3.04246,0.27913 z m -83.536764,-1.76695 c -0.241842,-0.35638 -0.268927,-0.36578 -0.102396,-0.0355 0.07966,0.15797 0.173715,0.28721 0.209008,0.28721 0.0353,0 -0.01268,-0.11325 -0.106612,-0.25166 z m 165.023374,-0.15745 c 0.24551,-0.44339 0.20819,-0.42436 -0.11684,0.0597 -0.133,0.19805 -0.20698,0.34847 -0.16439,0.33427 0.0426,-0.0142 0.16915,-0.19144 0.28123,-0.39388 z M 35.390484,172.43427 c -0.01875,-0.0465 -0.03408,-0.008 -0.03408,0.0845 0,0.0929 0.01534,0.13094 0.03408,0.0845 0.01875,-0.0465 0.01875,-0.12249 0,-0.16895 z m 193.751056,0.004 c -0.0216,-0.0539 -0.0376,-0.0379 -0.0408,0.0408 -0.003,0.0712 0.013,0.11115 0.0355,0.0887 0.0224,-0.0224 0.0248,-0.0807 0.005,-0.12953 z M 35.313392,171.53346 c -0.02658,-0.31905 -0.07829,-0.56875 -0.117787,-0.56875 -0.04468,0 -0.05436,0.10498 -0.02648,0.28721 0.02416,0.15796 0.06364,0.45447 0.0877,0.65889 0.06641,0.56396 0.110473,0.26995 0.05655,-0.37735 z m 194.020188,-0.55583 c -0.0731,-0.0731 -0.0985,0.0421 -0.13141,0.59817 l -0.0339,0.57155 0.10037,-0.56713 c 0.0552,-0.31192 0.0844,-0.58308 0.0649,-0.60259 z M 51.031203,156.7221 52.395854,149.8797 H 69.200699 86.00554 l 6.030971,-1.20762 6.030973,-1.20761 5.131356,-3.4221 5.13137,-3.42211 3.41977,-5.12787 3.41977,-5.12786 1.20918,-6.00527 1.20918,-6.00527 7.4e-4,-16.83552 7.5e-4,-16.835509 4.98397,-0.994576 c 7.4108,-1.478852 8.89426,-1.788941 8.39672,-1.75516 -0.2416,0.01641 -1.15392,0.07528 -2.02738,0.130833 -1.91444,0.121764 -2.5307,0.162243 -3.10865,0.204194 -0.24159,0.01753 -1.15392,0.07712 -2.02738,0.132402 -0.87346,0.05529 -1.78578,0.116846 -2.02737,0.136802 -0.2416,0.01996 -2.8095,0.509541 -5.70644,1.087972 l -5.26719,1.051685 -5.14002,1.743932 -5.14002,1.743942 -4.831913,2.394205 -4.83192,2.394213 -4.464176,2.977403 -4.464179,2.977402 -4.071985,3.57318 -4.071994,3.57318 -3.585503,4.08418 -3.585511,4.08418 -2.977677,4.46459 -2.977676,4.4646 -2.394213,4.83191 -2.394212,4.83192 -1.74876,5.15425 -1.748762,5.15426 -1.051851,5.27532 c -1.137842,5.70659 -1.070718,5.25003 -1.280695,8.7109 -0.02142,0.3531 -0.05301,0.82446 -0.07019,1.04748 -0.01719,0.22301 -0.0618,0.89204 -0.09914,1.48674 -0.03734,0.5947 -0.08233,1.29414 -0.09997,1.55432 -0.01763,0.26019 -0.04922,0.74675 -0.07019,1.08127 -0.02096,0.33452 -0.05142,0.79067 -0.06768,1.01369 -0.01626,0.22301 -0.01642,0.37506 -3.38e-4,0.33789 0.01606,-0.0371 0.643303,-3.14665 1.393861,-6.90997 z m 163.531667,1.94268 -0.33005,-4.96685 -1.04809,-5.27118 -1.04809,-5.27118 -1.05485,-3.10865 c -0.58016,-1.70976 -1.35314,-3.99055 -1.71772,-5.06844 -0.36459,-1.07789 -0.69364,-2.03582 -0.73122,-2.12875 -0.0376,-0.0929 -1.07487,-2.20193 -2.30507,-4.68668 -1.23019,-2.48476 -2.23672,-4.5446 -2.23672,-4.57742 0,-0.0328 -1.39663,-2.15527 -3.10363,-4.71655 l -3.10363,-4.65686 -3.582,-4.07883 -3.582,-4.07882 -4.06548,-3.56857 -4.06549,-3.568569 -4.55521,-3.0373 c -2.50535,-1.670518 -4.56704,-3.037302 -4.58152,-3.037302 -0.0144,0 -2.08173,-1.016936 -4.59391,-2.259859 -2.51218,-1.242914 -4.66726,-2.306518 -4.78907,-2.363547 -0.12182,-0.05705 -2.51162,-0.879505 -5.31067,-1.827717 l -5.08919,-1.724011 -5.31802,-1.055317 -5.31801,-1.05532 -4.46023,-0.292564 c -2.45312,-0.160911 -4.68831,-0.30878 -4.96707,-0.328601 -0.37198,-0.02645 10.87269,2.289354 13.05968,2.689591 l 0.25342,0.04637 v 16.841066 l -1e-5,16.84106 1.19365,5.98077 1.19365,5.98076 3.44358,5.1502 3.44358,5.1502 5.12035,3.42467 5.12035,3.42467 6.03907,1.20712 6.03907,1.20714 h 16.79881 16.79881 l 1.37652,6.89093 c 0.75709,3.79001 1.38326,6.8842 1.3915,6.87597 0.008,-0.008 -0.13357,-2.25005 -0.31509,-4.98181 z M 35.301937,157.76957 c 0.02344,-0.19513 0.03955,-0.46122 0.0358,-0.59131 l -0.0068,-0.23653 -0.05186,0.27032 c -0.113089,0.58945 -0.142124,0.91232 -0.08204,0.91232 0.03427,0 0.08149,-0.15966 0.104922,-0.3548 z m 194.059523,0.23653 c -0.003,-0.065 -0.0441,-0.34634 -0.0929,-0.6251 -0.0816,-0.46664 -0.0893,-0.48213 -0.0971,-0.19528 -0.0115,0.41898 0.0638,0.93865 0.13584,0.93865 0.0321,0 0.0565,-0.0532 0.0542,-0.11827 z m -0.22132,-1.52053 c -0.0187,-0.0465 -0.0341,-0.008 -0.0341,0.0845 0,0.0929 0.0153,0.13094 0.0341,0.0845 0.0188,-0.0465 0.0188,-0.12249 0,-0.16895 z M 37.892323,140.74384 c -0.02157,-0.0539 -0.03758,-0.0379 -0.04083,0.0408 -0.003,0.0712 0.01304,0.11115 0.03549,0.0887 0.02246,-0.0224 0.02486,-0.0807 0.0053,-0.12953 z m 11.877691,-27.66856 c 0.138481,-0.20856 0.217993,-0.36794 0.176694,-0.35418 -0.07022,0.0234 -0.509793,0.7334 -0.454066,0.7334 0.01407,0 0.138891,-0.17065 0.277372,-0.37922 z m 165.038066,-0.0425 c -0.094,-0.15762 -0.20367,-0.29751 -0.24372,-0.31086 -0.0401,-0.0134 0.0257,0.11561 0.14629,0.28659 0.27436,0.38924 0.32217,0.40115 0.0974,0.0243 z M 58.022332,101.7802 l 0.459603,-0.52374 -0.485109,0.47124 c -0.422562,0.41048 -0.554767,0.57624 -0.459604,0.57624 0.01403,0 0.232328,-0.23568 0.48511,-0.52374 z m 148.538228,-0.003 -0.46395,-0.45366 0.4269,0.49071 c 0.2348,0.26988 0.44357,0.47403 0.46395,0.45366 0.0204,-0.0204 -0.17174,-0.24119 -0.4269,-0.49071 z M 69.979131,89.812077 c -0.02084,-0.02081 -0.257227,0.186332 -0.525314,0.460378 l -0.487422,0.498274 0.525314,-0.460387 c 0.288921,-0.253209 0.508264,-0.477429 0.487422,-0.498265 z m 125.056309,0.428948 c -0.23944,-0.241593 -0.46664,-0.438447 -0.50488,-0.437443 -0.064,0.0018 0.83644,0.868034 0.90841,0.874052 0.0175,0.0018 -0.16408,-0.195006 -0.40353,-0.436609 z M 81.164444,81.782689 c 0,-0.05573 -0.70999,0.383849 -0.733392,0.454066 -0.01381,0.0413 0.145611,-0.03821 0.354179,-0.176694 0.208568,-0.13848 0.379213,-0.263298 0.379213,-0.277372 z m 102.884876,0.392616 c -0.0935,-0.08204 -0.74697,-0.444062 -0.69033,-0.382452 0.0995,0.108228 0.69593,0.491263 0.72412,0.465035 0.0161,-0.01499 8.8e-4,-0.05215 -0.0338,-0.08258 z M 156.1267,70.15903 c -0.0465,-0.01875 -0.12248,-0.01875 -0.16895,0 -0.0465,0.01875 -0.008,0.03408 0.0845,0.03408 0.0929,0 0.13093,-0.01534 0.0845,-0.03408 z m -31.76223,-2.500432 c -0.0465,-0.01875 -0.12249,-0.01875 -0.16895,0 -0.0465,0.01875 -0.008,0.03409 0.0845,0.03409 0.0929,0 0.13094,-0.01534 0.0845,-0.03409 z m 15.9135,0.0039 c -0.0224,-0.02246 -0.0807,-0.02485 -0.12953,-0.0053 -0.0539,0.02157 -0.0379,0.03758 0.0408,0.04083 0.0712,0.003 0.11115,-0.01304 0.0887,-0.03549 z M 125.564,67.574303 c 0.20246,-0.03427 0.26841,-0.06742 0.1973,-0.09919 -0.0588,-0.02625 -0.34765,-0.0041 -0.64201,0.04912 -0.50321,0.09105 -0.515,0.09698 -0.1973,0.09919 0.18585,0.0013 0.47475,-0.02081 0.64201,-0.04912 z m 13.81996,-0.04102 c -0.58656,-0.111035 -0.70959,-0.117369 -0.70959,-0.03653 0,0.06509 0.33585,0.111252 0.87853,0.120758 0.26512,0.0047 0.24346,-0.0062 -0.16894,-0.08422 z"
       id="path3957"
       inkscape:connector-curvature="0" />
  </g>
</svg>
