<?xml version="1.0" encoding="UTF-8" standalone="no"?>
<!-- Created with Inkscape (http://www.inkscape.org/) -->

<svg
   xmlns:dc="http://purl.org/dc/elements/1.1/"
   xmlns:cc="http://creativecommons.org/ns#"
   xmlns:rdf="http://www.w3.org/1999/02/22-rdf-syntax-ns#"
   xmlns:svg="http://www.w3.org/2000/svg"
   xmlns="http://www.w3.org/2000/svg"
   xmlns:sodipodi="http://sodipodi.sourceforge.net/DTD/sodipodi-0.dtd"
   xmlns:inkscape="http://www.inkscape.org/namespaces/inkscape"
   width="1000"
   height="1000"
   viewBox="0 0 264.58333 264.58334"
   version="1.1"
   id="svg8"
   inkscape:version="0.92.4 (5da689c313, 2019-01-14)"
   sodipodi:docname="12T.svg">
  <defs
     id="defs2" />
  <sodipodi:namedview
     id="base"
     pagecolor="#000000"
     bordercolor="#666666"
     borderopacity="1.0"
     inkscape:pageopacity="0"
     inkscape:pageshadow="2"
     inkscape:zoom="1.4"
     inkscape:cx="834.7589"
     inkscape:cy="460.92026"
     inkscape:document-units="mm"
     inkscape:current-layer="layer1"
     showgrid="false"
     inkscape:pagecheckerboard="true"
     inkscape:window-width="3732"
     inkscape:window-height="2032"
     inkscape:window-x="108"
     inkscape:window-y="54"
     inkscape:window-maximized="1"
     units="px" />
  <metadata
     id="metadata5">
    <rdf:RDF>
      <cc:Work
         rdf:about="">
        <dc:format>image/svg+xml</dc:format>
        <dc:type
           rdf:resource="http://purl.org/dc/dcmitype/StillImage" />
        <dc:title></dc:title>
      </cc:Work>
    </rdf:RDF>
  </metadata>
  <g
     inkscape:label="Layer 1"
     inkscape:groupmode="layer"
     id="layer1"
     transform="translate(0,-32.41665)">
    <path
       style="fill:#000000;stroke-width:0.06922447"
       d="m 126.16787,296.05185 c -0.63424,-0.0768 -1.23986,-0.20075 -1.73123,-0.35432 -2.69087,-0.84102 -4.83336,-3.32024 -5.21857,-6.03876 -0.15367,-1.08441 -0.21408,-1.42712 -0.75616,-4.29037 -0.30625,-1.61754 -0.82695,-4.3892 -1.15711,-6.15924 l -0.60027,-3.21827 2.63377,-17.161 c 1.44856,-9.43856 2.6632,-17.24554 2.69918,-17.34885 0.0527,-0.15134 0.0433,-0.19448 -0.0489,-0.22202 -0.0628,-0.0188 -2.31118,-0.46949 -4.99633,-1.00152 l -4.88208,-0.96733 -4.69836,-1.59593 c -2.58411,-0.87776 -4.71987,-1.59592 -4.74617,-1.59592 -0.0263,0 -0.0523,0.0544 -0.0579,0.1211 -0.005,0.0666 -2.857539,7.43173 -6.337819,16.36694 l -6.327805,16.24585 -4.009905,4.67599 c -2.205449,2.5718 -4.091078,4.75881 -4.190284,4.86002 -0.09922,0.10126 -0.32273,0.38709 -0.496719,0.63527 -0.420487,0.59981 -1.222906,1.39142 -1.820851,1.79633 -1.364052,0.92371 -2.839972,1.3854 -4.428859,1.3854 -1.292686,0 -2.350552,-0.25095 -3.501097,-0.83055 -0.717841,-0.36161 -9.73071,-5.57884 -10.295601,-5.95975 -0.989926,-0.66752 -1.872226,-1.68785 -2.44578,-2.82844 -0.588468,-1.17024 -0.830597,-2.18895 -0.830597,-3.49455 0,-1.26349 0.238247,-2.3209 0.751858,-3.33694 0.119695,-0.23678 0.217918,-0.47033 0.218267,-0.51899 3.38e-4,-0.0486 0.942994,-2.75748 2.094787,-6.0196 l 2.094163,-5.93111 6.267079,-7.80324 c 3.446887,-4.29177 8.36852,-10.41976 10.936978,-13.61775 2.568447,-3.19799 4.701864,-5.836 4.740916,-5.86225 0.04199,-0.0282 -0.0063,-0.10833 -0.118024,-0.19631 -0.103977,-0.0817 -1.832265,-1.59181 -3.840676,-3.35575 l -3.651646,-3.20717 -3.210036,-3.66252 c -1.765521,-2.01439 -3.237939,-3.70579 -3.272041,-3.75867 -0.0421,-0.0652 -0.0787,-0.0723 -0.11392,-0.0221 -0.02856,0.0407 -3.121417,2.53447 -6.87301,5.54167 -3.751582,3.0072 -8.908934,7.14345 -11.460775,9.19167 -2.551841,2.04822 -5.622835,4.51165 -6.824428,5.47429 l -2.184706,1.75026 -5.916393,2.08006 c -3.254017,1.14402 -5.956862,2.08003 -6.006333,2.08003 -0.0495,0 -0.244636,0.0783 -0.433719,0.17409 -1.78071,0.90169 -4.061905,1.05211 -5.953309,0.39254 -0.539779,-0.18823 -1.43875,-0.64236 -1.925748,-0.97284 -0.578547,-0.39261 -1.456785,-1.28085 -1.866895,-1.88817 -0.369303,-0.54689 -5.613718,-9.59162 -5.966879,-10.29074 -0.566245,-1.12092 -0.835643,-2.24879 -0.835643,-3.49858 0,-2.53933 1.179972,-4.81063 3.301795,-6.35554 0.27346,-0.19911 2.64762,-2.21162 5.275926,-4.47226 l 4.77873,-4.11024 16.260639,-6.32539 c 8.943354,-3.47895 16.315177,-6.3303 16.381837,-6.33631 0.06664,-0.006 0.121186,-0.0329 0.121186,-0.0597 0,-0.0268 -0.717863,-2.16105 -1.595255,-4.74273 l -1.595244,-4.69399 -0.970104,-4.87857 c -0.533561,-2.68321 -0.986108,-4.93219 -1.005655,-4.99772 -0.02634,-0.0883 -0.0659,-0.10264 -0.152686,-0.0555 -0.06442,0.035 -7.874096,1.2514 -17.354828,2.70311 l -17.237682,2.63947 -6.168613,-1.15915 c -3.392741,-0.63753 -6.3555916,-1.18569 -6.5841077,-1.21814 -0.2285267,-0.0324 -0.6492147,-0.0929 -0.9348704,-0.13433 -2.6694657,-0.38722 -5.1031898,-2.44056 -5.9947454,-5.05778 -0.42176583,-1.23812 -0.41082448,-1.02748 -0.41082448,-7.90923 0,-6.75641 -0.003702,-6.67714 0.36179358,-7.81956 0.8661876,-2.70768 3.3262052,-4.83028 6.0437763,-5.21481 0.2856557,-0.0404 0.7063437,-0.10042 0.9348704,-0.13339 0.2285161,-0.033 3.1889337,-0.58131 6.5786917,-1.21861 l 6.163198,-1.15873 17.173846,2.63176 c 9.445626,1.44746 17.259631,2.66144 17.364464,2.69773 0.165908,0.0574 0.195219,0.0465 0.226147,-0.0838 0.01957,-0.0823 0.468287,-2.32954 0.997225,-4.99373 l 0.961695,-4.84396 1.599136,-4.70557 c 0.879519,-2.58807 1.599275,-4.72229 1.599444,-4.74275 2.12e-4,-0.0204 -0.05426,-0.0418 -0.120858,-0.0473 -0.06664,-0.005 -7.439224,-2.85665 -16.383487,-6.33572 l -16.262289,-6.32559 -4.714747,-4.04163 c -2.593114,-2.2229 -4.779566,-4.10749 -4.858781,-4.18796 -0.07923,-0.0804 -0.334059,-0.27304 -0.56633,-0.42794 -0.915757,-0.61072 -1.833238,-1.693 -2.416978,-2.85112 -1.069807,-2.12246 -1.075741,-4.69454 -0.01576,-6.81531 0.377934,-0.75616 5.59544,-9.77298 6.011897,-10.389711 0.750822,-1.111867 2.099759,-2.187119 3.426134,-2.731003 1.973939,-0.80942 4.390589,-0.73023 6.243776,0.20458 0.236788,0.11944 0.47292,0.217169 0.524739,0.217169 0.08779,0 11.55135,4.010771 11.855262,4.14782 0.131172,0.05919 26.758926,21.385505 27.230291,21.808925 l 0.223016,0.20034 3.317693,-3.7772 3.317683,-3.77719 3.786107,-3.32256 c 3.063919,-2.6888 3.767544,-3.33773 3.688794,-3.40209 C 84.797542,103.06322 63.082091,75.961171 63.022994,75.809528 62.7773,75.179048 58.891987,64.087712 58.891987,64.016808 c 0,-0.04997 -0.09784,-0.284457 -0.217325,-0.521074 -0.851234,-1.685062 -1.003339,-4.050345 -0.372592,-5.7938 0.588796,-1.627494 1.627347,-3.010424 2.910545,-3.875697 0.619936,-0.418024 9.628457,-5.622611 10.386641,-6.000781 1.792937,-0.894285 4.03178,-1.03515 5.935411,-0.373447 1.431452,0.497575 2.988511,1.680289 3.791776,2.880173 0.127406,0.190298 0.313602,0.428807 0.413792,0.53002 0.100169,0.101217 1.986685,2.288305 4.192219,4.860206 l 4.010075,4.676182 5.179512,13.304678 c 2.84874,7.317574 5.270239,13.538227 5.381109,13.823675 0.11087,0.285448 0.6306,1.623522 1.15494,2.973502 0.52434,1.349974 0.95335,2.494354 0.95335,2.543081 0,0.04873 0.0158,0.08857 0.0349,0.08857 0.0192,0 2.1876,-0.727619 4.81862,-1.616937 l 4.78364,-1.616938 4.84746,-0.950451 c 2.6661,-0.522748 4.88437,-0.961108 4.92948,-0.974135 0.059,-0.01706 0.0633,-0.07803 0.0148,-0.217894 -0.0369,-0.106816 -1.25246,-7.916881 -2.7011,-17.355701 l -2.63389,-17.16149 1.15958,-6.15876 c 0.63776,-3.387318 1.18653,-6.345599 1.21949,-6.573958 0.033,-0.228358 0.0931,-0.648746 0.13349,-0.934195 0.38481,-2.715615 2.50894,-5.173861 5.21856,-6.039425 1.14325,-0.365198 1.06393,-0.361534 7.82519,-0.361534 6.88684,0 6.67629,-0.01092 7.91493,0.410599 2.60883,0.887805 4.68482,3.345698 5.05958,5.99036 0.0404,0.285449 0.10048,0.705837 0.13347,0.934195 0.033,0.228359 0.58238,3.189202 1.22092,6.579652 l 1.161,6.164456 -2.63902,17.190395 c -1.45146,9.454717 -2.66822,17.258811 -2.7039,17.342431 -0.0509,0.119318 -0.0394,0.159621 0.0532,0.18728 0.0649,0.01938 2.31496,0.471271 5.00011,1.004194 l 4.88208,0.968946 4.7017,1.595935 c 2.58596,0.877754 4.70973,1.587479 4.7195,1.577152 0.01,-0.01057 2.8831,-7.377077 6.38515,-16.370555 l 6.36737,-16.351777 4.11339,-4.776347 c 2.26235,-2.626992 4.2764,-4.99988 4.47565,-5.273085 2.33058,-3.195647 6.3985,-4.20884 9.87246,-2.458917 0.7444,0.374976 9.75499,5.595771 10.26581,5.948076 1.05021,0.724316 2.10184,1.989734 2.61093,3.141658 0.50779,1.149036 0.6757,1.93063 0.6757,3.145487 0,1.267329 -0.26276,2.410795 -0.79528,3.460932 -0.0958,0.188945 -0.17421,0.383981 -0.17421,0.433413 0,0.04944 -0.9367,2.750335 -2.08155,6.002007 l -2.08154,5.91213 -1.75152,2.183142 c -0.96333,1.200726 -3.42854,4.269507 -5.47825,6.819511 -2.04968,2.550003 -6.18892,7.703639 -9.19828,11.452521 -3.00937,3.748901 -5.50109,6.836021 -5.53717,6.860291 -0.0619,0.0416 0.16384,0.27165 0.71194,0.72549 0.13229,0.10955 0.29036,0.24589 0.35128,0.30298 0.0609,0.0571 0.21756,0.19689 0.34808,0.31068 0.13054,0.11379 0.64411,0.56532 1.14127,1.0034 0.49716,0.43808 1.08574,0.95221 1.30796,1.14251 0.22221,0.19029 0.43869,0.37907 0.48106,0.4195 0.11668,0.11137 1.90105,1.67787 2.3598,2.07168 0.5679,0.4875 0.90586,0.82277 1.42275,1.41145 0.2472,0.28151 0.56238,0.63962 0.70042,0.79579 0.13803,0.15616 0.61824,0.70376 1.06713,1.21686 0.4489,0.5131 0.85014,0.9685 0.89165,1.01199 0.0415,0.0434 0.23459,0.26204 0.42908,0.48567 0.31209,0.35885 1.56436,1.78789 2.1396,2.44162 0.11413,0.12971 0.2811,0.31654 0.37103,0.4152 0.0899,0.0986 0.22424,0.25602 0.29849,0.3497 0.0808,0.10189 0.15414,0.14183 0.18273,0.0994 0.0262,-0.039 2.66604,-2.1709 5.86615,-4.7375 3.20013,-2.56661 9.33262,-7.4847 13.62778,-10.92911 l 7.80937,-6.262558 5.93519,-2.092667 c 3.26435,-1.150954 5.97503,-2.092931 6.02372,-2.093279 0.0487,-3.49e-4 0.28242,-0.09851 0.51938,-0.21811 1.01676,-0.513241 2.07493,-0.751317 3.33933,-0.751317 1.5848,0 2.96499,0.416411 4.31974,1.303318 0.738,0.483139 1.51172,1.248631 2.02961,2.008045 0.41433,0.607535 5.59603,9.561948 5.99252,10.355558 0.53995,1.08077 0.78086,2.13853 0.78086,3.4285 0,2.43156 -1.23955,4.84937 -3.18401,6.21058 -0.24836,0.17387 -0.53445,0.39723 -0.63573,0.49636 -0.10133,0.0991 -2.2903,1.98379 -4.86447,4.1881 l -4.68032,4.00784 -16.2566,6.32221 c -8.94113,3.47721 -16.31113,6.3268 -16.37778,6.33243 -0.0666,0.005 -0.12119,0.0312 -0.12119,0.0568 0,0.0256 0.71908,2.15983 1.59794,4.74274 l 1.59795,4.69619 0.96188,4.84396 c 0.52902,2.66419 0.97846,4.91136 0.99872,4.99373 0.032,0.13036 0.0616,0.14116 0.22748,0.0834 0.10483,-0.0365 7.91836,-1.25074 17.36339,-2.6983 l 17.17278,-2.63193 6.16426,1.15834 c 3.39035,0.63708 6.35125,1.18488 6.57977,1.21732 0.22853,0.0324 0.64922,0.0929 0.93487,0.13433 2.65526,0.38516 5.1073,2.45397 5.99468,5.05778 0.42199,1.23825 0.41089,1.02361 0.41089,7.94384 0,6.95935 0.0109,6.75846 -0.43207,7.99255 -0.66045,1.84019 -2.04819,3.42487 -3.75752,4.2908 -0.55682,0.28207 -1.65744,0.63725 -2.23368,0.72083 -0.27592,0.0401 -0.68864,0.0998 -0.91717,0.13283 -0.22852,0.0331 -3.18893,0.58127 -6.57869,1.21829 l -6.1632,1.15821 -17.17385,-2.63287 c -9.44562,-1.44808 -17.25844,-2.6623 -17.36182,-2.69826 -0.15147,-0.0526 -0.19459,-0.0432 -0.22199,0.0488 -0.0187,0.0628 -0.45905,2.26281 -0.97855,4.88893 l -0.94452,4.77478 -1.62077,4.78729 c -0.89143,2.63302 -1.62078,4.81397 -1.62078,4.84655 0,0.0326 0.0546,0.0639 0.12119,0.0696 0.0666,0.005 7.43811,2.8565 16.38101,6.33508 l 16.25983,6.32468 4.23799,3.62654 c 2.3309,1.99459 4.51846,3.87749 4.86125,4.1842 0.34278,0.30673 0.77905,0.66409 0.96949,0.79413 0.9836,0.67164 1.86197,1.68833 2.45008,2.83586 0.59506,1.16114 0.83926,2.18894 0.83926,3.53231 0,1.19781 -0.2766,2.34494 -0.83355,3.45686 -0.37803,0.75473 -5.52358,9.64039 -5.93794,10.25398 -0.84783,1.25554 -2.3426,2.39208 -3.82366,2.90729 -1.8435,0.64129 -4.1631,0.51271 -5.81185,-0.32217 -0.20496,-0.1038 -0.53146,-0.23219 -0.72556,-0.28533 -0.1941,-0.0532 -2.93127,-1.00774 -6.0826,-2.12132 l -5.72969,-2.02471 -13.55296,-10.86433 c -7.45412,-5.97539 -13.60815,-10.91801 -13.67561,-10.98359 -0.11677,-0.11354 -0.28247,0.0626 -3.44973,3.66757 l -3.32707,3.78684 -3.77363,3.30843 c -3.38116,2.96434 -3.76264,3.3194 -3.66806,3.41392 0.1044,0.10432 1.55431,1.90734 15.01677,18.67388 l 6.88977,8.58076 2.08297,5.91656 c 1.14562,3.25411 2.08292,5.95637 2.08287,6.00503 -5e-5,0.0486 0.0977,0.28207 0.21724,0.51869 0.86142,1.70524 0.99852,4.00152 0.35005,5.86299 -0.51566,1.48019 -1.65294,2.97369 -2.9098,3.8212 -0.61228,0.41287 -9.50222,5.55323 -10.26097,5.93312 -1.12403,0.56278 -2.25806,0.83322 -3.494,0.83322 -1.65013,0 -3.01997,-0.42982 -4.45619,-1.39828 -0.61171,-0.41244 -1.44394,-1.23777 -1.82792,-1.8127 -0.15501,-0.2321 -0.34772,-0.48701 -0.42825,-0.56646 -0.0805,-0.0795 -1.96572,-2.26345 -4.18931,-4.85332 l -4.04288,-4.70885 -6.33127,-16.25255 c -3.48219,-8.9389 -6.33606,-16.30704 -6.34194,-16.37364 -0.006,-0.0666 -0.0371,-0.1211 -0.0695,-0.1211 -0.0324,0 -2.1837,0.71996 -4.78079,1.59996 l -4.72198,1.59995 -4.81283,0.95837 c -2.64706,0.5271 -4.88211,0.97524 -4.96678,0.99587 -0.12915,0.0315 -0.14349,0.0625 -0.0891,0.19235 0.0356,0.0852 1.25325,7.8931 2.70569,17.35094 l 2.64077,17.19609 -1.15947,6.15877 c -0.63771,3.38731 -1.18652,6.3456 -1.21959,6.57395 -0.0331,0.22836 -0.0929,0.64079 -0.13292,0.91652 -0.0837,0.57582 -0.43908,1.67565 -0.72137,2.23207 -0.69212,1.36428 -1.98689,2.66218 -3.33732,3.34536 -0.53239,0.26933 -1.22836,0.52172 -1.89143,0.68591 -0.57407,0.14217 -0.74097,0.1461 -6.75181,0.15918 -3.38976,0.007 -6.25669,0.002 -6.37095,-0.0117 z m 9.03149,-85.2109 3.07603,-0.20536 2.98041,-0.59615 2.98041,-0.59614 2.91136,-0.9872 2.91134,-0.9872 2.73537,-1.34711 2.73534,-1.34712 2.5276,-1.69972 c 2.14887,-1.44502 2.7066,-1.85671 3.72216,-2.74746 0.65701,-0.57627 1.19456,-1.06453 1.19456,-1.08502 0,-0.0205 -0.32882,0.24878 -0.73069,0.59838 -0.40188,0.3496 -0.7466,0.61973 -0.76605,0.6003 -0.0865,-0.0865 -9.78962,-16.33608 -9.76775,-16.35792 0.0223,-0.0223 16.27869,9.67012 16.36693,9.75829 0.0208,0.0208 -0.24827,0.3665 -0.59814,0.7681 -0.34984,0.40158 -0.61931,0.73015 -0.5988,0.73015 0.0205,0 0.50902,-0.53713 1.08557,-1.1936 0.88959,-1.01292 1.30596,-1.57598 2.75049,-3.71948 l 1.70222,-2.52587 1.34743,-2.73338 1.34743,-2.73338 0.98753,-2.90927 0.98751,-2.90926 0.59667,-2.97873 0.59666,-2.97873 0.20104,-3.0227 0.20104,-3.02271 -0.20388,-3.04868 -0.20388,-3.04867 -0.58585,-2.95313 c -0.56786,-2.86238 -0.60428,-3.00683 -1.18519,-4.70042 l -0.59933,-1.74729 h -6.37923 -6.37924 l -5.77764,-1.92465 -5.77765,-1.92465 -1.92604,-5.7735 -1.92604,-5.77348 v -6.37464 -6.37465 l -1.74914,-0.5991 c -1.70318,-0.58336 -1.82708,-0.61444 -4.71658,-1.18276 -2.79533,-0.54979 -3.06044,-0.58981 -4.56989,-0.68985 -0.88132,-0.0585 -1.7738,-0.12099 -1.98327,-0.13907 -0.20948,-0.0181 -0.7704,-0.0518 -1.2465,-0.075 -0.47608,-0.0232 -0.90688,-0.0553 -0.9573,-0.0712 -0.0505,-0.0161 -1.51507,0.0651 -3.25473,0.18026 l -3.16303,0.20944 -2.9654,0.59014 -2.9654,0.59015 -2.84221,0.96439 -2.84222,0.96439 -2.78275,1.37261 -2.78276,1.3726 -2.52415,1.69998 c -2.10472,1.41747 -2.71691,1.8687 -3.68409,2.71538 -0.63796,0.55847 -1.15993,1.03464 -1.15993,1.05816 0,0.0235 0.0857,-0.0349 0.19043,-0.12981 0.75757,-0.68648 1.20955,-1.04156 1.25773,-0.98812 0.11319,0.12559 9.77135,16.31146 9.74738,16.3354 -0.0227,0.0226 -16.278666,-9.66948 -16.368459,-9.75921 -0.03364,-0.0336 0.404029,-0.57013 1.009685,-1.23753 0.09499,-0.10464 0.153437,-0.1903 0.129903,-0.1903 -0.02359,0 -0.499988,0.52159 -1.058797,1.15909 -0.845744,0.96485 -1.298133,1.57752 -2.699492,3.656 -1.591965,2.36118 -1.736623,2.60307 -2.660969,4.44952 -0.537611,1.07392 -0.956205,1.98699 -0.930195,2.02905 0.03068,0.0497 0.01513,0.0565 -0.04443,0.0198 -0.06875,-0.0425 -0.07923,-0.024 -0.04167,0.0737 0.0275,0.0717 0.02697,0.10727 -0.0011,0.0791 -0.09774,-0.0977 -0.804101,1.51513 -1.272462,2.90516 -0.258799,0.76808 -0.451119,1.41593 -0.427373,1.43966 0.02369,0.0237 0.0053,0.0669 -0.04231,0.0959 -0.04696,0.0291 -0.288078,0.65791 -0.53575,1.39753 -0.395566,1.18128 -0.521428,1.70308 -1.035314,4.29225 l -0.584988,2.9475 -0.204696,3.07286 -0.204674,3.07288 0.198592,2.98317 0.198614,2.98316 0.589335,2.99112 c 0.573449,2.91042 0.605551,3.03857 1.190285,4.74988 l 0.60095,1.75877 h 6.379052 6.379053 l 5.77765,1.92464 5.77765,1.92465 1.92603,5.7735 1.92605,5.77348 v 6.37465 6.37464 l 1.74854,0.59889 c 1.69465,0.58044 1.8396,0.61694 4.70181,1.18394 l 2.95325,0.58503 2.89833,0.2008 c 1.59407,0.11044 2.94506,0.20427 3.00219,0.20851 0.0571,0.004 1.48808,-0.0847 3.17991,-0.19766 z m 28.06041,-11.8163 c 0.0861,-0.10975 0.0837,-0.1122 -0.0261,-0.0261 -0.11536,0.0904 -0.15205,0.14722 -0.095,0.14722 0.0144,0 0.0689,-0.0545 0.12119,-0.1211 z m 3.41901,-3.40807 c 0.069,-0.0761 0.10976,-0.13841 0.0908,-0.13841 -0.019,0 -0.0911,0.0623 -0.15996,0.13841 -0.069,0.0761 -0.10976,0.13839 -0.0908,0.13839 0.019,0 0.0911,-0.0623 0.15997,-0.13839 z M 97.888325,133.56187 c 0.0861,-0.10976 0.08367,-0.1122 -0.02613,-0.0261 -0.115347,0.0904 -0.15203,0.14723 -0.09509,0.14723 0.01439,0 0.06897,-0.0544 0.121187,-0.1211 z m 3.323975,-3.32158 c 0.0861,-0.10976 0.0837,-0.1122 -0.0261,-0.0261 -0.11535,0.0904 -0.15203,0.14723 -0.095,0.14723 0.0144,0 0.0689,-0.0545 0.12119,-0.1211 z"
       id="path3893"
       inkscape:connector-curvature="0" />
  </g>
</svg>
