<?xml version="1.0" encoding="UTF-8" standalone="no"?>
<!-- Created with Inkscape (http://www.inkscape.org/) -->

<svg
   xmlns:dc="http://purl.org/dc/elements/1.1/"
   xmlns:cc="http://creativecommons.org/ns#"
   xmlns:rdf="http://www.w3.org/1999/02/22-rdf-syntax-ns#"
   xmlns:svg="http://www.w3.org/2000/svg"
   xmlns="http://www.w3.org/2000/svg"
   xmlns:sodipodi="http://sodipodi.sourceforge.net/DTD/sodipodi-0.dtd"
   xmlns:inkscape="http://www.inkscape.org/namespaces/inkscape"
   width="1000"
   height="1000"
   viewBox="0 0 264.58333 264.58334"
   version="1.1"
   id="svg8"
   inkscape:version="0.92.4 (5da689c313, 2019-01-14)"
   sodipodi:docname="16T.svg">
  <defs
     id="defs2" />
  <sodipodi:namedview
     id="base"
     pagecolor="#000000"
     bordercolor="#666666"
     borderopacity="1.0"
     inkscape:pageopacity="0"
     inkscape:pageshadow="2"
     inkscape:zoom="1.4"
     inkscape:cx="878.75575"
     inkscape:cy="522.43889"
     inkscape:document-units="mm"
     inkscape:current-layer="layer1"
     showgrid="false"
     inkscape:pagecheckerboard="true"
     inkscape:window-width="3732"
     inkscape:window-height="2032"
     inkscape:window-x="108"
     inkscape:window-y="54"
     inkscape:window-maximized="1"
     units="px" />
  <metadata
     id="metadata5">
    <rdf:RDF>
      <cc:Work
         rdf:about="">
        <dc:format>image/svg+xml</dc:format>
        <dc:type
           rdf:resource="http://purl.org/dc/dcmitype/StillImage" />
        <dc:title></dc:title>
      </cc:Work>
    </rdf:RDF>
  </metadata>
  <g
     inkscape:label="Layer 1"
     inkscape:groupmode="layer"
     id="layer1"
     transform="translate(0,-32.41665)">
    <path
       style="fill:#000000;stroke-width:0.06908964"
       d="m 125.70933,294.89103 c -0.15065,-0.42749 -1.34991,-4.01066 -2.665,-7.96259 l -2.39109,-7.18531 -0.37445,-6.41188 c -0.20596,-3.52653 -0.39367,-6.4311 -0.41715,-6.45459 -0.0235,-0.0235 -0.29899,-0.0556 -0.61222,-0.0713 -0.78159,-0.0393 -13.83122,-2.63348 -14.65154,-2.91269 l -0.60952,-0.20747 -1.0507,2.15637 c -0.57788,1.18599 -1.84257,3.79752 -2.81042,5.80342 l -1.759718,3.64707 -5.487907,6.32387 c -3.744789,4.31522 -5.522316,6.31485 -5.596266,6.29542 -0.0596,-0.0157 -2.572267,-1.04893 -5.583714,-2.29616 l -5.475353,-2.26771 0.0023,-0.31675 c 0.0019,-0.1742 0.261902,-3.95431 0.579034,-8.40022 l 0.576606,-8.08346 2.007156,-5.769 c 1.103958,-3.17293 2.054648,-5.90144 2.112677,-6.06332 l 0.105481,-0.29436 -0.624509,-0.31365 c -0.84611,-0.42494 -11.708433,-7.67006 -12.334531,-8.22708 -0.271676,-0.2417 -0.512168,-0.43946 -0.534423,-0.43946 -0.02226,0 -2.19346,1.91568 -4.824907,4.25705 l -4.784448,4.25707 -7.526333,3.76329 -7.526332,3.76326 -4.277187,-4.2788 -4.277188,-4.27882 3.737164,-7.47404 3.737165,-7.47408 4.255031,-4.78274 c 2.340266,-2.63053 4.270751,-4.82153 4.289964,-4.86891 0.01921,-0.0473 -0.150371,-0.2961 -0.376852,-0.55272 -0.556809,-0.63089 -7.862744,-11.56264 -8.267168,-12.37003 -0.176832,-0.35302 -0.344642,-0.62757 -0.372908,-0.6101 -0.02827,0.0174 -2.786596,0.98008 -6.129621,2.13911 l -6.078227,2.10734 -8.014409,0.55891 c -4.407922,0.3074 -8.150681,0.56633 -8.317239,0.57544 l -0.302834,0.0165 -2.305326,-5.56164 c -1.2679312,-3.0589 -2.2975447,-5.58161 -2.2880328,-5.60601 0.00949,-0.0244 2.8465198,-2.50174 6.3044608,-5.50521 l 6.287164,-5.46084 5.803537,-2.81116 c 3.191945,-1.54614 5.814692,-2.82118 5.828325,-2.83343 0.01364,-0.0122 -0.07263,-0.31164 -0.191697,-0.66533 -0.311677,-0.92586 -2.836635,-13.6126 -2.88883,-14.51502 -0.0215,-0.3717 -0.05783,-0.68682 -0.08073,-0.70026 -0.04971,-0.0292 -0.803737,-0.0902 -1.803438,-0.14584 -0.398993,-0.0223 -3.05456,-0.17694 -5.901261,-0.34381 l -5.175812,-0.30341 -7.9341295,-2.64626 -7.93412819,-2.64625 0.0174496,-6.07409 0.0174506,-6.07409 7.84168389,-2.62049 7.8416846,-2.62047 6.52898,-0.39072 6.528978,-0.3907 0.04929,-0.72544 c 0.06491,-0.95545 2.5835,-13.64719 2.884959,-14.53797 0.114735,-0.33902 0.192367,-0.63265 0.172514,-0.65251 -0.01985,-0.0198 -2.661347,-1.31251 -5.869983,-2.87259 l -5.833899,-2.83654 -6.215427,-5.40488 c -3.418485,-2.97268 -6.2339546,-5.43487 -6.2565978,-5.47151 -0.029758,-0.0482 4.4481978,-11.02634 4.5626318,-11.18576 0.0089,-0.0125 3.773167,0.24247 8.364995,0.5664 l 8.348782,0.589 6.078317,2.11081 c 3.343077,1.16096 6.09542,2.11082 6.116318,2.11082 0.0209,0 0.168681,-0.26351 0.328408,-0.58557 0.384206,-0.77468 7.649304,-11.67258 8.213576,-12.32064 0.241658,-0.27754 0.439383,-0.5296 0.439383,-0.56012 0,-0.0305 -1.911014,-2.203146 -4.2467,-4.828031 l -4.246698,-4.772523 -3.762064,-7.523857 -3.762063,-7.523858 4.278158,-4.2777 4.278156,-4.277697 7.547814,3.779172 c 6.121913,3.065228 7.607278,3.835302 7.862587,4.076284 0.173129,0.163413 0.526441,0.483654 0.785141,0.711651 0.258696,0.227996 0.538847,0.476719 0.622552,0.552716 0.0837,0.076 0.363519,0.324721 0.621807,0.552717 0.258289,0.227995 0.538103,0.476717 0.62181,0.552716 0.0837,0.076 0.363517,0.324719 0.621807,0.552717 0.258288,0.227995 0.5381,0.476718 0.621807,0.552716 0.0837,0.076 0.36352,0.324722 0.621807,0.552715 0.258292,0.227997 0.538105,0.476719 0.621807,0.552718 0.0837,0.076 0.363522,0.32472 0.621808,0.552717 0.258292,0.227995 0.538106,0.476718 0.621808,0.552715 0.0837,0.076 0.363521,0.324722 0.621808,0.552716 0.258292,0.227995 0.551568,0.488219 0.651731,0.578271 0.10017,0.09005 0.337571,0.303207 0.527568,0.473674 0.189997,0.170465 0.454263,0.408337 0.587263,0.528605 0.48212,0.43597 0.421937,0.437909 0.94335,-0.03039 0.596679,-0.535897 11.631376,-7.908443 12.428466,-8.303761 0.436048,-0.216257 0.576273,-0.317963 0.54578,-0.395909 -0.02256,-0.05769 -0.976248,-2.794204 -2.119316,-6.08114 l -2.078326,-5.976236 -0.575079,-8.048931 c -0.31629,-4.426914 -0.567911,-8.201958 -0.559137,-8.388988 l 0.01586,-0.340054 4.97448,-2.059073 c 2.735953,-1.132487 5.230194,-2.16678 5.542782,-2.298425 l 0.568342,-0.239356 0.200917,0.220346 c 0.209711,0.229987 1.180064,1.33634 1.435092,1.63623 0.08101,0.09526 0.593293,0.686168 1.138427,1.313156 0.545133,0.626986 1.058424,1.217701 1.14064,1.3127 0.150271,0.173641 0.989408,1.141616 1.374322,1.585342 0.11361,0.13095 0.317915,0.364128 0.454046,0.51817 0.136113,0.154043 0.327043,0.37335 0.42428,0.487347 0.152581,0.178889 0.532109,0.617517 1.401641,1.619886 0.11359,0.130952 0.317915,0.364127 0.454027,0.51817 0.136132,0.154044 0.327061,0.373348 0.424297,0.487348 0.152584,0.178888 0.532112,0.617517 1.401643,1.619883 0.285346,0.328946 0.722785,0.824026 0.945168,1.069723 0.180176,0.199045 5.790364,11.683462 5.790364,11.853227 0,0.05283 0.0451,0.06621 0.12089,0.03579 0.8827,-0.354858 1.79453,-0.558583 7.85897,-1.755895 4.13796,-0.816967 6.88421,-1.327287 7.30158,-1.356811 l 0.66897,-0.04732 0.04,-0.423944 c 0.0221,-0.233169 0.19874,-3.159887 0.39277,-6.503822 l 0.35275,-6.07988 2.64069,-7.876209 2.64069,-7.87621 h 6.06797 6.068 l 2.63938,7.917799 2.63938,7.917799 0.35777,6.245561 c 0.19677,3.435057 0.37258,6.342956 0.39068,6.462002 l 0.0329,0.216446 0.67201,0.04889 c 0.90687,0.06598 13.6363,2.592831 14.53937,2.886142 0.36919,0.119903 0.68198,0.203976 0.69511,0.186825 0.0131,-0.01715 1.28422,-2.634205 2.82471,-5.815681 l 2.80085,-5.784501 5.36912,-6.182937 c 2.95303,-3.400616 5.4216,-6.245635 5.48571,-6.322267 0.1151,-0.137539 0.18806,-0.109713 5.67834,2.166344 l 5.5617,2.305677 0.018,0.232191 c 0.0102,0.127704 -0.24401,3.900846 -0.56428,8.38476 l -0.58231,8.152564 -2.06878,5.941702 c -1.13782,3.267936 -2.09006,6.009501 -2.11607,6.092362 -0.0423,0.134653 0.0134,0.179233 0.52582,0.41962 0.80775,0.379063 11.67517,7.6321 12.36959,8.255584 l 0.53482,0.480196 0.34572,-0.300388 c 0.19016,-0.165215 2.3901,-2.11259 4.88874,-4.327503 l 4.54298,-4.027115 7.44538,-3.70975 7.44536,-3.70975 4.27696,4.276533 4.27696,4.276533 -3.75306,7.502072 -3.75304,7.502069 -4.25572,4.783782 c -2.34063,2.631083 -4.25571,4.819441 -4.25571,4.863011 0,0.0435 0.19733,0.30037 0.43846,0.57065 0.53914,0.60429 7.79686,11.4727 8.202,12.28248 0.15851,0.3168 0.29609,0.58492 0.30573,0.59581 0.009,0.0109 2.75654,-0.93055 6.10413,-2.09212 l 6.08664,-2.11194 8.33851,-0.58797 c 4.58618,-0.32339 8.36222,-0.56336 8.39121,-0.53328 0.029,0.0301 1.08178,2.54054 2.33958,5.5788 l 2.2869,5.52411 -0.15693,0.15261 c -0.0863,0.0839 -2.92774,2.55699 -6.3143,5.49567 l -6.15736,5.34307 -5.7606,2.78744 c -3.16836,1.53308 -5.78747,2.81287 -5.82028,2.84395 -0.033,0.0313 0.0363,0.3291 0.1551,0.66705 0.29086,0.82692 2.81251,13.50769 2.88978,14.53206 l 0.0547,0.72544 6.49444,0.38552 6.49443,0.38551 7.89388,2.64582 7.89388,2.64581 -0.0176,6.05394 -0.0176,6.05396 -7.91077,2.64469 -7.91077,2.64468 -6.35626,0.37733 c -3.49592,0.20753 -6.40598,0.37761 -6.46672,0.37798 -0.0909,7.8e-4 -0.11783,0.12121 -0.15189,0.68043 -0.0546,0.89699 -2.58505,13.67822 -2.88177,14.55606 -0.11369,0.33636 -0.20673,0.63041 -0.20673,0.65341 0,0.0231 2.62684,1.3138 5.83745,2.86844 3.75101,1.81634 5.91793,2.90277 6.0626,3.03965 0.12385,0.11715 0.42534,0.38281 0.66997,0.59034 0.24461,0.20753 0.4961,0.42396 0.55883,0.48095 0.2442,0.22188 1.01206,0.88837 1.24181,1.07787 0.133,0.10969 0.27291,0.2332 0.3109,0.27445 0.0381,0.0412 0.26925,0.24354 0.51386,0.44951 0.24463,0.20598 0.49609,0.42114 0.55885,0.47814 0.2442,0.22185 1.01207,0.88834 1.2418,1.07786 0.133,0.10969 0.27291,0.23318 0.31091,0.27444 0.0381,0.0412 0.26923,0.24353 0.51386,0.44952 0.24462,0.20597 0.49546,0.42114 0.55745,0.47813 0.22241,0.20455 1.00612,0.88483 1.24319,1.07913 0.13299,0.10899 0.2729,0.23193 0.3109,0.27318 0.0381,0.0413 0.26925,0.24353 0.51386,0.4495 0.24463,0.20599 0.49549,0.42114 0.55745,0.47814 0.2281,0.20977 1.00857,0.8868 1.2432,1.07845 0.133,0.10862 0.25736,0.21691 0.27636,0.24064 0.0189,0.0238 0.18999,0.17589 0.38,0.33811 0.18999,0.16222 0.50089,0.42886 0.6909,0.59251 0.19,0.16365 0.41617,0.35832 0.50263,0.43261 l 0.15719,0.13504 -2.2695,5.483 c -1.24824,3.01565 -2.29003,5.53856 -2.31505,5.60645 -0.038,0.10272 -0.10081,0.11718 -0.37491,0.0861 -0.18114,-0.0206 -1.01336,-0.0839 -1.84936,-0.14081 -0.83598,-0.0569 -1.7376,-0.11951 -2.0036,-0.13916 -0.26599,-0.0196 -1.36968,-0.0973 -2.45267,-0.17251 -1.08299,-0.0753 -2.18669,-0.15296 -2.45268,-0.17274 -0.26602,-0.0197 -1.36972,-0.0971 -2.45269,-0.17183 -1.08299,-0.0747 -2.15561,-0.15081 -2.38361,-0.16901 -0.22801,-0.0182 -0.94307,-0.0694 -1.58907,-0.11393 l -1.17451,-0.0809 -6.0421,-2.09795 c -3.32313,-1.15385 -6.08209,-2.09793 -6.13101,-2.09793 -0.0488,0 -0.23071,0.28228 -0.40398,0.6273 -0.40301,0.80242 -7.77828,11.84407 -8.28229,12.39953 l -0.37926,0.41799 0.24291,0.27291 c 0.1336,0.1501 0.41975,0.4729 0.63586,0.71736 0.21613,0.24446 0.45512,0.51296 0.53111,0.59667 0.0761,0.0837 0.32472,0.36351 0.55271,0.62181 0.22802,0.25826 0.47674,0.53809 0.55273,0.62179 0.0761,0.0837 0.32472,0.36352 0.55271,0.62181 0.22801,0.25828 0.47672,0.5381 0.55273,0.62181 0.0761,0.0837 0.32471,0.3635 0.55271,0.6218 0.22801,0.25828 0.47674,0.5381 0.55271,0.62181 0.0761,0.0837 0.32475,0.36351 0.55272,0.6218 0.228,0.25828 0.47674,0.5381 0.55273,0.62181 0.0761,0.0837 0.32471,0.36366 0.55272,0.62212 0.22798,0.25846 0.83426,0.94434 1.34724,1.52416 l 0.93271,1.05424 3.69224,7.43465 3.69226,7.43464 -4.27002,4.27044 -4.27001,4.27042 -7.46308,-3.70428 -7.46306,-3.70428 -4.74493,-4.21446 c -2.60971,-2.31795 -4.79787,-4.25747 -4.86259,-4.31006 -0.10447,-0.0848 -0.16997,-0.0495 -0.58311,0.31537 -0.62622,0.55295 -11.79507,8.00794 -12.45248,8.31179 -0.28499,0.13172 -0.52704,0.24392 -0.53788,0.24935 -0.0108,0.005 0.93407,2.75764 2.09982,6.11609 l 2.11955,6.10623 0.57522,8.11803 c 0.31635,4.46489 0.57618,8.22713 0.57739,8.36049 l 0.002,0.2425 -5.55998,2.30171 c -3.058,1.26592 -5.59156,2.28218 -5.63018,2.25831 -0.0387,-0.0239 -2.51195,-2.85488 -5.49629,-6.29115 l -5.42605,-6.24779 -2.80212,-5.7874 c -1.54117,-3.18306 -2.82423,-5.81056 -2.85123,-5.8389 -0.0271,-0.0283 -0.37415,0.0561 -0.77138,0.18768 -0.94694,0.31365 -13.32653,2.78581 -14.35369,2.8664 -0.3914,0.0307 -0.73057,0.0747 -0.75372,0.0979 -0.0232,0.0232 -0.20965,2.91038 -0.41444,6.41609 l -0.37237,6.37403 -2.66234,7.99712 -2.66235,7.99711 h -6.03239 -6.03242 l -0.2739,-0.77726 z m -14.97456,-56.98839 c 0.0598,-3.67397 0.10214,-10.34252 0.10263,-16.19479 v -9.94897 l -13.083539,-13.08336 -13.083534,-13.08336 -14.707813,0.0489 c -8.089297,0.0269 -15.395174,0.0694 -16.235286,0.0947 l -1.527481,0.0457 1.723838,5.07809 c 0.948109,2.79294 1.857844,5.35788 2.021635,5.69989 0.163789,0.34198 1.244237,2.53452 2.400991,4.87229 l 2.103191,4.2505 3.042905,4.55841 c 1.673596,2.50715 3.167337,4.69834 3.319417,4.86934 0.152087,0.17099 0.767587,0.87053 1.367782,1.55451 0.600204,0.68399 1.124422,1.27857 1.164931,1.32128 0.04052,0.0427 0.232418,0.26036 0.426457,0.48363 0.194037,0.22328 0.707132,0.81014 1.140215,1.30411 0.433074,0.494 0.880582,1.00473 0.994448,1.13498 0.113875,0.13021 0.253679,0.28686 0.310677,0.34809 0.05699,0.0611 0.38118,0.43139 0.720398,0.82257 0.564407,0.65089 1.025223,1.09125 2.142147,2.04701 0.222036,0.19 0.438278,0.37849 0.480546,0.41885 0.101901,0.0973 1.844609,1.62991 2.351945,2.06837 0.219855,0.19001 0.469204,0.40763 0.554105,0.48364 0.08492,0.0759 0.260335,0.23095 0.389827,0.34437 0.129494,0.11341 0.517188,0.4554 0.861523,0.75997 0.344334,0.3046 0.805881,0.70925 1.025659,0.89924 0.219757,0.19001 0.497661,0.43419 0.617538,0.54267 0.119876,0.10846 2.23884,1.55052 4.708796,3.20458 l 4.49084,3.0074 4.870818,2.41716 4.870844,2.41717 5.14717,1.74689 c 2.83096,0.96079 5.15542,1.73905 5.16547,1.7295 0.0102,-0.009 0.064,-2.82801 0.12006,-6.26322 z m 48.70808,4.23343 4.28356,-1.45465 4.80219,-2.37632 4.80217,-2.37632 4.55949,-3.04601 4.55946,-3.04602 3.99588,-3.51549 3.99589,-3.51548 3.5221,-4.0034 3.52212,-4.00342 3.04159,-4.55144 3.04161,-4.55143 2.40004,-4.87928 2.40006,-4.87929 1.71346,-5.06351 c 0.94242,-2.78493 1.70174,-5.07512 1.68739,-5.08929 -0.0712,-0.0704 -4.60015,-0.10782 -17.87784,-0.14792 l -14.53545,-0.0439 -13.08317,13.083 -13.08318,13.083 0.003,10.57078 c 0.002,6.07823 0.044,12.96384 0.0989,16.20156 0.0525,3.09694 0.0976,5.6364 0.10021,5.64324 0.005,0.0141 0.13136,-0.0284 6.05003,-2.03839 z m -21.31418,-42.59411 5.97625,-1.18916 0.0345,-10.91473 0.0346,-10.91472 10.89434,-0.0174 c 10.30087,-0.0165 10.89612,-0.0241 10.92765,-0.13819 0.0184,-0.0664 0.28839,-1.41773 0.60014,-3.00299 l 0.56678,-2.8823 10.09609,-0.0238 c 9.20227,-0.0217 10.13796,-0.034 10.56897,-0.14067 1.24965,-0.30899 2.2941,-0.9108 3.139,-1.80868 0.78244,-0.83153 1.15852,-1.52215 1.47713,-2.71264 0.20203,-0.75495 0.19955,-2.10804 -0.005,-2.88394 -0.5357,-2.02876 -2.01077,-3.60264 -4.01557,-4.28451 -0.26379,-0.0898 -0.612,-0.18259 -0.77385,-0.20641 -0.16183,-0.0238 -0.35642,-0.0545 -0.43242,-0.0681 -0.0761,-0.0137 -4.6157,-0.0272 -10.08821,-0.0302 l -9.95003,-0.005 -0.5469,-2.74632 c -0.3008,-1.51047 -0.57486,-2.87844 -0.60903,-3.03994 l -0.0621,-0.29363 H 155.05045 144.13988 V 141.33204 130.4255 l -6.06263,-1.21035 -6.06262,-1.21033 -5.80354,1.15555 c -3.19195,0.63557 -5.92013,1.1773 -6.06263,1.20388 l -0.25908,0.0483 v 10.91302 10.91302 h -10.91644 c -6.00389,0 -10.91768,0.008 -10.919522,0.0172 -0.0019,0.009 -0.275377,1.36969 -0.607843,3.02266 l -0.604496,3.00539 -10.187418,0.0349 -10.18744,0.0349 -0.552713,0.15661 c -1.786331,0.50615 -3.29574,1.79892 -3.981234,3.40981 -0.372746,0.87592 -0.489501,1.45222 -0.495063,2.44353 -0.0075,1.3208 0.280827,2.3051 0.987133,3.3709 0.87015,1.31304 1.956607,2.07218 3.661898,2.5587 0.517227,0.14756 0.536381,0.14787 10.64133,0.1687 l 10.123163,0.021 0.579526,2.91665 c 0.318757,1.60417 0.593389,2.95543 0.61033,3.00281 0.02439,0.0682 2.298769,0.0898 10.922379,0.10364 l 10.89161,0.0174 0.0183,10.91615 0.0184,10.91614 5.9233,1.18457 c 3.25779,0.65151 6.01654,1.186 6.13055,1.18774 0.11399,0.002 2.89659,-0.53195 6.18352,-1.186 z m -40.365427,-69.42994 13.074977,-13.07564 -0.006,-10.39755 c -0.003,-5.71865 -0.031,-11.703334 -0.0611,-13.299303 -0.0542,-2.867663 -0.11949,-6.861114 -0.13249,-8.100748 -0.004,-0.351494 -0.0312,-0.63908 -0.0611,-0.63908 -0.11684,0 -5.78241,1.944758 -5.81673,1.996646 -0.0201,0.03033 -0.0831,0.05466 -0.1401,0.05408 -0.19255,-0.0019 -3.3163,1.069216 -3.3163,1.137218 0,0.03708 -0.0318,0.04776 -0.0707,0.02376 -0.1495,-0.0924 -0.92531,0.265248 -5.687588,2.622052 l -4.916137,2.432939 -4.421747,2.947284 -4.421727,2.947284 -4.110843,3.608898 -4.11084,3.60889 -3.576505,4.07836 -3.576507,4.07837 -2.998714,4.49948 -2.998716,4.4995 -2.364818,4.79306 -2.364819,4.79306 -1.739968,5.11261 c -0.956984,2.81196 -1.727137,5.12817 -1.711455,5.14718 0.07247,0.0878 10.376513,0.18407 20.882668,0.19511 l 11.572782,0.0122 13.074975,-13.07562 z M 205.68163,143.1067 c 3.2777,-0.0463 5.99418,-0.10568 6.03665,-0.13191 0.0521,-0.0322 -0.48415,-1.70389 -1.65245,-5.15095 l -1.72963,-5.10326 -2.44997,-4.93991 -2.44998,-4.9399 -2.93189,-4.37 -2.93187,-4.36999 -3.55417,-4.05182 -3.55419,-4.05183 -4.04176,-3.55535 -4.04175,-3.555376 -4.55992,-3.04455 -4.5599,-3.044549 -4.87085,-2.399019 -4.87081,-2.39902 -5.03571,-1.701877 c -2.76961,-0.936035 -5.05168,-1.685897 -5.07121,-1.666357 -0.0926,0.0926 -0.21517,12.346877 -0.21839,21.835298 l -0.003,10.5705 13.07545,13.0754 13.07543,13.0754 10.19052,0.002 c 5.60479,9.7e-4 12.87229,-0.0363 16.15001,-0.0826 z"
       id="path3925"
       inkscape:connector-curvature="0" />
  </g>
</svg>
