<?xml version="1.0" encoding="UTF-8" standalone="no"?>
<!-- Created with Inkscape (http://www.inkscape.org/) -->

<svg
   xmlns:dc="http://purl.org/dc/elements/1.1/"
   xmlns:cc="http://creativecommons.org/ns#"
   xmlns:rdf="http://www.w3.org/1999/02/22-rdf-syntax-ns#"
   xmlns:svg="http://www.w3.org/2000/svg"
   xmlns="http://www.w3.org/2000/svg"
   xmlns:sodipodi="http://sodipodi.sourceforge.net/DTD/sodipodi-0.dtd"
   xmlns:inkscape="http://www.inkscape.org/namespaces/inkscape"
   width="1000"
   height="1000"
   viewBox="0 0 264.58333 264.58334"
   version="1.1"
   id="svg8"
   inkscape:version="0.92.4 (5da689c313, 2019-01-14)"
   sodipodi:docname="24T.svg">
  <defs
     id="defs2" />
  <sodipodi:namedview
     id="base"
     pagecolor="#000000"
     bordercolor="#666666"
     borderopacity="1.0"
     inkscape:pageopacity="0"
     inkscape:pageshadow="2"
     inkscape:zoom="0.98994949"
     inkscape:cx="716.49249"
     inkscape:cy="324.28349"
     inkscape:document-units="mm"
     inkscape:current-layer="layer1"
     showgrid="false"
     inkscape:pagecheckerboard="true"
     inkscape:window-width="3732"
     inkscape:window-height="2032"
     inkscape:window-x="108"
     inkscape:window-y="54"
     inkscape:window-maximized="1"
     units="px" />
  <metadata
     id="metadata5">
    <rdf:RDF>
      <cc:Work
         rdf:about="">
        <dc:format>image/svg+xml</dc:format>
        <dc:type
           rdf:resource="http://purl.org/dc/dcmitype/StillImage" />
        <dc:title></dc:title>
      </cc:Work>
    </rdf:RDF>
  </metadata>
  <g
     inkscape:label="Layer 1"
     inkscape:groupmode="layer"
     id="layer1"
     transform="translate(0,-32.41665)">
    <path
       style="fill:#000000;stroke-width:0.0691705"
       d="m 128.89329,295.92178 c -0.14076,-0.37064 -0.46207,-1.21889 -0.71405,-1.88498 -0.25197,-0.6661 -0.54799,-1.44467 -0.65781,-1.73015 -0.10984,-0.28548 -0.40539,-1.06405 -0.65679,-1.73014 -0.2514,-0.6661 -0.54671,-1.44467 -0.65625,-1.73015 -0.10953,-0.28547 -0.35966,-0.93946 -0.55584,-1.45331 l -0.35668,-0.93427 -1.00931,-6.09011 c -0.5551,-3.34954 -1.01095,-6.09591 -1.01299,-6.10303 -0.002,-0.007 -1.18526,-0.0924 -2.62943,-0.18929 L 118.0184,273.9 l -2.41693,-0.48546 c -1.32932,-0.26701 -2.45316,-0.48548 -2.49743,-0.48548 -0.0443,0 -1.22504,2.5196 -2.62394,5.59909 l -2.54347,5.59908 -3.13315,4.34923 c -1.72322,2.39208 -3.17258,4.37524 -3.22079,4.40701 -0.0763,0.0502 -6.228684,-1.54521 -6.323125,-1.63975 -0.01772,-0.0178 -0.279007,-2.45631 -0.580632,-5.41903 l -0.548416,-5.3868 0.592767,-6.11693 c 0.326021,-3.36432 0.567491,-6.13877 0.536601,-6.16548 -0.03089,-0.0266 -1.144834,-0.41653 -2.475441,-0.8663 -2.376924,-0.80347 -2.459166,-0.83758 -4.697133,-1.9489 -1.252817,-0.62213 -2.283791,-1.13113 -2.29105,-1.13113 -0.0073,0 -1.773717,2.14107 -3.925458,4.7579 l -3.91227,4.7579 -2.885329,2.35298 c -1.586927,1.29416 -3.48515,2.84167 -4.218273,3.43894 l -1.332946,1.08594 -1.020777,-0.59275 c -0.561421,-0.32601 -1.425211,-0.82647 -1.919528,-1.11212 -1.36116,-0.7866 -2.694021,-1.55985 -2.71494,-1.57503 -0.01028,-0.007 0.372584,-2.43144 0.850772,-5.38664 l 0.869433,-5.37305 2.160501,-5.76583 2.160509,-5.76584 -2.14709,-1.43251 c -2.05173,-1.36892 -2.232816,-1.50794 -4.077612,-3.13042 -1.061793,-0.93384 -1.965656,-1.6844 -2.008586,-1.6679 -0.04293,0.0164 -2.300836,1.61873 -5.017573,3.56054 l -4.939523,3.53058 -4.965626,2.2329 -4.965625,2.23291 -2.320844,-2.3232 -2.320845,-2.32322 2.230903,-4.97133 2.230904,-4.97132 3.51877,-4.93043 c 1.935324,-2.71173 3.53492,-4.97255 3.554656,-5.02403 0.02111,-0.055 -0.651255,-0.87492 -1.633257,-1.9915 -1.588472,-1.80618 -1.738994,-2.00242 -3.114419,-4.06058 -0.7949,-1.18945 -1.469614,-2.16266 -1.499367,-2.16266 -0.02974,0 -2.632322,0.96525 -5.78349,2.14499 l -5.729398,2.14498 -5.356117,0.86762 c -2.945866,0.4772 -5.363944,0.85888 -5.373506,0.84817 -0.0096,-0.0108 -0.357588,-0.61118 -0.773386,-1.33439 -1.078121,-1.87516 -2.04051,-3.54 -2.289019,-3.95978 l -0.21377,-0.3611 3.441987,-4.22657 3.441989,-4.22657 4.626454,-3.8099 c 2.544549,-2.09544 4.680499,-3.86197 4.746556,-3.92566 0.113532,-0.10943 0.05749,-0.2425 -1.024662,-2.43312 -1.113283,-2.25363 -1.166298,-2.3811 -1.928119,-4.63574 -0.862363,-2.55221 -0.865369,-2.5606 -0.916859,-2.5606 -0.0198,0 -2.777567,0.26607 -6.128369,0.59127 l -6.092363,0.59128 -2.074063,-0.21354 c -1.140735,-0.11744 -2.991834,-0.30683 -4.113556,-0.42086 -3.7443295,-0.38063 -4.5785419,-0.47151 -4.6090901,-0.50209 -0.038578,-0.0386 -1.6800622,-6.14277 -1.6813043,-6.25222 -3.918e-4,-0.0448 1.9823951,-1.51216 4.4064543,-3.26081 l 4.4073821,-3.17934 5.555996,-2.53153 c 3.055797,-1.39233 5.572687,-2.54823 5.593088,-2.56865 0.02041,-0.0204 -0.187677,-1.16244 -0.462399,-2.5378 l -0.499494,-2.50067 -0.170507,-2.56681 c -0.09378,-1.41173 -0.184758,-2.58107 -0.202174,-2.5985 -0.01742,-0.0173 -2.761691,-0.48965 -6.098389,-1.04939 l -6.066725,-1.01769 -5.0635075,-1.92941 -5.06350588,-1.9294 7.8391e-4,-3.28727 7.8391e-4,-3.28727 5.13185756,-1.9436 5.131859,-1.9436 5.980211,-0.99086 c 3.289116,-0.54497 6.002546,-1.01004 6.029846,-1.03348 0.0273,-0.0235 0.127695,-1.19433 0.223098,-2.60201 l 0.173463,-2.55934 0.48477,-2.45682 c 0.266622,-1.35123 0.485115,-2.49025 0.485539,-2.53115 3.91e-4,-0.0408 -0.193674,-0.16289 -0.431326,-0.27111 -0.237654,-0.10821 -0.743205,-0.34101 -1.12345,-0.51734 -0.380245,-0.17632 -2.702194,-1.23458 -5.159883,-2.35166 l -4.468532,-2.03108 -4.311663,-3.11029 c -2.3714146,-1.71064 -4.3537501,-3.15068 -4.4051875,-3.20008 -0.078257,-0.0751 0.04338,-0.60174 0.7449336,-3.22503 0.4611539,-1.72438 0.8495453,-3.14634 0.863095,-3.1599 0.013542,-0.0136 2.4590915,-0.27303 5.4345419,-0.57661 l 5.40991,-0.55194 6.086866,0.59161 c 3.347776,0.32537 6.107822,0.56746 6.133436,0.53796 0.02562,-0.0295 0.424511,-1.16698 0.886436,-2.52771 0.827113,-2.43651 0.856654,-2.50766 1.946255,-4.68826 0.608519,-1.21781 1.106396,-2.22662 1.106396,-2.24181 0,-0.0152 -2.131531,-1.78272 -4.736732,-3.92784 l -4.736734,-3.90022 -3.448803,-4.23262 -3.448804,-4.23263 1.626962,-2.826346 c 0.89483,-1.5545 1.635169,-2.836153 1.645196,-2.848134 0.01007,-0.01199 2.426908,0.36901 5.370848,0.846638 l 5.352615,0.868426 5.772793,2.163806 5.772793,2.1638 1.460557,-2.17998 c 1.386403,-2.06929 1.545179,-2.276221 3.127203,-4.075537 0.916655,-1.042562 1.652887,-1.931453 1.636072,-1.975317 -0.01681,-0.04387 -1.62846,-2.321393 -3.581429,-5.061174 L 41.554672,84.098348 40.66245,82.092957 c -0.490722,-1.102966 -0.984274,-2.207819 -1.096788,-2.455228 -0.112513,-0.247411 -0.608686,-1.352969 -1.102608,-2.456799 -0.493925,-1.103833 -0.988139,-2.203778 -1.098262,-2.444328 -0.11012,-0.24055 -0.200217,-0.458723 -0.200217,-0.484828 0,-0.0261 1.039898,-1.088071 2.310888,-2.359925 l 2.310888,-2.312464 0.437244,0.194965 c 0.240484,0.10723 0.639464,0.287369 0.886623,0.400307 0.247159,0.112941 1.351596,0.610032 2.454305,1.104646 1.102709,0.494615 2.176036,0.977179 2.385171,1.072368 0.209135,0.09518 1.141022,0.515496 2.07086,0.934026 l 1.690617,0.760961 4.927261,3.523661 c 2.709995,1.938015 4.970485,3.540266 5.023315,3.560558 0.05835,0.02241 0.866359,-0.639517 2.058612,-1.686447 1.87303,-1.644727 2.059271,-1.787847 4.082534,-3.137237 1.725273,-1.150642 2.108607,-1.434229 2.0589,-1.523143 -0.0336,-0.06009 -0.517097,-1.336068 -1.074454,-2.835511 -0.557354,-1.499441 -1.50776,-4.048473 -2.112004,-5.664515 L 65.576706,63.345766 64.709527,57.98936 c -0.476945,-2.946025 -0.857493,-5.364396 -0.845652,-5.374156 0.01183,-0.0098 1.291562,-0.751019 2.843837,-1.647239 l 2.822307,-1.629491 4.218095,3.443993 4.218094,3.443994 3.835729,4.663961 c 2.109646,2.565179 3.875942,4.705177 3.925098,4.755551 0.07382,0.07565 0.476018,-0.101999 2.31148,-1.021011 2.190146,-1.096601 2.257657,-1.124694 4.693655,-1.953319 1.359354,-0.462393 2.495788,-0.861815 2.525405,-0.887606 0.02962,-0.02579 -0.211836,-2.792386 -0.536574,-6.147991 l -0.590421,-6.101101 0.550538,-5.407087 c 0.302799,-2.973897 0.56113,-5.417684 0.574072,-5.430639 0.08608,-0.08616 6.256,-1.687442 6.32702,-1.642054 0.0479,0.03063 1.49843,2.015032 3.22332,4.409773 l 3.13617,4.354067 2.54016,5.594241 c 1.39709,3.076832 2.57546,5.593893 2.61861,5.593469 0.0432,-3.92e-4 1.1829,-0.219 2.53276,-0.485726 l 2.45431,-0.484953 2.55801,-0.175454 c 1.4069,-0.0965 2.57661,-0.197136 2.59934,-0.223632 0.0227,-0.02651 0.48678,-2.742008 1.0312,-6.034465 l 0.98986,-5.986288 1.94162,-5.137075 1.94163,-5.137072 3.28393,-9.81e-4 3.28392,-9.81e-4 1.94325,5.138107 1.94327,5.138108 0.98823,5.986287 c 0.54352,3.292458 1.00704,6.008304 1.03004,6.035216 0.023,0.02692 1.19683,0.125809 2.60851,0.219774 l 2.56666,0.170848 2.49813,0.500001 c 1.37397,0.274999 2.51558,0.482527 2.53692,0.46117 0.0213,-0.02135 1.17971,-2.547152 2.57417,-5.612883 l 2.53539,-5.574052 3.16863,-4.39775 c 1.74275,-2.418764 3.19803,-4.397749 3.23397,-4.397749 0.0927,0 6.22469,1.647972 6.2587,1.681997 0.0154,0.01543 0.27568,2.46337 0.57836,5.439858 l 0.55034,5.411796 -0.59179,6.094816 c -0.32549,3.35215 -0.56603,6.117146 -0.53455,6.144436 0.0315,0.02729 1.14613,0.417953 2.47699,0.868136 2.37515,0.803433 2.46174,0.839358 4.69857,1.949621 2.16597,1.075079 2.28465,1.12507 2.3961,1.009281 0.0645,-0.067 1.82995,-2.205842 3.92327,-4.752979 l 3.80602,-4.631154 4.22819,-3.450308 c 2.8219,-2.302732 4.25424,-3.429638 4.30646,-3.388157 0.0431,0.03418 1.30718,0.770817 2.80914,1.636962 1.50198,0.866144 2.73896,1.581523 2.7489,1.58973 0.0103,0.0083 -0.37296,2.434071 -0.85087,5.39081 l -0.86893,5.375892 -2.13923,5.722264 c -1.17657,3.147244 -2.13924,5.74664 -2.13924,5.776431 0,0.0298 0.97223,0.705435 2.16048,1.50143 2.05429,1.376113 2.25369,1.529371 4.05636,3.117616 1.11668,0.983859 1.93435,1.655579 1.98947,1.6344 0.0515,-0.01977 2.31066,-1.621436 5.02036,-3.559245 l 4.92673,-3.523287 4.96454,-2.232653 4.96456,-2.232653 2.32116,2.323524 2.32117,2.323523 -2.22993,4.970776 -2.22991,4.970776 -3.52759,4.944543 c -1.94019,2.719496 -3.54111,4.979698 -3.55759,5.022672 -0.0164,0.04297 0.73334,0.947754 1.66623,2.010625 1.62084,1.846671 1.75972,2.027944 3.12722,4.081756 l 1.43109,2.14927 5.75998,-2.1627 5.75996,-2.162699 5.3676,-0.870321 c 2.95219,-0.478666 5.37459,-0.86191 5.38311,-0.851631 0.008,0.01029 0.74841,1.288685 1.64417,2.840931 l 1.62866,2.82226 -1.08395,1.33319 c -0.59617,0.73327 -2.1417,2.63291 -3.43455,4.22145 l -2.3506,2.88823 -4.75306,3.9158 c -2.61417,2.1537 -4.75303,3.9281 -4.75303,3.94312 0,0.015 0.50921,1.04703 1.13158,2.29338 1.12137,2.24565 1.13893,2.28791 1.94681,4.68827 0.44837,1.3322 0.83701,2.44741 0.86365,2.47824 0.0267,0.0308 2.79832,-0.21117 6.15929,-0.53777 l 6.11089,-0.5938 5.38098,0.54925 c 2.95955,0.30208 5.39215,0.56042 5.40583,0.57409 0.0285,0.0285 0.59926,2.1153 1.20785,4.41595 0.10574,0.39966 0.26205,0.98572 0.34735,1.30235 0.10663,0.39572 0.13281,0.59803 0.0838,0.64711 -0.0392,0.0393 -2.02243,1.48061 -4.40704,3.20295 l -4.33568,3.13151 -5.59497,2.54565 -5.59497,2.54565 0.0459,0.31947 c 0.0252,0.17571 0.24457,1.31602 0.48749,2.53403 l 0.44165,2.21459 0.17587,2.59315 c 0.0968,1.42623 0.18196,2.59517 0.18942,2.59763 0.007,0.002 2.72024,0.45174 6.02837,0.99841 l 6.01478,0.99393 5.13233,1.94488 5.13233,1.94489 v 3.28727 3.28727 l -5.13233,1.94479 -5.13233,1.94481 -5.98022,0.98966 c -3.2891,0.54431 -6.0018,1.00828 -6.02815,1.03104 -0.0426,0.0367 -0.11225,0.85881 -0.22935,2.70581 -0.14984,2.36341 -0.14267,2.3099 -0.66255,4.95732 -0.26259,1.33724 -0.47743,2.46226 -0.47743,2.50007 0,0.0378 2.5168,1.21484 5.5929,2.61563 l 5.5929,2.54689 4.3453,3.13639 c 2.38993,1.72501 4.37076,3.17541 4.40184,3.22311 0.0474,0.0728 -1.55135,6.24292 -1.64078,6.33244 -0.0149,0.015 -2.45472,0.27482 -5.42167,0.57739 l -5.39442,0.55013 -6.10182,-0.59033 c -3.35598,-0.32466 -6.12206,-0.56666 -6.14685,-0.53775 -0.0248,0.0289 -0.41277,1.14256 -0.86219,2.47477 -0.80749,2.39362 -0.83049,2.44904 -1.95176,4.69843 -0.93722,1.88012 -1.11874,2.2918 -1.04318,2.3657 0.0503,0.0492 2.18888,1.81789 4.75236,3.9304 l 4.66084,3.84097 3.44066,4.2225 3.44064,4.2225 -1.62814,2.82371 c -0.89548,1.55306 -1.63842,2.83507 -1.65097,2.84892 -0.0126,0.0139 -0.53005,-0.0592 -1.14995,-0.16219 -1.1695,-0.19441 -2.72796,-0.44866 -4.68757,-0.76468 -0.62739,-0.10117 -1.68516,-0.27257 -2.35058,-0.38086 -0.66544,-0.10831 -1.5164,-0.24674 -1.89102,-0.30765 -0.58005,-0.0943 -1.52823,-0.42871 -6.38896,-2.25339 -3.13931,-1.17849 -5.73364,-2.14269 -5.76519,-2.14269 -0.0316,0 -0.70763,0.97319 -1.50239,2.16267 -1.37507,2.058 -1.52579,2.25456 -3.1142,4.06109 -0.97503,1.10891 -1.65437,1.93713 -1.63352,1.99149 0.0196,0.0511 1.62126,2.31477 3.55919,5.03017 l 3.52351,4.93704 2.2276,4.96326 2.22761,4.96325 -2.32142,2.32376 -2.32141,2.32378 -4.9665,-2.2324 -4.9665,-2.23239 -4.93953,-3.5302 c -2.71674,-1.94173 -4.97439,-3.54372 -5.01704,-3.5601 -0.0427,-0.0162 -0.93094,0.72213 -1.97401,1.64112 -1.80471,1.59004 -2.00106,1.74092 -4.05698,3.11738 -1.18825,0.79556 -2.16049,1.47233 -2.16049,1.50391 0,0.0315 0.96064,2.62396 2.13474,5.76083 1.82321,4.87108 2.15127,5.8044 2.24799,6.39546 0.15042,0.91921 0.47343,2.91289 0.70074,4.32536 0.19083,1.18567 0.44908,2.77673 0.75694,4.66311 0.0986,0.60445 0.17046,1.10711 0.15959,1.117 -0.0108,0.0103 -1.28963,0.75065 -2.84165,1.64619 l -2.82188,1.62824 -4.22993,-3.45312 -4.22995,-3.45313 -3.89624,-4.74206 c -2.14292,-2.60813 -3.90867,-4.74205 -3.92384,-4.74205 -0.0151,0 -1.04629,0.50883 -2.29137,1.13073 -2.23534,1.11652 -2.29415,1.141 -4.68351,1.94869 -1.33087,0.44989 -2.44584,0.84072 -2.47772,0.86855 -0.0319,0.0278 0.20882,2.80235 0.53492,6.16566 l 0.59292,6.11511 -0.55055,5.3906 c -0.30281,2.96483 -0.56232,5.40241 -0.57674,5.41681 -0.0144,0.0143 -1.43338,0.40325 -3.15328,0.86408 -2.64531,0.70877 -3.14118,0.82316 -3.21854,0.74249 -0.0503,-0.0525 -1.48306,-2.02621 -3.18392,-4.38614 -3.02386,-4.19555 -3.13839,-4.3699 -3.72781,-5.67485 -0.10021,-0.222 -0.39301,-0.86736 -0.67496,-1.48793 -0.0951,-0.20935 -0.24313,-0.53634 -0.32893,-0.72665 -0.0857,-0.19033 -0.27126,-0.59517 -0.41217,-0.89967 -0.14091,-0.30452 -0.8886,-1.94728 -1.66155,-3.65061 -0.77294,-1.70332 -1.44065,-3.09696 -1.48378,-3.09696 -0.0432,0 -1.15049,0.21509 -2.46081,0.47798 -1.3103,0.26287 -2.63125,0.49749 -2.93544,0.5213 -0.79604,0.0624 -1.25462,0.0946 -3.07653,0.21595 -0.89357,0.0596 -1.64328,0.12969 -1.66603,0.15587 -0.0227,0.0261 -0.48621,2.74145 -1.02991,6.03391 l -0.98859,5.98629 -1.94289,5.13793 -1.94291,5.13791 h -3.28393 -3.28393 l -0.25591,-0.6739 z M 93.427818,229.81427 c 1.64834,-0.11186 1.710167,-0.12016 3.296887,-0.44254 8.462555,-1.71937 15.425835,-7.90511 18.137465,-16.11217 1.00372,-3.03786 1.37901,-5.92626 1.19182,-9.1728 -0.0752,-1.30292 -0.1318,-1.7331 -0.42173,-3.20076 -0.44516,-2.25352 -1.04645,-4.02889 -2.06264,-6.0901 -3.30117,-6.69601 -9.55523,-11.50948 -16.879483,-12.99141 -1.323963,-0.26787 -1.802573,-0.33137 -3.214796,-0.42652 -1.540591,-0.10377 -1.777905,-0.10344 -3.318497,0.005 -1.398976,0.0982 -1.897837,0.16532 -3.180227,0.42787 -7.30488,1.49562 -13.466461,6.24891 -16.835648,12.98771 -0.980887,1.96191 -1.620022,3.81109 -2.044299,5.91473 -0.16889,0.83738 -0.323099,1.72494 -0.342684,1.97236 -0.01958,0.24741 -0.04879,0.60555 -0.0649,0.79586 -0.380557,4.49521 0.459903,8.92028 2.450378,12.90149 2.396856,4.794 6.141193,8.5427 10.928216,10.94092 3.804597,1.90606 8.130073,2.77766 12.360135,2.49064 z m 81.164952,0 c 1.64817,-0.11184 1.7101,-0.12014 3.29687,-0.4423 3.14745,-0.63902 5.95788,-1.83383 8.74256,-3.71679 2.64295,-1.78715 4.6409,-3.78712 6.42623,-6.43276 3.069,-4.5479 4.44949,-9.51915 4.15981,-14.97995 -0.0756,-1.42427 -0.11962,-1.7701 -0.41911,-3.28727 -0.27457,-1.39105 -0.42739,-1.96895 -0.85091,-3.21805 -2.75506,-8.12546 -9.70567,-14.24508 -18.09314,-15.93 -1.30729,-0.26261 -1.82035,-0.33072 -3.21478,-0.42672 -1.54826,-0.10659 -1.77028,-0.10644 -3.31852,0.002 -1.4035,0.0985 -1.89369,0.16465 -3.18023,0.42909 -9.52421,1.9576 -16.91455,9.35477 -18.88379,18.90121 -0.26889,1.30352 -0.33073,1.76393 -0.42989,3.20077 -0.10835,1.56984 -0.10835,1.78663 0,3.35647 0.0988,1.43112 0.16183,1.90242 0.42831,3.20076 1.72417,8.40032 7.74797,15.26418 15.85275,18.06353 3.06655,1.05917 6.30145,1.49569 9.48384,1.27973 z m -38.527,-41.28112 c 1.89955,-0.39946 3.6793,-0.77529 3.95497,-0.83519 l 0.50123,-0.10889 v -7.26083 -7.26082 l 28.91587,-0.0214 c 26.90736,-0.02 28.95178,-0.0296 29.43268,-0.13897 1.70382,-0.38745 3.04096,-1.10475 4.17438,-2.23933 1.13967,-1.14083 1.8685,-2.50755 2.22741,-4.17689 0.1525,-0.70929 0.1523,-2.20173 0,-2.99357 -0.55072,-2.85568 -2.57205,-5.20708 -5.29003,-6.15378 -0.21102,-0.0735 -0.67926,-0.20206 -1.04048,-0.28564 l -0.65679,-0.15199 -28.88131,-0.0182 -28.88131,-0.0182 v -7.26563 c 0,-3.9961 -0.0147,-7.26563 -0.0327,-7.26563 -0.018,0 -1.81156,-0.37371 -3.98577,-0.83047 -2.17418,-0.45675 -4.01399,-0.83046 -4.08847,-0.83046 -0.10335,0 -4.90959,0.99446 -7.74236,1.60198 l -0.32839,0.0704 v 7.26086 7.26086 l -28.362787,0.002 c -15.599534,9.8e-4 -28.59612,0.0189 -28.881303,0.0394 -2.268797,0.16403 -4.254709,1.13662 -5.663452,2.77364 -1.334279,1.55047 -1.954571,3.22479 -1.956907,5.2821 -0.0026,2.2287 0.789114,4.14625 2.353976,5.70192 1.161575,1.15474 2.393309,1.82005 4.091081,2.20978 l 0.656784,0.15076 28.881306,0.0183 28.881302,0.0183 v 7.26555 c 0,3.99606 0.0233,7.26644 0.0518,7.26754 0.0285,0.001 1.79406,0.37228 3.92343,0.82488 2.12937,0.45257 3.96628,0.82539 4.08203,0.82847 0.11575,0.003 1.76462,-0.32123 3.66417,-0.72071 z M 93.890154,148.53538 c 3.929133,-0.28442 8.003806,-1.7072 11.408846,-3.9837 5.41086,-3.61755 9.03709,-9.04688 10.33003,-15.46653 0.43985,-2.18392 0.55846,-3.92971 0.42468,-6.25044 -0.18117,-3.14258 -1.01388,-6.2765 -2.44905,-9.21702 -2.77466,-5.68497 -7.82917,-10.14032 -13.862758,-12.21945 -1.261741,-0.43479 -1.767078,-0.5687 -3.224603,-0.85455 -1.461591,-0.28665 -1.950497,-0.35218 -3.167278,-0.42458 -0.791387,-0.047 -1.786937,-0.066 -2.212332,-0.0421 -0.42539,0.024 -1.100106,0.0629 -1.499362,0.0866 -0.405954,0.0241 -1.48775,0.1907 -2.454305,0.37805 -1.480644,0.28699 -1.942711,0.40926 -3.223658,0.85307 -8.104168,2.80787 -14.18777,9.73861 -15.862009,18.07081 -0.168261,0.83738 -0.32259,1.72494 -0.342952,1.97236 -0.02035,0.2474 -0.04995,0.60554 -0.06571,0.79586 -0.196297,2.36701 -0.08746,4.43228 0.353737,6.71294 1.866885,9.65034 9.378913,17.24826 18.967756,19.18461 2.352607,0.47509 4.309476,0.59002 6.87897,0.40403 z m 81.164936,-9.9e-4 c 1.8478,-0.13384 3.85145,-0.55137 5.77282,-1.20297 7.10008,-2.40785 12.69593,-8.00587 15.14231,-15.14816 1.02011,-2.97824 1.42642,-5.98293 1.24718,-9.2229 -0.23976,-4.33408 -1.62778,-8.46589 -4.0767,-12.13531 -2.93351,-4.39555 -7.26475,-7.727 -12.26576,-9.43443 -2.09828,-0.71638 -4.24684,-1.14598 -6.35998,-1.27166 -0.79139,-0.047 -1.8025,-0.0653 -2.2469,-0.0403 -0.44441,0.0248 -1.10356,0.0625 -1.46479,0.0837 -0.36123,0.0212 -1.41901,0.18083 -2.35061,0.35474 -1.48564,0.27732 -1.885,0.38196 -3.24937,0.85134 -7.13695,2.45531 -12.72819,8.04483 -15.14556,15.14088 -0.62773,1.84267 -1.12853,4.21954 -1.20615,5.72447 -0.0275,0.53288 -0.0619,1.03116 -0.0764,1.10728 -0.13157,0.68839 0.0606,3.70916 0.3214,5.05202 0.11086,0.57093 0.25266,1.30279 0.31508,1.62633 0.20916,1.08425 1.12358,3.56984 1.88402,5.12122 3.26279,6.65639 9.52605,11.48453 16.84588,12.98591 2.32381,0.47663 4.33047,0.59504 6.91354,0.40792 z"
       id="path3989"
       inkscape:connector-curvature="0" />
  </g>
</svg>
