<?xml version="1.0" encoding="UTF-8" standalone="no"?>
<!-- Created with Inkscape (http://www.inkscape.org/) -->

<svg
   xmlns:dc="http://purl.org/dc/elements/1.1/"
   xmlns:cc="http://creativecommons.org/ns#"
   xmlns:rdf="http://www.w3.org/1999/02/22-rdf-syntax-ns#"
   xmlns:svg="http://www.w3.org/2000/svg"
   xmlns="http://www.w3.org/2000/svg"
   xmlns:sodipodi="http://sodipodi.sourceforge.net/DTD/sodipodi-0.dtd"
   xmlns:inkscape="http://www.inkscape.org/namespaces/inkscape"
   width="1000"
   height="1000"
   viewBox="0 0 264.58333 264.58334"
   version="1.1"
   id="svg8"
   inkscape:version="0.92.4 (5da689c313, 2019-01-14)"
   sodipodi:docname="28T.svg">
  <defs
     id="defs2" />
  <sodipodi:namedview
     id="base"
     pagecolor="#000000"
     bordercolor="#666666"
     borderopacity="1.0"
     inkscape:pageopacity="0"
     inkscape:pageshadow="2"
     inkscape:zoom="0.98994949"
     inkscape:cx="876.83066"
     inkscape:cy="498.17151"
     inkscape:document-units="mm"
     inkscape:current-layer="layer1"
     showgrid="false"
     inkscape:pagecheckerboard="true"
     inkscape:window-width="3732"
     inkscape:window-height="2032"
     inkscape:window-x="108"
     inkscape:window-y="54"
     inkscape:window-maximized="1"
     units="px" />
  <metadata
     id="metadata5">
    <rdf:RDF>
      <cc:Work
         rdf:about="">
        <dc:format>image/svg+xml</dc:format>
        <dc:type
           rdf:resource="http://purl.org/dc/dcmitype/StillImage" />
        <dc:title></dc:title>
      </cc:Work>
    </rdf:RDF>
  </metadata>
  <g
     inkscape:label="Layer 1"
     inkscape:groupmode="layer"
     id="layer1"
     transform="translate(0,-32.41665)">
    <path
       style="fill:#000000;stroke-width:0.06954979"
       d="m 129.21086,296.15427 c -0.0276,-0.0669 -1.0012,-2.96957 -2.16348,-6.45032 l -2.11325,-6.3286 v -3.28665 c 0,-1.86219 -0.0267,-3.28666 -0.0616,-3.28666 -0.0339,0 -1.05888,-0.1125 -2.27775,-0.25003 -1.21888,-0.13753 -3.51748,-0.39573 -5.10799,-0.57379 l -2.89182,-0.32373 -0.72476,3.19724 -0.72476,3.19722 -2.98014,4.90533 c -2.51277,4.136 -4.06501,6.67862 -4.10488,6.72388 -0.0192,0.0217 -5.96332,-1.35108 -5.99739,-1.38515 -0.0198,-0.0198 -0.333266,-3.06498 -0.696602,-6.76705 l -0.660618,-6.73107 0.698238,-3.06553 c 0.384027,-1.68604 0.706642,-3.1379 0.716912,-3.22636 0.0178,-0.15297 -0.214332,-0.2424 -4.745486,-1.82824 -2.620289,-0.91708 -4.826755,-1.6832 -4.90326,-1.70248 -0.122797,-0.031 -0.305053,0.31084 -1.555328,2.91694 l -1.416228,2.95198 -4.17008,4.30142 c -2.293537,2.36579 -4.427713,4.56106 -4.742607,4.87842 l -0.572541,0.57697 -0.865685,-0.41244 c -0.476131,-0.22683 -1.522933,-0.73091 -2.326232,-1.12016 -0.803302,-0.38923 -1.665572,-0.80283 -1.916152,-0.91909 l -0.455613,-0.21136 0.06085,-0.53213 c 0.03347,-0.29267 0.41803,-3.33203 0.854578,-6.75416 l 0.79373,-6.22202 1.409323,-2.91889 c 0.775126,-1.60539 1.409322,-2.94357 1.409322,-2.97374 0,-0.0455 -8.697959,-5.55364 -8.769721,-5.55364 -0.01269,0 -0.942607,1.15245 -2.066469,2.561 l -2.043393,2.56099 -4.340559,2.81952 c -2.387309,1.55073 -4.956243,3.21639 -5.708743,3.70145 l -1.368182,0.88193 -2.404758,-1.91684 c -1.322619,-1.05428 -2.40476,-1.92729 -2.40476,-1.94007 0,-0.0462 0.85696,-2.40364 2.743214,-7.54656 l 1.922727,-5.24237 2.040646,-2.55546 2.040645,-2.55549 -3.660974,-3.66047 c -2.013536,-2.01328 -3.684915,-3.6605 -3.714176,-3.6605 -0.02926,0 -1.140207,0.87051 -2.468772,1.93444 -1.328566,1.06396 -2.493816,1.98447 -2.589448,2.0456 -0.193953,0.12399 -12.680605,4.7137 -12.823971,4.7137 -0.02087,0 -0.899627,-1.0803 -1.952796,-2.40065 l -1.914851,-2.40064 1.722822,-2.6591 c 0.947553,-1.46252 2.614065,-4.03224 3.70336,-5.71049 l 1.980539,-3.05137 2.552588,-2.02577 c 1.403924,-1.11417 2.554105,-2.05072 2.555957,-2.08125 0.0017,-0.0306 -0.11161,-0.23396 -0.252135,-0.45207 -0.264205,-0.41009 -3.244082,-5.14793 -4.5216,-7.18909 l -0.725377,-1.15899 -0.778414,0.36838 c -0.428127,0.2026 -1.76428,0.8437 -2.969232,1.42465 l -2.190817,1.05629 -5.911731,0.7548 c -3.251452,0.41516 -6.271652,0.80019 -6.711555,0.85563 -0.439902,0.0554 -0.824104,0.0868 -0.853781,0.0697 -0.02967,-0.0171 -0.175265,-0.28696 -0.323529,-0.59967 -0.148267,-0.3127 -0.526774,-1.10063 -0.84113,-1.75092 -0.314356,-0.65028 -0.787313,-1.63131 -1.051016,-2.18005 l -0.479458,-0.9977 1.61797,-1.57886 c 0.889883,-0.86837 3.083464,-3.00144 4.874621,-4.74014 l 3.256651,-3.1613 2.929008,-1.40991 c 1.610954,-0.77545 2.942497,-1.4234 2.958984,-1.43988 0.03091,-0.0309 -0.217832,-0.77783 -0.961733,-2.88807 -0.235982,-0.66941 -0.454445,-1.29536 -0.485471,-1.391 -0.03103,-0.0956 -0.250107,-0.72157 -0.486847,-1.391 -0.236743,-0.66941 -0.455825,-1.29535 -0.48685,-1.39098 -0.08088,-0.24931 -0.881078,-2.51468 -0.940426,-2.66236 -0.02929,-0.0729 -0.0964,-0.10973 -0.163218,-0.0896 -0.06241,0.0188 -1.50621,0.35227 -3.208442,0.74106 l -3.094965,0.70689 -0.765047,-0.0785 c -0.420776,-0.0432 -1.735267,-0.17254 -2.92109,-0.28746 -7.1368273,-0.69164 -9.782541,-0.96052 -9.8200112,-0.99799 -0.044197,-0.0442 -1.3426574,-5.74808 -1.3426988,-5.89821 -3.75e-5,-0.13319 -0.1853871,-0.0168 6.6060862,-4.146 l 4.9716998,-3.02274 3.213526,-0.73455 3.213528,-0.73454 -0.03092,-0.17866 c -0.02737,-0.15817 -1.142902,-10.04102 -1.142902,-10.1254 0,-0.0185 -1.478994,-0.0337 -3.286653,-0.0337 H 13.618818 L 7.2902133,169.94678 C 3.8094829,168.7845 0.90684071,167.81093 0.83989879,167.7833 0.72656965,167.7365 0.71818688,167.52081 0.71818688,164.65133 v -3.08173 l 6.48551942,-2.16184 6.4855197,-2.16183 h 3.243555 3.243551 l 0.04259,-0.29559 c 0.02342,-0.16257 0.2772,-2.40816 0.563939,-4.9902 0.286741,-2.58203 0.534794,-4.77285 0.551226,-4.86848 l 0.02988,-0.17388 -3.17665,-0.71883 -3.176651,-0.71883 -1.70397,-1.02675 c -0.937184,-0.56472 -2.282972,-1.38039 -2.99064,-1.81261 -0.7076702,-0.43223 -1.5057532,-0.91697 -1.7735207,-1.07719 -0.2677655,-0.16024 -1.0658487,-0.64491 -1.773519,-1.07705 -0.7076682,-0.43215 -1.6465902,-1.00532 -2.0864927,-1.27371 -0.4399024,-0.2684 -0.9266732,-0.56542 -1.0817132,-0.66004 l -0.2818894,-0.17205 0.6834741,-2.9953 c 0.3759099,-1.64741 0.6928623,-3.00468 0.7043384,-3.01615 0.02306,-0.0231 3.4694479,-0.36925 9.5736585,-0.96164 l 3.999114,-0.3881 3.164515,0.72697 c 1.740483,0.39984 3.18431,0.70637 3.208506,0.68118 0.0546,-0.0568 3.398724,-9.62121 3.398724,-9.72052 0,-0.0396 -0.289501,-0.20841 -0.643336,-0.37521 -0.616105,-0.29044 -2.833702,-1.35835 -4.484506,-2.15955 l -0.780977,-0.37904 -4.869941,-4.726 c -2.678468,-2.59932 -4.869942,-4.72999 -4.869942,-4.73483 0,-0.0177 2.349144,-4.87751 2.523075,-5.21959 l 0.179577,-0.35316 0.474356,0.0574 c 0.260895,0.0315 3.292385,0.416 6.73664,0.8544 l 6.262285,0.7971 1.457742,0.70589 c 0.801757,0.38826 1.70812,0.82478 2.014139,0.97005 0.306018,0.14529 0.978914,0.46837 1.495319,0.71797 0.516409,0.24958 0.959818,0.43252 0.985356,0.40655 0.07478,-0.0761 5.482776,-8.69606 5.482776,-8.73917 0,-0.0215 -1.152571,-0.957786 -2.561265,-2.080534 L 34.891283,96.408063 31.37742,90.991514 C 29.444795,88.012411 27.78217,85.445062 27.6827,85.286296 l -0.180856,-0.288666 1.843922,-2.319451 c 1.014159,-1.2757 1.884112,-2.360481 1.933234,-2.410628 0.101075,-0.103184 0.140395,-0.08944 8.095337,2.829903 l 4.750634,1.743407 2.511463,2.001471 c 1.381307,1.100808 2.547277,2.023172 2.59105,2.049696 0.04812,0.02916 1.529135,-1.401516 3.746613,-3.619288 l 3.667027,-3.667519 -2.072095,-2.605415 c -1.139653,-1.432979 -2.108141,-2.714958 -2.152198,-2.848842 -0.04406,-0.133884 -0.288774,-0.806777 -0.543819,-1.49532 -0.255043,-0.688543 -0.600269,-1.627465 -0.767165,-2.086495 -0.166898,-0.459027 -0.510848,-1.39795 -0.764336,-2.086493 -1.053754,-2.862295 -2.366671,-6.47661 -2.429172,-6.687244 -0.0387,-0.130427 0.263694,-0.39467 2.363209,-2.065041 l 2.407589,-1.915474 0.498604,0.317777 c 0.274232,0.174778 2.844369,1.839534 5.711416,3.699461 l 5.212813,3.381681 2.036641,2.555956 c 1.120161,1.405774 2.053451,2.555953 2.073974,2.555953 0.04256,0 8.66824,-5.410061 8.740634,-5.482156 0.02598,-0.02588 -0.157022,-0.469566 -0.406685,-0.985972 -0.249664,-0.516409 -0.60386,-1.251896 -0.787102,-1.63442 -0.183242,-0.382525 -0.619653,-1.288432 -0.969796,-2.013128 l -0.63662,-1.317683 -0.796833,-6.263295 C 72.921968,51.184267 72.537428,48.152323 72.50569,47.891428 L 72.448,47.417073 72.801167,47.237496 c 0.194245,-0.09877 1.447569,-0.707559 2.785169,-1.35287 l 2.432004,-1.173291 0.397726,0.401453 c 0.218757,0.220802 2.352175,2.417418 4.740939,4.88137 l 4.343204,4.479917 1.415873,2.944522 c 0.778734,1.619489 1.446864,2.944525 1.484734,2.944525 0.09543,0 9.658174,-3.345636 9.716174,-3.399314 0.0258,-0.02387 -0.280598,-1.467433 -0.680857,-3.207915 l -0.727741,-3.164515 0.387692,-3.999112 c 0.593391,-6.120831 0.938236,-9.5505 0.962756,-9.575018 0.0122,-0.01222 1.36947,-0.329065 3.01611,-0.704095 l 2.99391,-0.681873 0.27666,0.45552 c 0.15217,0.250537 1.71528,2.818476 3.4736,5.706531 1.75831,2.888054 3.23071,5.313602 3.272,5.390107 0.0412,0.0765 0.12822,0.389478 0.1932,0.695496 0.0649,0.30602 0.18837,0.853724 0.27419,1.217123 0.0859,0.363397 0.35555,1.545027 0.59936,2.625846 l 0.4433,1.965124 0.21106,-0.0364 c 0.11608,-0.02003 2.30799,-0.270776 4.8709,-0.557228 2.56291,-0.28645 4.79285,-0.539801 4.95542,-0.563004 l 0.29558,-0.04218 v -3.243561 -3.243552 l 2.16208,-6.486233 2.16208,-6.486231 3.10049,0.0181 3.10048,0.0181 2.14449,6.433074 2.14449,6.433071 v 3.281504 3.281506 l 0.36513,0.04415 c 2.50437,0.302835 9.99779,1.113163 9.99779,1.081146 0,-0.02329 0.32553,-1.466952 0.7234,-3.208129 l 0.72339,-3.165773 2.93593,-4.829908 c 4.10752,-6.757289 4.09825,-6.742527 4.2319,-6.742527 0.14069,0 5.85343,1.299957 5.89487,1.341402 0.0304,0.03041 0.39615,3.653296 0.9985,9.890889 l 0.35598,3.686137 -0.72723,3.164516 c -0.39995,1.740482 -0.7066,3.183427 -0.6814,3.206542 0.0844,0.07751 9.74797,3.42388 9.78383,3.388034 0.0195,-0.01946 0.66876,-1.352273 1.44293,-2.961793 l 1.40755,-2.926405 3.16128,-3.256893 c 1.73872,-1.791292 3.87135,-3.98455 4.73921,-4.873909 l 1.57794,-1.617018 0.99864,0.478532 c 0.54925,0.263189 1.62459,0.781652 2.38962,1.152136 0.76505,0.370484 1.56905,0.755426 1.78668,0.855426 0.3532,0.162298 0.39235,0.201003 0.36484,0.360554 -0.0169,0.09831 -0.0943,0.710793 -0.17197,1.361083 -0.0777,0.650289 -0.4518,3.610415 -0.83147,6.578053 l -0.69032,5.395705 -1.02052,2.115671 c -0.56127,1.163619 -1.20151,2.496793 -1.42271,2.962612 l -0.40222,0.84694 4.37935,2.752261 c 2.40862,1.513743 4.40117,2.750946 4.42791,2.749337 0.0267,-0.0015 0.96017,-1.15191 2.07434,-2.556225 l 2.02577,-2.553298 3.05137,-1.979972 c 1.67824,-1.088984 4.24825,-2.755564 5.71111,-3.703509 l 2.65974,-1.723537 2.4,1.918204 c 1.32,1.055011 2.4,1.941111 2.4,1.969108 0,0.05986 0.13167,-0.302847 -2.51517,6.928184 -1.14815,3.136694 -2.13439,5.776503 -2.19164,5.86624 -0.0572,0.08974 -0.9777,1.257041 -2.04549,2.594007 -1.06779,1.336965 -1.94141,2.452733 -1.94141,2.479488 0,0.02675 1.64722,1.696084 3.66048,3.709619 l 3.66049,3.660974 2.55615,-2.04119 2.55615,-2.041194 6.25016,-2.288923 c 3.43758,-1.258906 6.31836,-2.309908 6.40174,-2.335557 0.13359,-0.04109 0.37994,0.239647 2.07257,2.361675 l 1.92097,2.408313 -0.43309,0.6724 c -0.23819,0.36982 -1.90357,2.937746 -3.7008,5.706505 l -3.2677,5.034103 -2.56216,2.048015 c -1.40915,1.12641 -2.56212,2.058516 -2.56212,2.071346 0,0.0302 5.42694,8.67755 5.4892,8.74655 0.026,0.0287 1.37569,-0.58976 2.99946,-1.37445 l 2.95233,-1.4267 6.2247,-0.79389 c 3.42357,-0.43664 6.46189,-0.82099 6.75184,-0.8541 l 0.52718,-0.0602 1.33742,2.78031 1.33741,2.78032 -0.57791,0.57349 c -0.31787,0.31542 -2.51334,2.4498 -4.87885,4.74308 l -4.30093,4.16958 -2.9492,1.41672 c -1.62209,0.77919 -2.94942,1.43724 -2.94965,1.46233 0,0.061 3.388,9.72981 3.42183,9.76364 0.0146,0.0146 1.46482,-0.30242 3.22276,-0.7044 l 3.19628,-0.73088 5.07714,0.49478 c 6.54671,0.63799 8.39655,0.82608 8.42734,0.85687 0.0234,0.0234 1.15534,4.8992 1.27819,5.50578 0.031,0.15301 0.0745,0.32516 0.0969,0.38256 0.0274,0.0707 -0.0552,0.163 -0.25586,0.28597 -0.163,0.0999 -2.78496,1.69604 -5.82656,3.54701 l -5.5302,3.36539 -3.20868,0.72914 -3.20867,0.72917 0.0301,0.20977 c 0.0289,0.20174 1.13821,10.03881 1.13821,10.09373 0,0.0148 1.48041,0.0269 3.28979,0.0269 h 3.2898 l 6.32547,2.11434 c 3.47901,1.16289 6.38023,2.13646 6.44717,2.16349 0.11336,0.0458 0.12172,0.26089 0.12172,3.12921 0,2.86806 -0.008,3.08352 -0.12172,3.12995 -0.0669,0.0274 -2.96908,1.001 -6.44921,2.16349 l -6.32751,2.11362 h -3.28274 -3.28275 l -0.044,0.36513 c -0.0242,0.20083 -0.28621,2.52708 -0.58226,5.16944 l -0.53827,4.80431 3.19485,0.7249 3.19484,0.7249 5.29372,3.22077 c 2.91153,1.77143 5.53227,3.36488 5.82391,3.54101 l 0.53018,0.32026 -0.0903,0.38854 c -0.0497,0.21371 -0.34491,1.51526 -0.65617,2.89235 -0.31126,1.37708 -0.58051,2.5546 -0.59833,2.6167 -0.0182,0.0634 -0.13359,0.12935 -0.26335,0.15041 -0.12704,0.0206 -3.17599,0.32533 -6.77544,0.67715 l -6.54448,0.63967 -3.11612,-0.70742 c -1.71385,-0.38909 -3.15712,-0.71333 -3.20723,-0.72053 -0.0611,-0.009 -0.63926,1.55276 -1.75883,4.75106 -0.91724,2.62029 -1.68391,4.82811 -1.70372,4.90625 -0.0312,0.12321 0.0778,0.19648 0.8199,0.55123 1.14096,0.5454 2.92777,1.40548 4.12476,1.98549 l 0.97369,0.47181 4.48596,4.35809 c 2.46729,2.39696 4.65293,4.52347 4.85698,4.72558 l 0.37098,0.36748 -1.29934,2.7058 c -0.71467,1.48821 -1.33543,2.7415 -1.37949,2.78512 -0.0805,0.0796 -0.32791,0.053 -4.56607,-0.49096 -2.55547,-0.32804 -4.69538,-0.59999 -6.08559,-0.77341 -2.95158,-0.36815 -2.73869,-0.31642 -4.1949,-1.01945 -3.09359,-1.49352 -4.4388,-2.13515 -4.52611,-2.15883 -0.0521,-0.0142 -5.18116,8.0413 -5.50322,8.64304 -0.0646,0.12081 0.19786,0.35072 2.49364,2.18398 l 2.5659,2.04896 3.0611,4.71562 c 1.68362,2.59359 3.34842,5.16234 3.69961,5.70835 l 0.63848,0.99271 -1.91646,2.39783 c -1.05406,1.31881 -1.94637,2.39783 -1.98293,2.39783 -0.0365,0 -0.13833,-0.0302 -0.2262,-0.0669 -0.0878,-0.0368 -2.91392,-1.0721 -6.28015,-2.30064 -3.3662,-1.22853 -6.21427,-2.29978 -6.32903,-2.38055 -0.11474,-0.0807 -1.28119,-1.00157 -2.59209,-2.04623 -1.31091,-1.04465 -2.40644,-1.89937 -2.43451,-1.89937 -0.0281,0 -1.69388,1.6431 -3.70182,3.6513 -2.88322,2.8836 -3.63625,3.67278 -3.58156,3.75344 0.0381,0.0561 0.95674,1.21544 2.04147,2.57617 l 1.97226,2.47403 0.93717,2.55318 c 2.45271,6.68214 3.70772,10.12849 3.70772,10.18168 0,0.032 -1.07975,0.92029 -2.39942,1.97386 l -2.39944,1.91562 -1.51274,-0.97329 c -0.83201,-0.5353 -3.39059,-2.1908 -5.68574,-3.6789 l -4.17298,-2.70563 -1.98217,-2.47752 c -1.0902,-1.36262 -2.03066,-2.526 -2.08994,-2.58525 -0.0973,-0.0973 -0.53246,0.15912 -4.48595,2.6431 -2.46249,1.54718 -4.36809,2.78771 -4.3551,2.8351 0.0126,0.0464 0.64574,1.37819 1.40676,2.95965 l 1.38365,2.87537 0.10794,0.81076 c 0.10488,0.78776 0.23614,1.80785 0.65917,5.12286 0.11226,0.87979 0.30026,2.35078 0.41775,3.26883 0.1175,0.91806 0.27457,2.18561 0.34902,2.81676 0.0745,0.63117 0.14737,1.21779 0.16201,1.30363 0.0146,0.0858 -0.008,0.18368 -0.0506,0.21747 -0.0709,0.0564 -5.44221,2.65189 -5.48806,2.65189 -0.0111,0 -2.14702,-2.19172 -4.74648,-4.87048 l -4.72631,-4.8705 -0.32772,-0.6761 c -0.99734,-2.05761 -1.94435,-4.02302 -2.2127,-4.59221 -0.26126,-0.55416 -0.3256,-0.64211 -0.44725,-0.61149 -0.23219,0.0584 -9.63651,3.35772 -9.67196,3.39317 -0.0179,0.0179 0.0282,0.28047 0.1025,0.58348 0.0743,0.30302 0.40496,1.74099 0.7349,3.19547 l 0.59982,2.64452 -0.63187,6.4665 c -0.57224,5.85628 -0.69524,7.05421 -0.72473,7.05931 -0.005,0.002 -1.35449,0.30892 -2.99837,0.68449 l -2.98887,0.68283 -0.20383,-0.31935 c -0.1121,-0.17564 -0.28827,-0.46018 -0.39148,-0.63232 -0.10323,-0.17213 -0.49424,-0.81372 -0.86892,-1.42576 -0.85669,-1.3994 -1.57002,-2.57139 -1.94722,-3.19929 -0.16085,-0.26777 -0.64589,-1.06584 -1.07785,-1.77354 -1.06511,-1.74498 -1.89932,-3.12169 -2.29672,-3.79044 -0.3281,-0.55207 -0.33626,-0.5811 -1.04755,-3.72428 l -0.7169,-3.16786 -0.17773,0.0227 c -0.37646,0.0481 -10.04944,1.13157 -10.10227,1.13157 -0.0307,0 -0.0558,1.479 -0.0558,3.28666 v 3.28665 l -2.11324,6.3286 c -1.16227,3.48075 -2.13586,6.38339 -2.16349,6.45032 -0.0468,0.11332 -0.26242,0.12172 -3.13032,0.12172 -2.8679,0 -3.08355,-0.008 -3.13032,-0.12172 z m 4.85026,-38.69086 c 2.54295,-0.17564 5.41931,-0.97088 7.76447,-2.14666 9.65867,-4.84253 14.19162,-15.86124 10.7202,-26.05873 -2.45113,-7.20032 -8.60827,-12.58275 -16.06638,-14.04486 -1.41731,-0.27784 -3.6742,-0.48435 -4.5903,-0.42001 -0.28689,0.0201 -0.81894,0.0541 -1.18234,0.0754 -0.95219,0.0559 -1.14968,0.0834 -2.53857,0.35426 -7.40688,1.44434 -13.58741,6.85521 -16.03162,14.03521 -0.54274,1.59435 -1.00271,3.72682 -1.07407,4.97957 -0.0229,0.40164 -0.0603,0.9978 -0.0831,1.32479 -0.0229,0.32697 -0.004,1.20331 0.0405,1.94738 0.46131,7.60301 5.08111,14.51396 11.91988,17.83142 3.54507,1.71969 7.10735,2.39948 11.12131,2.12223 z m -33.0445,-9.03767 h 1.5157 l -0.66404,-1.96478 c -0.60915,-1.80235 -0.69752,-2.13437 -1.06898,-4.01649 -0.3828,-1.93959 -0.41284,-2.16812 -0.54968,-4.18144 -0.14126,-2.07834 -0.14475,-2.60294 -0.14475,-21.75169 V 196.88935 H 80.448104 c -19.214824,0 -19.704643,-0.003 -21.78634,-0.14539 -2.025699,-0.1383 -2.227966,-0.16516 -4.146649,-0.55076 -1.814091,-0.36457 -2.213873,-0.47177 -3.972702,-1.06525 l -1.955632,-0.65988 -0.03184,2.44315 -0.03184,2.44313 2.625963,5.33018 2.625962,5.33018 3.325841,4.96567 3.325839,4.96567 3.888821,4.43357 3.888821,4.43357 4.439223,3.89083 4.439224,3.89085 4.933494,3.30676 4.933493,3.30677 2.317614,1.13983 c 1.274687,0.62691 3.679051,1.81654 5.343029,2.64361 l 3.025418,1.50378 0.932529,-0.035 c 0.512896,-0.0193 1.614598,-0.0349 2.448248,-0.0349 z m 71.33566,-2.56081 5.33537,-2.63034 4.91877,-3.28037 4.91879,-3.28038 4.48458,-3.93382 4.48461,-3.93379 3.93379,-4.48459 3.9338,-4.4846 3.28062,-4.91878 3.2806,-4.91878 2.62442,-5.32373 2.62441,-5.32374 -0.0397,-2.44061 -0.0397,-2.4406 -1.95416,0.65748 c -1.75534,0.59059 -2.15939,0.69861 -3.97112,1.06164 -2.04212,0.40919 -2.35537,0.45294 -3.79046,0.52934 -0.4399,0.0234 -0.87807,0.0625 -0.97368,0.0869 -0.0956,0.0244 -9.32056,0.0538 -20.49981,0.0654 l -20.32593,0.021 -0.005,19.83749 c -0.003,10.91062 -0.0142,19.88443 -0.0249,19.94181 -0.0109,0.0573 -0.0401,0.4486 -0.0652,0.86938 -0.15091,2.53811 -0.19847,2.92854 -0.60156,4.93803 -0.36471,1.81819 -0.46989,2.21046 -1.06717,3.98062 l -0.6626,1.96366 1.89147,0.0197 c 1.0403,0.0109 2.13517,0.027 2.43306,0.0359 l 0.54159,0.0162 z M 111.88,211.3376 c 0.5031,-0.44601 1.40614,-1.1107 2.55212,-1.87851 1.56154,-1.04626 1.99797,-1.29888 3.65137,-2.11363 1.66928,-0.82259 2.10359,-1.00249 3.91049,-1.61974 1.92949,-0.65913 2.14131,-0.71556 4.17299,-1.11168 2.02559,-0.39494 2.24846,-0.42428 4.15727,-0.54719 1.97199,-0.12697 2.06268,-0.12694 4.06867,0.001 1.96526,0.12545 2.14022,0.14853 4.15167,0.54786 1.92881,0.38293 2.26607,0.47262 4.13822,1.10039 1.89348,0.63494 2.17325,0.75104 3.93898,1.63439 1.62454,0.81274 2.15507,1.12091 3.65136,2.12091 1.5056,1.00625 1.96198,1.35639 3.26058,2.50161 l 1.50997,1.3316 0.0217,-8.81625 c 0.0215,-8.77049 0.0225,-8.81967 0.17325,-9.47696 0.40417,-1.76212 1.07852,-3.1316 2.14987,-4.36601 1.37397,-1.58309 3.10975,-2.59405 5.31115,-3.09333 0.63981,-0.14511 0.83077,-0.15064 6.03345,-0.17476 l 5.3727,-0.0249 v -5.1772 -5.17719 h -9.49437 -9.4944 l 0.002,5.23037 0.002,5.23038 -1.55847,1.37077 c -1.35588,1.19254 -1.79237,1.52696 -3.35751,2.57234 -1.60266,1.07042 -2.00505,1.30222 -3.68633,2.12369 -1.65516,0.80871 -2.12999,1.00459 -3.86002,1.59244 -1.82313,0.6195 -2.12827,0.70098 -4.02443,1.07458 -1.12844,0.22233 -2.3021,0.42359 -2.60811,0.44724 -3.29233,0.25443 -3.53977,0.25896 -5.81508,0.10649 -2.08609,-0.13979 -2.25034,-0.16146 -4.19408,-0.55322 -1.82178,-0.36718 -2.21794,-0.47365 -3.9837,-1.0706 -1.7423,-0.58902 -2.17375,-0.76729 -3.87249,-1.60015 -1.68943,-0.82829 -2.11651,-1.07397 -3.67278,-2.11277 -1.51733,-1.01281 -1.9798,-1.3671 -3.34163,-2.55991 l -1.58056,-1.38441 -0.002,-5.23362 -0.002,-5.23362 h -9.49354 -9.493547 v 5.17691 5.17691 l 5.442269,0.0292 c 5.134258,0.0276 5.475738,0.0371 6.033438,0.16793 1.21956,0.28607 2.42498,0.7961 3.33236,1.40995 1.47207,0.99587 2.45628,2.1214 3.25637,3.72398 0.39866,0.79851 0.57896,1.31637 0.79853,2.29367 l 0.15628,0.6955 0.0212,8.8183 0.0212,8.81831 0.73158,-0.64051 c 0.40237,-0.35227 1.08195,-0.95111 1.51019,-1.33074 z M 62.365196,185.96532 c 4.506107,-0.28093 9.13425,-2.21997 12.579461,-5.27037 4.954469,-4.38669 7.59556,-10.70716 7.211902,-17.25905 -0.632604,-10.80329 -9.213858,-19.42021 -20.017784,-20.10097 -0.741472,-0.0467 -1.617799,-0.0658 -1.947395,-0.0424 -0.329593,0.0234 -0.912235,0.0606 -1.294759,0.0828 -1.140446,0.066 -3.367599,0.53521 -4.833711,1.01845 -1.704095,0.56169 -3.574918,1.48439 -5.154306,2.54215 -4.670004,3.12762 -7.953641,8.06974 -9.02441,13.58241 -0.15194,0.78223 -0.293878,1.64133 -0.315419,1.9091 -0.270482,3.36229 0.01577,5.96644 0.978572,8.90237 2.844176,8.67295 10.86426,14.5447 20.079104,14.70052 0.301117,0.005 1.083552,-0.0242 1.738745,-0.065 z m 73.592584,-0.62123 c 1.91045,-0.38252 3.48225,-0.6955 3.4929,-0.6955 0.0107,0 0.0193,-2.89501 0.0193,-6.43336 v -6.43335 h 6.42759 6.42761 l 0.0696,-0.33036 c 0.0383,-0.1817 0.20188,-0.99543 0.36363,-1.80829 l 0.29404,-1.47794 h 2.40952 c 1.94041,0 2.48922,-0.0207 2.81885,-0.10661 1.96686,-0.51231 3.07843,-2.64275 2.40126,-4.60231 -0.30531,-0.88347 -1.19982,-1.78218 -2.10632,-2.1162 -0.41516,-0.15296 -0.52869,-0.15994 -2.97823,-0.1831 l -2.54664,-0.024 -0.29327,-1.47405 c -0.16129,-0.81073 -0.32457,-1.62272 -0.36284,-1.80442 l -0.0696,-0.33036 h -6.42761 -6.42759 v -6.42306 -6.42305 l -3.56359,-0.71263 -3.56358,-0.71263 -3.56597,0.71261 -3.56595,0.7126 0.002,6.40569 0.002,6.40569 -6.4291,0.0178 -6.42911,0.0177 -0.0695,0.33001 c -0.0383,0.18149 -0.20181,0.99506 -0.36354,1.80792 l -0.29405,1.47794 h -2.37475 c -1.90802,0 -2.45511,0.0209 -2.78361,0.1065 -1.8724,0.48769 -3.04707,2.42147 -2.57407,4.23747 0.24385,0.93622 0.99729,1.90602 1.77135,2.28003 0.77432,0.37413 1.01069,0.40053 3.58633,0.40053 h 2.37475 l 0.29405,1.47793 c 0.16173,0.81287 0.32535,1.62659 0.36361,1.8083 l 0.0696,0.33036 6.44497,-1e-5 6.44498,-1e-5 -0.0185,6.43001 -0.0185,6.43002 0.26187,0.0489 c 0.14403,0.027 1.70156,0.33796 3.46116,0.69116 1.75961,0.35321 3.27842,0.64565 3.37514,0.64989 0.0968,0.004 1.73894,-0.30529 3.6494,-0.68781 z m 69.44409,0.6208 c 0.79717,-0.0518 1.58547,-0.15965 2.5747,-0.35211 10.50014,-2.04294 17.88546,-11.61115 17.19799,-22.2812 -0.30523,-4.73752 -2.15421,-9.21459 -5.27901,-12.78255 -4.32337,-4.93651 -10.78056,-7.62018 -17.36123,-7.2155 -9.60956,0.59094 -17.68137,7.60528 -19.5977,17.03024 -0.29058,1.42912 -0.30493,1.53903 -0.41868,3.20725 -0.22795,3.34295 0.58738,7.30703 2.15918,10.49776 2.90256,5.89217 8.41918,10.17289 14.81438,11.49549 2.03205,0.42024 3.78311,0.53893 5.91037,0.40062 z m -95.83528,-38.89057 0.003,-5.23362 1.5793,-1.37494 c 1.3415,-1.1679 1.84112,-1.54942 3.31804,-2.53367 1.48519,-0.98975 2.0126,-1.29489 3.6166,-2.09243 1.69187,-0.84123 2.07758,-1.00182 3.89478,-1.62155 1.87369,-0.63898 2.16514,-0.71736 4.10344,-1.10338 1.99775,-0.39788 2.17623,-0.42148 4.19618,-0.55483 l 2.10969,-0.13927 2.06329,0.1401 c 1.93454,0.13138 2.19352,0.16562 4.1498,0.5486 1.96899,0.38548 2.20009,0.44744 4.10344,1.10011 1.76707,0.60596 2.24764,0.80491 3.87917,1.60601 1.62877,0.79973 2.08217,1.06115 3.61657,2.08526 1.52079,1.01501 1.96529,1.35618 3.33837,2.56241 l 1.58399,1.39151 -0.002,5.22666 -0.002,5.22665 h 9.49438 9.49439 v -5.17722 -5.17723 l -5.4075,-0.0248 c -5.23683,-0.024 -5.42833,-0.0296 -6.0682,-0.17458 -1.29685,-0.29389 -2.25419,-0.69789 -3.30743,-1.39575 -2.13053,-1.41163 -3.4857,-3.41271 -4.08294,-6.02897 -0.13928,-0.61019 -0.14354,-0.84786 -0.16947,-9.4414 -0.0146,-4.84848 -0.0427,-8.81543 -0.0624,-8.81543 -0.0197,0 -0.69333,0.58004 -1.49703,1.28898 -1.25138,1.10382 -1.71459,1.45804 -3.22484,2.46602 -1.50556,1.00483 -2.04169,1.3162 -3.66431,2.12813 -1.75974,0.88054 -2.05226,1.00211 -3.94399,1.63925 -1.90039,0.64006 -2.18977,0.71691 -4.13821,1.09905 -2.09178,0.41025 -2.45944,0.45406 -5.01603,0.59782 -0.42078,0.0236 -0.8364,0.054 -0.92362,0.0675 -0.0872,0.0134 -1.19826,-0.049 -2.46901,-0.13878 -2.20302,-0.15566 -2.39788,-0.18105 -4.19044,-0.54633 -1.66509,-0.3393 -2.11425,-0.46236 -3.92956,-1.07657 -1.87078,-0.63297 -2.2134,-0.77497 -3.92742,-1.62765 -1.62025,-0.80603 -2.12113,-1.09674 -3.65137,-2.11927 -1.53114,-1.02315 -1.97988,-1.3671 -3.28348,-2.51675 l -1.50997,-1.33162 -0.0216,8.85054 c -0.0216,8.80309 -0.0225,8.8541 -0.17309,9.51128 -0.30512,1.33137 -0.75415,2.37173 -1.49078,3.45391 -1.35593,1.992 -3.42864,3.37468 -5.90085,3.93643 -0.64069,0.14559 -0.82475,0.15086 -6.068225,0.17424 l -5.407495,0.0241 v 5.17756 5.17757 h 9.49355 9.49354 l 0.003,-5.23362 z M 50.531397,134.1962 c 1.766764,-0.60554 2.069269,-0.68645 4.024985,-1.07642 2.030983,-0.40497 2.198532,-0.42722 4.234969,-0.56237 2.0478,-0.1359 2.790608,-0.14071 21.716921,-0.14071 h 19.596598 v -19.58078 c 0,-18.907508 0.005,-19.654227 0.14075,-21.716918 0.13558,-2.057589 0.15627,-2.213904 0.56237,-4.250789 0.39007,-1.95637 0.47069,-2.257801 1.07716,-4.027298 0.36056,-1.051959 0.64582,-1.922385 0.63392,-1.93428 -0.0119,-0.01189 -1.13114,-0.0246 -2.48719,-0.02826 l -2.465578,-0.0067 -5.25101,2.589227 -5.251009,2.589226 -4.972808,3.317178 -4.97281,3.317179 -4.470947,3.921782 -4.470952,3.921783 -3.901993,4.45119 -3.901993,4.45118 -3.316691,4.97281 -3.316691,4.97281 -2.60944,5.29216 -2.60944,5.29214 0.03359,2.44527 c 0.01847,1.34488 0.0411,2.44525 0.05028,2.44525 0.0091,0 0.876325,-0.29462 1.927008,-0.65474 z m 165.601623,-1.7827 0.0409,-2.43743 -1.42953,-2.90051 c -0.78625,-1.59528 -1.969,-3.99592 -2.62837,-5.33475 l -1.19883,-2.43424 -3.33081,-4.9734 -3.33081,-4.97338 -3.88273,-4.42789 -3.88274,-4.42788 -4.42663,-3.882743 -4.42665,-3.88273 -4.97463,-3.328058 -4.97463,-3.328061 -1.87785,-0.923932 c -1.03282,-0.508163 -3.41143,-1.680942 -5.28578,-2.606177 l -3.40793,-1.682245 -0.59118,0.0017 c -0.32515,9.86e-4 -1.44305,0.0033 -2.48421,0.0051 l -1.89304,0.0033 0.65321,1.930007 c 0.60044,1.774085 0.68718,2.10138 1.07382,4.051276 0.40052,2.019782 0.42739,2.221385 0.56172,4.213912 0.1365,2.024235 0.1411,2.734157 0.1411,21.716921 v 19.62431 l 19.59565,-7.9e-4 c 19.16087,-7.9e-4 19.64426,0.003 21.78648,0.14548 2.11188,0.14067 2.26349,0.16059 4.20775,0.55305 1.82656,0.36871 2.19751,0.4689 3.92957,1.06145 1.05193,0.35987 1.93118,0.6589 1.95385,0.6645 0.0227,0.006 0.0596,-1.08667 0.0822,-2.42725 z m -82.19219,-17.97284 c 10.56554,-0.74943 19.06157,-9.32685 19.71957,-19.90843 0.53645,-8.627368 -4.09554,-16.669636 -11.82568,-20.532173 -3.05401,-1.526016 -6.88202,-2.352571 -10.21271,-2.205164 -1.58559,0.07017 -1.90932,0.10839 -3.41903,0.403595 -5.5322,1.081752 -10.44914,4.348759 -13.57934,9.02262 -4.84529,7.234742 -4.85973,16.553274 -0.0368,23.783952 3.90155,5.84943 10.40681,9.37436 17.58054,9.52617 0.21039,0.004 1.00846,-0.0363 1.77351,-0.0906 z"
       id="path4021"
       inkscape:connector-curvature="0" />
  </g>
</svg>
