<?xml version="1.0" encoding="UTF-8" standalone="no"?>
<!-- Created with Inkscape (http://www.inkscape.org/) -->

<svg
   xmlns:dc="http://purl.org/dc/elements/1.1/"
   xmlns:cc="http://creativecommons.org/ns#"
   xmlns:rdf="http://www.w3.org/1999/02/22-rdf-syntax-ns#"
   xmlns:svg="http://www.w3.org/2000/svg"
   xmlns="http://www.w3.org/2000/svg"
   xmlns:sodipodi="http://sodipodi.sourceforge.net/DTD/sodipodi-0.dtd"
   xmlns:inkscape="http://www.inkscape.org/namespaces/inkscape"
   width="1000"
   height="1000"
   viewBox="0 0 264.58333 264.58334"
   version="1.1"
   id="svg8"
   inkscape:version="0.92.4 (5da689c313, 2019-01-14)"
   sodipodi:docname="28T_Turntable.svg">
  <defs
     id="defs2" />
  <sodipodi:namedview
     id="base"
     pagecolor="#000000"
     bordercolor="#666666"
     borderopacity="1.0"
     inkscape:pageopacity="0"
     inkscape:pageshadow="2"
     inkscape:zoom="1.4"
     inkscape:cx="590.71845"
     inkscape:cy="374.80953"
     inkscape:document-units="mm"
     inkscape:current-layer="layer1"
     showgrid="false"
     inkscape:pagecheckerboard="true"
     inkscape:window-width="3732"
     inkscape:window-height="2032"
     inkscape:window-x="108"
     inkscape:window-y="54"
     inkscape:window-maximized="1"
     units="px" />
  <metadata
     id="metadata5">
    <rdf:RDF>
      <cc:Work
         rdf:about="">
        <dc:format>image/svg+xml</dc:format>
        <dc:type
           rdf:resource="http://purl.org/dc/dcmitype/StillImage" />
        <dc:title></dc:title>
      </cc:Work>
    </rdf:RDF>
  </metadata>
  <g
     inkscape:label="Layer 1"
     inkscape:groupmode="layer"
     id="layer1"
     transform="translate(0,-32.41665)">
    <path
       style="fill:#000000;stroke-width:0.0683892"
       d="m 128.75275,295.7816 c -0.0441,-0.12225 -1.01653,-3.02043 -2.16094,-6.44041 l -2.08076,-6.21813 v -3.27087 c 0,-1.79896 -0.008,-3.27284 -0.0171,-3.27527 -0.0287,-0.007 -4.5046,-0.51375 -7.46627,-0.84462 -1.5393,-0.17197 -2.80616,-0.30519 -2.81525,-0.29604 -0.009,0.009 -0.32774,1.38613 -0.70811,3.05996 -0.38038,1.67383 -0.71949,3.12672 -0.75359,3.22865 -0.0341,0.10194 -1.37719,2.34851 -2.98464,4.9924 -4.09216,6.7307 -4.06576,6.6882 -4.15383,6.68413 -0.0436,-0.002 -1.38669,-0.30448 -2.98474,-0.67213 l -2.905499,-0.66846 -0.0527,-0.19984 c -0.02904,-0.1099 -0.269168,-2.43103 -0.533685,-5.15805 -0.264515,-2.72701 -0.55244,-5.67368 -0.639836,-6.54815 l -0.158894,-1.58994 0.732323,-3.19729 c 0.402782,-1.75853 0.713982,-3.21605 0.691553,-3.23893 -0.101432,-0.10351 -9.735928,-3.42067 -9.783246,-3.36837 -0.02931,0.0324 -0.680562,1.36682 -1.447218,2.96536 l -1.393923,2.90647 -1.3687,1.40205 c -0.752781,0.77115 -2.871165,2.94852 -4.707517,4.83863 -1.836354,1.8901 -3.364488,3.43656 -3.395859,3.43656 -0.05811,0 -0.753657,-0.32724 -3.008953,-1.41556 -0.69586,-0.3358 -1.549871,-0.74496 -1.8978,-0.90922 -0.347931,-0.16428 -0.632602,-0.31674 -0.632602,-0.33881 0,-0.022 0.384451,-3.05501 0.854332,-6.73988 l 0.854339,-6.69973 1.402505,-2.90791 c 0.771383,-1.59933 1.402444,-2.93862 1.402361,-2.97617 0,-0.0376 -0.854085,-0.60503 -1.897799,-1.26109 -1.043708,-0.65608 -3.012976,-1.89309 -4.376151,-2.74892 l -2.478499,-1.55607 -2.047176,2.56466 -2.047183,2.56468 -3.168107,2.05753 c -5.287354,3.43388 -7.975659,5.17185 -8.116211,5.24706 -0.115825,0.0619 -0.453936,-0.18362 -2.533609,-1.84044 l -2.399949,-1.91197 0.131756,-0.36083 c 0.07246,-0.19848 1.122856,-3.06906 2.334196,-6.37909 l 2.202439,-6.01826 1.983874,-2.49619 c 1.091129,-1.37293 2.008838,-2.52848 2.039353,-2.56792 0.03411,-0.0441 -1.359384,-1.4862 -3.617367,-3.74361 l -3.672847,-3.67193 -2.553602,2.04024 -2.5536,2.04025 -5.721492,2.09489 c -3.146821,1.15221 -6.02232,2.20312 -6.389999,2.33537 l -0.668504,0.24048 -1.865402,-2.34172 c -1.025971,-1.28794 -1.887023,-2.37745 -1.913448,-2.42111 -0.02676,-0.0443 0.141403,-0.36908 0.379646,-0.73343 0.235233,-0.35972 1.900725,-2.92452 3.701099,-5.69951 l 3.273406,-5.04544 2.555201,-2.03222 2.555203,-2.03223 -1.557976,-2.48145 c -0.856884,-1.36483 -2.094481,-3.33549 -2.750214,-4.37928 -0.65573,-1.0438 -1.223408,-1.89744 -1.261506,-1.897 -0.0381,7.8e-4 -1.374414,0.63135 -2.969589,1.40202 l -2.90032,1.4012 -5.067022,0.64725 c -7.314801,0.93434 -8.399803,1.06933 -8.421289,1.04765 -0.01059,-0.0107 -0.240866,-0.48105 -0.511734,-1.04526 -0.270865,-0.56421 -0.677382,-1.41052 -0.903365,-1.88071 -0.942069,-1.96003 -1.214689,-2.54288 -1.214689,-2.59696 0,-0.0518 8.563213,-8.40857 9.413427,-9.18655 0.297884,-0.27258 0.844197,-0.56151 3.217763,-1.70185 1.572431,-0.75544 2.885405,-1.39736 2.917724,-1.42649 0.03232,-0.0291 -0.0041,-0.23272 -0.08091,-0.45241 -0.07682,-0.2197 -0.323245,-0.92263 -0.547604,-1.56206 -0.224359,-0.63945 -0.767717,-2.19359 -1.207459,-3.45366 -0.439747,-1.26007 -0.907006,-2.59879 -1.038358,-2.97493 -0.438825,-1.25662 -0.486614,-1.36808 -0.580391,-1.35361 -0.05053,0.008 -1.50754,0.33534 -3.237787,0.72787 -3.074347,0.69747 -3.157569,0.71235 -3.658821,0.65451 -0.282106,-0.0326 -1.328461,-0.13763 -2.325232,-0.23351 -7.8720946,-0.75715 -10.5324294,-1.03331 -10.5906531,-1.09939 -0.096972,-0.11004 -1.3923952,-5.92361 -1.3321709,-5.97848 0.1604184,-0.14616 11.465654,-6.99125 11.645576,-7.05117 0.09606,-0.032 1.543939,-0.36915 3.217498,-0.74925 1.673558,-0.38011 3.052427,-0.70071 3.064157,-0.71244 0.02108,-0.0211 -1.047098,-9.64346 -1.118173,-10.07274 l -0.03681,-0.22227 h -3.230687 -3.230688 l -6.4774795,-2.16035 -6.47748145,-2.16035 v -3.0888 -3.08879 l 6.41189315,-2.13689 6.4118928,-2.13689 h 3.296275 3.296275 l 0.03677,-0.22226 c 0.04073,-0.24629 1.132052,-9.98225 1.132052,-10.09936 0,-0.0404 -0.05385,-0.0741 -0.119681,-0.0749 -0.06582,-7.8e-4 -1.508936,-0.31976 -3.206911,-0.70888 l -3.087231,-0.70748 -0.810954,-0.49854 c -0.446025,-0.2742 -1.14948,-0.70405 -1.563236,-0.95521 -0.413753,-0.25117 -1.19852,-0.72803 -1.743923,-1.05967 -0.545404,-0.33166 -1.3301706,-0.80867 -1.7439245,-1.06004 -1.3157161,-0.79932 -2.7119148,-1.64862 -3.4878496,-2.12162 -0.4137556,-0.25222 -1.0677743,-0.65069 -1.4533795,-0.88551 -0.3856014,-0.23482 -0.7161525,-0.4513 -0.7345536,-0.48107 -0.033004,-0.0534 1.2892854,-5.92973 1.3473792,-5.98781 0.031457,-0.0315 2.7279703,-0.30534 9.470812,-0.96194 l 4.048182,-0.3942 3.195213,0.73098 c 1.757368,0.40204 3.19998,0.7232 3.205806,0.71371 0.06654,-0.10839 3.400064,-9.77184 3.378397,-9.79351 -0.02715,-0.0271 -1.197863,-0.59592 -3.103712,-1.50791 -0.413756,-0.19798 -1.207942,-0.57868 -1.764859,-0.84599 l -1.012577,-0.48602 -4.561142,-4.43851 c -2.508629,-2.44119 -4.697444,-4.57951 -4.864033,-4.75183 l -0.302889,-0.31331 1.323672,-2.74101 c 0.728018,-1.50757 1.341333,-2.7512 1.362921,-2.76363 0.02159,-0.0124 0.23929,0.004 0.483781,0.0355 0.244492,0.032 3.257586,0.4159 6.695766,0.85308 l 6.251241,0.79491 1.203183,0.57882 c 0.661752,0.31836 1.631398,0.78479 2.154767,1.03653 0.523371,0.25174 1.308137,0.63095 1.743926,0.84269 0.592259,0.28776 0.812422,0.36548 0.871858,0.30775 0.05678,-0.0551 5.003619,-7.8989 5.445021,-8.63368 0.02754,-0.0458 -0.977239,-0.890555 -2.521797,-2.120068 l -2.567575,-2.043864 -3.437978,-5.300163 c -1.890889,-2.915091 -3.551272,-5.478708 -3.689742,-5.696929 -0.215243,-0.339211 -0.239159,-0.414428 -0.16487,-0.518517 0.04779,-0.06696 0.912117,-1.15309 1.920725,-2.41361 l 1.833834,-2.29186 1.072709,0.38883 c 0.589988,0.213855 3.457781,1.262472 6.37287,2.33026 l 5.300164,1.941434 2.548534,2.035968 c 1.401693,1.119783 2.571257,2.035969 2.599029,2.035969 0.02777,0 1.69387,-1.64359 3.702436,-3.65242 l 3.651942,-3.652419 -2.042138,-2.5539 -2.042139,-2.553901 -0.333124,-0.889061 c -0.183219,-0.488983 -0.46683,-1.258361 -0.630246,-1.709729 -0.163417,-0.451368 -0.501373,-1.374623 -0.751016,-2.051678 -0.249641,-0.677053 -0.588168,-1.600306 -0.75228,-2.051674 -0.164113,-0.451369 -0.502403,-1.374623 -0.751759,-2.051676 -0.249354,-0.677053 -0.652427,-1.784958 -0.895717,-2.462011 -0.24329,-0.677054 -0.473961,-1.304932 -0.512603,-1.395285 -0.03864,-0.09036 -0.0457,-0.188379 -0.01569,-0.217833 0.03001,-0.02945 1.11392,-0.898312 2.40869,-1.930798 l 2.354124,-1.877249 0.313054,0.193235 c 0.17218,0.106278 2.728903,1.758642 5.681607,3.671922 l 5.368552,3.478687 2.051676,2.574574 c 1.209079,1.517235 2.087739,2.56237 2.139495,2.544859 0.06606,-0.02236 6.306414,-3.924911 8.45932,-5.290242 l 0.287694,-0.182452 -0.348258,-0.718574 c -0.1915,-0.395215 -0.569502,-1.179187 -0.839967,-1.742158 -0.270466,-0.562971 -0.756324,-1.573991 -1.079689,-2.246713 l -0.587928,-1.223127 -0.855719,-6.703192 c -0.470648,-3.686754 -0.831107,-6.727482 -0.801015,-6.757172 0.03008,-0.02969 1.282605,-0.64462 2.783378,-1.366509 l 2.728682,-1.31253 0.797266,0.812569 c 0.438493,0.446911 2.568549,2.639338 4.733451,4.872059 l 3.936188,4.059489 1.421832,2.959867 1.421834,2.959865 0.451157,-0.155688 c 0.609264,-0.210245 8.876048,-3.108454 9.143676,-3.20563 l 0.212245,-0.07706 -0.731594,-3.195975 -0.731585,-3.195973 0.634076,-6.481098 c 0.664751,-6.794503 0.684895,-6.989349 0.727225,-7.03168 0.01452,-0.0145 1.317341,-0.320858 2.895201,-0.680795 1.57785,-0.359936 2.91798,-0.669252 2.97807,-0.687368 0.0832,-0.02508 0.94989,1.3495 3.63454,5.764342 3.03881,4.997228 3.5399,5.858629 3.63091,6.241811 0.0581,0.244491 0.17104,0.736893 0.25104,1.094228 0.08,0.357333 0.20315,0.895897 0.27364,1.196811 0.42163,1.799675 0.82024,3.578331 0.82024,3.659996 0,0.01948 2.32352,-0.226706 5.16338,-0.547087 l 5.16337,-0.582508 -7.7e-4,-3.248489 -7.8e-4,-3.248488 2.16326,-6.479876 2.16325,-6.479877 h 3.08649 3.08649 l 2.13688,6.411894 2.13689,6.411893 7.7e-4,3.31647 7.9e-4,3.316473 4.87237,0.545291 c 2.67981,0.299912 5.01087,0.556218 5.18013,0.569571 l 0.30775,0.02428 0.71113,-3.134165 c 0.39112,-1.723792 0.75021,-3.212392 0.79797,-3.307999 0.0703,-0.14059 5.98501,-9.886063 6.79645,-11.198172 0.15745,-0.254587 0.25668,-0.351419 0.33586,-0.327757 0.0618,0.01848 1.40237,0.327219 2.97898,0.686107 1.5766,0.358889 2.87491,0.660871 2.88511,0.671073 0.0217,0.02176 0.40533,3.850751 0.95387,9.521911 l 0.39028,4.034962 -0.7271,3.174167 c -0.3999,1.745791 -0.71929,3.180843 -0.70976,3.189002 0.0147,0.01256 4.72368,1.663748 8.66857,3.039576 l 1.12842,0.393552 1.40197,-2.933563 1.40199,-2.93356 3.68873,-3.811093 c 2.02879,-2.096105 4.16915,-4.298022 4.75633,-4.893155 l 1.06762,-1.082058 0.88577,0.423694 c 4.94622,2.365965 4.66772,2.221941 4.64078,2.400047 -0.0134,0.08858 -0.39739,3.115458 -0.85334,6.726408 l -0.82896,6.565364 -1.42887,2.969953 c -0.78589,1.633473 -1.42152,2.97655 -1.4125,2.984615 0.009,0.008 1.98236,1.249397 4.38523,2.758512 2.92848,1.839224 4.39405,2.722702 4.44529,2.67971 0.042,-0.03527 0.96892,-1.18584 2.05974,-2.556811 l 1.98329,-2.492674 3.14591,-2.041486 c 1.73023,-1.122818 4.29627,-2.78675 5.70227,-3.69763 l 2.55638,-1.656143 0.65792,0.522706 c 2.85683,2.269741 4.14261,3.327624 4.12424,3.39321 -0.0417,0.149008 -0.65843,1.84396 -2.628,7.223444 l -1.99062,5.436943 -1.95426,2.457424 c -1.07483,1.351582 -1.99686,2.51678 -2.04897,2.589327 -0.0879,0.122522 0.16488,0.391519 3.55602,3.783089 2.00787,2.008153 3.66738,3.651189 3.68778,3.651189 0.0204,0 1.18994,-0.917205 2.59902,-2.038235 l 2.56195,-2.038231 5.26597,-1.927908 c 2.89627,-1.060347 5.76155,-2.107619 6.36727,-2.327267 l 1.10131,-0.399362 1.91816,2.399313 1.91814,2.39931 -0.14437,0.239362 c -0.0794,0.131649 -1.74591,2.705463 -3.70334,5.719585 l -3.55945,5.480221 -2.42781,1.930921 c -1.33531,1.062003 -2.48273,1.983071 -2.54982,2.046821 -0.11621,0.11038 0.008,0.32321 2.62305,4.48856 1.50978,2.40499 2.75207,4.38038 2.76067,4.38978 0.008,0.009 1.35178,-0.62575 2.98487,-1.41143 l 2.96924,-1.42851 6.53115,-0.82951 c 3.59216,-0.45623 6.62038,-0.83667 6.72938,-0.84542 0.19638,-0.0157 0.21051,0.0102 1.53013,2.75386 l 1.33193,2.76976 -1.6669,1.62659 c -0.91679,0.89462 -3.11333,3.02865 -4.8812,4.74229 l -3.2143,3.1157 -2.94731,1.41675 -2.94732,1.41675 1.70861,4.88582 c 0.93971,2.68719 1.71509,4.89398 1.72304,4.90396 0.008,0.0102 1.45689,-0.31118 3.21988,-0.71368 l 3.20543,-0.73182 6.46489,0.63204 c 3.5557,0.34763 6.59298,0.64939 6.74952,0.67059 l 0.28458,0.0385 0.11087,0.48763 c 0.0609,0.2682 0.21786,0.94926 0.34866,1.51347 0.13077,0.56421 0.28365,1.24126 0.3397,1.50456 0.056,0.2633 0.20723,0.92496 0.33595,1.47037 0.21668,0.91805 0.22558,0.9983 0.11971,1.0812 -0.15272,0.11959 -11.13896,6.80323 -11.39973,6.93518 -0.11221,0.0568 -1.6119,0.42288 -3.33265,0.81358 -2.40248,0.54546 -3.12957,0.73414 -3.13261,0.81291 -0.002,0.0565 0.25165,2.38763 0.56405,5.18045 l 0.56803,5.07788 3.31646,2e-5 3.31646,4e-5 6.4119,2.13689 6.41189,2.13689 v 3.0878 3.08779 l -6.47988,2.16167 -6.47986,2.16166 h -3.2501 -3.25009 l -0.57606,5.12714 c -0.31682,2.81993 -0.56228,5.14037 -0.54549,5.15653 0.0169,0.0161 1.45454,0.35471 3.19501,0.75232 l 3.16448,0.72295 5.24738,3.19308 c 2.88608,1.7562 5.50201,3.34632 5.81319,3.53358 0.40939,0.24637 0.55669,0.37094 0.53287,0.45064 -0.0181,0.0606 -0.32695,1.4005 -0.68627,2.97758 -0.35931,1.57709 -0.6666,2.88072 -0.68285,2.89697 -0.0422,0.0422 -0.49542,0.089 -7.34638,0.75877 l -6.16434,0.60257 -3.19681,-0.73006 c -3.12573,-0.71383 -3.19796,-0.7269 -3.24827,-0.58794 -0.0283,0.0782 -0.80163,2.281 -1.7185,4.89517 l -1.66704,4.75305 0.69456,0.34195 c 0.38202,0.18807 1.35537,0.659 2.16303,1.04652 0.80765,0.38752 1.83004,0.87992 2.27198,1.09423 l 0.80354,0.38965 4.85566,4.71164 c 2.67064,2.5914 4.85528,4.73028 4.85474,4.75305 -0.002,0.0669 -2.59808,5.43755 -2.65777,5.49724 -0.03,0.03 -0.91347,-0.0553 -1.96343,-0.18942 -1.04996,-0.13413 -2.62457,-0.33494 -3.49915,-0.4463 -0.87458,-0.11134 -2.31334,-0.29477 -3.19728,-0.40761 -0.88393,-0.11284 -2.32264,-0.29495 -3.19711,-0.40468 l -1.58996,-0.19949 -1.2652,-0.60945 c -1.92863,-0.92899 -3.16194,-1.52223 -3.95831,-1.90402 l -0.72271,-0.34649 -2.72564,4.33847 c -1.49907,2.38617 -2.73725,4.3732 -2.75146,4.41563 -0.0141,0.0424 1.13276,1.00043 2.5488,2.12885 l 2.57465,2.05169 2.28166,3.52202 c 1.2549,1.93713 2.86931,4.42992 3.58756,5.53954 0.71826,1.1096 1.34645,2.07973 1.39598,2.15581 0.0829,0.12722 -0.061,0.32758 -1.79254,2.4962 -1.03545,1.29685 -1.90529,2.38093 -1.93299,2.40907 -0.0277,0.0281 -0.17201,0.005 -0.32064,-0.0504 -0.14864,-0.0558 -2.87073,-1.05285 -6.04913,-2.21544 -3.17837,-1.16262 -5.93403,-2.17318 -6.12362,-2.24572 -0.24278,-0.0929 -1.09911,-0.7356 -2.89493,-2.17275 l -2.55018,-2.04088 -3.65392,3.65312 c -2.00964,2.00919 -3.63951,3.69085 -3.62191,3.73696 0.0177,0.0461 0.93396,1.2156 2.03634,2.59881 l 2.00434,2.51491 1.93037,5.26597 c 1.06172,2.89628 2.11185,5.76642 2.33364,6.37808 l 0.40329,1.11211 -2.29622,1.82862 c -1.26294,1.00574 -2.35063,1.86783 -2.4171,1.91573 -0.14357,0.10346 0.57832,0.55159 -6.31748,-3.92158 l -5.19849,-3.37215 -2.04471,-2.56943 c -1.9446,-2.44364 -2.05171,-2.56491 -2.18754,-2.47686 -0.0786,0.0509 -2.02011,1.27018 -4.31457,2.7095 -2.29446,1.43932 -4.20683,2.65202 -4.24968,2.69492 -0.0583,0.0584 0.2794,0.81869 1.34281,3.02284 l 1.42078,2.9449 0.1846,1.46622 c 0.23958,1.90301 0.53045,4.18931 0.75645,5.9457 0.59932,4.65756 0.75371,6.02671 0.68535,6.07789 -0.0396,0.0297 -1.28095,0.63399 -2.75865,1.34303 l -2.68673,1.28919 -0.3809,-0.37138 c -0.20949,-0.20427 -2.33955,-2.38321 -4.7335,-4.8421 l -4.3526,-4.47072 -0.35893,-0.72686 c -0.42521,-0.86104 -1.70416,-3.51212 -2.17353,-4.50536 -0.18219,-0.38554 -0.35435,-0.701 -0.3826,-0.701 -0.0927,0 -9.66729,3.35867 -9.71895,3.40931 -0.0277,0.0272 -0.006,0.23292 0.0479,0.45722 0.21904,0.9085 1.03918,4.52827 1.23129,5.43441 l 0.12324,0.5813 -0.28579,2.90653 c -0.86498,8.79732 -1.03641,10.49072 -1.06493,10.51923 -0.0593,0.0593 -5.93115,1.37984 -5.98568,1.34612 -0.0301,-0.0186 -0.23728,-0.33384 -0.4606,-0.70064 -0.22332,-0.36682 -0.84644,-1.39017 -1.38472,-2.27411 -0.53827,-0.88392 -1.06193,-1.74562 -1.16367,-1.91488 -0.10174,-0.16928 -0.53288,-0.87709 -0.95808,-1.57295 -0.4252,-0.69586 -0.90218,-1.48064 -1.05995,-1.74395 -0.15777,-0.26327 -0.63534,-1.04805 -1.06127,-1.74391 -0.42594,-0.69586 -0.83066,-1.37291 -0.89938,-1.50456 -0.0687,-0.13165 -0.43683,-1.62425 -0.81801,-3.31688 -0.38119,-1.69264 -0.71406,-3.1012 -0.73973,-3.13013 -0.0377,-0.0426 -9.15235,0.93845 -10.07325,1.08411 l -0.25645,0.0406 v 3.29336 3.29335 l -2.13689,6.4119 -2.13689,6.41189 h -3.0882 -3.08819 l -0.0802,-0.22226 z m -40.031913,-48.98467 -0.497628,-4.03588 -1.974738,-3.45275 -1.974731,-3.45275 -4.381779,-3.3493 -4.381779,-3.34933 -3.953367,-3.93412 -3.953362,-3.93413 -3.458756,-4.50158 c -2.251423,-2.93023 -3.54514,-4.55757 -3.706226,-4.662 -0.136108,-0.0882 -1.693902,-0.9834 -3.461762,-1.98926 l -3.214292,-1.82883 -1.846509,-0.22845 c -1.01558,-0.12565 -2.723601,-0.3365 -3.795601,-0.46853 -1.072001,-0.13204 -2.084441,-0.25768 -2.249869,-0.27922 l -0.300778,-0.0392 0.133072,0.22797 c 0.07319,0.12539 1.469113,2.54481 3.102051,5.3765 1.632938,2.83169 3.000961,5.13983 3.04005,5.12919 0.03909,-0.0107 0.941448,-0.60199 2.005237,-1.31412 1.653816,-1.10712 1.947328,-1.28059 2.025006,-1.19681 0.04997,0.0539 1.708855,2.20607 3.686421,4.78264 l 3.595576,4.68466 4.295851,4.28169 4.295852,4.28169 4.582078,3.50659 c 2.520142,1.92862 4.626043,3.5476 4.679783,3.59772 0.08351,0.0779 -0.09438,0.37961 -1.224829,2.07734 -0.727389,1.09242 -1.30966,1.99908 -1.29393,2.0148 0.109879,0.10988 10.699361,6.18196 10.711363,6.14196 0.0083,-0.0279 -0.208711,-1.86683 -0.482404,-4.08654 z m 91.322233,1.02752 c 2.9151,-1.68095 5.31007,-3.06602 5.32218,-3.07792 0.012,-0.0119 -0.56492,-0.90123 -1.28229,-1.97629 -0.71738,-1.07508 -1.3043,-1.98305 -1.3043,-2.01771 0,-0.0346 2.16193,-1.7253 4.80432,-3.75703 l 4.80434,-3.69402 4.18316,-4.19409 4.18317,-4.1941 3.53613,-4.61627 c 1.94489,-2.53895 3.58998,-4.67304 3.65575,-4.74239 0.1154,-0.1217 0.18823,-0.0803 2.07656,1.17971 1.07634,0.71821 1.98044,1.30472 2.00916,1.30337 0.0915,-0.004 6.22743,-10.69981 6.14729,-10.71527 -0.0422,-0.008 -1.87721,0.20787 -4.07763,0.48007 l -4.00077,0.4949 -3.45367,1.96803 -3.45365,1.96802 -3.39913,4.42502 -3.39915,4.42501 -4.05527,4.04791 -4.05529,4.0479 -4.36705,3.34959 -4.36702,3.34958 -1.97128,3.46213 -1.97128,3.46213 -0.48414,3.94664 c -0.50484,4.11539 -0.51504,4.21372 -0.43158,4.16274 0.0282,-0.0173 2.43636,-1.40668 5.35144,-3.08766 z m -11.58924,-44.1139 c 0.62745,-0.16112 1.09625,-0.41956 1.57733,-0.8696 0.54509,-0.5099 0.94663,-1.27218 1.05387,-2.00066 0.0479,-0.32517 0.0645,-12.03964 0.0519,-36.51984 l -0.0186,-36.0411 -0.15453,-0.45479 c -0.30411,-0.89514 -0.94467,-1.63882 -1.76038,-2.04376 -0.88329,-0.4385 2.13676,-0.40556 -37.23791,-0.4063 -23.89947,-7.7e-4 -36.018492,0.0224 -36.314671,0.0686 -0.599877,0.0935 -1.348937,0.47161 -1.845764,0.93159 -0.459829,0.4257 -0.894476,1.19816 -1.021906,1.81609 -0.05354,0.25965 -0.0696,10.62527 -0.05677,36.64255 l 0.01789,36.28046 0.180608,0.42137 c 0.475156,1.10854 1.342741,1.87663 2.452377,2.17116 0.327386,0.0869 5.061336,0.10042 36.522556,0.10435 32.23634,0.004 36.19052,-0.007 36.55403,-0.10022 z m -118.663799,-82.31191 3.965286,-0.48631 3.452211,-1.9727 3.45221,-1.9727 3.375202,-4.39701 3.375205,-4.397 4.015828,-4.01988 4.01582,-4.01985 4.42186,-3.397043 4.421864,-3.39704 1.972263,-3.453343 1.972263,-3.453345 0.494561,-4.004401 c 0.272006,-2.202419 0.487555,-4.037192 0.478991,-4.07727 -0.01652,-0.0773 -10.712491,6.054366 -10.716265,6.143297 -0.0011,0.0287 0.58541,0.932814 1.303613,2.009146 1.260515,1.889055 1.301454,1.96113 1.179715,2.076911 -0.06936,0.06597 -2.20344,1.711537 -4.742388,3.656819 l -4.616272,3.536875 -4.192176,4.182082 -4.192183,4.182082 -3.672316,4.77875 c -2.019772,2.62832 -3.708021,4.79245 -3.751665,4.8092 -0.04364,0.0168 -0.962239,-0.55868 -2.041325,-1.27872 -1.079084,-0.72004 -1.969875,-1.29927 -1.979531,-1.28717 -0.0096,0.0121 -1.349044,2.33016 -2.976415,5.15121 -1.627369,2.82106 -3.01933,5.22922 -3.093244,5.35146 -0.126817,0.20974 -0.127461,0.22226 -0.0114,0.22226 0.06765,0 1.907377,-0.21884 4.088284,-0.48631 z m 168.414229,0.44962 c 0,-0.0402 -0.43631,-0.81188 -1.46799,-2.59629 -0.36972,-0.63944 -0.9029,-1.56269 -1.18488,-2.05167 -0.87001,-1.50873 -1.47683,-2.56005 -2.03287,-3.52205 -0.29351,-0.5078 -0.72991,-1.26835 -0.96979,-1.69014 -0.23986,-0.4218 -0.46032,-0.78186 -0.48992,-0.80014 -0.0295,-0.0183 -0.92862,0.54992 -1.99788,1.26267 -1.06924,0.71275 -1.97486,1.29428 -2.01246,1.29229 -0.0377,-0.002 -1.73025,-2.17316 -3.76141,-4.82482 l -3.69302,-4.8212 -4.34462,-4.287991 -4.34459,-4.288 -4.56001,-3.487849 c -2.508,-1.918317 -4.56138,-3.518625 -4.56305,-3.55624 -0.002,-0.03762 0.58122,-0.94485 1.29527,-2.01608 1.0059,-1.509032 1.27928,-1.96502 1.21385,-2.024622 -0.0464,-0.04231 -0.7461,-0.456147 -1.55481,-0.919635 -1.41383,-0.810306 -2.41699,-1.388719 -5.98404,-3.450351 -2.68368,-1.551082 -3.05427,-1.756948 -3.09299,-1.718233 -0.0203,0.02031 -0.002,0.322629 0.0416,0.671821 0.0433,0.349193 0.16893,1.373498 0.27934,2.276235 0.1104,0.902738 0.29833,2.426107 0.41761,3.385264 l 0.21687,1.743927 1.97094,3.456853 1.97096,3.456852 4.36378,3.342492 4.36377,3.342487 4.02132,4.00615 4.02132,4.00615 3.43102,4.466 3.43103,4.46601 3.45573,1.9724 3.45574,1.97239 3.86397,0.47886 c 3.94215,0.48856 4.24015,0.52063 4.24015,0.45646 z"
       id="path4053"
       inkscape:connector-curvature="0" />
  </g>
</svg>
