<?xml version="1.0" encoding="UTF-8" standalone="no"?>
<!-- Created with Inkscape (http://www.inkscape.org/) -->

<svg
   xmlns:dc="http://purl.org/dc/elements/1.1/"
   xmlns:cc="http://creativecommons.org/ns#"
   xmlns:rdf="http://www.w3.org/1999/02/22-rdf-syntax-ns#"
   xmlns:svg="http://www.w3.org/2000/svg"
   xmlns="http://www.w3.org/2000/svg"
   xmlns:sodipodi="http://sodipodi.sourceforge.net/DTD/sodipodi-0.dtd"
   xmlns:inkscape="http://www.inkscape.org/namespaces/inkscape"
   width="1000"
   height="1000"
   viewBox="0 0 264.58333 264.58334"
   version="1.1"
   id="svg8"
   inkscape:version="0.92.4 (5da689c313, 2019-01-14)"
   sodipodi:docname="60T_Turntable.svg">
  <defs
     id="defs2" />
  <sodipodi:namedview
     id="base"
     pagecolor="#000000"
     bordercolor="#666666"
     borderopacity="1.0"
     inkscape:pageopacity="0"
     inkscape:pageshadow="2"
     inkscape:zoom="1.4"
     inkscape:cx="582.34174"
     inkscape:cy="552.68134"
     inkscape:document-units="mm"
     inkscape:current-layer="layer1"
     showgrid="false"
     inkscape:pagecheckerboard="true"
     inkscape:window-width="3732"
     inkscape:window-height="2032"
     inkscape:window-x="108"
     inkscape:window-y="54"
     inkscape:window-maximized="1"
     units="px" />
  <metadata
     id="metadata5">
    <rdf:RDF>
      <cc:Work
         rdf:about="">
        <dc:format>image/svg+xml</dc:format>
        <dc:type
           rdf:resource="http://purl.org/dc/dcmitype/StillImage" />
        <dc:title></dc:title>
      </cc:Work>
    </rdf:RDF>
  </metadata>
  <g
     inkscape:label="Layer 1"
     inkscape:groupmode="layer"
     id="layer1"
     transform="translate(0,-32.41665)">
    <path
       style="fill:#ffffff;stroke-width:0.06865412"
       d="m 130.66747,296.23744 c -0.0178,-0.0472 -0.48027,-1.42933 -1.02766,-3.0714 l -0.99527,-2.98555 v -1.5971 -1.59709 l -0.18879,-0.002 c -0.10384,0 -1.31645,-0.0621 -2.69468,-0.13665 -1.37823,-0.0745 -2.56968,-0.13582 -2.64767,-0.13619 -0.13443,0 -0.15013,0.08 -0.30222,1.55174 l -0.16041,1.55241 -1.3319,2.92728 c -0.73255,1.61001 -1.35786,2.95331 -1.38959,2.98513 -0.0622,0.0624 -2.89302,-0.21168 -2.96502,-0.28703 -0.0239,-0.025 -0.35673,-1.46657 -0.73966,-3.20352 l -0.69624,-3.15809 0.16601,-1.54472 c 0.0913,-0.84959 0.15937,-1.55205 0.15125,-1.56101 -0.0131,-0.0144 -2.8792,-0.48181 -4.53624,-0.73973 -0.33984,-0.0529 -0.71829,-0.11682 -0.84101,-0.14206 -0.12272,-0.0253 -0.22313,-0.0283 -0.22313,-0.007 0,0.0216 -0.14191,0.71284 -0.31536,1.53613 l -0.31536,1.49689 -1.64982,2.81482 c -0.90739,1.54816 -1.6585,2.82478 -1.66912,2.83695 -0.0191,0.0219 -2.93206,-0.59425 -2.95212,-0.62439 -0.006,-0.009 -0.17305,-1.46946 -0.37187,-3.24637 l -0.3615,-3.23074 0.32319,-1.52802 c 0.17776,-0.84043 0.31232,-1.5383 0.29905,-1.55083 -0.0133,-0.0127 -1.19812,-0.33646 -2.63299,-0.71982 -1.434869,-0.38337 -2.657029,-0.71115 -2.715897,-0.72839 -0.08539,-0.025 -0.203332,0.27014 -0.582853,1.45858 l -0.4758,1.48998 -1.877641,2.54392 c -1.032703,1.39917 -1.917531,2.58547 -1.96629,2.63623 -0.07389,0.077 -0.322481,0.0154 -1.493315,-0.36972 l -1.404665,-0.46203 -0.04302,-3.23461 -0.04303,-3.23462 0.49054,-1.52675 c 0.269806,-0.83972 0.477319,-1.53697 0.461145,-1.54947 -0.01617,-0.0125 -1.064366,-0.41872 -2.329318,-0.90273 -1.264952,-0.48402 -2.441148,-0.93495 -2.613765,-1.00207 l -0.313854,-0.12204 -0.641695,1.43945 -0.641704,1.43945 -1.986622,2.17621 c -1.092652,1.19693 -2.089311,2.28165 -2.214811,2.41048 l -0.228178,0.23425 -1.27269,-0.56828 c -0.699977,-0.31252 -1.31522,-0.60331 -1.367206,-0.64616 -0.07974,-0.0657 -0.04469,-0.58249 0.224136,-3.30465 l 0.318651,-3.22676 0.63766,-1.43009 c 0.350704,-0.78654 0.627265,-1.43807 0.61457,-1.44782 -0.01271,-0.01 -0.594633,-0.30478 -1.293189,-0.65562 -0.698555,-0.35085 -1.8262,-0.92413 -2.505876,-1.27396 l -1.235774,-0.63606 -0.779649,1.36231 -0.779651,1.36231 -2.241131,1.98484 c -1.232622,1.09165 -2.340082,2.06795 -2.461024,2.16954 l -0.219898,0.1847 -1.273328,-0.73403 c -0.814575,-0.46957 -1.273692,-0.77379 -1.274324,-0.84439 -5.84e-4,-0.0607 0.28118,-1.50062 0.626064,-3.1998 l 0.627059,-3.08944 0.784552,-1.36742 c 0.629923,-1.09792 0.767005,-1.38331 0.69552,-1.44802 -0.203729,-0.18441 -4.599247,-2.99267 -4.653353,-2.97298 -0.03245,0.0119 -0.460019,0.57309 -0.95016,1.24728 l -0.891166,1.22581 -2.632771,1.88295 c -1.448026,1.03563 -2.67953,1.87135 -2.736677,1.85714 -0.05715,-0.0142 -0.619069,-0.4022 -1.248714,-0.8622 -1.112039,-0.81246 -1.143023,-0.84175 -1.08233,-1.02334 0.03436,-0.10281 0.4806,-1.50998 0.991632,-3.12701 l 0.929152,-2.94011 0.896518,-1.23465 c 0.493086,-0.67905 0.886821,-1.26286 0.874969,-1.29737 -0.01185,-0.0345 -0.99472,-0.85221 -2.184154,-1.81709 l -2.162604,-1.75433 -0.164255,0.19054 c -0.09034,0.10478 -0.572687,0.6385 -1.071879,1.18601 l -0.907623,0.99549 -2.826419,1.59903 -2.82642,1.59906 -1.079125,-0.97558 c -0.78726,-0.71173 -1.075939,-1.01423 -1.067339,-1.11847 0.0065,-0.0786 0.580631,-1.44591 1.275882,-3.03848 l 1.264091,-2.89559 0.818071,-0.90717 c 0.449939,-0.49896 0.916302,-1.02108 1.036363,-1.16029 l 0.218292,-0.25307 -2.0033,-1.99938 -2.003299,-1.99939 -1.155274,1.03998 -1.155273,1.03998 -2.962791,1.29273 c -1.629535,0.71099 -2.998307,1.28414 -3.041715,1.27361 -0.04341,-0.0105 -0.515269,-0.50352 -1.048583,-1.09558 l -0.969658,-1.07645 1.003887,-1.77268 c 0.552138,-0.975 1.280065,-2.25917 1.617616,-2.85374 l 0.61373,-1.08106 1.160643,-1.0434 c 0.725931,-0.65259 1.139324,-1.07053 1.103725,-1.11588 -0.707185,-0.90067 -3.40295,-4.20848 -3.465521,-4.25233 -0.05926,-0.0415 -0.477717,0.2239 -1.329971,0.84362 l -1.243502,0.9042 -3.019,0.95411 c -1.66045,0.52475 -3.072319,0.96383 -3.137488,0.97572 -0.08483,0.0156 -0.359636,-0.30992 -0.967415,-1.1455 -0.46691,-0.64192 -0.848673,-1.19802 -0.848361,-1.23577 3.89e-4,-0.0378 0.844629,-1.25107 1.876263,-2.69624 l 1.875694,-2.62759 1.23032,-0.89303 c 0.676673,-0.49116 1.240108,-0.92144 1.252076,-0.95621 0.0197,-0.0572 -2.782475,-4.44541 -2.972941,-4.65558 -0.06451,-0.0712 -0.347272,0.0658 -1.425504,0.69069 l -1.345034,0.77953 -3.112049,0.63168 c -1.711626,0.34742 -3.163845,0.63132 -3.227154,0.63087 -0.06826,0 -0.205245,-0.16147 -0.336566,-0.39557 -0.121805,-0.2171 -0.451556,-0.78877 -0.732781,-1.27037 l -0.511319,-0.87561 0.223841,-0.25718 c 0.123114,-0.14144 1.10016,-1.24778 2.171215,-2.45853 l 1.947376,-2.20137 1.364724,-0.78472 1.364725,-0.78473 -0.703792,-1.37344 c -0.387085,-0.75541 -0.962066,-1.88321 -1.277732,-2.50625 -0.315667,-0.62304 -0.579245,-1.14194 -0.585729,-1.15311 -0.0065,-0.0112 -0.672022,0.27044 -1.478977,0.62583 l -1.467188,0.64613 -3.055108,0.28598 c -1.68031,0.15728 -3.124424,0.29614 -3.209143,0.30856 -0.08472,0.0124 -0.181165,-0.0117 -0.214323,-0.0536 -0.100704,-0.12731 -1.11019,-2.44639 -1.126662,-2.58827 -0.01105,-0.0953 0.6552,-0.74607 2.375627,-2.32052 l 2.390997,-2.18812 1.432091,-0.63462 1.432091,-0.63464 -0.138913,-0.35186 c -0.0764,-0.19353 -0.339086,-0.87707 -0.583744,-1.51899 -0.24466,-0.64191 -0.519527,-1.36041 -0.610815,-1.59665 -0.09129,-0.23623 -0.245479,-0.63786 -0.342646,-0.8925 -0.09717,-0.25464 -0.209809,-0.5486 -0.250319,-0.65325 -0.04051,-0.10465 -0.09966,-0.20634 -0.13145,-0.22599 -0.03179,-0.0197 -0.729262,0.18208 -1.549943,0.44829 l -1.492145,0.48402 -3.242508,-0.046 -3.2425057,-0.046 -0.4559306,-1.40573 c -0.3764752,-1.16075 -0.4400543,-1.42078 -0.3648336,-1.4921 0.050102,-0.0475 1.2335653,-0.92858 2.6299159,-1.95795 l 2.538821,-1.87159 1.477445,-0.47685 c 0.812596,-0.26227 1.484067,-0.48289 1.492159,-0.49027 0.01763,-0.0161 -1.427189,-5.42055 -1.457916,-5.45341 -0.01175,-0.0126 -0.708668,0.1225 -1.548691,0.30017 l -1.527314,0.32304 -1.276083,-0.14498 c -0.701846,-0.0797 -2.1565721,-0.24201 -3.232725,-0.36061 -1.0761549,-0.1186 -1.9642327,-0.22178 -1.9735078,-0.22928 -0.027993,-0.0226 -0.6398449,-2.93937 -0.6196989,-2.95415 0.010275,-0.008 1.2853452,-0.7562 2.8334957,-1.6637 l 2.814819,-1.65001 1.507006,-0.31967 c 0.828854,-0.17582 1.514086,-0.32675 1.52274,-0.33541 0.02,-0.02 -0.855099,-5.55267 -0.8817,-5.57439 -0.01088,-0.009 -0.730339,0.0573 -1.598814,0.14699 l -1.5790445,0.16313 -3.1580897,-0.70504 -3.1580897,-0.70503 -0.1606643,-1.46595 c -0.088367,-0.80627 -0.1347091,-1.49118 -0.1029818,-1.52202 0.031727,-0.0308 1.3861415,-0.65799 3.0098124,-1.39367 l 2.9521261,-1.3376 1.5275545,-0.15659 c 1.446403,-0.14828 1.527511,-0.1641 1.526738,-0.29799 -3.89e-4,-0.0778 -0.06187,-1.25358 -0.136492,-2.61293 -0.07462,-1.35935 -0.136042,-2.57196 -0.136492,-2.69467 l -7.78e-4,-0.22313 H 8.20721 6.6101132 l -2.9512386,-0.98764 c -1.6231825,-0.5432 -3.00530535,-1.00992 -3.07138515,-1.03715 -0.1092366,-0.045 -0.1201445,-0.18546 -0.1201445,-1.54685 v -1.49733 l 3.10660765,-1.03553 3.1066075,-1.03553 H 8.242433 9.804305 l 7.78e-4,-0.1888 c 3.9e-4,-0.10384 0.06187,-1.30099 0.136492,-2.66034 0.07462,-1.35935 0.136042,-2.54961 0.136492,-2.64502 l 7.78e-4,-0.17347 -1.543236,-0.15873 -1.5432387,-0.15873 -2.9707698,-1.35368 -2.9707716,-1.35369 0.023182,-0.47672 c 0.012747,-0.2622 0.074538,-0.93822 0.1373091,-1.50226 l 0.1141252,-1.02554 3.192417,-0.70816 3.192417,-0.70816 1.5447178,0.16267 c 0.849595,0.0895 1.55444,0.15449 1.566323,0.14449 0.02742,-0.0231 0.907068,-5.5461 0.886299,-5.56475 -0.0085,-0.008 -0.692685,-0.15751 -1.520479,-0.33312 L 8.682061,141.9815 7.2006849,141.11775 c -0.8147566,-0.47507 -1.6203995,-0.94836 -1.7903194,-1.05176 -0.169918,-0.1034 -0.7723588,-0.45944 -1.338754,-0.79121 -0.5663971,-0.33176 -1.0375228,-0.60885 -1.0469478,-0.61574 -0.036476,-0.0267 0.594602,-2.87137 0.6475748,-2.91903 0.030855,-0.0278 1.5044217,-0.21264 3.2745892,-0.41084 l 3.2184873,-0.36035 1.506529,0.32336 c 0.828591,0.17786 1.518552,0.31136 1.533247,0.29666 0.03743,-0.0374 1.480742,-5.42654 1.457896,-5.44357 -0.01026,-0.008 -0.681522,-0.22706 -1.491709,-0.48761 l -1.473068,-0.4737 -2.543198,-1.87711 c -1.3987601,-1.0324 -2.5817364,-1.91399 -2.628836,-1.95909 -0.068024,-0.0651 0.00792,-0.37226 0.3692454,-1.4933 l 0.4548836,-1.41132 3.235095,-0.0462 3.235095,-0.0462 1.526198,0.49427 c 0.83941,0.27186 1.537619,0.4808 1.551572,0.46432 0.02092,-0.0247 1.276382,-3.27695 1.869973,-4.84413 l 0.159199,-0.42031 -1.435586,-0.63617 -1.435586,-0.63618 -2.405149,-2.19628 c -1.322833,-1.20796 -2.404639,-2.21547 -2.404013,-2.23892 5.84e-4,-0.0234 0.271328,-0.64507 0.60156,-1.38138 0.59457,-1.32571 0.602423,-1.3386 0.805549,-1.32315 1.568291,0.1193 6.168726,0.58779 6.34967,0.64662 0.228354,0.0743 0.448622,0.16872 1.355918,0.58152 0.926264,0.42142 1.472239,0.65344 1.488242,0.63242 0.0094,-0.0124 0.590386,-1.15015 1.291027,-2.52838 l 1.273895,-2.50588 -1.269191,-0.72087 c -0.698055,-0.39647 -1.386661,-0.82899 -1.530233,-0.96115 -0.143573,-0.13216 -1.103772,-1.19802 -2.133777,-2.36857 -1.030002,-1.17055 -1.931938,-2.195 -2.004302,-2.27655 -0.13134,-0.148022 -0.130272,-0.150502 0.622106,-1.441738 0.444667,-0.763146 0.792003,-1.287992 0.847157,-1.28011 0.05142,0.0074 1.48373,0.295967 3.18292,0.641394 l 3.089435,0.628034 1.368385,0.785428 c 1.096173,0.629182 1.384633,0.767902 1.450065,0.697362 0.04492,-0.0484 0.746951,-1.113541 1.560059,-2.366898 l 1.478379,-2.278837 -1.269288,-0.922567 -1.26929,-0.922568 -1.88228,-2.63194 c -1.035256,-1.447569 -1.88158,-2.663851 -1.880722,-2.70285 7.79e-4,-0.039 0.38751,-0.60119 0.859229,-1.24931 l 0.857668,-1.178399 0.531017,0.16343 c 0.292061,0.08989 1.69792,0.533037 3.124136,0.984778 l 2.593117,0.821346 1.246573,0.906429 c 0.865756,0.629525 1.273793,0.887918 1.335675,0.845838 0.04901,-0.03333 0.86222,-1.017445 1.807144,-2.186929 1.613308,-1.996709 1.710718,-2.133063 1.597865,-2.236675 -0.0661,-0.06069 -0.590511,-0.534271 -1.165362,-1.052409 l -1.045184,-0.94207 -1.043764,-1.833005 C 34.89643,80.371549 34.17019,79.087965 33.856632,78.527294 l -0.570102,-1.019405 0.96794,-1.074547 c 0.532365,-0.591 1.003374,-1.083134 1.046685,-1.093631 0.04331,-0.01051 1.412739,0.563219 3.043174,1.274928 l 2.964428,1.294015 1.153814,1.038657 1.153812,1.038659 2.003404,-1.99948 2.003405,-1.999481 -0.252726,-0.286281 C 47.23147,75.543271 46.759133,75.015745 46.320832,74.528444 l -0.79691,-0.886002 -0.773313,-1.785006 c -0.42532,-0.981754 -0.828509,-1.908584 -0.895977,-2.059623 -0.568469,-1.272653 -0.89284,-2.061989 -0.876082,-2.131899 0.01098,-0.04576 0.505253,-0.520366 1.098405,-1.054674 l 1.078457,-0.971468 2.82626,1.598442 2.826258,1.598441 0.908452,0.995485 c 0.499647,0.547516 0.982366,1.081633 1.072706,1.186929 l 0.164255,0.191442 2.128277,-1.720653 c 1.170553,-0.94636 2.15483,-1.759618 2.187283,-1.807241 0.03993,-0.05859 -0.234754,-0.491937 -0.849689,-1.340474 l -0.908695,-1.253886 -0.885217,-2.794282 c -0.486869,-1.536853 -0.928979,-2.940053 -0.982463,-3.118218 l -0.09725,-0.323938 1.179938,-0.858785 c 0.648969,-0.472333 1.210989,-0.859488 1.248936,-0.860346 0.03795,-7.79e-4 1.25391,0.845026 2.702138,1.879742 l 2.633142,1.881302 0.923281,1.270269 0.923277,1.270266 2.278838,-1.478378 c 1.253357,-0.813109 2.31766,-1.514334 2.365121,-1.558277 0.06824,-0.0632 -0.0083,-0.244338 -0.366016,-0.866505 -0.248755,-0.432636 -0.600951,-1.049209 -0.782642,-1.370168 L 66.321251,57.57738 65.692215,54.487944 c -0.345976,-1.699189 -0.63505,-3.132887 -0.642397,-3.185996 -0.0082,-0.0591 0.487431,-0.386591 1.277448,-0.844139 l 1.290806,-0.747577 0.219585,0.184319 c 0.120775,0.101374 1.226388,1.077089 2.456931,2.168256 l 2.237334,1.983937 0.783446,1.362564 0.78344,1.362565 2.505876,-1.273099 c 1.378232,-0.700205 2.513955,-1.27881 2.523835,-1.28579 0.01512,-0.01068 -0.570069,-1.365531 -1.008062,-2.333897 -0.06832,-0.151039 -0.159141,-0.382745 -0.201836,-0.514905 -0.05846,-0.180972 -0.527518,-4.79058 -0.646117,-6.349671 -0.01545,-0.203126 -0.0025,-0.210979 1.32315,-0.805549 0.736315,-0.330232 1.357572,-0.600933 1.380571,-0.60156 0.02301,-5.83e-4 1.029764,1.079489 2.237254,2.400254 l 2.195427,2.401389 0.637839,1.439346 0.637844,1.439346 0.420307,-0.159199 c 1.492768,-0.565408 4.818943,-1.848589 4.842197,-1.868033 0.01541,-0.01288 -0.192259,-0.696671 -0.461495,-1.519517 l -0.48951,-1.496081 0.04343,-3.267306 0.04343,-3.267303 1.344886,-0.43124 c 0.739694,-0.237183 1.380078,-0.443882 1.42309,-0.459332 0.043,-0.01545 0.952932,1.155608 2.022056,2.602351 l 1.943866,2.63044 0.477811,1.476063 c 0.262788,0.811836 0.483744,1.484455 0.491015,1.494707 0.0158,0.02231 5.405078,-1.420094 5.441318,-1.456326 0.0138,-0.01384 -0.1194,-0.700075 -0.29606,-1.52499 l -0.32122,-1.499845 0.35963,-3.226744 c 0.1978,-1.774708 0.38068,-3.250261 0.40641,-3.279005 0.0463,-0.05172 2.8949,-0.687783 2.92249,-0.652557 0.008,0.01004 0.75803,1.284947 1.667,2.833097 l 1.65268,2.814819 0.24074,1.167119 c 0.4325,2.096815 0.36633,1.897554 0.61578,1.854212 0.11936,-0.02074 1.37088,-0.220335 2.78116,-0.443549 1.41028,-0.223216 2.57242,-0.415668 2.58254,-0.427675 0.0101,-0.01201 -0.0548,-0.716952 -0.14426,-1.566547 l -0.16267,-1.544718 0.70815,-3.192417 0.70816,-3.192417 1.02554,-0.112948 c 0.56405,-0.06212 1.2418,-0.132011 1.50612,-0.155312 l 0.48058,-0.04236 1.35057,3.004457 1.35057,3.004457 0.15113,1.51039 c 0.0831,0.830714 0.16044,1.52095 0.17184,1.533854 0.0114,0.0129 1.22128,-0.04116 2.68866,-0.120144 1.46736,-0.07898 2.73635,-0.143609 2.81996,-0.143609 h 0.15202 v -1.561872 -1.561873 l 1.03596,-3.107903 1.03597,-3.107906 1.51562,0.01847 1.51563,0.01847 1.01842,3.054526 1.01843,3.054528 v 1.596789 1.59679 l 0.22312,7.78e-4 c 0.12272,3.89e-4 1.33532,0.06187 2.69468,0.136492 1.35935,0.07462 2.53517,0.136042 2.61293,0.136492 0.13388,7.78e-4 0.14971,-0.08033 0.29799,-1.526738 l 0.15659,-1.527555 1.3376,-2.952126 c 0.73568,-1.623671 1.36283,-2.978085 1.39367,-3.009812 0.0308,-0.03173 0.713,0.01462 1.51592,0.102982 l 1.45985,0.160664 0.0869,0.377598 c 0.19916,0.865293 0.39096,1.730194 0.84789,3.823615 l 0.48244,2.210243 -0.16385,1.531407 c -0.0901,0.842274 -0.15513,1.540302 -0.14448,1.551174 0.0265,0.02702 5.55791,0.901417 5.57762,0.881701 0.009,-0.0087 0.15959,-0.693886 0.33541,-1.52274 l 0.31967,-1.507006 1.65,-2.814819 c 0.90751,-1.548151 1.65617,-2.823224 1.66371,-2.833496 0.008,-0.01028 0.6716,0.121028 1.47571,0.291779 0.8041,0.170753 1.47279,0.310458 1.48599,0.310458 0.0132,0 0.024,0.08192 0.024,0.182038 0,0.100121 0.15713,1.568308 0.34917,3.262636 l 0.34916,3.080598 -0.32199,1.513123 c -0.17709,0.832217 -0.31104,1.523785 -0.29767,1.536818 0.0331,0.0323 5.43733,1.477683 5.45437,1.458804 0.007,-0.0083 0.22759,-0.67926 0.48916,-1.491096 l 0.47558,-1.476063 1.87302,-2.540202 c 1.03016,-1.39711 1.91242,-2.581737 1.96059,-2.632501 0.0729,-0.07683 0.32335,-0.01475 1.49401,0.370304 l 1.40644,0.462606 0.0378,3.234036 0.0378,3.234035 -0.48694,1.526934 c -0.26782,0.839813 -0.47379,1.537605 -0.45771,1.550648 0.0161,0.01304 1.06419,0.419007 2.32914,0.902144 1.26495,0.483137 2.4428,0.934191 2.61745,1.002341 l 0.31754,0.123909 0.63565,-1.434386 0.63564,-1.434383 2.05587,-2.251396 c 1.13074,-1.238269 2.12897,-2.326237 2.21831,-2.41771 l 0.16243,-0.166312 1.34485,0.605722 c 0.73966,0.333148 1.35383,0.624249 1.36481,0.646892 0.011,0.02264 -0.12603,1.508651 -0.30448,3.30224 l -0.32445,3.261072 -0.62836,1.398001 c -0.3456,0.7689 -0.61898,1.404269 -0.60752,1.411929 0.0115,0.0077 0.65419,0.333081 1.42826,0.723156 0.77408,0.390072 1.90196,0.964215 2.5064,1.275867 l 1.09898,0.566645 0.78458,-1.36447 0.78457,-1.364468 2.20137,-1.947376 c 1.21075,-1.071056 2.31547,-2.04669 2.45497,-2.168079 l 0.2536,-0.220707 1.27395,0.734383 c 1.0241,0.590353 1.27351,0.76276 1.27176,0.879077 -0.002,0.07958 -0.28773,1.53494 -0.63674,3.234132 l -0.63457,3.089435 -0.77241,1.334571 c -0.61434,1.061521 -0.75446,1.350937 -0.68483,1.414563 0.21493,0.196375 4.59033,2.992875 4.65036,2.972245 0.037,-0.01269 0.46905,-0.576731 0.96021,-1.253404 l 0.89301,-1.230319 2.62758,-1.877733 c 1.44518,-1.032753 2.67434,-1.866437 2.73149,-1.852629 0.20292,0.04903 2.39524,1.700573 2.36631,1.782611 -0.0162,0.04575 -0.46113,1.451341 -0.98888,3.123542 l -0.95952,3.040364 -0.90387,1.247467 c -0.60975,0.841558 -0.88454,1.275252 -0.84445,1.332859 0.0434,0.0624 3.65528,3.005476 4.25112,3.46396 0.0449,0.03453 0.46983,-0.386219 1.11589,-1.104866 l 1.04339,-1.160642 1.08106,-0.613731 c 0.59457,-0.337551 1.87876,-1.065478 2.85374,-1.617616 l 1.77268,-1.003887 1.07645,0.969538 c 0.59206,0.533245 1.08756,0.999239 1.10112,1.03554 0.0136,0.0363 -0.55563,1.399797 -1.26487,3.029989 l -1.2895,2.963986 -0.79477,0.886001 c -0.43711,0.487302 -0.9085,1.014828 -1.04749,1.172285 l -0.25272,0.286281 2.0034,2.001684 2.00341,2.001683 1.16711,-1.048744 1.16712,-1.048744 2.96977,-1.289775 c 1.63336,-0.709375 2.99686,-1.279543 3.02998,-1.267044 0.0331,0.01249 0.49746,0.508178 1.03188,1.101507 l 0.97163,1.078778 -1.59874,2.827504 -1.59872,2.827502 -0.99549,0.906887 c -0.54752,0.498787 -1.08133,0.980801 -1.18625,1.071141 l -0.19075,0.164255 1.72142,2.128277 c 0.9468,1.170553 1.7613,2.155807 1.80999,2.189452 0.0616,0.04256 0.46652,-0.213274 1.33051,-0.840642 l 1.24195,-0.901815 2.94009,-0.929153 c 1.61705,-0.511032 3.02422,-0.957267 3.12703,-0.991632 0.18157,-0.06069 0.21088,-0.02971 1.02332,1.08233 0.46002,0.629646 0.84801,1.191567 0.86222,1.248714 0.0142,0.05715 -0.82153,1.288652 -1.85715,2.736677 l -1.88295,2.632771 -1.22581,0.891166 c -0.67418,0.490141 -1.23591,0.919 -1.24823,0.95302 -0.0206,0.0569 2.78632,4.448359 2.97252,4.650491 0.0661,0.0717 0.34765,-0.0634 1.44943,-0.695632 l 1.36741,-0.784651 3.08944,-0.627231 c 1.6992,-0.344973 3.1391,-0.626654 3.19982,-0.625959 0.0705,7.78e-4 0.37561,0.461422 0.84439,1.274603 l 0.73403,1.273328 -0.1847,0.219902 c -0.10159,0.12094 -1.07789,1.2284 -2.16954,2.46102 l -1.98484,2.24113 -1.36025,0.77965 -1.36025,0.77965 1.27197,2.50588 c 0.69957,1.37823 1.27992,2.51626 1.28963,2.52896 0.01,0.0127 0.66118,-0.26408 1.44774,-0.61507 l 1.43009,-0.63815 3.22675,-0.318 c 2.32953,-0.22957 3.24746,-0.29718 3.30125,-0.24311 0.041,0.0412 0.33177,0.65636 0.64619,1.36705 l 0.57164,1.29216 -0.23425,0.22818 c -0.12883,0.1255 -1.21304,1.1217 -2.40935,2.21378 l -2.1751,1.98562 -1.44202,0.63902 -1.44202,0.63903 0.1235,0.31754 c 0.0679,0.17465 0.51951,1.35251 1.00351,2.61746 0.48403,1.26495 0.89026,2.31314 0.90275,2.32931 0.0125,0.0162 0.71033,-0.1916 1.55075,-0.46173 l 1.52804,-0.49115 3.23596,0.0437 3.23596,0.0437 0.45865,1.40531 c 0.38017,1.16485 0.44298,1.42026 0.36708,1.49268 -0.0503,0.048 -1.23599,0.93223 -2.63473,1.96483 l -2.54319,1.87747 -1.4947,0.477 c -1.37521,0.43887 -1.49151,0.48826 -1.45492,0.61789 0.0219,0.0775 0.16779,0.61975 0.32426,1.20503 0.15646,0.58527 0.32266,1.20316 0.36933,1.37308 0.0467,0.16992 0.1825,0.67968 0.30184,1.13279 0.37744,1.43323 0.43219,1.61337 0.49032,1.61337 0.0312,0 0.72665,-0.14286 1.54536,-0.31748 l 1.48859,-0.31748 3.23421,0.36287 c 1.77881,0.19957 3.23914,0.36561 3.24516,0.36897 0.008,0.005 0.42158,1.89269 0.61732,2.82092 0.0247,0.11694 -0.3915,0.38331 -2.80554,1.7957 l -2.83447,1.65839 -1.50845,0.31918 c -0.82964,0.17556 -1.51724,0.32798 -1.52798,0.33874 -0.0167,0.0167 0.40273,2.74401 0.59769,3.8862 0.0355,0.20768 0.11527,0.68057 0.17735,1.05088 0.11236,0.67026 0.11369,0.67313 0.29462,0.63798 0.1,-0.0194 0.81508,-0.0979 1.58916,-0.17436 l 1.4074,-0.13907 3.1581,0.70336 3.15809,0.70336 0.15709,1.46919 c 0.0864,0.80805 0.13274,1.49346 0.10297,1.52314 -0.0298,0.0297 -1.37424,0.65462 -2.98775,1.38876 l -2.93365,1.33479 -1.54604,0.15679 -1.54602,0.15679 v 0.21118 c 0,0.11616 0.0619,1.32338 0.13649,2.68274 0.0746,1.35935 0.13606,2.54106 0.1365,2.62602 v 0.15447 h 1.59929 1.59931 l 2.94904,0.9884 c 1.62196,0.54362 3.00311,1.01034 3.06918,1.03716 0.10925,0.0443 0.12015,0.18435 0.12015,1.54509 v 1.49632 l -0.22314,0.0806 c -0.1227,0.0444 -1.5029,0.5108 -3.06708,1.03653 l -2.84393,0.95588 h -1.60141 -1.60141 l -0.005,0.39476 c -0.003,0.21712 -0.0142,0.4411 -0.0253,0.49774 -0.0111,0.0566 -0.0413,0.61274 -0.0672,1.23578 -0.0259,0.62303 -0.0596,1.25636 -0.0748,1.4074 -0.0152,0.15104 -0.0471,0.69325 -0.0708,1.2049 l -0.0432,0.93028 1.55153,0.15815 1.55155,0.15816 2.96849,1.35265 2.96848,1.35264 -0.0232,0.47672 c -0.0127,0.2622 -0.0745,0.93893 -0.13729,1.50384 l -0.11412,1.02713 -3.19221,0.70609 -3.19223,0.7061 -1.54491,-0.1622 c -0.84971,-0.0892 -1.55498,-0.15367 -1.56728,-0.14327 -0.0282,0.0239 -0.90692,5.54453 -0.88574,5.56451 0.009,0.008 0.69526,0.15931 1.52597,0.33606 l 1.51039,0.32137 2.81482,1.65115 c 1.54816,0.90814 2.82253,1.65727 2.83197,1.66475 0.036,0.0286 -0.5943,2.87221 -0.64759,2.92145 -0.0308,0.0285 -1.50225,0.21354 -3.2698,0.41116 l -3.21369,0.35929 -1.51319,-0.32182 c -0.83225,-0.17701 -1.52288,-0.31206 -1.53475,-0.30014 -0.0333,0.0335 -1.47873,5.43075 -1.45851,5.4462 0.01,0.007 0.68207,0.22803 1.49391,0.49006 l 1.47605,0.47644 2.62866,1.94269 c 2.31199,1.70868 2.62354,1.96054 2.58631,2.09087 -0.0233,0.0815 -0.23238,0.72744 -0.46469,1.43544 l -0.42236,1.28726 -1.64905,0.001 c -0.90698,7.8e-4 -2.35647,0.0203 -3.22111,0.0437 l -1.57208,0.0424 -1.53245,-0.50341 c -0.84286,-0.27688 -1.54336,-0.48961 -1.55669,-0.47274 -0.0132,0.0169 -0.47423,1.20466 -1.02423,2.63953 l -1.00001,2.60886 0.21547,0.10504 c 0.11852,0.0578 0.76548,0.34929 1.43769,0.6478 l 1.22221,0.54273 2.21049,2.01811 c 1.21579,1.10996 2.30045,2.10615 2.41037,2.21375 l 0.19986,0.19564 -0.57159,1.29204 c -0.31437,0.71062 -0.60514,1.32725 -0.64612,1.37029 -0.0557,0.0586 -0.29065,0.0559 -0.93269,-0.0105 -0.47199,-0.0488 -1.90858,-0.18827 -3.19242,-0.30985 l -2.33423,-0.22105 -0.85818,-0.37784 c -0.472,-0.20781 -1.05899,-0.46976 -1.30443,-0.58211 -0.751,-0.34376 -0.74316,-0.34218 -0.84854,-0.17124 -0.0518,0.084 -0.63431,1.21864 -1.29456,2.52153 l -1.20048,2.3689 1.36294,0.7845 1.36291,0.78449 1.98117,2.23595 c 1.08964,1.22978 2.06456,2.33523 2.16652,2.45657 l 0.18532,0.22061 -0.74641,1.28977 c -0.46507,0.80365 -0.78355,1.28494 -0.84499,1.27694 -0.0542,-0.007 -1.48883,-0.29556 -3.18803,-0.64111 l -3.08943,-0.62826 -1.36838,-0.78571 c -1.09323,-0.62772 -1.3846,-0.76801 -1.44901,-0.69764 -0.0443,0.0484 -0.53882,0.79862 -1.09885,1.66711 -0.56003,0.86846 -1.22657,1.89454 -1.48121,2.28018 l -0.463,0.70115 1.27082,0.92021 1.27083,0.92021 1.8847,2.6352 c 1.03657,1.44936 1.87306,2.68196 1.85887,2.7391 -0.0142,0.0572 -0.40218,0.61905 -0.8622,1.24869 l -0.83637,1.14478 -0.32424,-0.0985 c -0.17836,-0.0541 -1.58199,-0.4965 -3.11919,-0.98301 l -2.79492,-0.88454 -1.2469,-0.90365 c -0.68581,-0.497 -1.27343,-0.89459 -1.30584,-0.88355 -0.0324,0.0111 -0.84764,0.99325 -1.81162,2.18268 l -1.75272,2.16261 0.18949,0.16425 c 0.10422,0.0904 0.63747,0.5728 1.18498,1.07213 l 0.99549,0.90785 1.59958,2.82786 1.5996,2.82784 -0.81006,0.89589 c -0.44555,0.49273 -0.88182,0.98531 -0.96953,1.09462 -0.0877,0.10932 -0.19825,0.19874 -0.2457,0.19874 -0.0474,0 -1.41826,-0.58144 -3.04627,-1.29209 l -2.96002,-1.2921 -1.15382,-1.03865 -1.15381,-1.03868 -2.00341,1.99949 -2.00339,1.99948 0.25272,0.28629 c 0.13899,0.15746 0.60992,0.68499 1.04651,1.17227 l 0.79378,0.886 1.28407,2.95214 c 0.70624,1.62367 1.28387,2.98302 1.28361,3.02078 0,0.0378 -0.0911,0.1459 -0.20198,0.24028 -0.11085,0.0944 -0.60341,0.5359 -1.09457,0.98111 l -0.89302,0.80946 -1.84102,-1.04093 c -1.01255,-0.57252 -2.29766,-1.30336 -2.85578,-1.6241 l -1.01476,-0.58318 -0.93646,-1.03903 c -0.51506,-0.57145 -0.98529,-1.09227 -1.04498,-1.15734 -0.1012,-0.11039 -0.25412,0 -2.271,1.63186 -1.18936,0.96262 -2.17201,1.77817 -2.18364,1.81235 -0.0117,0.0342 0.38521,0.62096 0.88185,1.304 l 0.90303,1.24188 0.34121,1.0804 c 0.18768,0.5942 0.52839,1.66736 0.75715,2.38481 0.22875,0.71743 0.49188,1.55157 0.58471,1.85366 0.0928,0.30208 0.19484,0.63363 0.2267,0.73682 0.0559,0.18126 0.0193,0.21584 -1.08602,1.02333 -0.62914,0.45965 -1.19067,0.8478 -1.2478,0.86257 -0.0572,0.0148 -1.28945,-0.82183 -2.73844,-1.85911 l -2.63455,-1.88594 -0.92265,-1.26942 -0.92267,-1.26941 -0.69935,0.46181 c -0.38464,0.25401 -1.40993,0.92002 -2.27839,1.48003 -0.86849,0.56003 -1.61883,1.05467 -1.66746,1.0992 -0.0708,0.0648 0.0648,0.34617 0.68143,1.41374 l 0.76983,1.33279 0.66127,3.21307 c 0.44928,2.18304 0.63799,3.2309 0.58868,3.26863 -0.0399,0.0306 -0.62215,0.37099 -1.29381,0.75655 l -1.22122,0.70101 -0.22053,-0.18529 c -0.12128,-0.1019 -1.22458,-1.07493 -2.45178,-2.1623 l -2.23126,-1.97702 -0.78952,-1.36718 -0.78952,-1.36715 -2.50588,1.27108 c -1.37823,0.69907 -2.51526,1.27802 -2.52672,1.28652 -0.0115,0.009 0.2618,0.64457 0.60727,1.41346 l 0.62812,1.398 0.32507,3.26108 c 0.23289,2.33627 0.30404,3.2822 0.25091,3.33558 -0.0408,0.041 -0.65559,0.33175 -1.36621,0.64612 l -1.29204,0.57161 -0.19564,-0.19986 c -0.1076,-0.10994 -1.10676,-1.19787 -2.22037,-2.41761 l -2.02472,-2.21773 -0.63574,-1.43247 -0.63574,-1.43249 -0.31437,0.12278 c -0.17291,0.0675 -1.34934,0.51765 -2.61429,1.0003 -1.26495,0.48263 -2.31292,0.88841 -2.3288,0.90171 -0.0159,0.0132 0.19527,0.71034 0.46925,1.54901 l 0.49813,1.52489 -0.04,1.23817 c -0.022,0.681 -0.0401,2.13581 -0.0402,3.23292 v 1.99473 l -1.41901,0.46277 c -1.15565,0.37686 -1.43485,0.44624 -1.50429,0.37382 -0.0469,-0.0489 -0.92989,-1.23342 -1.9622,-2.63225 l -1.87693,-2.54332 -0.47535,-1.47295 c -0.26143,-0.81012 -0.48058,-1.48096 -0.48698,-1.49079 -0.014,-0.0215 -5.41209,1.42655 -5.44685,1.46115 -0.0134,0.0134 0.0903,0.5591 0.23039,1.21279 0.1401,0.6537 0.28464,1.34013 0.32119,1.5254 0.0537,0.27198 -0.002,0.95265 -0.29141,3.53567 -0.19683,1.75937 -0.38116,3.22489 -0.40963,3.2567 -0.0486,0.0543 -2.88906,0.68346 -2.91658,0.64603 -0.0155,-0.0211 -0.98402,-1.67055 -1.79382,-3.05503 -0.32586,-0.55709 -0.67709,-1.15193 -0.78052,-1.32185 -0.72184,-1.18585 -0.7265,-1.19806 -1.0641,-2.7824 -0.1768,-0.82966 -0.32711,-1.51455 -0.33404,-1.52196 -0.0182,-0.0195 -5.54371,0.85723 -5.56975,0.88376 -0.012,0.0123 0.0523,0.71521 0.14294,1.56217 l 0.16476,1.53995 -0.62277,2.81959 c -0.34252,1.55077 -0.66113,2.98951 -0.708,3.19717 l -0.0852,0.37761 -1.29938,0.14843 c -0.71467,0.0816 -1.38578,0.15115 -1.49137,0.15448 -0.20208,0.006 -0.22225,-0.0276 -0.87283,-1.47003 -0.0851,-0.18879 -0.23933,-0.52864 -0.3426,-0.7552 -0.10328,-0.22655 -0.25775,-0.5664 -0.34327,-0.75519 -0.0855,-0.18879 -0.24,-0.52864 -0.34328,-0.7552 -0.10327,-0.22655 -0.25745,-0.5664 -0.3426,-0.75519 -0.0852,-0.18881 -0.27096,-0.59336 -0.41289,-0.89906 -0.24888,-0.53601 -0.26371,-0.61125 -0.41721,-2.11712 l -0.15915,-1.56136 -0.93029,0.0432 c -0.51165,0.0238 -1.05385,0.0556 -1.20489,0.0708 -0.15104,0.0152 -0.78437,0.0488 -1.40741,0.0748 -0.62303,0.0259 -1.17913,0.0562 -1.23577,0.0672 -0.0566,0.0111 -0.28062,0.0224 -0.49774,0.0253 l -0.39476,0.005 v 1.60126 1.60123 l -0.98913,2.9471 c -0.54402,1.62088 -1.01073,3.00116 -1.03715,3.06723 -0.0437,0.10931 -0.18378,0.12015 -1.55324,0.12015 -1.14111,0 -1.51304,-0.0208 -1.53759,-0.0858 z m -63.802417,-39.34436 0.936037,-1.32407 -0.195664,-3.08543 c -0.107624,-1.69698 -0.204452,-3.17362 -0.215177,-3.28139 -0.01642,-0.16509 -0.842029,-0.91773 -5.237216,-4.77435 l -5.217715,-4.57838 -4.57742,-5.21481 c -3.315537,-3.77723 -4.62145,-5.21987 -4.737134,-5.23309 -0.08784,-0.0101 -1.560267,-0.10738 -3.272056,-0.21633 l -3.112342,-0.19805 -1.315849,0.92885 c -0.723716,0.51089 -1.32251,0.93413 -1.330652,0.94055 -0.0081,0.006 0.532508,0.83105 1.201447,1.83247 l 1.216251,1.82079 1.819043,-1.39992 1.819046,-1.39995 0.252443,0.29666 c 0.138842,0.16316 2.286131,2.61237 4.771751,5.44268 l 4.519308,5.14602 5.401129,4.74018 c 2.970621,2.60709 5.419811,4.75901 5.442652,4.78201 0.02283,0.023 -0.586683,0.85932 -1.354492,1.85843 l -1.396002,1.81655 1.788959,1.21077 c 0.983923,0.66591 1.804401,1.21146 1.823282,1.21232 0.01888,0 0.455547,-0.59428 0.970371,-1.32251 z m 133.502267,0.0933 1.7751,-1.19948 -1.39919,-1.82069 -1.39921,-1.82069 0.2646,-0.22153 c 0.14552,-0.12184 2.59711,-2.26952 5.44797,-4.77262 l 5.18338,-4.55111 4.55312,-5.18284 c 2.50422,-2.85055 4.65256,-5.30047 4.77409,-5.44429 l 0.22096,-0.26146 1.81941,1.39763 1.81939,1.39763 1.22278,-1.81012 c 0.67253,-0.99557 1.21197,-1.81875 1.19876,-1.8293 -0.0132,-0.0105 -0.62174,-0.44245 -1.35227,-0.95978 -1.28575,-0.91052 -1.33738,-0.93948 -1.61338,-0.90499 -0.15681,0.0196 -0.62497,0.053 -1.04032,0.0742 -0.41536,0.0212 -0.94055,0.053 -1.16712,0.0706 -0.22654,0.0175 -0.89079,0.0616 -1.47606,0.0978 -0.58527,0.0362 -1.38852,0.086 -1.785,0.11052 -0.39648,0.0245 -0.75176,0.0733 -0.78953,0.10845 -0.0378,0.0351 -2.10767,2.38693 -4.59983,5.22628 l -4.53116,5.16246 -5.16433,4.53223 c -2.84037,2.49272 -5.19288,4.56312 -5.22779,4.6009 -0.0349,0.0378 -0.0832,0.40848 -0.10727,0.82384 -0.0241,0.41536 -0.0582,0.94055 -0.0757,1.16711 -0.0367,0.47289 -0.14485,2.20219 -0.204,3.26109 -0.0222,0.39648 -0.0549,0.85038 -0.0728,1.00872 -0.0314,0.27777 0,0.33483 0.91284,1.62859 0.51996,0.7374 0.96612,1.33388 0.99146,1.32551 0.0253,-0.008 0.84486,-0.55499 1.82114,-1.2147 z m -64.30813,-37.14777 3.32972,-0.21023 3.62835,-0.72177 3.62836,-0.72178 3.40869,-1.15564 3.4087,-1.15565 3.27788,-1.6158 3.27788,-1.61581 3.00481,-2.01598 3.00481,-2.01599 2.72292,-2.38717 2.72291,-2.38716 2.36917,-2.70238 2.36916,-2.70239 2.08347,-3.11081 2.08346,-3.1108 1.61135,-3.29539 1.61134,-3.2954 0.0175,-20.94981 0.0175,-20.94982 -0.2332,-0.53892 c -0.12826,-0.29642 -0.87317,-1.83397 -1.65536,-3.41681 l -1.42217,-2.87788 -2.04483,-3.06611 -2.04484,-3.06612 -2.38644,-2.72145 -2.38643,-2.72145 -2.71394,-2.37867 -2.71394,-2.37868 -3.06719,-2.04554 -3.06719,-2.04555 -3.21138,-1.58516 -3.21137,-1.58515 -3.4393,-1.16813 -3.43929,-1.16813 -3.64001,-0.71584 -3.64002,-0.71585 -3.57001,-0.23235 c -2.57692,-0.16772 -3.761,-0.21888 -4.25656,-0.18393 -0.3776,0.0266 -1.05727,0.0694 -1.51039,0.095 -0.45312,0.0256 -0.94743,0.0592 -1.09846,0.0748 -0.15104,0.0155 -1.07787,0.0777 -2.05963,0.13814 l -1.78501,0.10992 -3.6277,0.72097 -3.62771,0.72097 -3.40934,1.15804 -3.40934,1.15804 -3.26107,1.61061 -3.26107,1.61061 -3.05665,2.04943 -3.056639,2.04943 -2.686303,2.35933 -2.686304,2.35934 -2.386309,2.72083 -2.386313,2.72084 -2.050019,3.07388 -2.050013,3.07389 -1.44755,2.93358 c -0.796156,1.61347 -1.537037,3.14637 -1.646396,3.40644 l -0.198848,0.47286 v 20.85197 20.85196 l 0.198802,0.47287 c 0.109345,0.26007 0.849009,1.79115 1.643709,3.4024 l 1.444901,2.92955 2.057256,3.08474 2.057248,3.08474 2.43814,2.77344 2.438141,2.77344 2.70012,2.35337 2.700118,2.35338 2.917799,1.96054 2.9178,1.96053 3.32786,1.645 3.32787,1.64499 3.43143,1.16531 3.43144,1.16531 3.6418,0.71622 3.6418,0.71623 3.50136,0.23471 c 1.92575,0.12909 3.64038,0.22334 3.8103,0.20943 0.16992,-0.0139 1.80732,-0.11989 3.63867,-0.23552 z M 44.729757,99.935808 c 1.480811,-0.0931 2.767416,-0.1693 2.859124,-0.1693 0.134931,0 1.04237,-0.997881 4.756589,-5.230656 l 4.589848,-5.230656 5.234877,-4.592551 c 4.846233,-4.251594 5.235041,-4.608696 5.237075,-4.810008 0.0012,-0.119602 0.09091,-1.587458 0.199337,-3.261903 l 0.197132,-3.044445 -0.943026,-1.328617 -0.943026,-1.328615 -1.796506,1.198201 c -0.988084,0.659012 -1.796514,1.215768 -1.796514,1.23724 0,0.02147 0.620092,0.847457 1.377984,1.835529 l 1.377977,1.796494 -0.195478,0.172209 c -0.107512,0.09472 -2.558095,2.243876 -5.445737,4.775912 l -5.250259,4.603704 -4.605868,5.248164 c -2.533228,2.88649 -4.681177,5.335895 -4.773219,5.443125 l -0.167353,0.194964 -1.817575,-1.399382 -1.817576,-1.399381 -1.216029,1.81861 -1.216031,1.818606 0.220545,0.155843 c 0.121301,0.08572 0.714856,0.509935 1.319011,0.942723 l 1.098467,0.786872 0.411924,-0.0317 c 0.226559,-0.0174 1.623497,-0.10788 3.104307,-0.200982 z m 179.787433,-0.701368 1.33205,-0.943995 -0.11537,-0.180904 c -0.0635,-0.09949 -0.60775,-0.919813 -1.20954,-1.82293 l -1.09417,-1.642036 -1.82206,1.400235 -1.82208,1.400243 -0.25402,-0.298172 c -0.13973,-0.163994 -2.28899,-2.615167 -4.77614,-5.447051 l -4.5221,-5.148879 -5.39838,-4.737313 c -2.96913,-2.605524 -5.41575,-4.754969 -5.43692,-4.776547 -0.0212,-0.02158 0.58836,-0.855726 1.35458,-1.853661 l 1.3931,-1.81443 -1.81817,-1.217734 c -0.99998,-0.669754 -1.8241,-1.210405 -1.83134,-1.201447 -0.007,0.009 -0.43215,0.609821 -0.94423,1.335249 l -0.93107,1.318964 0.20648,3.246537 c 0.15546,2.444341 0.22988,3.270601 0.3012,3.34393 0.0521,0.05357 2.40532,2.124609 5.22941,4.602317 l 5.13465,4.504924 4.57725,5.215221 c 4.44522,5.064787 4.58484,5.215847 4.84048,5.236927 0.14478,0.0119 1.56081,0.10826 3.1467,0.21407 1.58592,0.105812 2.93842,0.196452 3.00556,0.201432 0.0671,0.005 0.72152,-0.415752 1.45413,-0.93495 z"
       id="path4187"
       inkscape:connector-curvature="0" />
  </g>
</svg>
