<?xml version="1.0" encoding="UTF-8" standalone="no"?>
<!-- Created with Inkscape (http://www.inkscape.org/) -->

<svg
   xmlns:dc="http://purl.org/dc/elements/1.1/"
   xmlns:cc="http://creativecommons.org/ns#"
   xmlns:rdf="http://www.w3.org/1999/02/22-rdf-syntax-ns#"
   xmlns:svg="http://www.w3.org/2000/svg"
   xmlns="http://www.w3.org/2000/svg"
   xmlns:sodipodi="http://sodipodi.sourceforge.net/DTD/sodipodi-0.dtd"
   xmlns:inkscape="http://www.inkscape.org/namespaces/inkscape"
   width="1000"
   height="1000"
   viewBox="0 0 264.58333 264.58334"
   version="1.1"
   id="svg8"
   inkscape:version="0.92.4 (5da689c313, 2019-01-14)"
   sodipodi:docname="8T.svg">
  <defs
     id="defs2" />
  <sodipodi:namedview
     id="base"
     pagecolor="#000000"
     bordercolor="#666666"
     borderopacity="1.0"
     inkscape:pageopacity="0"
     inkscape:pageshadow="2"
     inkscape:zoom="0.98994949"
     inkscape:cx="871.43829"
     inkscape:cy="640.72248"
     inkscape:document-units="mm"
     inkscape:current-layer="layer1"
     showgrid="false"
     inkscape:pagecheckerboard="true"
     inkscape:window-width="3732"
     inkscape:window-height="2032"
     inkscape:window-x="108"
     inkscape:window-y="54"
     inkscape:window-maximized="1"
     units="px" />
  <metadata
     id="metadata5">
    <rdf:RDF>
      <cc:Work
         rdf:about="">
        <dc:format>image/svg+xml</dc:format>
        <dc:type
           rdf:resource="http://purl.org/dc/dcmitype/StillImage" />
        <dc:title></dc:title>
      </cc:Work>
    </rdf:RDF>
  </metadata>
  <g
     inkscape:label="Layer 1"
     inkscape:groupmode="layer"
     id="layer1"
     transform="translate(0,-32.41665)">
    <path
       style="fill:#ffffff;stroke-width:0.07451019"
       d="m 124.91751,295.18304 c -0.0232,-0.0375 -0.18965,-0.44757 -0.36987,-0.91147 -0.18022,-0.46389 -0.58621,-1.49609 -0.90218,-2.29379 -0.31598,-0.79769 -0.79292,-2.00261 -1.05989,-2.67758 -0.26696,-0.67498 -0.69762,-1.76275 -0.95704,-2.41726 -0.25941,-0.65452 -0.72967,-1.8427 -1.04501,-2.6404 -0.31536,-0.79769 -0.75205,-1.90218 -0.97044,-2.45444 -0.83678,-2.11596 -1.56139,-3.95091 -2.0266,-5.13203 -0.26585,-0.67498 -0.61552,-1.55143 -0.77705,-1.94768 l -0.29368,-0.72048 v -7.20913 -7.20911 l 0.70737,-8.76364 c 0.38906,-4.81998 0.69652,-8.77445 0.68323,-8.78769 -0.0133,-0.0132 -1.37945,-0.29452 -3.03592,-0.62507 l -3.01178,-0.60102 -4.89319,-1.65589 -4.89321,-1.6559 -2.649841,-1.30192 c -1.45741,-0.71607 -3.52317,-1.73082 -4.59057,-2.25503 -1.78,-0.87417 -2.14977,-1.09189 -4.46474,-2.62873 -1.49181,-0.99039 -2.54494,-1.64431 -2.5752,-1.599 -0.0281,0.0422 -2.72695,3.20355 -5.99733,7.02531 l -5.94613,6.94868 -4.72788,4.70053 -4.72786,4.7005 -10.57615,4.57805 c -5.81688,2.51792 -10.63689,4.57805 -10.71113,4.57805 -0.17486,0 -10.62279,-10.40446 -10.62279,-10.57859 0,-0.071 2.06825,-4.87394 4.59611,-10.67333 l 4.5961,-10.54436 4.71566,-4.70954 4.71567,-4.70956 6.97915,-5.91834 c 3.83854,-3.2551 7.01031,-5.94633 7.04839,-5.98051 0.0406,-0.0365 -0.62568,-1.10181 -1.60973,-2.57405 -1.84116,-2.75457 -1.38685,-1.91746 -4.95561,-9.13149 -1.27257,-2.57244 -1.29856,-2.63485 -2.19859,-5.28079 -2.55079,-7.49892 -2.321,-6.72684 -2.98412,-10.02621 -0.32891,-1.63647 -0.60836,-2.98572 -0.62102,-2.99832 -0.0127,-0.0126 -3.96828,0.2935 -8.79027,0.68028 l -8.76725,0.70321 -7.24134,7.8e-4 -7.24133,7.6e-4 -10.67309,-4.19164 -10.67308,-4.19163 v -7.5315 -7.53146 l 10.674,-4.19256 10.67402,-4.19257 7.24041,-7.7e-4 7.24041,-7.7e-4 8.76769,0.70287 c 4.82223,0.38656 8.78236,0.68823 8.80028,0.67038 0.0179,-0.0178 0.29579,-1.36354 0.61748,-2.99039 l 0.58489,-2.95792 1.67233,-4.90888 1.67232,-4.90891 2.28582,-4.61137 2.28582,-4.61139 1.65635,-2.47802 c 0.96519,-1.44399 1.62471,-2.49921 1.58053,-2.52882 -0.0417,-0.0279 -3.21427,-2.71717 -7.05014,-5.97601 l -6.97432,-5.92549 -4.71928,-4.71074 -4.71927,-4.710747 -2.28273,-5.243604 c -1.25549,-2.883974 -2.34415,-5.377463 -2.41923,-5.541091 -0.0751,-0.16363 -0.22777,-0.515068 -0.33931,-0.780973 -0.11154,-0.265894 -0.27875,-0.6508 -0.37158,-0.855331 -0.88569,-1.951457 -3.77214,-8.672026 -3.77214,-8.782741 0,-0.206385 10.43669,-10.592525 10.64408,-10.592525 0.086,0 0.25381,0.04762 0.37302,0.105932 0.1192,0.05827 4.86889,2.118845 10.55485,4.579061 l 10.33812,4.473118 4.7274,4.699504 4.72741,4.699504 5.9466,6.949464 c 3.27063,3.822206 5.96955,6.983453 5.9976,7.025001 0.0297,0.04403 1.08905,-0.61338 2.53788,-1.57491 l 2.48687,-1.650435 4.6279,-2.277672 4.627891,-2.277682 4.92647,-1.666361 4.92646,-1.66637 2.96963,-0.583916 c 1.63329,-0.321165 2.98379,-0.598039 3.00109,-0.615275 0.0173,-0.0172 -0.28597,-3.962742 -0.67392,-8.767778 l -0.70538,-8.736422 7.5e-4,-7.21459 7.5e-4,-7.21459 4.20789,-10.635948 4.20788,-10.635936 h 7.55883 7.55883 l 4.20584,10.633069 4.20583,10.63308 v 7.174497 7.174487 l -0.26284,3.278382 c -0.14457,1.803108 -0.34516,4.282465 -0.44577,5.509684 -0.10061,1.22723 -0.28399,3.519905 -0.40751,5.094845 -0.12352,1.57494 -0.24324,3.052038 -0.26606,3.282448 -0.0387,0.391029 -0.0301,0.421618 0.12919,0.459336 0.0939,0.02222 1.46073,0.296781 3.03748,0.610112 l 2.86681,0.569703 4.89611,1.6566 4.8961,1.656611 2.7618,1.357669 c 1.519,0.746726 3.58475,1.761242 4.59057,2.254496 1.6542,0.811203 2.06994,1.056965 4.35524,2.574566 2.16666,1.438808 2.53873,1.661322 2.61252,1.562425 0.0473,-0.06339 2.74589,-3.22556 5.9968,-7.026956 l 5.9107,-6.911634 4.72593,-4.699289 4.72593,-4.699299 10.58251,-4.579265 c 5.82038,-2.5186 10.6404,-4.579266 10.71114,-4.579266 0.17605,0 10.61641,10.41079 10.61641,10.586339 0,0.07516 -2.06757,4.878198 -4.59459,10.673327 l -4.5946,10.536599 -4.71717,4.711007 -4.71717,4.71102 -6.97355,5.92493 c -3.83544,3.2587 -7.00815,5.94789 -7.05045,5.97594 -0.0455,0.0301 0.61052,1.07946 1.60417,2.56601 l 1.68108,2.515 2.26403,4.57421 2.26403,4.5742 1.63896,4.79732 1.63897,4.79734 0.61435,3.06821 c 0.3379,1.68752 0.6303,3.0841 0.64978,3.10352 0.0195,0.0195 3.99319,-0.28188 8.83043,-0.66955 l 8.795,-0.70486 h 7.21153 7.21154 l 10.67401,4.19184 10.67401,4.19183 v 7.53305 7.53305 l -10.67359,4.1917 -10.67359,4.19168 h -7.21938 -7.21938 l -5.58239,-0.44721 c -3.07031,-0.24597 -6.01905,-0.48168 -6.55275,-0.52378 -0.5337,-0.0421 -1.97592,-0.15816 -3.20494,-0.25787 -1.22902,-0.0997 -2.24895,-0.16699 -2.26651,-0.14949 -0.0176,0.0175 -0.29661,1.36744 -0.62011,2.99987 l -0.58819,2.96809 -1.66983,4.90119 -1.66982,4.90121 -2.2625,4.5742 -2.2625,4.57419 -1.63989,2.45126 c -0.90194,1.34819 -1.64341,2.48806 -1.64769,2.53305 -0.004,0.045 3.14962,2.76304 7.00869,6.0401 l 7.01648,5.9583 4.71725,4.71061 4.71725,4.7106 4.56563,10.45 c 2.51109,5.7475 4.58044,10.55041 4.59855,10.67313 0.0309,0.20952 -0.28807,0.54273 -5.22475,5.45785 -4.91068,4.88922 -5.27182,5.23212 -5.47168,5.19541 -0.11769,-0.0216 -4.93331,-2.08655 -10.70138,-4.58872 l -10.4874,-4.54941 -4.72755,-4.69955 -4.72755,-4.69957 -5.94646,-6.94909 c -3.27055,-3.82201 -5.96949,-6.9834 -5.99765,-7.02531 -0.0301,-0.0449 -1.09073,0.61387 -2.57519,1.59933 l -2.52401,1.67557 -4.59057,2.25417 -4.59057,2.25417 -4.90208,1.65859 -4.90208,1.65861 -3.0029,0.59923 c -1.6516,0.3296 -3.01473,0.61105 -3.0292,0.62546 -0.0145,0.0144 0.29298,3.98408 0.68322,8.82148 l 0.70953,8.79527 v 7.15323 7.15322 l -4.20647,10.63475 -4.20648,10.63475 -7.54523,0.0189 c -4.50341,0.0113 -7.56225,-0.008 -7.58744,-0.0491 z m 11.97589,-68.14209 3.62021,-0.23222 4.11303,-0.81103 4.11303,-0.81103 2.26898,-0.77225 2.26898,-0.77225 0.0373,-19.14208 0.0373,-19.14207 19.21058,-0.0372 19.21059,-0.0372 0.77528,-2.26167 0.77528,-2.26169 0.81816,-4.13475 0.81817,-4.13478 0.25686,-4.01636 0.25685,-4.01637 -0.28447,-4.09075 -0.28449,-4.09075 -0.7878,-3.90481 c -0.78675,-3.89948 -0.78879,-3.90763 -1.49259,-5.98736 -0.38763,-1.14541 -0.74485,-2.19127 -0.79383,-2.32415 l -0.089,-0.24159 -19.19478,-0.0188 -19.19476,-0.0187 -0.0373,-19.14308 -0.0373,-19.1431 -2.27662,-0.7643 -2.27662,-0.7643 -4.14271,-0.82127 -4.14271,-0.82128 -4.03075,-0.25711 -4.03074,-0.25711 -4.10539,0.28322 -4.10539,0.28324 -3.93304,0.78162 -3.93305,0.78163 -2.3565,0.79786 -2.3565,0.79787 0.003,19.12304 0.003,19.12307 -19.193581,0.0372 -19.19358,0.0372 -0.77506,2.26851 -0.77505,2.2685 -0.81411,4.09074 -0.8141,4.09075 -0.16244,2.56601 c -0.0893,1.41131 -0.20853,3.18521 -0.26486,3.942 -0.0999,1.34154 -0.0959,1.47741 0.1599,5.42953 l 0.26231,4.05356 0.82041,4.09075 0.82039,4.09075 0.76948,2.26851 0.76948,2.2685 19.19541,0.0372 19.195401,0.0372 -0.003,19.1237 -0.003,19.12369 2.33345,0.78608 2.33344,0.78606 3.9561,0.79302 3.9561,0.79302 4.03075,0.28536 c 2.2169,0.15694 4.26587,0.2716 4.55324,0.25478 0.28738,-0.0168 2.1516,-0.13507 4.14271,-0.26278 z"
       id="path3842"
       inkscape:connector-curvature="0" />
  </g>
</svg>
